<svg id="Layer_1" data-name="Layer 1" xmlns="http://www.w3.org/2000/svg" viewBox="0 0 273.25 102.66"><defs><style>.cls-1{fill:#ec631c;}.cls-2{fill:#706f6f;}</style></defs><title>logo_arjes</title><path class="cls-1" d="M137.42,53.66h8.49l-.63-13.11h-.1l-7.76,13.11Zm5.63-22.77h9.67l3.9,36.57h-9.83l-.46-6.9H133.41l-4.15,6.9h-9.62l23.41-36.57Z" transform="translate(-8.38 -7.67)"/><path class="cls-1" d="M186.49,41.84c.48-1.88.22-3.3-.77-4.28s-2.61-1.46-4.86-1.46a15.68,15.68,0,0,0-2,.13l-1.66.23c-.58.11-1.1.21-1.54.31l-2.66,10h4.53a19.91,19.91,0,0,0,4-.38,7.42,7.42,0,0,0,3.1-1.41,5.85,5.85,0,0,0,1.84-3.13ZM185.57,53c.54,1.71,1.18,3.4,1.89,5.09s1.4,3.22,2,4.59c.75,1.61,2.26,4.82,2.26,4.82h-11c-.61-1.26-1.21-2.59-1.78-4-.48-1.22-1-2.61-1.5-4.16a33.85,33.85,0,0,1-1.25-4.93h-5.09l-3.52,13.11h-9.49l9.43-35.76c1.57-.41,3-.74,4.45-1s3.06-.46,5-.66a57.69,57.69,0,0,1,6.25-.31,20.65,20.65,0,0,1,6.3.85A10.4,10.4,0,0,1,193.84,33,7.63,7.63,0,0,1,196,36.87a10.26,10.26,0,0,1-.26,5,15.93,15.93,0,0,1-4,7.4A15.32,15.32,0,0,1,185.57,53Z" transform="translate(-8.38 -7.67)"/><path class="cls-1" d="M187.41,72.21a21.72,21.72,0,0,0,5.41-4.1,14.61,14.61,0,0,0,3.51-6.35l8.45-31.56h9.53l-8.66,32.33a24.3,24.3,0,0,1-2.23,5.28,23.86,23.86,0,0,1-3,4.22,24.12,24.12,0,0,1-3.71,3.36,43.21,43.21,0,0,1-4.18,2.71l-5.07-5.89Z" transform="translate(-8.38 -7.67)"/><polygon class="cls-1" points="212.42 22.54 241.5 22.54 239.67 29.43 220.06 29.43 218.03 37.02 235.97 37.02 234.09 43.92 216.14 43.92 213.96 52.2 234.06 52.2 232.21 59.79 202.51 59.79 212.42 22.54 212.42 22.54"/><path class="cls-1" d="M251,40.51a10.68,10.68,0,0,1,2.79-4.95,17.75,17.75,0,0,1,4.58-3.3,22.29,22.29,0,0,1,5.38-1.87A25.86,25.86,0,0,1,269,29.8a42.91,42.91,0,0,1,7.48.59,51.07,51.07,0,0,1,5.17,1.15c-.2.86-.4,1.6-.59,2.23l-.59,2c-.2.74-.39,1.41-.56,2s-.37,1.34-.61,2.16a8.53,8.53,0,0,0-2-1.21,24.06,24.06,0,0,0-2.84-1,26.23,26.23,0,0,0-3.2-.74,18.68,18.68,0,0,0-3.15-.28l-2,0a10.51,10.51,0,0,0-2.28.31,6.3,6.3,0,0,0-2,.92,3.06,3.06,0,0,0-1.23,1.82,1.77,1.77,0,0,0,.38,1.82,6.86,6.86,0,0,0,2,1.38,25.2,25.2,0,0,0,3,1.23c1.13.4,2.28.82,3.44,1.28a25.23,25.23,0,0,1,3.35,1.62,10.57,10.57,0,0,1,2.72,2.17,7,7,0,0,1,1.51,3,8.61,8.61,0,0,1-.21,4.1,13.56,13.56,0,0,1-2.61,5.2,15,15,0,0,1-4.33,3.59A20.35,20.35,0,0,1,264,67.25a32.9,32.9,0,0,1-6.71.67,47.58,47.58,0,0,1-5.76-.31c-1.63-.21-3-.43-4.05-.67a15.47,15.47,0,0,1-2.41-.69,8.05,8.05,0,0,0-.85-.33l.39-1.33c.12-.41.25-.88.38-1.41s.29-1.07.46-1.62c.38-1.29.77-2.76,1.18-4.4.55.31,1.27.68,2.15,1.12s1.86.88,2.9,1.29a23.67,23.67,0,0,0,3.28,1,14.32,14.32,0,0,0,3.3.41c.51,0,1.21,0,2.1-.08a13,13,0,0,0,2.67-.43,8.32,8.32,0,0,0,2.46-1.13,3.58,3.58,0,0,0,1.48-2.1,1.88,1.88,0,0,0-1-2.2,16.6,16.6,0,0,0-3.35-1.64l-4.46-1.69a18.06,18.06,0,0,1-4.3-2.33,8.84,8.84,0,0,1-2.85-3.54,8,8,0,0,1-.07-5.35Z" transform="translate(-8.38 -7.67)"/><path class="cls-1" d="M29.3,57.25s-3.58-33.2,20.75-41.07c1.65-.55.42.73.42.73S43.78,28,49.34,37.27C55.76,48,69.93,46.51,73,39.38l1.78-1.82s-10,19.93,6.29,28.71c0,0,1.1,3-3.84,8.8s-4.7,15.73-4.7,15.73S60.27,78.34,58.25,67.91c-.91-2.92-2.69-3.57-2.69-3.57s10.16-.79,10.37-7.19c.17-5.15.87-4.38-3.1-4s-8.31,6.16-10.64,9.17c-3.45,4.46-9.85,3-9.85,3s-3.18.06-5.88-4.37c-2-3.28-5.33-3-7.16-3.71Z" transform="translate(-8.38 -7.67)"/><path class="cls-1" d="M39.75,66.82s1.68,9,4.24,19.59c0,0-3.29-4.39-6.4-7.68s-3.48-5.67-3.48-5.67A27.32,27.32,0,0,1,33,62.27s.89,4.32,6.74,4.55Z" transform="translate(-8.38 -7.67)"/><path class="cls-1" d="M42,67.15A22.45,22.45,0,0,0,53.13,65s10.79,22,16.1,25.48c2.56,2,2.56,3.6,2.56,3.6A18.15,18.15,0,0,0,61.86,102a32.61,32.61,0,0,1-7.26-.89s-4.21-.94-4.94-3.5S43.26,79.1,42.52,70a16.5,16.5,0,0,0-.54-2.8Z" transform="translate(-8.38 -7.67)"/><path class="cls-1" d="M57.34,109.27a11.88,11.88,0,0,1-4.57-4.57c-2.29-4.37,1.28-1.46,1.28-1.46a15.75,15.75,0,0,0,8,.55c1.94-.42,2.56-2,3.3-3.11a9.72,9.72,0,0,1,8.86-4.76s5.77,5.49.65,10.61c0,0-1.83-6.77-4.76-3.84s-1.83,4.39-1.64,5.67-2.2,2.38-4.21,1.83a12.27,12.27,0,0,1-4.57-2.75c-.55-.54-3.48-2.37-3.48-.36s1.1,2.19,1.1,2.19Z" transform="translate(-8.38 -7.67)"/><path class="cls-2" d="M30.79,60.78s-.13-.24-1.06-.32-2.55-.84-5.81-5c-1.67-2.11-7.31-11.34-15.54-11.7l.73,1.1s1.64.36,3.66,3.47,4,6.47,8.23,15.55c4.12,8.9,10.73,9.35,10.73,9.35a74.4,74.4,0,0,1-1.28-7.76,11.08,11.08,0,0,1,.34-4.73Z" transform="translate(-8.38 -7.67)"/><path class="cls-2" d="M26.61,46.18s0-11.16,7-20.49c0,0-5.25-6.56,1.52-2a48.4,48.4,0,0,1,5.38-4.79S21.67,8,14.91,23.5c0,0,3.11-4,7.31-3.66A26.23,26.23,0,0,1,16,25.2c-3.11,1.64-.92,12,2.56,14A15.55,15.55,0,0,1,23.69,31s.73-.55-.19,1.28c0,0-4.2,8.41-2.19,11a8.62,8.62,0,0,0,5.3,2.93Z" transform="translate(-8.38 -7.67)"/><path class="cls-2" d="M53.68,16.36S44.35,28.8,54.23,39c7.3,6.5,15,.73,15,.73s4.57-4.2,5.48-5.3A4.41,4.41,0,0,1,77,33.11S83.86,24,90.52,26.65c0,0-3.76,3.05-4.26,5.87l.92.51s6.75,4.87,6.92,10.22c.18,5.67-3.82,9.46-6,8.15-2.74-1.65-5.86-4.13-5.15-12.72.68-8.23,4.57-11.2,4.57-11.2a.88.88,0,0,0-1,0c-.61.3-8.51,4.83-11.45,16.91-4.51,17.18,11.7,21.5,11.7,21.5s2.56-3.76,2.75-6.87c0,0,1.67.65.76,6.87,0,0,7.83.45,10.71-3.95,0,0-3.57-13,.09-7.13,1.58,2.53,2.52,4.76,3.43,5.31,0,0,6.41-5.67,6.69-10.79a18.18,18.18,0,0,0-7.6-6.59s-5.17-4,3.29-.37c4.75,2,5.07,2.57,5.25,3.48,0,0,1.89-14.73-5.25-21.87,0,0-7.13.65-10.24,5,0,0,.55-5.67,9-7.86,0,0-11.31-10.61-14.6-10.24s-8.08,6.76-9.36,10.06c0,0-1.6-3.64,4.91-11.34,0,0-10-3.48-15.15-1.1,0,0-4,7.41-2.38,13,.76,2.58,1.47,5.49,2.56,6.59,0,0-4-3.84-4.93-7.32s.85-10,2.16-12.07c0,0-13.37,1.73-13.19,9.78.19,8.3.46,11.25,2.84,13.45a17,17,0,0,0,5.08,3.29s-2.58,1.11-7-2.74c-3.79-3.34-3.84-11.89-2.93-16.1Z" transform="translate(-8.38 -7.67)"/><path class="cls-2" d="M121.28,90.91h2.9c1.39,0,2.06-1.2,2.06-2.52a2.06,2.06,0,0,0-2-2.31h-2.92v4.83Zm-.69,1.38v6.9h-1.37V84.7H124c2.44,0,3.3,1.81,3.3,3.61a3.11,3.11,0,0,1-2.52,3.32V91.4c1.74.27,2.37.85,2.47,3.86a22.77,22.77,0,0,0,.52,3.93h-2c-.55-1-.42-3-.59-5a2,2,0,0,0-2.28-1.91Z" transform="translate(-8.38 -7.67)"/><path class="cls-2" d="M135.41,93c0-2.89-.81-3.24-2-3.24-1,0-1.86.49-1.88,3.24Zm-3.63,1.38c0,2.67.72,3.19,1.93,3.19a1.7,1.7,0,0,0,1.66-1.81h1.71c0,2.12-1.33,3.08-3.33,3.08s-3.63-.6-3.63-4.82c0-2.8.32-5.1,3.63-5.1,2.72,0,3.4,1.49,3.4,4.65v.81Z" transform="translate(-8.38 -7.67)"/><path class="cls-2" d="M145,92.29c0-1.64-.77-2.07-1.38-2.07-1.24,0-2.09.59-2.09,3.31,0,3.24.41,4.4,2.09,4.4.37,0,1.5-.4,1.44-2.19h1.69a3.13,3.13,0,0,1-3.13,3.51c-2.11,0-3.79-.63-3.79-5,0-2.91.34-5.32,3.79-5.32,2,0,3.15,1.16,3,3.39Z" transform="translate(-8.38 -7.67)"/><polygon class="cls-2" points="144.24 89.45 144.28 89.45 146.71 81.17 148.44 81.17 143.9 94.97 142.22 94.97 143.34 91.19 139.95 81.17 141.8 81.17 144.24 89.45 144.24 89.45"/><path class="cls-2" d="M163.55,92.29c0-1.64-.77-2.07-1.38-2.07-1.24,0-2.09.59-2.09,3.31,0,3.24.41,4.4,2.09,4.4.37,0,1.5-.4,1.44-2.19h1.69a3.13,3.13,0,0,1-3.13,3.51c-2.11,0-3.79-.63-3.79-5,0-2.91.34-5.32,3.79-5.32,2,0,3.15,1.16,3.05,3.39Z" transform="translate(-8.38 -7.67)"/><polygon class="cls-2" points="161.2 91.52 159.82 91.52 159.82 77.03 161.2 77.03 161.2 91.14 161.2 91.52"/><path class="cls-2" d="M173.71,98.5h-1.38V88.84h1.38V98.5Zm-1.38-13.8h2.07v2.07h-2.07V84.7Z" transform="translate(-8.38 -7.67)"/><path class="cls-2" d="M182,99.19V92.31c0-1.06-.34-1.93-1.6-1.93-1.61,0-1.85,1.57-1.85,2.93V98.5h-1.38V90.94a7.82,7.82,0,0,1-.35-2.1h1.73v1.38h.08a2.68,2.68,0,0,1,2.72-1.53c2.18,0,2.72,1.33,2.72,3.37v7.13Z" transform="translate(-8.38 -7.67)"/><path class="cls-2" d="M190.11,90c-1.83,0-1.89,2.2-1.89,3.52,0,3.18.72,3.93,1.93,3.93,1.94,0,1.88-2.3,1.88-3.68s.1-3.77-1.92-3.77Zm2.23-1.18h1.38v11c-.12,2.22-1.59,2.75-3.77,2.75-1.65,0-3.15-.82-3-2.68h1.81a1.39,1.39,0,0,0,1.51,1.46c1.12,0,2.08-1.71,2.08-1.71V97.81h-.06a2.53,2.53,0,0,1-2.22,1.26c-2.73,0-3.27-2.36-3.27-5.35,0-4.64,2.33-4.94,3.15-4.94a2.43,2.43,0,0,1,2.36,1.44h0V88.84Z" transform="translate(-8.38 -7.67)"/><polygon class="cls-2" points="195 91.52 192.93 91.52 192.93 77.03 195 77.03 195 91.14 195 91.52"/><path class="cls-2" d="M211.66,99.19V92.31c0-1.06-.34-1.93-1.6-1.93-1.62,0-1.85,1.57-1.85,2.93V98.5h-1.38V90.94a4.19,4.19,0,0,1-.52-2.1h1.9v1.38h.08A2.67,2.67,0,0,1,211,88.69c2.17,0,2.72,1.33,2.72,3.37v7.13Z" transform="translate(-8.38 -7.67)"/><path class="cls-2" d="M221.31,99.19V92.31c0-1.06-.34-1.93-1.59-1.93-1.62,0-1.85,1.57-1.85,2.93V98.5h-1.38V90.94a7.11,7.11,0,0,1-.35-2.1h1.73v1.38H218a2.67,2.67,0,0,1,2.72-1.53c2.17,0,2.71,1.33,2.71,3.37v7.13Z" transform="translate(-8.38 -7.67)"/><path class="cls-2" d="M231.65,93.3c0-2.71-.85-3.3-2.09-3.3s-2.08.59-2.08,3.3c0,3.23.41,4.39,2.08,4.39s2.09-1.16,2.09-4.39Zm-5.86.69c0-2.91.33-5.31,3.77-5.31s3.78,2.4,3.78,5.31c0,4.39-1.67,5-3.78,5s-3.77-.62-3.77-5Z" transform="translate(-8.38 -7.67)"/><polygon class="cls-2" points="226.49 81.17 228.22 81.17 230.41 89.45 230.45 89.45 232.81 81.17 234.43 81.17 231.41 90.83 229.36 90.83 226.49 81.17 226.49 81.17"/><path class="cls-2" d="M246.1,95.86c0,1,.47,1.83,1.55,1.83s2.2-.61,2-3.82c-1.54,0-3.6-.12-3.6,2Zm3.5,1.26h-.18A2.36,2.36,0,0,1,247,98.7c-2,0-2.62-1.31-2.62-3.16,0-2.91,2.85-3,5-3,0-1.27.06-2.66-1.62-2.66a1.41,1.41,0,0,0-1.5,1.71h-1.7c.08-2.15,1.22-2.89,3.26-2.89,2.47,0,3.12,1.27,3.12,2.89v4.85l.53,2H249.6V97.12Z" transform="translate(-8.38 -7.67)"/><path class="cls-2" d="M254.43,88.84V87l1.38-.73v2.6h2.76v1.38H256.5V96.3c0,.63,0,1.43,1.38,1.43.11,0,.35,0,.69-.08v1.18c-.58,0-1.16.17-1.73.17-1.66,0-2.41-.68-2.41-1.92V90.22h-1.38V88.84h1.38Z" transform="translate(-8.38 -7.67)"/><path class="cls-2" d="M261.33,98.5H260V88.84h1.38V98.5ZM260,84.7H262v2.07H260V84.7Z" transform="translate(-8.38 -7.67)"/><path class="cls-2" d="M269.87,93.3c0-2.71-.85-3.3-2.09-3.3s-2.08.59-2.08,3.3c0,3.23.41,4.39,2.08,4.39s2.09-1.16,2.09-4.39ZM264,94c0-2.91.33-5.31,3.77-5.31s3.78,2.4,3.78,5.31c0,4.39-1.67,5-3.78,5S264,98.38,264,94Z" transform="translate(-8.38 -7.67)"/><path class="cls-2" d="M279.26,99.19V92.31c0-1.06-.34-1.93-1.6-1.93-1.61,0-1.85,1.57-1.85,2.93V98.5h-1.38V90.94a5.85,5.85,0,0,1-.41-2.1h1.79v1.38h.09a2.66,2.66,0,0,1,2.71-1.53c2.18,0,2.72,1.33,2.72,3.37v7.13Z" transform="translate(-8.38 -7.67)"/></svg>