<svg xmlns="http://www.w3.org/2000/svg" viewBox="0 0 252.3 74.24"><defs><style>.cls-1{fill:#004899;}.cls-2{fill:#194a9a;}</style></defs><title>logo_BAX</title><g id="bax"><path class="cls-1" d="M186.67,0h-25L149.9,21l-.05.09-1,1.76L135.73,0H110.46l23.27,35.55L123.5,51,104.33,0h-25L64.09,40.5c-2.52-2.67-6.19-4.6-11-5.76a18.32,18.32,0,0,0,8-5,16.61,16.61,0,0,0,4.11-11.3A17.21,17.21,0,0,0,59.43,5.32Q53.69,0,42.94,0H0V74.24H74.83L78.45,62h26l3.69,12.18-.05.08h25.62l14.66-23.85,1,1.63,1.27,2.06,12.39,20.16h25.78L163.56,36ZM23.14,15H33.27q5.22,0,7.32,1.82a6.37,6.37,0,0,1,2.1,5.07,6.73,6.73,0,0,1-2.1,5.34q-2.1,1.85-7.47,1.85h-10ZM43.2,56.19q-2.43,2.1-8.36,2.1H23.14v-15H34.79c4,0,6.83.66,8.43,2a6.55,6.55,0,0,1,2.41,5.29A7.1,7.1,0,0,1,43.2,56.19ZM83.43,45.93l8.11-26.69,8.19,26.69Z"/></g><g id="sign"><path class="cls-2" d="M217.45,2.27A34.85,34.85,0,1,0,252.3,37.12,34.85,34.85,0,0,0,217.45,2.27ZM188.1,37.12a29.37,29.37,0,0,1,38-28.06c-6.57,3.31-14,8.81-20.91,15.78s-12.48,14.34-15.79,20.93A29.79,29.79,0,0,1,188.1,37.12ZM198.91,63l17.75-24.66L191.5,56.43c.79-6.76,7.41-17.56,17.55-27.71s21.08-16.85,27.84-17.57L219,35.93l24.28-17.48c-1.12,6.79-7.64,17.24-17.47,27.07S205.7,61.79,198.91,63Zm18.54,3.5a29.46,29.46,0,0,1-8.61-1.27c6.56-3.3,13.89-8.79,20.89-15.8C240,39.12,244,35.12,246.06,30.55a29,29,0,0,1,.75,6.57A29.38,29.38,0,0,1,217.45,66.47Z"/></g></svg>