<svg xmlns="http://www.w3.org/2000/svg" id="Warstwa_1" data-name="Warstwa 1" viewBox="0 0 70 70">
    <defs>
        <style>
            .cls-1{fill:#0054a6;}
        </style>
    </defs>
    <title>
        logo_BAX_signOnly
    </title>
    <path d="M46.33,10.57A34.85,34.85,0,0,0,21.69,70.06h0A34.85,34.85,0,1,0,46.33,10.57ZM17,45.42A29.34,29.34,0,0,1,55,17.36c-6.57,3.3-14,8.81-20.91,15.77S21.58,47.48,18.27,54.06A29.34,29.34,0,0,1,17,45.42Zm3.4,19.31C21.17,58,27.79,47.16,37.93,37S59,20.17,65.77,19.44L47.93,44.23,72.2,26.75C71.08,33.54,64.56,44,54.73,53.82S34.59,70.09,27.79,71.26L45.54,46.61Zm26,10a29.52,29.52,0,0,1-8.61-1.28c6.56-3.29,13.89-8.79,20.9-15.79C68.89,47.42,72.89,43.42,75,38.85A29.37,29.37,0,0,1,46.33,74.77Z" class="cls-1" transform="translate(-11.49 -10.57)"/>
</svg>
