<svg xmlns="http://www.w3.org/2000/svg" viewBox="0 0 400 91">
  <defs>
    <style>
      .a {
        fill: #e30020;
      }
    </style>
  </defs>
  <title>logo_yanmar_textOnly</title>
  <g>
    <path class="a" d="M123.4,65.8,118.2,25c-.3-2.2-.5-3.8-4.8-3.8H91.7c-2.7,0-4,.1-5,1.9L62.9,66.4c-1,1.7-.2,3.2,1.5,3.2h14a3.8,3.8,0,0,0,3.9-2.1c1.3-2.4,2.6-5,3.6-7.2a.7.7,0,0,1,.6-.3h17.9a.5.5,0,0,1,.5.4l.7,6.3c.3,2.3,1.4,2.9,3.3,2.9h11.5C122.9,69.6,123.8,68.4,123.4,65.8ZM103.2,49.3H92.1c-.2,0-.4-.2-.3-.4l9.3-18.3c.2-.3.5-.4.6,0l2,18.2C103.7,49.1,103.6,49.3,103.2,49.3Z"/>
    <path class="a" d="M321.8,65.8,316.7,25c-.3-2.2-.6-3.8-4.8-3.8H290.2c-2.8,0-4.1.1-5.1,1.8L261.4,66.3c-1,1.8-.2,3.3,1.5,3.3h14a4,4,0,0,0,3.8-2.1l3.7-7.2a.5.5,0,0,1,.5-.3h18c.2,0,.5.2.5.4l.7,6.3c.2,2.3,1.4,2.9,3.2,2.9h11.6C321.4,69.6,322.2,68.4,321.8,65.8ZM301.6,49.2H290.5a.3.3,0,0,1-.3-.3l9.4-18.3c.1-.3.5-.4.5,0l2,18.1C302.2,49.1,302,49.2,301.6,49.2Z"/>
    <path class="a" d="M240,66.3l3.7-20.4c.2-1.1-.3-1.1-.7-.5L226,67.5a4.6,4.6,0,0,1-3.2,2.1h-4.2a2.5,2.5,0,0,1-2.3-1.7l-8.2-22.4c-.4-1-.7-.6-.8.2l-4,21.6a2.5,2.5,0,0,1-2.5,2.3H188.5c-1.8,0-2.6-.9-2.3-2.8l8.3-42.2c.6-2.7,2-3.4,4-3.4h13.6c2.4,0,4.2.5,4.8,2.3l7.2,19.4c.4.9.5.9,1.1.1l15.3-19.6a5,5,0,0,1,4.7-2.3h17c2.9,0,3.3,1.6,2.9,3.7l-8.2,42.7a2.7,2.7,0,0,1-2.8,2.2H242.4C239.9,69.7,239.7,68,240,66.3Z"/>
    <path class="a" d="M164.3,42.5l3.3-17.9c.5-2.7,1.9-3.3,4-3.3h10.6c2,0,3.4.8,2.9,3.5l-8.2,41.3c-.5,2.7-1.9,3.5-3.6,3.5h-8.5a3.8,3.8,0,0,1-3.5-1.7L149.8,48.4c-.2-.5-.4-.3-.5,0l-3.2,17.4c-.4,2.2-1,3.9-3.5,3.9H130.5c-2,0-2.8-1.1-2.4-3.1l8-42c.5-2.8,2-3.3,3.4-3.3h8.8c2.2,0,3.2.9,4.6,3.3l10.7,17.9C163.8,42.8,164.2,43,164.3,42.5Z"/>
    <path class="a" d="M372.9,21.1H339.1c-3.8,0-4.7.7-5.2,3.1l-8.3,42.4c-.3,1.9,0,2.8,2.3,2.9s11.5,0,12.6,0a2.9,2.9,0,0,0,3.2-2.4c1.1-4.7,2.4-12,2.7-13.6s.2-.9,1.6-.9h9.4c1.5,0,2.2.7,1.8,2.9L357.4,67c-.3,1.5.3,2.6,2.1,2.6s10.8.1,12.4,0,3.3-.6,3.8-3.6l1.9-10.6c.6-3.3.7-8-4.6-9.8-.3,0-.2-.3,0-.3,4.3-1.2,6-3.8,7.1-7a72.2,72.2,0,0,0,1.6-8.3C382.7,23.9,379,21.1,372.9,21.1Zm-9.4,12.7c-.1,1-.7,4.1-1.1,6s-1.4,2.7-4.6,2.7h-8.7c-.5,0-.6-.1-.5-.6l1.9-10.3c.1-.1.2-.3.4-.3,2.3,0,9.8-.1,10.6,0S363.6,32.2,363.5,33.8Z"/>
    <path class="a" d="M45.4,37.6,57.7,22.4a2.7,2.7,0,0,1,2.4-1.3H77c2.3,0,1.9,1.5,1.3,2.3L53.6,53.1a3.3,3.3,0,0,0-.4,1.3l-3,13.4c-.3,1.5-1.5,2.1-3.1,2.1H34.4c-2.6,0-2.8-1.5-2.4-3.2l2.3-11.9c.1-.4.2-.7,0-1L18.3,23c-.5-1,.2-1.9,1.6-1.9H34a3.1,3.1,0,0,1,3,1.5l7.3,15C44.6,38.3,45,38.1,45.4,37.6Z"/>
  </g>
</svg>
