<svg version="1.1" id="Livello_1" xmlns="http://www.w3.org/2000/svg" xmlns:xlink="http://www.w3.org/1999/xlink" x="0px" y="0px"
	 viewBox="0 0 285 82" style="enable-background:new 0 0 285 82;" xml:space="preserve">
<style type="text/css">
	.st0{fill:#FFCC00;}
	.st1{fill:#009EE0;}
	.st2{fill:#006AB3;}
	.st3{fill:#FDC400;}
</style>
<g>
	<g>
		<path class="st0" d="M60.4,46.4c-0.2,0.1-0.4,0.1-0.6,0.2c-3.5,0.8-6.9-0.7-8.8-2.8c-2.4-2.6-3.2-6.3-1.5-9.5
			c0.2-0.4,0.4-0.7,0.7-1.1c-1.5,0.8-2.5,2-3.2,3.2c-1.8,3.3-0.9,7.1,1.6,9.8c2.1,2.2,5.7,3.7,9.4,2.9c0.2,0,0.4-0.1,0.6-0.2
			c2.3-0.7,3.9-2.3,4.8-3.9c0.2-0.3,0.3-0.6,0.4-0.9C63,45.2,61.8,46,60.4,46.4z"/>
		<path class="st1" d="M63.4,30.4c-2.6-4.8-8-9.7-14.8-10.6c-1.9-0.3-3.7-0.2-5.4,0.2c-1,0.2-1.9,0.6-2.8,1.1
			c-2.3,1.3-3.7,3.4-4.3,5.6c-0.1,0.2-0.1,0.5-0.2,0.7c0.7-1,1.7-1.9,2.9-2.6c0.8-0.5,1.7-0.8,2.7-1c1.6-0.4,3.4-0.5,5.2-0.2
			c6.6,0.9,11.8,5.5,14.3,10c1.7,3.1,2.4,6.5,1.4,9.6c-0.3,0.8-0.6,1.6-1.1,2.4c1.8-1.3,3-3.1,3.5-5C65.8,37.3,65.1,33.6,63.4,30.4z
			"/>
		<path class="st2" d="M71.4,46.5c0,0-5.8,22.7-53.3-6.1c24.5,31.8,43.1,25.4,43.1,25.4c0.4-0.1,0.9-0.3,1.3-0.5
			c4.6-1.9,7.4-6.1,8.6-10.7C72.1,50.4,71.4,46.5,71.4,46.5z"/>
		<path class="st0" d="M53.7,53.9c-4.2-1-8.1-3.3-11.1-6c-6.3-5.8-9.8-14-7.8-20.9c0.7-2.2,1.9-4.4,3.8-6c-0.6,0.3-1.3,0.7-1.9,1.1
			c-3.2,2.2-5.2,5.6-6.1,9.3c-1.3,5.1-0.6,10.6,1.5,15.8C41.3,51.5,48.3,53.4,53.7,53.9z"/>
		<path class="st1" d="M31.2,55.9c-3.9-0.9-8.2-2.1-12.9-3.6c0,0,14.8,9.5,28.6,12.9C42.6,63.7,37.2,61,31.2,55.9z"/>
	</g>
	<g>
		<path class="st2" d="M196.6,40c0,0.1,0,0.1,0,0.2c0,2.4-2,4.4-4.4,4.4c-0.1,0-0.1,0-0.1,0l0,0l0,0h-19.1V24.2h24.3l0,0l0,0
			c0,0.1,0,0.1,0,0.2c0,2.4-2,4.4-4.4,4.4c-0.1,0-0.1,0-0.1,0l0,0h-13.6v3.6h15.2l0,0c0,0,0,0,0,0h0h0c0,0,0,0.1,0,0.1
			c0,2.2-1.8,4-4,4c0,0-0.1,0-0.1,0l0,0l0,0h-11.1V40h17.4L196.6,40z M88.2,32.3L88.2,32.3c0,2.3,1.9,4.1,4.2,4.1l0,0h4.1V40H85.3
			V28.8h13.7l0,0l0,0c2.5,0,4.5-2,4.5-4.5l-0.1,0l0.1-0.1H83.7l0,0c0,0-0.1,0-0.1,0c-2.5,0-4.5,2-4.5,4.5c0,0.1,0,0.1,0,0.2l0,0V40
			l0,0l0,0c0,2.5,2,4.5,4.5,4.5c0.1,0,0.1,0,0.1,0l0,0h14.4l0,0l0,0c2.5,0,4.5-2,4.5-4.5l0,0l0,0v-7.7L88.2,32.3L88.2,32.3z
			 M130.8,39.9V24.2l0,0l0,0c-3.4,0-6.2,2.8-6.2,6.2l0,0V40h-12.4v-9.7l0,0c0-3.4-2.8-6.1-6.2-6.1l0,0.2v15.5l0,0
			c0,2.5,2.1,4.6,4.6,4.6l0,0h15.4l0,0l0,0C128.8,44.5,130.9,42.4,130.8,39.9L130.8,39.9z M140.4,24.2h-6.1v20.3l0,0l0,0
			c3.3,0,6.1-2.7,6.1-6.1l0,0V24.2z M263.5,24.2h-6.1v20.3l0,0v0c3.3,0,6.1-2.7,6.1-6.1l0,0V24.2z M226.5,24.2L226.5,24.2l-27.3,0
			l0,0v0h0h0c0,0.1,0,0.1,0,0.2c0,2.4,2,4.4,4.4,4.4c0,0,0.1,0,0.1,0l0,0l0,0h6v15.8l0,0l0,0c3.3,0,6.1-2.7,6.1-6.1l0,0v-9.7h6l0,0
			l0,0c0,0,0.1,0,0.1,0c2.4,0,4.4-2,4.4-4.4C226.5,24.3,226.5,24.3,226.5,24.2z M255.7,24.2L255.7,24.2l-27.3,0l0,0v0h0h0
			c0,0.1,0,0.1,0,0.2c0,2.4,2,4.4,4.4,4.4c0,0,0.1,0,0.1,0l0,0l0,0h6v15.8l0,0l0,0c3.3,0,6.1-2.7,6.1-6.1l0,0v-9.7h6l0,0l0,0
			c0,0,0.1,0,0.1,0c2.4,0,4.4-2,4.4-4.4C255.7,24.3,255.7,24.3,255.7,24.2z M163.1,40H150V28.8h13.1L163.1,40z M163.3,44.6h0.7
			l0.6,0c0.1,0,0.1,0,0.1,0c2.5,0,4.5-2,4.5-4.5c0-0.1,0-11.3,0-11.4c0-2.5-2-4.5-4.5-4.5c-0.1,0-0.1,0-0.2,0l-1,0h-19.7v20.4H163.3
			"/>
		<rect x="88.6" y="49.4" class="st3"/>
		<g>
			<path class="st2" d="M104.7,61.8v-5.8h4.7c0.8,0,1.2,0.4,1.2,1.1v1.3c0,0.7-0.4,1.1-1.2,1.1h-0.8l2.6,2.3h-1.5l-2.3-2.3h-1.6v2.3
				H104.7z M108.9,56.8h-3.1v1.9h3.1c0.3,0,0.5-0.1,0.6-0.2c0-0.1,0.1-0.2,0.1-0.4v-0.7C109.6,57,109.3,56.8,108.9,56.8z"/>
			<path class="st2" d="M113.2,61.8v-5.8h5.9v0.9h-4.8v1.5h2.9v0.9h-2.9v1.8h4.8v0.9H113.2z"/>
			<path class="st2" d="M126.2,56.8h-4.1v4.1h4.1v-1.4l1.1,0.2v0.7c0,0.5-0.1,0.9-0.3,1.1c-0.2,0.2-0.6,0.3-1.1,0.3h-3.4
				c-0.6,0-0.9-0.1-1.1-0.3c-0.2-0.2-0.3-0.6-0.3-1.1v-3.1c0-0.5,0.1-0.9,0.3-1.1c0.2-0.2,0.6-0.3,1.1-0.3h3.4
				c0.6,0,0.9,0.1,1.1,0.3c0.2,0.2,0.3,0.6,0.3,1.1v0.6l-1.1,0.2V56.8z"/>
			<path class="st2" d="M131.7,61.8v-2.5l-3.1-3.3h1.3l2.3,2.5l2.2-2.5h1.3l-3,3.3v2.5H131.7z"/>
			<path class="st2" d="M142.5,56.8h-4.1v4.1h4.1v-1.4l1.1,0.2v0.7c0,0.5-0.1,0.9-0.3,1.1c-0.2,0.2-0.6,0.3-1.1,0.3h-3.4
				c-0.6,0-0.9-0.1-1.1-0.3c-0.2-0.2-0.3-0.6-0.3-1.1v-3.1c0-0.5,0.1-0.9,0.3-1.1c0.2-0.2,0.6-0.3,1.1-0.3h3.4
				c0.6,0,0.9,0.1,1.1,0.3c0.2,0.2,0.3,0.6,0.3,1.1v0.6l-1.1,0.2V56.8z"/>
			<path class="st2" d="M146,61.8v-5.8h1.1v5h4.6v0.9H146z"/>
			<path class="st2" d="M154.4,61.8h-1.1v-5.8h1.1V61.8z"/>
			<path class="st2" d="M158.1,57.1c0.1,0.3,0.1,0.7,0.1,1v3.6h-1v-5.8h0.8l4.3,3.8c0.3,0.2,0.5,0.5,0.7,0.8
				c-0.1-0.4-0.1-0.7-0.1-1.1v-3.5h1v5.8h-0.8l-4.4-3.9C158.5,57.6,158.2,57.4,158.1,57.1z"/>
			<path class="st2" d="M172.2,56.8h-4.6v4.1h4.6v-1.6h-2.4v-0.8h3.5v1.9c0,0.5-0.1,0.9-0.3,1.1c-0.2,0.2-0.6,0.3-1.1,0.3h-4
				c-0.6,0-0.9-0.1-1.1-0.3c-0.2-0.2-0.3-0.6-0.3-1.1v-3.1c0-0.5,0.1-0.9,0.3-1.1c0.2-0.2,0.6-0.3,1.1-0.3h4c0.5,0,0.9,0.1,1.1,0.3
				c0.2,0.2,0.3,0.5,0.3,1v0.2l-1.1,0.2V56.8z"/>
			<path class="st2" d="M186.1,56.8H182v1.5h3.8c0.6,0,0.9,0.1,1.1,0.3c0.2,0.2,0.3,0.6,0.3,1.1v0.7c0,0.5-0.1,0.9-0.3,1.1
				c-0.2,0.2-0.6,0.3-1.1,0.3h-3.6c-0.6,0-0.9-0.1-1.1-0.3c-0.2-0.2-0.3-0.6-0.3-1.1v-0.2l1-0.2v0.9h4.4v-1.6h-3.8
				c-0.6,0-0.9-0.1-1.1-0.3c-0.2-0.2-0.3-0.6-0.3-1.1v-0.6c0-0.5,0.1-0.9,0.3-1.1c0.2-0.2,0.6-0.3,1.1-0.3h3.3
				c0.5,0,0.9,0.1,1.1,0.3c0.2,0.2,0.3,0.5,0.3,1v0.1l-1,0.2V56.8z"/>
			<path class="st2" d="M191.7,61.8v-2.5l-3.1-3.3h1.3l2.3,2.5l2.2-2.5h1.3l-3,3.3v2.5H191.7z"/>
			<path class="st2" d="M202.6,56.8h-4.1v1.5h3.8c0.6,0,0.9,0.1,1.1,0.3c0.2,0.2,0.3,0.6,0.3,1.1v0.7c0,0.5-0.1,0.9-0.3,1.1
				c-0.2,0.2-0.6,0.3-1.1,0.3h-3.6c-0.6,0-0.9-0.1-1.1-0.3c-0.2-0.2-0.3-0.6-0.3-1.1v-0.2l1-0.2v0.9h4.4v-1.6h-3.8
				c-0.6,0-0.9-0.1-1.1-0.3c-0.2-0.2-0.3-0.6-0.3-1.1v-0.6c0-0.5,0.1-0.9,0.3-1.1c0.2-0.2,0.6-0.3,1.1-0.3h3.3
				c0.5,0,0.9,0.1,1.1,0.3c0.2,0.2,0.3,0.5,0.3,1v0.1l-1,0.2V56.8z"/>
			<path class="st2" d="M209.1,56.8v5H208v-5h-2.8v-0.9h6.6v0.9H209.1z"/>
			<path class="st2" d="M213.5,61.8v-5.8h5.9v0.9h-4.8v1.5h2.9v0.9h-2.9v1.8h4.8v0.9H213.5z"/>
			<path class="st2" d="M222.4,57l0,0.8v3.9h-0.9v-5.8h0.9l2.9,3.8l2.7-3.8h1v5.8h-1v-3.9c0-0.3,0-0.6,0.1-0.8
				c-0.1,0.4-0.3,0.6-0.4,0.8l-2.2,3h-0.3l-2.3-3C222.7,57.6,222.5,57.3,222.4,57z"/>
			<path class="st2" d="M236.9,56.8h-4.1v1.5h3.8c0.6,0,0.9,0.1,1.1,0.3c0.2,0.2,0.3,0.6,0.3,1.1v0.7c0,0.5-0.1,0.9-0.3,1.1
				c-0.2,0.2-0.6,0.3-1.1,0.3H233c-0.6,0-0.9-0.1-1.1-0.3c-0.2-0.2-0.3-0.6-0.3-1.1v-0.2l1-0.2v0.9h4.4v-1.6h-3.8
				c-0.6,0-0.9-0.1-1.1-0.3c-0.2-0.2-0.3-0.6-0.3-1.1v-0.6c0-0.5,0.1-0.9,0.3-1.1c0.2-0.2,0.6-0.3,1.1-0.3h3.3
				c0.5,0,0.9,0.1,1.1,0.3c0.2,0.2,0.3,0.5,0.3,1v0.1l-1,0.2V56.8z"/>
		</g>
	</g>
</g>
</svg>