<svg xmlns="http://www.w3.org/2000/svg" viewBox="0 0 297.3 67">
  <defs>
    <style>
      .a {
        fill: #1d1d1b;
        fill-rule: evenodd;
      }
    </style>
  </defs>
  <title>logo_sennebogen</title>
  <g>
    <polygon class="a" points="72.5 12.4 95.5 45.7 103.7 1.3 95 1.3 90.8 23.9 75.2 1.3 65.5 1.3 56.7 49.1 65.8 49.1 72.5 12.4"/>
    <path class="a" d="M195.2,28.1l-2.1,11.3a1.6,1.6,0,0,1-1.4,1.3h-10a1.5,1.5,0,0,1-1.4-1.9l2-11.3c.2-.6.6-1.2,1.3-1.2h10.2a1.5,1.5,0,0,1,1.4,1.8ZM200.5,18H179.6a4.7,4.7,0,0,0-4.6,3.5s-3.8,21-3.8,21.2a5,5,0,0,0,4.9,6.3h19.4c2.2,0,4.8-1.5,5.1-3.5L204.7,23s.1-.7.1-.9A4,4,0,0,0,200.5,18Z"/>
    <path class="a" d="M215.7,27.8c.2-.9.7-1.5,1.5-1.5h18.6l1.5-8.4H212.9a4.1,4.1,0,0,0-4.1,3.4l-.3,1.3-3.3,18.1-.6,3.2c0,.2-.1.5-.1.8a4.4,4.4,0,0,0,4.4,4.4h18.7a4.9,4.9,0,0,0,4.7-3.8l2.7-15H220.9l-1,5.5h6.6s-.1.7-.3,1.5a3.5,3.5,0,0,1-3.5,3.3h-7.6a1.4,1.4,0,0,1-1.4-1.6Z"/>
    <polygon class="a" points="97 53.7 74.3 20.7 66 65.7 74.9 65.7 79 43.5 94.3 65.7 104 65.7 112.8 17.9 103.6 17.9 97 53.7"/>
    <polygon class="a" points="260.9 40.7 245.3 40.7 246.1 36.7 261.6 36.7 262.7 30.3 247.2 30.3 247.9 26.3 263.5 26.3 265 17.9 240.9 17.9 235.2 49.1 259.3 49.1 260.9 40.7"/>
    <polygon class="a" points="136.3 40.7 120.8 40.7 121.5 36.7 137 36.7 138.2 30.3 122.8 30.3 123.5 26.3 138.9 26.3 140.4 17.9 116.4 17.9 110.6 49.1 134.8 49.1 136.3 40.7"/>
    <path class="a" d="M10.8,17.9a4.2,4.2,0,0,0-4.1,3.3v.3L4.8,31.7a2.8,2.8,0,0,0-.1.9,4.3,4.3,0,0,0,4.2,4.1h7.6a1.8,1.8,0,0,1,1.6,2,2,2,0,0,1-2.3,1.9H3.1L1.6,49.1H21.2a4.7,4.7,0,0,0,4.6-3.6s1.9-8.8,1.9-11.1a4.1,4.1,0,0,0-4.1-4.1H15.9c-1.3,0-1.7-.9-1.5-2.1a2.2,2.2,0,0,1,2.3-1.9H29.4l1.5-8.4Z"/>
    <polygon class="a" points="54.6 40.7 39 40.7 39.7 36.7 55.3 36.7 56.5 30.3 40.9 30.3 41.6 26.3 57.3 26.3 58.8 17.9 34.5 17.9 28.8 49.1 53.1 49.1 54.6 40.7"/>
    <polygon class="a" points="275.7 18 268.6 18 262.9 49.1 270.9 49.1 274.1 32.1 283.6 49.1 290.6 49.1 296.3 18 288.1 18 285.1 34.5 275.7 18"/>
    <path class="a" d="M161.8,28.3c-.3,1.3-1,2-2.1,2h-9.5l.7-4h9.6c.9,0,1.5.9,1.3,2Zm-1.9,10.4a2.1,2.1,0,0,1-2.1,1.9h-9.6l.8-3.9h9.5c1,0,1.5.9,1.4,2Zm7.3-20.8H144l-5.7,31.2h23.1c3.8,0,5.3-1.6,5.7-3.6,0,0,1.4-7.8,1.4-8a1.3,1.3,0,0,0,.1-.6,4,4,0,0,0-2.2-3.7,3.9,3.9,0,0,0,3.5-3.2v-.3l1.3-6.9v-.7A3.9,3.9,0,0,0,167.2,17.9Z"/>
  </g>
</svg>
