<svg id="69156f90-85eb-4de5-b53f-22743c429dc1" data-name="Warstwa 1" xmlns="http://www.w3.org/2000/svg" viewBox="0 0 73.2 71.7">
  <title>bax sign only white</title>
  <path d="M36.6,1A34.9,34.9,0,0,0,11.9,60.5h0A34.9,34.9,0,1,0,36.6,1ZM7.2,35.9A29.4,29.4,0,0,1,36.6,6.5a30.3,30.3,0,0,1,8.6,1.3c-6.6,3.3-13.9,8.8-20.9,15.8S11.8,37.9,8.5,44.5A31.4,31.4,0,0,1,7.2,35.9Zm3.4,19.3c.8-6.8,7.4-17.6,17.6-27.7S49.3,10.6,56,9.9L38.2,34.7,62.4,17.2C61.3,24,54.8,34.4,45,44.3S24.8,60.5,18,61.7L35.8,37.1Zm26,10A27.1,27.1,0,0,1,28,63.9c6.5-3.3,13.9-8.8,20.9-15.8C59.1,37.9,63.1,33.9,65.2,29.3a28.4,28.4,0,0,1,.7,6.6A29.3,29.3,0,0,1,36.6,65.2Z" fill="#fff" />
</svg>
