<svg xmlns="http://www.w3.org/2000/svg" viewBox="0 0 591 108">
  <defs>
    <style>
      .a {
        fill: #d80a35;
      }
    </style>
  </defs>
  <title>logo_yanmar</title>
  <g>
    <g>
      <path class="a" d="M292.1,74.3,287,33.5c-.3-2.2-.6-3.8-4.8-3.8H260.5c-2.8,0-4.1.1-5.1,1.9L231.7,74.9c-1.1,1.7-.2,3.2,1.5,3.2h14A3.7,3.7,0,0,0,251,76c1.3-2.4,2.6-5,3.7-7.2a.5.5,0,0,1,.5-.3h18c.2,0,.5.2.5.4l.7,6.3c.2,2.3,1.4,2.9,3.2,2.9h11.6C291.7,78.1,292.5,76.9,292.1,74.3ZM271.9,57.8H260.8c-.2,0-.3-.2-.3-.4l9.4-18.3c.1-.3.4-.4.5,0l2,18.2C272.5,57.6,272.3,57.8,271.9,57.8Z"/>
      <path class="a" d="M490.6,74.3l-5.2-40.8c-.3-2.2-.6-3.8-4.8-3.8H458.9c-2.7,0-4.1.1-5,1.8L430.1,74.8c-1,1.8-.2,3.3,1.5,3.3h14c1.9-.1,2.8-.5,3.8-2.1s2.7-5,3.7-7.2a.7.7,0,0,1,.6-.3h17.9a.5.5,0,0,1,.5.4l.7,6.3c.3,2.3,1.4,2.9,3.3,2.9h11.5C490.1,78.1,491,76.9,490.6,74.3ZM470.4,57.7H459.2c-.2,0-.3-.1-.2-.3l9.3-18.3c.1-.3.5-.4.6,0l2,18.1C470.9,57.6,470.7,57.7,470.4,57.7Z"/>
      <path class="a" d="M408.7,74.8l3.7-20.4c.3-1.1-.3-1.1-.7-.5L394.8,76a4.7,4.7,0,0,1-3.3,2.1h-4.1a2.7,2.7,0,0,1-2.4-1.7L376.8,54c-.3-1-.6-.6-.8.2l-3.9,21.6a2.7,2.7,0,0,1-2.5,2.3H357.2c-1.8,0-2.6-.9-2.2-2.7l8.3-42.3c.5-2.7,1.9-3.4,4-3.4h13.5c2.5,0,4.2.5,4.9,2.3l7.1,19.4c.4.9.5.9,1.1.1l15.3-19.6a5.1,5.1,0,0,1,4.7-2.3h17c3,0,3.4,1.6,3,3.7L425.7,76a2.7,2.7,0,0,1-2.8,2.2H411.2C408.6,78.2,408.4,76.5,408.7,74.8Z"/>
      <path class="a" d="M333,51l3.3-17.9c.5-2.7,1.9-3.3,4-3.3H351c2,0,3.4.8,2.8,3.5l-8.1,41.4c-.6,2.6-2,3.4-3.6,3.4h-8.5a3.7,3.7,0,0,1-3.5-1.7L318.6,56.9c-.3-.5-.5-.3-.6,0l-3.1,17.4c-.5,2.2-1.1,3.9-3.5,3.9H299.2c-2,0-2.7-1.1-2.3-3.1l7.9-42c.5-2.8,2-3.3,3.5-3.3h8.8c2.1,0,3.2.9,4.6,3.3L332.4,51C332.5,51.3,332.9,51.5,333,51Z"/>
      <path class="a" d="M541.7,29.6H507.8c-3.8,0-4.7.7-5.2,3.1l-8.2,42.4c-.4,1.9,0,2.8,2.3,2.9s11.5,0,12.5,0a2.9,2.9,0,0,0,3.2-2.4c1.1-4.7,2.5-12,2.8-13.6s.2-.9,1.5-.9h9.4c1.6,0,2.2.7,1.9,2.9l-1.9,11.4c-.2,1.5.4,2.6,2.2,2.6s10.8.1,12.3,0,3.3-.6,3.9-3.6l1.9-10.6c.6-3.3.6-8-4.7-9.8a.1.1,0,1,1,0-.3,9.5,9.5,0,0,0,7.1-7,71,71,0,0,0,1.7-8.3C551.5,32.4,547.7,29.6,541.7,29.6Zm-9.5,12.7a53,53,0,0,1-1.1,6c-.5,2.2-1.4,2.7-4.6,2.7h-8.6c-.6,0-.7-.1-.6-.6l2-10.3c0-.1.1-.3.4-.3h10.5C531.9,40,532.3,40.7,532.2,42.3Z"/>
      <path class="a" d="M214.1,46.1l12.4-15.2a2.5,2.5,0,0,1,2.4-1.3h16.8c2.4,0,2,1.5,1.4,2.3L222.3,61.6a3.3,3.3,0,0,0-.4,1.3L219,76.3c-.3,1.5-1.6,2.1-3.2,2.1H203.2c-2.6,0-2.8-1.5-2.5-3.2l2.4-11.9a1.1,1.1,0,0,0-.1-1L187,31.5c-.5-1,.3-1.9,1.6-1.9h14.2a3.1,3.1,0,0,1,2.9,1.5l7.3,15C213.4,46.8,213.7,46.6,214.1,46.1Z"/>
    </g>
    <g>
      <polygon class="a" points="104.8 84.5 162.5 60.6 162.5 46.1 104.8 70 104.8 84.5"/>
      <polygon class="a" points="101.4 48.8 40.4 23.5 40.4 38 101.4 63.3 162.5 38 162.5 23.5 101.4 48.8"/>
      <polygon class="a" points="40.4 60.6 98.1 84.5 98.1 70 40.4 46.1 40.4 60.6"/>
    </g>
  </g>
</svg>
