<?xml version="1.0" encoding="utf-8"?>
<!-- Generator: Adobe Illustrator 23.0.3, SVG Export Plug-In . SVG Version: 6.00 Build 0)  -->
<svg version="1.1" xmlns="http://www.w3.org/2000/svg" xmlns:xlink="http://www.w3.org/1999/xlink" x="0px" y="0px"
	 viewBox="0 0 1920 1080" enable-background="new 0 0 1920 1080" xml:space="preserve">
<g id="Layer_14">
	<rect x="-71" y="-32" fill="#82D0E3" width="2176" height="1170"/>
</g>
<g id="Layer_1" display="none">
	
		<image display="inline" overflow="visible" width="265" height="190" xlink:href="21746AE2.jpg"  transform="matrix(7.3321 0 0 7.3321 -11 -123.5472)">
	</image>
</g>
<g id="BGGG">
	<g id="Layer_28_copy">
		<g>
			<path fill="#FCBFB7" d="M569.9-240.4c0,0-49.6,18.2-45.8,83.6L514-135.5l28,118.6c0,0,2.5,24.3,11.4,42.6c0,0,2.5,31.9-1.3,39.5
				c0,0,71.2,13.7,104.3-38L706-27.6L569.9-240.4z"/>
			<path fill="#418EDD" d="M664,27.1c0,0-73.7,41-108.1,39.5l-2.5-38c0,0-63.6-16.7-82.6,38c0,0-26.7,100.3-21.6,158.1L884,243
				C884,243,809-7.8,664,27.1z"/>
			<path fill="#272F42" d="M561.7-245.7c0,0-19.1,57.8,14,85.1c0,0,1.3,35,35.6,44.1c0,0-20.3,77.5,0,101.8c0,0-2.5,27.4,52.1,41
				c0,0-12.7,25.8,6.4,59.3c0,0,72.5,15.2,94.1,0c0,0,54.7-36.5,69.9-18.2c0,0,10.2-80.6-52.1-107.9c0,0-3.8-89.7-61-106.4
				c0,0-14-123.1-86.5-111C634.2-257.9,575.7-265.5,561.7-245.7z"/>
			<path fill="#FAE7C3" d="M515.7-160.6c0,0,73.8,59.2,80.8,44.6c0,0,4.6,46.1-15.7,76.7l-53.4,25.8
				C527.5-13.4,459.4-47.6,515.7-160.6z"/>
		</g>
		<g>
			<path fill="#FCBFB7" d="M1294.9-171.6c0,0-43.4,14.8-40.1,67.9l-8.9,17.3l24.5,96.3c0,0,2.2,19.8,10,34.6c0,0,2.2,25.9-1.1,32.1
				c0,0,62.4,11.1,91.3-30.9l43.4-44.4L1294.9-171.6z"/>
			<path fill="#FAE7C3" d="M1377.3,45.7c0,0-64.6,33.3-94.7,32.1l-2.2-30.9c0,0-55.7-13.6-72.4,30.9c0,0-23.4,81.5-18.9,128.4
				L1570,221C1570,221,1504.3,17.3,1377.3,45.7z"/>
			<path fill="#F68C67" d="M1287.6-176c0,0-16.7,46.9,12.3,69.1c0,0,1.1,28.4,31.2,35.8c0,0-17.8,63,0,82.7c0,0-2.2,22.2,45.7,33.3
				c0,0-11.1,21,5.6,48.2c0,0,63.5,12.3,82.4,0c0,0,47.9-29.6,61.3-14.8c0,0,8.9-65.4-45.7-87.7c0,0-3.3-72.8-53.5-86.4
				c0,0-12.3-100-75.7-90.1C1351.1-185.8,1299.9-192,1287.6-176z"/>
			<path fill="#FAE7C3" d="M1247.4-106.8c0,0,64.6,48.1,70.8,36.3c0,0,4,37.4-13.7,62.3l-46.8,20.9
				C1257.7,12.7,1198.1-15.1,1247.4-106.8z"/>
		</g>
		<g id="Layer_8_copy">
			<g>
				<path fill="#F47B57" d="M1121.7-38.2c0,0-55.5-17.4-58.9-29.5c0,0,2.1-29.5,8.4-44.5l52.1-44.3c0,0-4.5-49.2,1.8-76.8
					c0,0,2.9-39.8-23.6-45.9l-87.9-3.9L968.9-211l35.2,57.3c0,0-16.7,57.9-35.5,60.1c0,0-36,19.7-57.1,15.7l-12.6,66.7l190.5,27.9
					L1121.7-38.2z"/>
				<path fill="#FEB7AF" d="M1084.3-52.5c0,0-90.5,23.6-143.5-35.2c0,0-157.1-65.3-188.4,370.5l422.4,134.7
					C1174.7,417.4,1234.9-49.5,1084.3-52.5z"/>
				<path fill="#FAE7C3" d="M1124.2-201.8c0,0-67.6,17.8-69.7,6.9c0,0-13.3,27.5-4.9,51.7l34.1,29.8
					C1083.7-113.4,1141.7-117.2,1124.2-201.8z"/>
				<path fill="#E0A35A" d="M1120.3-266.7c0,0-48.6,70.9-102.2,57.9c0,0-33-29.7-29.3,11.4c0,0-1.7,11.9,19.5,33.9
					c0,0-2,33.5-16.1,37c0,0-54.4-26.6-61.1-65.5c0,0-8.2-56.6,27.2-86.8C958.3-278.9,1037.3-361.5,1120.3-266.7z"/>
			</g>
		</g>
	</g>
</g>
<g id="Layer_8">
	<g>
		<path fill="#F47B57" d="M1151.7,922.8c0,0-55.5-17.4-58.9-29.5c0,0,2.1-29.5,8.4-44.5l52.1-44.3c0,0-4.5-49.2,1.8-76.8
			c0,0,2.9-39.8-23.6-45.9l-87.9-3.9L998.9,750l35.2,57.3c0,0-16.7,57.9-35.5,60.1c0,0-36,19.7-57.1,15.7l-12.6,66.7l190.5,27.9
			L1151.7,922.8z"/>
		<path fill="#FEB7AF" d="M1114.3,908.5c0,0-90.5,23.6-143.5-35.2c0,0-157.1-65.3-188.4,370.5l422.4,134.7
			C1204.7,1378.4,1264.9,911.5,1114.3,908.5z"/>
		<path fill="#FAE7C3" d="M1154.2,759.2c0,0-67.6,17.8-69.7,6.9c0,0-13.3,27.5-4.9,51.7l34.1,29.8
			C1113.7,847.6,1171.7,843.8,1154.2,759.2z"/>
		<path fill="#E0A35A" d="M1150.3,694.3c0,0-48.6,70.9-102.2,57.9c0,0-33-29.7-29.3,11.4c0,0-1.7,11.9,19.5,33.9c0,0-2,33.5-16.1,37
			c0,0-54.4-26.6-61.1-65.5c0,0-8.2-56.6,27.2-86.8C988.3,682.1,1067.3,599.5,1150.3,694.3z"/>
	</g>
</g>
<g id="Layer_9">
	<g>
		<path fill="#EDBC80" d="M741.6,13.9c0,0,10.6,27,5.8,58.9l13.5,18.3l-64.7,64.7c0,0-7.7,20.3,0,31.9l39.6,36.7l-84,57.9
			l-80.1-90.8c0,0,32,3.8,52.2-74.5l8.5-90.7l83.1-32.8L741.6,13.9z"/>
		<path fill="#7F3F13" d="M743,18.3c0,0-53.1-10.6-53.1,32.8c0,0-10.1,21.7-5.3,34.3h-15.5V65.1c0,0-22.2-17.4-25.1,0
			c0,0-6.8,24.1,6.8,36.7c0,0,0,10.6-8.7,10.6L622.8,124l-22.2-58.9c0,0-25.1-66.6,55-86c0,0,60.8-9.7,85,4.8
			C740.6-16,738.2,1.8,743,18.3z"/>
		<path fill="#FAE7C3" d="M760.9,85.4c0,0-66.6,10.6-67.6,0c0,0-15.5,25.1-9.7,49.3l29.9,31.9C713.6,166.5,769.6,168.4,760.9,85.4z"
			/>
		<path fill="#37C6ED" d="M697.1,184.9c0,0-14.9,48.7-41.5,55.3c-2.2,0.5-4.4,0.8-6.7,0.7c-30.9-1-70.5-41.5-75.3-50.2
			c0,0-107.2,23.2-121.7,65.7c0,0-53.1,141-14.5,281v17.4h428.8c0,0-15.5-255-46.4-305.2C819.8,249.6,768.6,198.4,697.1,184.9z"/>
	</g>
</g>
<g id="Layer_26">
	<g>
		<path fill="#F47B57" d="M494.7,16.8c0,0-55.4-17.4-58.9-29.5c0,0,2.1-29.5,8.4-44.5l52.1-44.3c0,0-4.5-49.2,1.8-76.8
			c0,0,2.9-39.8-23.6-45.9l-87.9-3.9L341.9-156l35.2,57.3c0,0-16.7,57.9-35.5,60.1c0,0-36,19.7-57.1,15.7l-12.6,66.7l190.5,27.9
			L494.7,16.8z"/>
		<path fill="#0754B2" d="M457.3,2.5c0,0-90.5,23.6-143.5-35.2c0,0-157.1-65.3-188.4,370.5l422.4,134.7
			C547.7,472.4,607.9,5.5,457.3,2.5z"/>
		<path fill="#FAE7C3" d="M497.2-146.8c0,0-67.6,17.8-69.7,6.9c0,0-13.3,27.5-4.9,51.7l34.1,29.8C456.7-58.4,514.7-62.2,497.2-146.8
			z"/>
		<path fill="#A05C12" d="M493.3-211.7c0,0-48.6,70.9-102.2,57.9c0,0-33-29.7-29.3,11.4c0,0-1.7,11.9,19.5,33.9
			c0,0,14.8,99.2,0.7,102.6c0,0-15.5,14.3-21,11c-12.5-7.5-77.8-3.7-89-24c-3-5.4,33.2-112,32.1-118.1c0,0-8.2-56.6,27.2-86.8
			C331.3-223.9,410.3-306.5,493.3-211.7z"/>
	</g>
	<g>
		<path fill="#F47B57" d="M868.3,265.8c0,0,55.5-17.4,58.9-29.5c0,0-2.1-29.5-8.4-44.5l-52.1-44.3c0,0,4.5-49.2-1.8-76.8
			c0,0-2.9-39.8,23.6-45.9l87.9-3.9L1021,93l-35.2,57.3c0,0,16.7,57.9,35.5,60.1c0,0,36,19.7,57.1,15.7l12.6,66.7l-190.5,27.9
			L868.3,265.8z"/>
		<path fill="#418EDD" d="M905.6,251.5c0,0,90.5,23.6,143.5-35.2c0,0,157.1-65.3,188.4,370.5L815.2,721.4
			C815.2,721.4,755,254.5,905.6,251.5z"/>
		<path fill="#FAE7C3" d="M865.8,102.2c0,0,67.6,17.8,69.7,6.9c0,0,13.3,27.5,4.9,51.7l-34.1,29.8
			C906.2,190.6,848.3,186.8,865.8,102.2z"/>
		<path fill="#D84C01" d="M869.7,37.3c0,0,48.6,70.9,102.2,57.9c0,0,33-29.7,29.3,11.4c0,0,1.7,11.9-19.5,33.9
			c0,0-28.7,76.2-14.7,79.6c0,0,33.5-1.7,39-5c12.5-7.5,50.8,18.3,62-2c3-5.4-10.2-95-9.2-101.1c0,0,8.2-56.6-27.2-86.8
			C1031.6,25.1,952.7-57.5,869.7,37.3z"/>
	</g>
</g>
<g id="Layer_29">
</g>
<g id="Layer_27">
	<g>
		<g>
			<path fill="#FCBFB7" d="M618.6,362.1c0,0-58.5-6.9-64.2-18.3c0,0-3.4-29.8,0-45.9l43.6-53.9c0,0-13.8-48.2-12.6-76.8
				c0,0-4.6-40.1-32.1-41.3l-88.3,12.6l-31,80.3l45.9,50.5c0,0-5.7,60.8-24.1,66.5c0,0-32.1,26.4-53.9,26.4v68.8l195-8L618.6,362.1z
				"/>
			<path fill="#1B160F" d="M599.6,355.8c0,0-121.6,55-193.8,0c0,0-160.6,2.3-129.6,299.3h475.9C752.2,655.2,733.8,351.2,599.6,355.8
				z"/>
			<path fill="#FAE7C3" d="M599.2,209.3c0,0-91.7,20.5-94.1,8c0,0-19,31.5-8.5,59.4l44.9,34.2C541.5,310.9,619.7,306.6,599.2,209.3z
				"/>
		</g>
		<path fill="#352E23" d="M571.6,135.1c0,0-32.7,65.9-79.7,61.4c0,0-31.5-21.2-23.5,13.2c0,0,0,10.3,20.6,26.4
			c0,0,2.3,28.7-9.2,33.3c0,0-49.3-16.1-59.6-48.2c0,0-13.8-47,12.6-76.8C432.8,144.2,489.8,64.7,571.6,135.1z"/>
	</g>
</g>
<g id="Layer_28">
	<g>
		<path fill="#A4321B" d="M813.3,831.3c0,0,43.8,13.5,40.4,61.7l9,15.7L838,996.3c0,0-2.2,18-10.1,31.4c0,0-2.2,23.6,1.1,29.2
			c0,0-62.9,10.1-92.1-28.1l-43.8-40.4L813.3,831.3z"/>
		<path fill="#FAE7C3" d="M730.2,1028.8c0,0,65.1,30.3,95.4,29.2l2.2-28.1c0,0,56.1-12.3,73,28.1c0,0,23.6,74.1,19.1,116.8
			L536,1188.3C536,1188.3,602.2,1003,730.2,1028.8z"/>
		<path fill="#F68C67" d="M820.6,827.3c0,0,16.8,42.7-12.3,62.9c0,0-1.1,25.8-31.4,32.6c0,0,18,57.3,0,75.2c0,0,2.2,20.2-46,30.3
			c0,0,11.2,19.1-5.6,43.8c0,0-64,11.2-83.1,0c0,0-48.3-26.9-61.7-13.5c0,0-9-59.5,46-79.7c0,0,3.4-66.2,53.9-78.6
			c0,0,12.3-90.9,76.3-82C756.6,818.4,808.2,812.7,820.6,827.3z"/>
		<path fill="#FAE7C3" d="M861.2,890.2c0,0-65.1,43.7-71.3,33c0,0-4.1,34,13.8,56.7l47.1,19C850.8,998.9,910.9,973.6,861.2,890.2z"
			/>
	</g>
</g>
<g id="Layer_11">
	<path fill="#FAE7C3" d="M-492.5-32.1c0,0-63.1,30-67.2,19.7c0,0-8,29.5,4.8,51.7l39.1,22.9C-515.8,62.3-459.6,47.8-492.5-32.1z"/>
</g>
<g id="Layer_15_copy">
	<g id="Layer_8_copy_2">
		<g>
			<path fill="#F47B57" d="M1639.3,23.8c0,0,55.4-17.4,58.9-29.5c0,0-2.1-29.5-8.4-44.5l-52.1-44.3c0,0,4.5-49.2-1.8-76.8
				c0,0-2.9-39.8,23.6-45.9l87.9-3.9L1792-149l-35.2,57.3c0,0,16.7,57.9,35.5,60.1c0,0,36,19.7,57.1,15.7l12.6,66.7l-190.5,27.9
				L1639.3,23.8z"/>
			<path fill="#FEB7AF" d="M1676.6,9.5c0,0,90.5,23.6,143.5-35.2c0,0,157.1-65.3,188.4,370.5l-422.4,134.7
				C1586.2,479.4,1526,12.5,1676.6,9.5z"/>
			<path fill="#FAE7C3" d="M1636.8-139.8c0,0,67.6,17.8,69.7,6.9c0,0,13.3,27.5,4.9,51.7l-34.1,29.8
				C1677.2-51.4,1619.3-55.2,1636.8-139.8z"/>
			<path fill="#E0A35A" d="M1640.7-204.7c0,0,48.6,70.9,102.2,57.9c0,0,33-29.7,29.3,11.4c0,0,1.7,11.9-19.5,33.9
				c0,0,2,33.5,16.1,37c0,0,54.4-26.6,61.1-65.5c0,0,8.2-56.6-27.2-86.8C1802.6-216.9,1723.7-299.5,1640.7-204.7z"/>
		</g>
	</g>
</g>
<g id="_x34_">
	<g>
		<g>
			<path fill="#CD4800" d="M1170,217.5c0,0,17-9.9,5-32.9c0,0-6-3.3-5-34l-34-54.9l-7-51.6c0,0,27-14.3,25-34c0,0,8-28.5,25-32.9
				l27.5-12.6l71.5,77.4l-23,88.9c0,0-5,57.1,45,65.9l18,51.6l-153,17.6L1170,217.5z"/>
			<path fill="#FAE7C3" d="M1128.9,42.3c0,0,59.5,43.8,65.1,33c0,0,3.7,34.1-12.6,56.8l-43,19.1
				C1138.3,151.2,1083.5,125.9,1128.9,42.3z"/>
			<path fill="#9E3400" d="M1182-22.9c0,0,20-8.8,30,0c0,0,15,53.8,0,71.3l-3,23.1h10V55.1c0,0,20-6.6,22-6.6c0,0,25,35.1,0,46.1v22
				c0,0,7,9.9,11,14.3c0,0,40-25.2,46-47.2c0,0,28-70.2-34-103.2c0,0-58-25.2-66-27.4C1198-47,1181-44.8,1182-22.9z"/>
		</g>
		<path fill="#1B160F" d="M1175.5,201.6c0,0,75.2,26.9,112.1-8.5c0,0,121.9,18.4,143.9,88.6c0,0,58,294.2,0,367.7l-443,28.5
			l29-368.8C1017.5,309.2,1042.5,212.6,1175.5,201.6z"/>
	</g>
</g>
<g id="Layer_6_copy_2">
	<g>
		<path fill="#A4321B" d="M1612.3-93.7c0,0,43.8,13.5,40.4,61.7l9,15.7L1637,71.3c0,0-2.2,18-10.1,31.4c0,0-2.2,23.6,1.1,29.2
			c0,0-62.9,10.1-92.1-28.1l-43.8-40.4L1612.3-93.7z"/>
		<path fill="#F68C67" d="M1529.2,103.8c0,0,65.1,30.3,95.4,29.2l2.2-28.1c0,0,56.1-12.3,73,28.1c0,0,26.6,194.3,22.1,237
			l-387-106.7C1335,263.3,1401.2,78,1529.2,103.8z"/>
		<path fill="#661404" d="M1619.6-97.7c0,0,16.8,42.7-12.3,62.9c0,0-1.1,25.8-31.4,32.6c0,0,18,57.3,0,75.2c0,0,2.2,20.2-46,30.3
			c0,0,11.2,19.1-5.6,43.8c0,0-64,11.2-83.1,0c0,0-48.3-26.9-61.7-13.5c0,0-9-59.5,46-79.7c0,0,3.4-66.2,53.9-78.6
			c0,0,12.3-90.9,76.3-82C1555.6-106.6,1607.2-112.3,1619.6-97.7z"/>
		<path fill="#FAE7C3" d="M1660.2-34.8c0,0-65.1,43.7-71.3,33c0,0-4.1,34,13.8,56.7l47.1,19C1649.8,73.9,1709.9,48.6,1660.2-34.8z"
			/>
	</g>
</g>
<g id="Layer_20">
	<g>
		<g>
			<path fill="#FFB8B5" d="M1453.5,232c11.5-51.5,0-148,0-148l101-52l20,52c0,0-6,19,0,42l-37,106
				C1537.5,232,1448.9,252.5,1453.5,232z"/>
			<path fill="#418EDD" d="M1453.5,204c0,0,76.6,16.2,82.3,10.6c5.7-5.6,78.7,26.4,78.7,26.4s130,139,107,342l-33,308l-480-52
				l114-574C1322.5,265,1438.5,201,1453.5,204z"/>
			<path fill="#CB4C0B" d="M1528.5,169c0,0,30,160,7,201h97c0,0-27-66-20-131C1612.5,239,1573.5,162,1528.5,169z"/>
			<path fill="#FAE7C3" d="M1575.9,107.6c0,0-63.3,16.7-65.3,6.5c0,0-12.5,25.7-4.6,48.5l32,27.9
				C1538,190.4,1592.3,186.9,1575.9,107.6z"/>
			<path fill="#D84C01" d="M1451.5,198c0,0,34-56,28-72c0,0-21-47,24-36c0,0,5,11,0,18c0,0,55-5,51-72c0,0,5,62,24,64
				c0,0,19-16-11-78c0,0-32-35-114,0c0,0-59,35-12,127C1441.5,149,1469.5,173,1451.5,198z"/>
		</g>
	</g>
</g>
<g id="Layer_21">
</g>
<g id="Layer_7">
	<g id="Layer_6_copy">
	</g>
</g>
<g id="mask_1_" display="none">
	<path display="inline" fill="#9D2800" d="M413,495.5c0,0-51-6-56-16c0,0-3-26,0-40l38-47c0,0-12-42-11-67c0,0-4-35-28-36l-77,11
		l-27,70l40,44c0,0-5,53-21,58c0,0-28,23-47,23v60l170-7L413,495.5z"/>
	<path display="inline" fill="#0754B2" d="M396.5,490c0,0-106,48-169,0c0,0-140,2-113,261h415C529.5,751,513.5,486,396.5,490z"/>
	<path display="inline" fill="#FAE7C3" d="M396.2,362.2c0,0-67.8,16.8-69.7,6c0,0-13.7,27.3-5.6,51.7l33.7,30.2
		C354.6,450.1,412.5,447.2,396.2,362.2z"/>
</g>
<g id="_x31_">
</g>
<g id="Layer_17">
</g>
<g id="_x33_">
</g>
<g id="Layer_12">
	<g id="_x31__copy">
	</g>
</g>
<g id="_x32_">
</g>
<g id="UP">
	<g>
		<path fill="#F37E5E" d="M-53.5,248.5c0,0,58.1-0.8,64.9-11.5c0,0,6.4-28.9,4.6-45l-37.3-57.3c0,0,18.4-45.9,20.2-74.1
			c0,0,8.6-38.9,35.7-37.3L120,44.5l22.3,81.9l-50.1,44.9c0,0-0.5,60.2,16.9,67.7c0,0,28.8,29.1,50.2,31.3l-7,67.5l-190.5-27.6
			L-53.5,248.5z"/>
		<path fill="#0754B2" d="M-13.5,245.4c0,0,80,48.5,147.6,7.2c0,0,169.2-17.7,74.9,408.8l-443.2,8.5
			C-234.3,670-158.7,205.3-13.5,245.4z"/>
		<path fill="#FAE7C3" d="M-9.1,91c0,0,59.7,36.3,64.8,26.5c0,0,4.9,30.1-10.1,51L4.4,187.3C4.4,187.3-50.1,167.1-9.1,91z"/>
		<path fill="#E0A35A" d="M57.2,110.5c0,0-4.3-16.5,1.2-31c0,0-8.7,6.1-17.9-1.8c0,0-4.9-10.6,1.8-17.9c0,0-19.5,4-18.8-13
			c0,0-9.6,5-8.3-6.9c0,0,2.2,8.3-8.6,15.2c0,0-3.6,24.8-8.8,27.2c0,0-19.6-15.1-15.8-31.8c0,0,9.3-41.3,27.4-41.4
			c0,0,18.4-32.3,34.4-21.6c0,0,25.1-19.5,45.8-5.3c0,0,27.7-5.2,41.3,9.3c0,0,31.9,12.3,31,21.3c0,0,32.9,12.4,28.5,26.1
			c0,0,19.6,24.1,15.2,37.8c0,0,13.7,13.5,2.7,32.4c0,0,5.9,30.8-7.3,31.4c0,0,1.7,32.3-15.5,33.6c0,0,0,19.1-21.5,22.9
			c0,0-4.8,15.4-17.9,20.4c-1.7,0.6-3.5,1.1-5.4,1.4c-17.3,2.2-29.1,9.1-42.7,4.6c0,0-10.2-8.1-10.3-27.2c0,0-16.3-7.7-16.8-21.8
			c0,0,0.6-6,3.2-11.7c2.6-5.8-10.9-1.1-10.9-1.1s4.1-20.7,27.8-26.3c0,0,20.2-40.1-12.4-35.5C78.4,99.6,57.2,100.4,57.2,110.5z"/>
	</g>
	<g id="Layer_21_copy">
		<g>
			<g>
				<path fill="#F27D62" d="M260,224c0,0-17-9-5-30c0,0,6-3,5-31l34-50l7-47c0,0-27-13-25-31c0,0-8-26-25-30L223.5-6.5L152,64l23,81
					c0,0,5,52-45,60l-18,47l153,16L260,224z"/>
				<path fill="#FAE7C3" d="M301.1,64.3c0,0-59.5,39.9-65.1,30.1c0,0-3.7,31.1,12.6,51.8l43,17.4
					C291.7,163.6,346.5,140.5,301.1,64.3z"/>
				<path fill="#3A1710" d="M248,5c0,0-9,8-19,16c0,0-26,33-11,49l3,21h-10c0,0,3-27-9-27c-5.7,0-11,6-13,6c0,0-25,32,0,42v20
					c0,0-7,9-11,13c0,0-40-23-46-43c0,0-14.6-33.4,0.6-63.2c3.9-7.6,5.8-27.2,14.4-33.8c4.3-3.3,16.3-8.2,22-11c0,0,14.3-3.9,33-11
					C213.8-21.5,249-15,248,5z"/>
			</g>
			<path fill="#418EDD" d="M254.5,209.5c0,0-75.2,24.5-112.1-7.7c0,0-121.9,16.7-143.9,80.7C-1.5,282.5-70,771-12,838l465-61
				l-40.5-469.5C412.5,307.5,387.5,219.5,254.5,209.5z"/>
		</g>
	</g>
	<g id="Layer_8_copy_3">
		<g>
			<path fill="#F37E5E" d="M571.2,440.6c0,0,60.9-15.5,78.8-84.4l6.5-95l84.7-29.7c0,0,44.2,22.1,38.8,62.8c0,0-12.9,13.2-5.3,30.6
				l-54.1,68.1c0,0-31.3,8.8-13.9,35.4l57.1,9.9l-16,89.8l-115.5,10.4L563,472.5L571.2,440.6z"/>
			<path fill="#F68C67" d="M748.2,420.7c0,0,30.9,87.6-97.7,75c0,0-40.7-0.9-61.3-62.3c0,0-66.6,13.5-75.9,54.5l-44.6,275.1
				l448.6-35.2l-83.3-257.6C833.9,470.3,798.1,418.2,748.2,420.7z"/>
			<path fill="#A52200" d="M764.4,248.3c0,0-19,58.1-58.6,48.1c0,0-25-37.8-37.3-5.1l1.1,21c0,0-8.6,37.8-18.5,39.3
				c0,0-56.2-51.5-2.5-116.4C648.6,235.3,708,183.1,764.4,248.3z"/>
			<path fill="#A52200" d="M723.6,381.8c0,0-49.1,29.5-9,51c0,0,2,61.1,19.6,89.6c0,0,9.1,12.2-9.1,21.9c0,0,81.9,0.7,48.4-70.6
				c0,0,34.4-64.3-4.6-73.9c0,0-25.4-19.8-35.3-18.9L723.6,381.8z"/>
			<path fill="#FAE7C3" d="M776.9,323.5c0,0-66,22.8-68.9,12.2c0,0-11.2,28.4-1,52l36.3,27.1C743.2,414.7,800.7,406.6,776.9,323.5z"
				/>
		</g>
		<g>
			<path fill="#842F18" d="M414.4,505.1c0,0-57.7-6.8-63.4-18.1c0,0-3.4-29.4,0-45.3l43-53.2c0,0-13.6-47.5-12.4-75.8
				c0,0-4.5-39.6-31.7-40.7l-87.1,12.4l-30.6,79.2l45.3,49.8c0,0-5.7,60-23.8,65.6c0,0-31.7,26-53.2,26V573l192.4-7.9L414.4,505.1z"
				/>
			<path fill="#0754B2" d="M375,498c0,0-84.5,40-147.5-8c0,0-166.5-35-116.5,399l440,54C551,943,523.5,473,375,498z"/>
			<path fill="#FAE7C3" d="M386.5,343.9c0,0-63.1,30-67.2,19.7c0,0-8,29.5,4.8,51.7l39.1,22.9C363.2,438.3,419.4,423.8,386.5,343.9z
				"/>
			<path fill="#271C19" d="M318.5,356.5c0,0,6-16,2-31c0,0,8,7,18,0c0,0,6-10,0-18c0,0,19,6,20-11c0,0,9,6,9-6c0,0-3,8,7,16
				c0,0,1,25,6,28c0,0,21-13,19-30c0,0-5-42-23-44c0,0-15-34-32-25c0,0-23-22-45-10c0,0-27-8-42,5c0,0-33,9-33,18c0,0-34,9-31,23
				c0,0-22,22-19,36c0,0-15,12-6,32c0,0-9,30,4,32c0,0-5,32,12,35c0,0-2,19,19,25c0,0,3.2,15.8,15.7,22.1c1.6,0.8,3.3,1.5,5.3,1.9
				c17,4,28,12,42,9c0,0,11-7,13-26c0,0,17-6,19-20c0,0,0-6-2-12s11,0,11,0s-2-21-25-29c0,0-16-42,16-34
				C298.5,343.5,319.5,346.5,318.5,356.5z"/>
		</g>
	</g>
	<g>
		<path fill="#F47B57" d="M1062.7,531.8c0,0-55.5-17.4-58.9-29.5c0,0,2.1-29.5,8.4-44.5l52.1-44.3c0,0-4.5-49.2,1.8-76.8
			c0,0,2.9-39.8-23.6-45.9l-87.9-3.9L909.9,359l35.2,57.3c0,0-16.7,57.9-35.5,60.1c0,0-36,19.7-57.1,15.7l-12.6,66.7l190.5,27.9
			L1062.7,531.8z"/>
		<path fill="#82D0E3" d="M1025.3,517.5c0,0-90.5,23.6-143.5-35.2c0,0-157.1-65.3-188.4,370.5l422.4,134.7
			C1115.7,987.4,1175.9,520.5,1025.3,517.5z"/>
		<path fill="#FAE7C3" d="M1065.2,368.2c0,0-67.6,17.8-69.7,6.9c0,0-13.3,27.5-4.9,51.7l34.1,29.8
			C1024.7,456.6,1082.7,452.8,1065.2,368.2z"/>
		<path fill="#A05C12" d="M1061.3,303.3c0,0-48.6,70.9-102.2,57.9c0,0-33-29.7-29.3,11.4c0,0-1.7,11.9,19.5,33.9
			c0,0,14.8,99.2,0.7,102.6c0,0-15.5,14.3-21,11c-12.5-7.5-77.8-3.7-89-24c-3-5.4,33.2-112,32.1-118.1c0,0-8.2-56.6,27.2-86.8
			C899.3,291.1,978.3,208.5,1061.3,303.3z"/>
	</g>
	<g>
		<path fill="#A4321B" d="M1245.2,237.3c0,0-43.8,13.5-40.4,61.7l-9,15.7l24.7,87.6c0,0,2.2,18,10.1,31.4c0,0,2.2,23.6-1.1,29.2
			c0,0,62.9,10.1,92.1-28.1l43.8-40.4L1245.2,237.3z"/>
		<path fill="#F68C67" d="M1328.3,440.8c0,0-65.1,30.3-95.4,29.2l-2.2-28.1c0,0-56.1-12.3-73,28.1c0,0-73.1,419.3-68.7,462l580-8
			C1669,924,1531,368,1328.3,440.8z"/>
		<path fill="#FAE7C3" d="M1197.3,302.2c0,0,65.1,43.7,71.3,33c0,0,4.1,34-13.8,56.7l-47.1,19
			C1207.7,410.9,1147.7,385.6,1197.3,302.2z"/>
		<path fill="#0050C7" d="M1249,232c171-54,117,139,117,139c1,49,74.8,91.6,74.8,91.6L1399,511l-20-31c7,21-89,93-89,93
			c-46,2-105-108-105-108c10-8,38.6-42.5,38.6-42.5C1315.2,371,1249,243,1249,243l-7-7L1249,232z"/>
	</g>
</g>
<g id="down">
	<g>
		<g>
			<path fill="#9D2800" d="M-6.5,577.5c0,0,51-6,56-16c0,0,3-26,0-40l-38-47c0,0,12-42,11-67c0,0,4-35,28-36l77,11l27,70l-40,44
				c0,0,5,53,21,58c0,0,28,23,47,23v60l-170-7L-6.5,577.5z"/>
			<path fill="#F68C67" d="M10,572c0,0,106,48,169,0c0,0,140,2,113,261h-415C-123,833-107,568,10,572z"/>
			<path fill="#FAE7C3" d="M10.4,444.2c0,0,79.9,17.9,82,7c0,0,16.5,27.5,7.4,51.8l-39.1,29.8C60.7,532.8-7.5,529,10.4,444.2z"/>
		</g>
		<path fill="#352E23" d="M34.5,379.5c0,0,28.5,57.5,69.5,53.5c0,0,27.5-18.5,20.5,11.5c0,0,0,9-18,23c0,0-2,25,8,29
			c0,0,43-14,52-42c0,0,12-41-11-67C155.5,387.5,105.8,318.1,34.5,379.5z"/>
	</g>
	<g>
		<path fill="#842F18" d="M414.4,505.1c0,0-57.7-6.8-63.4-18.1c0,0-3.4-29.4,0-45.3l43-53.2c0,0-13.6-47.5-12.4-75.8
			c0,0-4.5-39.6-31.7-40.7l-87.1,12.4l-30.6,79.2l45.3,49.8c0,0-5.7,60-23.8,65.6c0,0-31.7,26-53.2,26V573l192.4-7.9L414.4,505.1z"
			/>
		<path fill="#0754B2" d="M375,498c0,0-84.5,40-147.5-8c0,0-166.5-35-116.5,399l440,54C551,943,523.5,473,375,498z"/>
		<path fill="#FAE7C3" d="M386.5,343.9c0,0-63.1,30-67.2,19.7c0,0-8,29.5,4.8,51.7l39.1,22.9C363.2,438.3,419.4,423.8,386.5,343.9z"
			/>
		<path fill="#271C19" d="M318.5,356.5c0,0,6-16,2-31c0,0,8,7,18,0c0,0,6-10,0-18c0,0,19,6,20-11c0,0,9,6,9-6c0,0-3,8,7,16
			c0,0,1,25,6,28c0,0,21-13,19-30c0,0-5-42-23-44c0,0-15-34-32-25c0,0-23-22-45-10c0,0-27-8-42,5c0,0-33,9-33,18c0,0-34,9-31,23
			c0,0-22,22-19,36c0,0-15,12-6,32c0,0-9,30,4,32c0,0-5,32,12,35c0,0-2,19,19,25c0,0,3.2,15.8,15.7,22.1c1.6,0.8,3.3,1.5,5.3,1.9
			c17,4,28,12,42,9c0,0,11-7,13-26c0,0,17-6,19-20c0,0,0-6-2-12s11,0,11,0s-2-21-25-29c0,0-16-42,16-34
			C298.5,343.5,319.5,346.5,318.5,356.5z"/>
	</g>
	<path fill="#FAE7C3" d="M242.2,750.2c0,0,67.8,16.8,69.7,6c0,0,13.7,27.3,5.6,51.7l-33.7,30.2C283.9,838.1,225.9,835.2,242.2,750.2
		z"/>
	<g>
		<path fill="#935B4C" d="M1898,296.5c0,0-51-6-56-16c0,0-3-26,0-40l38-47c0,0-12-42-11-67c0,0-4-35-28-36l-77,11l-27,70l40,44
			c0,0-5,53-21,58c0,0-28,23-47,23v60l170-7L1898,296.5z"/>
		<path fill="#352E23" d="M1848,93.5c0,0-51,34-35,76c0,0-13,5-14-13c0,0-35-11-28,27c0,0,10,14,7,30c0,0-56-7-51-74c0,0,6-33,9-36
			c0,0-60,9-47-59c0,0,59-68,79,32C1768,76.5,1820,69.5,1848,93.5z"/>
		<path fill="#0754B2" d="M1881.5,291c0,0-106,86.1-169,0c0,0-140,3.6-113,468h415C2014.5,759,1998.5,283.9,1881.5,291z"/>
		<path fill="#FAE7C3" d="M1881.2,163.2c0,0-67.8,16.8-69.7,6c0,0-13.7,27.3-5.6,51.7l33.7,30.2
			C1839.6,251.1,1897.5,248.2,1881.2,163.2z"/>
	</g>
	<g>
		<g>
			<path fill="#D88C6A" d="M1760,714c0,0,17-9,5-30c0,0-6-3-5-31l-34-50l-7-47c0,0,27-13,25-31c0,0,8-26,25-30l27.5-11.5L1868,554
				l-23,81c0,0-5,52,45,60l18,47l-153,16L1760,714z"/>
			<path fill="#FAE7C3" d="M1718.9,554.3c0,0,59.5,39.9,65.1,30.1c0,0,3.7,31.1-12.6,51.8l-43,17.4
				C1728.3,653.6,1673.5,630.5,1718.9,554.3z"/>
			<path fill="#F29E3B" d="M1772,495c0,0,20-8,30,0c0,0,15,49,0,65l-3,21h10v-15c0,0,20-6,22-6c0,0,25,32,0,42v20c0,0,7,9,11,13
				c0,0,40-23,46-43c0,0,28-64-34-94c0,0-58-23-66-25C1788,473,1771,475,1772,495z"/>
		</g>
		<path fill="#416CE5" d="M1765.5,699.5c0,0,75.2,24.5,112.1-7.7c0,0,121.9,16.7,143.9,80.7c0,0,58,268,0,335l-443,26l29-336
			C1607.5,797.5,1632.5,709.5,1765.5,699.5z"/>
	</g>
	<g id="Layer_19">
		<g>
			<path fill="#9D2800" d="M1239.5,831.5c0,0,51-6,56-16c0,0,3-26,0-40l-38-47c0,0,12-42,11-67c0,0,4-35,28-36l77,11l27,70l-40,44
				c0,0,5,53,21,58c0,0,28,23,47,23v60l-170-7L1239.5,831.5z"/>
			<path fill="#352E23" d="M1289.5,628.5c0,0,51,34,35,76c0,0,13,5,14-13c0,0,35-11,28,27c0,0-10,14-7,30c0,0,56-7,51-74
				c0,0-6-33-9-36c0,0,60,9,47-59c0,0-59-68-79,32C1369.5,611.5,1317.5,604.5,1289.5,628.5z"/>
			<path fill="#0754B2" d="M1256,826c0,0,106,48,169,0c0,0,140,2,113,261h-415C1123,1087,1139,822,1256,826z"/>
			<path fill="#FAE7C3" d="M1256.2,698.2c0,0,67.8,16.8,69.7,6c0,0,13.7,27.3,5.6,51.7l-33.7,30.2
				C1297.9,786.1,1239.9,783.2,1256.2,698.2z"/>
		</g>
	</g>
	<g>
		<path fill="#FCBFB7" d="M1514.9,698.5c0,0-49.6,15.3-45.8,69.9l-10.2,17.8l28,99.2c0,0,2.5,20.3,11.4,35.6c0,0,2.5,26.7-1.3,33.1
			c0,0,71.2,11.4,104.3-31.8l49.6-45.8L1514.9,698.5z"/>
		<path fill="#418EDD" d="M1609,922.3c0,0-73.7,34.3-108.1,33.1l-2.5-31.8c0,0-63.6-14-82.6,31.8c0,0-26.7,83.9-21.6,132.2
			l434.8,15.3C1829,1102.9,1754,893.1,1609,922.3z"/>
		<path fill="#272F42" d="M1506.7,694.1c0,0-19.1,48.3,14,71.2c0,0,1.3,29.2,35.6,36.9c0,0-20.3,64.8,0,85.2c0,0-2.5,22.9,52.1,34.3
			c0,0-12.7,21.6,6.4,49.6c0,0,72.5,12.7,94.1,0c0,0,54.7-30.5,69.9-15.3c0,0,10.2-67.4-52.1-90.3c0,0-3.8-75-61-89
			c0,0-14-103-86.5-92.8C1579.2,683.9,1520.7,677.5,1506.7,694.1z"/>
		<path fill="#FAE7C3" d="M1460.7,765.3c0,0,73.8,49.5,80.8,37.3c0,0,4.6,38.5-15.7,64.2l-53.4,21.5
			C1472.5,888.4,1404.4,859.7,1460.7,765.3z"/>
	</g>
	<g>
		<path fill="#F5B4AA" d="M544.5,526.5c0,0-11,28-6,61l-14,19l67,67c0,0,8,21,0,33l-41,38l87,60l84-98c0,0-36,8-57-73l-7-94l-86-34
			L544.5,526.5z"/>
		<path fill="#292722" d="M543,531c0,0,55-11,55,34c0,0,10.5,22.5,5.5,35.5h16v-21c0,0,23-18,26,0c0,0,7,25-7,38c0,0,0,11,9,11
			l20,12l23-61c0,0,26-69-57-89c0,0-63-10-88,5C545.5,495.5,548,514,543,531z"/>
		<path fill="#211F1B" d="M590.5,703.5c0,0,15.4,50.5,43,57.3c2.2,0.6,4.6,0.8,7,0.7c32-1,73-43,78-52c0,0,111,24,126,68
			c0,0,55,146,15,291v18h-444c0,0,16-264,48-316C463.5,770.5,516.5,717.5,590.5,703.5z"/>
		<path fill="#FAE7C3" d="M524.5,600.5c0,0,69,11,70,0c0,0,16,26,10,51l-31,33C573.5,684.5,515.5,686.5,524.5,600.5z"/>
	</g>
	<g>
		<path fill="#F47B57" d="M1151.7,922.8c0,0-55.5-17.4-58.9-29.5c0,0,2.1-29.5,8.4-44.5l52.1-44.3c0,0-4.5-49.2,1.8-76.8
			c0,0,2.9-39.8-23.6-45.9l-87.9-3.9L998.9,750l35.2,57.3c0,0-16.7,57.9-35.5,60.1c0,0-36,19.7-57.1,15.7l-12.6,66.7l190.5,27.9
			L1151.7,922.8z"/>
		<path fill="#FEB7AF" d="M1114.3,908.5c0,0-90.5,23.6-143.5-35.2c0,0-157.1-65.3-188.4,370.5l422.4,134.7
			C1204.7,1378.4,1264.9,911.5,1114.3,908.5z"/>
		<path fill="#FAE7C3" d="M1154.2,759.2c0,0-67.6,17.8-69.7,6.9c0,0-13.3,27.5-4.9,51.7l34.1,29.8
			C1113.7,847.6,1171.7,843.8,1154.2,759.2z"/>
		<path fill="#E0A35A" d="M1150.3,694.3c0,0-48.6,70.9-102.2,57.9c0,0-33-29.7-29.3,11.4c0,0-1.7,11.9,19.5,33.9c0,0-2,33.5-16.1,37
			c0,0-54.4-26.6-61.1-65.5c0,0-8.2-56.6,27.2-86.8C988.3,682.1,1067.3,599.5,1150.3,694.3z"/>
	</g>
	<g>
		<path fill="#EDBC80" d="M129.9,667.1c0,0,9.6,24.3,5.2,53l12.2,16.5L89,794.9c0,0-7,18.2,0,28.7l35.6,33L49,908.7L-23,827
			c0,0,28.8,3.4,47-67l7.7-81.6l74.7-29.5L129.9,667.1z"/>
		<path fill="#7F3F13" d="M131.2,671c0,0-47.8-9.6-47.8,29.5c0,0-9.1,19.6-4.8,30.8H64.7v-18.2c0,0-20-15.6-22.6,0
			c0,0-6.1,21.7,6.1,33c0,0,0,9.6-7.8,9.6L23,766.2l-20-53c0,0-22.6-60,49.5-77.3c0,0,54.7-8.7,76.5,4.3
			C129,640.2,126.8,656.3,131.2,671z"/>
		<path fill="#FAE7C3" d="M147.2,731.4c0,0-60,9.6-60.8,0c0,0-13.9,22.6-8.7,44.3l26.9,28.7C104.7,804.4,155.1,806.2,147.2,731.4z"
			/>
		<path fill="#37C6ED" d="M89.9,820.9c0,0-13.4,43.8-37.4,49.8c-2,0.5-4,0.7-6.1,0.6C18.6,870.5-17,834-21.3,826.1
			c0,0-96.5,20.9-109.5,59.1c0,0-47.8,126.9-13,252.9v15.6H242c0,0-13.9-229.4-41.7-274.6C200.2,879.1,154.2,833.1,89.9,820.9z"/>
	</g>
	<g>
		<path fill="#BF3F00" d="M457.5,848.5c0,0-62-10-86-77l-15-94l-87-22c0,0-42,26-33,66c0,0,14,12,8,30l60,63c0,0,32,6,17,34l-56,15
			l24,88h116l63-72L457.5,848.5z"/>
		<path fill="#87CADC" d="M279.5,844.5c0,0-23,90,104,66c0,0,40.5-4.5,55.5-67.5c0,0,67.5,7.5,80.5,47.5l69,270l-450,5l60-264
			C198.5,901.5,229.5,846.5,279.5,844.5z"/>
		<path fill="#9E2D07" d="M247.9,674.2c0,0,24.1,56.1,62.7,42.7c0,0,21.5-39.8,36.7-8.4l0.8,21c0,0,11.9,36.9,21.9,37.5
			c0,0,51.4-56.3-7.9-116.1C362.1,650.9,298.3,604.3,247.9,674.2z"/>
		<path fill="#9E2D07" d="M300.5,803.5c0,0,51,25,13,50c0,0,6,34-24,45c0,0,28,16,13,46c0,0-8,13,11,21c0,0-73,11-46-63
			c0,0-33-46,5-59c0,0,8-40,18-40H300.5z"/>
		<path fill="#FAE7C3" d="M242.2,750.2c0,0,67.8,16.8,69.7,6c0,0,13.7,27.3,5.6,51.7l-33.7,30.2
			C283.9,838.1,225.9,835.2,242.2,750.2z"/>
	</g>
	<g>
		<path fill="#A4321B" d="M813.3,831.3c0,0,43.8,13.5,40.4,61.7l9,15.7L838,996.3c0,0-2.2,18-10.1,31.4c0,0-2.2,23.6,1.1,29.2
			c0,0-62.9,10.1-92.1-28.1l-43.8-40.4L813.3,831.3z"/>
		<path fill="#FAE7C3" d="M730.2,1028.8c0,0,65.1,30.3,95.4,29.2l2.2-28.1c0,0,56.1-12.3,73,28.1c0,0,23.6,74.1,19.1,116.8
			L536,1188.3C536,1188.3,602.2,1003,730.2,1028.8z"/>
		<path fill="#F68C67" d="M820.6,827.3c0,0,16.8,42.7-12.3,62.9c0,0-1.1,25.8-31.4,32.6c0,0,18,57.3,0,75.2c0,0,2.2,20.2-46,30.3
			c0,0,11.2,19.1-5.6,43.8c0,0-64,11.2-83.1,0c0,0-48.3-26.9-61.7-13.5c0,0-9-59.5,46-79.7c0,0,3.4-66.2,53.9-78.6
			c0,0,12.3-90.9,76.3-82C756.6,818.4,808.2,812.7,820.6,827.3z"/>
		<path fill="#FAE7C3" d="M861.2,890.2c0,0-65.1,43.7-71.3,33c0,0-4.1,34,13.8,56.7l47.1,19C850.8,998.9,910.9,973.6,861.2,890.2z"
			/>
	</g>
</g>
</svg>
