<svg id="background_1" data-name="background 1" xmlns="http://www.w3.org/2000/svg" xmlns:xlink="http://www.w3.org/1999/xlink" viewBox="0 0 1920 1080"><defs><style>.cls-1{opacity:0.6;filter:url(#AI_GaussianBlur_4);}.cls-10,.cls-11,.cls-12,.cls-13,.cls-14,.cls-15,.cls-16,.cls-17,.cls-18,.cls-19,.cls-2,.cls-20,.cls-21,.cls-22,.cls-23,.cls-24,.cls-25,.cls-26,.cls-27,.cls-28,.cls-29,.cls-3,.cls-30,.cls-31,.cls-32,.cls-33,.cls-4,.cls-5,.cls-6,.cls-7,.cls-8,.cls-9{fill:none;stroke-miterlimit:10;}.cls-2{stroke:url(#linear-gradient);}.cls-3{stroke:url(#linear-gradient-2);}.cls-4{stroke:url(#linear-gradient-3);}.cls-5{stroke:url(#linear-gradient-4);}.cls-6{stroke:url(#linear-gradient-5);}.cls-7{stroke:url(#linear-gradient-6);}.cls-8{stroke:url(#linear-gradient-7);}.cls-9{stroke:url(#linear-gradient-8);}.cls-10{stroke:url(#linear-gradient-9);}.cls-11{stroke:url(#linear-gradient-10);}.cls-12{stroke:url(#linear-gradient-11);}.cls-13{stroke:url(#linear-gradient-12);}.cls-14{stroke:url(#linear-gradient-13);}.cls-15{stroke:url(#linear-gradient-14);}.cls-16{stroke:url(#linear-gradient-15);}.cls-17{stroke:url(#linear-gradient-16);}.cls-18{stroke:url(#linear-gradient-17);}.cls-19{stroke:url(#linear-gradient-18);}.cls-20{stroke:url(#linear-gradient-19);}.cls-21{stroke:url(#linear-gradient-20);}.cls-22{stroke:url(#linear-gradient-21);}.cls-23{stroke:url(#linear-gradient-22);}.cls-24{stroke:url(#linear-gradient-23);}.cls-25{stroke:url(#linear-gradient-24);}.cls-26{stroke:url(#linear-gradient-25);}.cls-27{stroke:url(#linear-gradient-26);}.cls-28{stroke:url(#linear-gradient-27);}.cls-29{stroke:url(#linear-gradient-28);}.cls-30{stroke:url(#linear-gradient-29);}.cls-31{stroke:url(#linear-gradient-30);}.cls-32{stroke:url(#linear-gradient-31);}.cls-33{stroke:url(#linear-gradient-32);}</style><filter id="AI_GaussianBlur_4" name="AI_GaussianBlur_4"><feGaussianBlur stdDeviation="4"/></filter><linearGradient id="linear-gradient" x1="-979.49" y1="215.78" x2="675.21" y2="10.64" gradientUnits="userSpaceOnUse"><stop offset="0.01" stop-color="#fff"/><stop offset="0.5" stop-color="blue" stop-opacity="0.8"/><stop offset="1" stop-color="#fff"/></linearGradient><linearGradient id="linear-gradient-2" x1="-908.29" y1="243.31" x2="746.41" y2="38.18" xlink:href="#linear-gradient"/><linearGradient id="linear-gradient-3" x1="-837.09" y1="270.85" x2="817.61" y2="65.71" xlink:href="#linear-gradient"/><linearGradient id="linear-gradient-4" x1="-765.88" y1="298.38" x2="888.82" y2="93.25" xlink:href="#linear-gradient"/><linearGradient id="linear-gradient-5" x1="-694.68" y1="325.92" x2="960.02" y2="120.78" xlink:href="#linear-gradient"/><linearGradient id="linear-gradient-6" x1="-623.48" y1="353.45" x2="1031.22" y2="148.32" xlink:href="#linear-gradient"/><linearGradient id="linear-gradient-7" x1="-552.28" y1="380.98" x2="1102.42" y2="175.85" xlink:href="#linear-gradient"/><linearGradient id="linear-gradient-8" x1="-481.07" y1="408.52" x2="1173.63" y2="203.39" xlink:href="#linear-gradient"/><linearGradient id="linear-gradient-9" x1="-409.87" y1="436.05" x2="1244.83" y2="230.92" xlink:href="#linear-gradient"/><linearGradient id="linear-gradient-10" x1="-338.67" y1="463.59" x2="1316.03" y2="258.46" xlink:href="#linear-gradient"/><linearGradient id="linear-gradient-11" x1="-267.47" y1="491.12" x2="1387.23" y2="285.99" xlink:href="#linear-gradient"/><linearGradient id="linear-gradient-12" x1="-196.26" y1="518.66" x2="1458.44" y2="313.53" xlink:href="#linear-gradient"/><linearGradient id="linear-gradient-13" x1="-125.06" y1="546.19" x2="1529.64" y2="341.06" xlink:href="#linear-gradient"/><linearGradient id="linear-gradient-14" x1="-53.86" y1="573.73" x2="1600.84" y2="368.6" xlink:href="#linear-gradient"/><linearGradient id="linear-gradient-15" x1="17.34" y1="601.26" x2="1672.04" y2="396.13" xlink:href="#linear-gradient"/><linearGradient id="linear-gradient-16" x1="88.55" y1="628.8" x2="1743.24" y2="423.67" xlink:href="#linear-gradient"/><linearGradient id="linear-gradient-17" x1="159.75" y1="656.33" x2="1814.45" y2="451.2" xlink:href="#linear-gradient"/><linearGradient id="linear-gradient-18" x1="230.95" y1="683.87" x2="1885.65" y2="478.73" xlink:href="#linear-gradient"/><linearGradient id="linear-gradient-19" x1="302.15" y1="711.4" x2="1956.85" y2="506.27" xlink:href="#linear-gradient"/><linearGradient id="linear-gradient-20" x1="373.36" y1="738.94" x2="2028.05" y2="533.8" xlink:href="#linear-gradient"/><linearGradient id="linear-gradient-21" x1="444.56" y1="766.47" x2="2099.26" y2="561.34" xlink:href="#linear-gradient"/><linearGradient id="linear-gradient-22" x1="515.76" y1="794.01" x2="2170.46" y2="588.87" xlink:href="#linear-gradient"/><linearGradient id="linear-gradient-23" x1="586.96" y1="821.54" x2="2241.66" y2="616.41" xlink:href="#linear-gradient"/><linearGradient id="linear-gradient-24" x1="658.17" y1="849.07" x2="2312.86" y2="643.94" xlink:href="#linear-gradient"/><linearGradient id="linear-gradient-25" x1="729.37" y1="876.61" x2="2384.07" y2="671.48" xlink:href="#linear-gradient"/><linearGradient id="linear-gradient-26" x1="800.57" y1="904.14" x2="2455.27" y2="699.01" xlink:href="#linear-gradient"/><linearGradient id="linear-gradient-27" x1="871.77" y1="931.68" x2="2526.47" y2="726.55" xlink:href="#linear-gradient"/><linearGradient id="linear-gradient-28" x1="942.98" y1="959.21" x2="2597.67" y2="754.08" xlink:href="#linear-gradient"/><linearGradient id="linear-gradient-29" x1="1014.18" y1="986.75" x2="2668.88" y2="781.62" xlink:href="#linear-gradient"/><linearGradient id="linear-gradient-30" x1="1085.38" y1="1014.28" x2="2740.08" y2="809.15" xlink:href="#linear-gradient"/><linearGradient id="linear-gradient-31" x1="1156.58" y1="1041.82" x2="2811.28" y2="836.69" xlink:href="#linear-gradient"/><linearGradient id="linear-gradient-32" x1="1227.79" y1="1069.35" x2="2882.48" y2="864.22" xlink:href="#linear-gradient"/></defs><title>tło front page_tło</title><g class="cls-1"><line class="cls-2" x1="-899.27" y1="860.34" x2="594.99" y2="-633.92"/><line class="cls-3" x1="-828.07" y1="887.88" x2="666.19" y2="-606.39"/><line class="cls-4" x1="-756.87" y1="915.41" x2="737.4" y2="-578.85"/><line class="cls-5" x1="-685.67" y1="942.95" x2="808.6" y2="-551.32"/><line class="cls-6" x1="-614.47" y1="970.48" x2="879.8" y2="-523.78"/><line class="cls-7" x1="-543.26" y1="998.02" x2="951" y2="-496.25"/><line class="cls-8" x1="-472.06" y1="1025.55" x2="1022.21" y2="-468.71"/><line class="cls-9" x1="-400.86" y1="1053.09" x2="1093.41" y2="-441.18"/><line class="cls-10" x1="-329.66" y1="1080.62" x2="1164.61" y2="-413.64"/><line class="cls-11" x1="-258.45" y1="1108.16" x2="1235.81" y2="-386.11"/><line class="cls-12" x1="-187.25" y1="1135.69" x2="1307.02" y2="-358.58"/><line class="cls-13" x1="-116.05" y1="1163.23" x2="1378.22" y2="-331.04"/><line class="cls-14" x1="-44.85" y1="1190.76" x2="1449.42" y2="-303.51"/><line class="cls-15" x1="26.36" y1="1218.3" x2="1520.62" y2="-275.97"/><line class="cls-16" x1="97.56" y1="1245.83" x2="1591.83" y2="-248.44"/><line class="cls-17" x1="168.76" y1="1273.36" x2="1663.03" y2="-220.9"/><line class="cls-18" x1="239.96" y1="1300.9" x2="1734.23" y2="-193.37"/><line class="cls-19" x1="311.17" y1="1328.43" x2="1805.43" y2="-165.83"/><line class="cls-20" x1="382.37" y1="1355.97" x2="1876.64" y2="-138.3"/><line class="cls-21" x1="453.57" y1="1383.5" x2="1947.84" y2="-110.76"/><line class="cls-22" x1="524.77" y1="1411.04" x2="2019.04" y2="-83.23"/><line class="cls-23" x1="595.98" y1="1438.57" x2="2090.24" y2="-55.69"/><line class="cls-24" x1="667.18" y1="1466.11" x2="2161.45" y2="-28.16"/><line class="cls-25" x1="738.38" y1="1493.64" x2="2232.65" y2="-0.62"/><line class="cls-26" x1="809.58" y1="1521.18" x2="2303.85" y2="26.91"/><line class="cls-27" x1="880.79" y1="1548.71" x2="2375.05" y2="54.44"/><line class="cls-28" x1="951.99" y1="1576.25" x2="2446.26" y2="81.98"/><line class="cls-29" x1="1023.19" y1="1603.78" x2="2517.46" y2="109.51"/><line class="cls-30" x1="1094.39" y1="1631.32" x2="2588.66" y2="137.05"/><line class="cls-31" x1="1165.6" y1="1658.85" x2="2659.86" y2="164.58"/><line class="cls-32" x1="1236.8" y1="1686.38" x2="2731.07" y2="192.12"/><line class="cls-33" x1="1308" y1="1713.92" x2="2802.27" y2="219.65"/></g></svg>