<svg xmlns="http://www.w3.org/2000/svg" xmlns:xlink="http://www.w3.org/1999/xlink" viewBox="0 0 1920 1080">
    <defs>
        <style>
            .cls-1,.cls-3,.cls-8{filter:url(#AI_GaussianBlur_7);}.cls-2{fill:url(#radial-gradient);}.cls-3{opacity:0.2;}.cls-4{fill:url(#radial-gradient-2);}.cls-5{fill:#0054a5;}.cls-6{fill:#0455a4;}.cls-7{fill:url(#radial-gradient-3);}.cls-8{opacity:0.3;}.cls-9{fill:url(#radial-gradient-4);}.cls-10{fill:url(#radial-gradient-5);}
        </style>
        <filter id="AI_GaussianBlur_7" name="AI_GaussianBlur_7">
            <feGaussianBlur stdDeviation="8"/>
        </filter>
        <radialGradient id="radial-gradient" cx="1454.24" cy="518.69" r="108.93" gradientUnits="userSpaceOnUse">
            <stop offset="0" stop-color="#fff" stop-opacity="0"/>
            <stop offset="0.13" stop-color="#fff" stop-opacity="0.18"/>
            <stop offset="0.41" stop-color="#fff" stop-opacity="0.62"/>
            <stop offset="0.52" stop-color="#fff" stop-opacity="0.8"/>
            <stop offset="0.56" stop-color="#fff" stop-opacity="0.73"/>
            <stop offset="0.72" stop-color="#fff" stop-opacity="0.42"/>
            <stop offset="0.85" stop-color="#fff" stop-opacity="0.19"/>
            <stop offset="0.95" stop-color="#fff" stop-opacity="0.05"/>
            <stop offset="1" stop-color="#fff" stop-opacity="0"/>
        </radialGradient>
        <radialGradient id="radial-gradient-2" cx="814.18" cy="537.11" r="65.34" xlink:href="#radial-gradient"/>
        <radialGradient id="radial-gradient-3" cx="528.9" cy="442.43" r="40.17" xlink:href="#radial-gradient"/>
        <radialGradient id="radial-gradient-4" cx="1105.87" cy="372.93" r="92.87" xlink:href="#radial-gradient"/>
        <radialGradient id="radial-gradient-5" cx="543.85" cy="588.87" r="38.73" xlink:href="#radial-gradient"/>
    </defs>
    <title>
        BAX Baumaschinen
    </title>
    <g id="logo">
        <g class="cls-1">
            <circle cx="1454.24" cy="518.69" r="108.93" class="cls-2"/>
        </g>
        <g class="cls-3">
            <circle cx="814.18" cy="537.11" r="65.34" class="cls-4"/>
        </g>
        <g class="cls-1">
            <path d="M1297.54,330.26H1170.21L1110.39,437.1l-.24.44-5,9-66.89-116.25H909.62L1028.11,511.2,976,589.91,878.44,330.26H751.08L673.61,536.39c-12.83-13.59-31.47-23.39-56.07-29.31q26.81-9.29,40.73-25.26,20.88-24,20.88-57.48,0-40-29.26-67T566,330.26H347.42V708.13H728.28l18.41-62.38H879.26l18.78,62-.28.42h130.43l74.61-121.4,5.1,8.28,6.45,10.5,63.08,102.62h131.2l-128.7-194.87ZM465.21,406.81h51.55q26.55,0,37.25,9.28t10.69,25.78q0,17.78-10.69,27.19t-38,9.41H465.21ZM567.28,616.24q-12.36,10.69-42.53,10.69H465.21V550.38H524.5q30.66,0,42.91,10.18t12.24,26.94Q579.65,605.54,567.28,616.24ZM772.05,564l41.28-135.83L855,564Z" class="cls-5"/>
            <path d="M1454.19,341.81c-97.93,0-177.33,79.46-177.33,177.38a177.2,177.2,0,0,0,177.33,177.38c98,0,177.38-79.45,177.38-177.38S1552.17,341.81,1454.19,341.81ZM1304.8,519.19c0-82.4,67-149.38,149.39-149.38a149.41,149.41,0,0,1,43.93,6.56c-33.44,16.85-71,44.84-106.43,80.32s-63.52,73-80.37,106.53A151.48,151.48,0,0,1,1304.8,519.19Zm55,131.58,90.35-125.52-128.06,92.23c4-34.41,37.71-89.38,89.33-141,52-52,107.29-85.76,141.7-89.43l-90.86,126.13,123.58-89C1580.16,458.73,1547,511.92,1497,562,1447.22,611.68,1394.38,644.76,1359.82,650.77Zm94.37,17.81a150.06,150.06,0,0,1-43.82-6.46c33.39-16.8,70.69-44.74,106.32-80.42,52.33-52.33,72.69-72.69,83.12-96a148,148,0,0,1,3.82,33.44C1603.63,601.6,1536.59,668.58,1454.19,668.58Z" class="cls-6"/>
        </g>
        <path d="M1297.54,330.26H1170.21L1110.39,437.1l-.24.44-5,9-66.89-116.25H909.62L1028.11,511.2,976,589.91,878.44,330.26H751.08L673.61,536.39c-12.83-13.59-31.47-23.39-56.07-29.31q26.81-9.29,40.73-25.26,20.88-24,20.88-57.48,0-40-29.26-67T566,330.26H347.42V708.13H728.28l18.41-62.38H879.26l18.78,62-.28.42h130.43l74.61-121.4,5.1,8.28,6.45,10.5,63.08,102.62h131.2l-128.7-194.87ZM465.21,406.81h51.55q26.55,0,37.25,9.28t10.69,25.78q0,17.78-10.69,27.19t-38,9.41H465.21ZM567.28,616.24q-12.36,10.69-42.53,10.69H465.21V550.38H524.5q30.66,0,42.91,10.18t12.24,26.94Q579.65,605.54,567.28,616.24ZM772.05,564l41.28-135.83L855,564Z" class="cls-5"/>
        <path d="M1454.19,341.81c-97.93,0-177.33,79.46-177.33,177.38a177.2,177.2,0,0,0,177.33,177.38c98,0,177.38-79.45,177.38-177.38S1552.17,341.81,1454.19,341.81ZM1304.8,519.19c0-82.4,67-149.38,149.39-149.38a149.41,149.41,0,0,1,43.93,6.56c-33.44,16.85-71,44.84-106.43,80.32s-63.52,73-80.37,106.53A151.48,151.48,0,0,1,1304.8,519.19Zm55,131.58,90.35-125.52-128.06,92.23c4-34.41,37.71-89.38,89.33-141,52-52,107.29-85.76,141.7-89.43l-90.86,126.13,123.58-89C1580.16,458.73,1547,511.92,1497,562,1447.22,611.68,1394.38,644.76,1359.82,650.77Zm94.37,17.81a150.06,150.06,0,0,1-43.82-6.46c33.39-16.8,70.69-44.74,106.32-80.42,52.33-52.33,72.69-72.69,83.12-96a148,148,0,0,1,3.82,33.44C1603.63,601.6,1536.59,668.58,1454.19,668.58Z" class="cls-6"/>
        <g class="cls-1">
            <circle cx="528.9" cy="442.43" r="40.17" class="cls-7"/>
        </g>
        <g class="cls-8">
            <circle cx="1105.87" cy="372.93" r="92.87" class="cls-9"/>
        </g>
        <g class="cls-1">
            <circle cx="543.85" cy="588.87" r="38.73" class="cls-10"/>
        </g>
    </g>
</svg>
