<svg xmlns="http://www.w3.org/2000/svg" xmlns:xlink="http://www.w3.org/1999/xlink" viewBox="0 0 1920 3240"><defs><style>.cls-1{filter:url(#AI_GaussianBlur_4);}.cls-10,.cls-11,.cls-12,.cls-13,.cls-14,.cls-15,.cls-16,.cls-17,.cls-18,.cls-19,.cls-2,.cls-20,.cls-21,.cls-22,.cls-23,.cls-24,.cls-25,.cls-26,.cls-27,.cls-28,.cls-29,.cls-3,.cls-30,.cls-31,.cls-32,.cls-33,.cls-4,.cls-5,.cls-6,.cls-7,.cls-8,.cls-9{fill:none;stroke-miterlimit:10;stroke-width:3px;}.cls-2{stroke:url(#linear-gradient);}.cls-3{stroke:url(#linear-gradient-2);}.cls-4{stroke:url(#linear-gradient-3);}.cls-5{stroke:url(#linear-gradient-4);}.cls-6{stroke:url(#linear-gradient-5);}.cls-7{stroke:url(#linear-gradient-6);}.cls-8{stroke:url(#linear-gradient-7);}.cls-9{stroke:url(#linear-gradient-8);}.cls-10{stroke:url(#linear-gradient-9);}.cls-11{stroke:url(#linear-gradient-10);}.cls-12{stroke:url(#linear-gradient-11);}.cls-13{stroke:url(#linear-gradient-12);}.cls-14{stroke:url(#linear-gradient-13);}.cls-15{stroke:url(#linear-gradient-14);}.cls-16{stroke:url(#linear-gradient-15);}.cls-17{stroke:url(#linear-gradient-16);}.cls-18{stroke:url(#linear-gradient-17);}.cls-19{stroke:url(#linear-gradient-18);}.cls-20{stroke:url(#linear-gradient-19);}.cls-21{stroke:url(#linear-gradient-20);}.cls-22{stroke:url(#linear-gradient-21);}.cls-23{stroke:url(#linear-gradient-22);}.cls-24{stroke:url(#linear-gradient-23);}.cls-25{stroke:url(#linear-gradient-24);}.cls-26{stroke:url(#linear-gradient-25);}.cls-27{stroke:url(#linear-gradient-26);}.cls-28{stroke:url(#linear-gradient-27);}.cls-29{stroke:url(#linear-gradient-28);}.cls-30{stroke:url(#linear-gradient-29);}.cls-31{stroke:url(#linear-gradient-30);}.cls-32{stroke:url(#linear-gradient-31);}.cls-33{stroke:url(#linear-gradient-32);}</style><filter id="AI_GaussianBlur_4" name="AI_GaussianBlur_4"><feGaussianBlur stdDeviation="2"/></filter><linearGradient id="linear-gradient" x1="-1768.43" y1="818.53" x2="1753.43" y2="-803.53" gradientUnits="userSpaceOnUse"><stop offset="0.01" stop-color="#fff"/><stop offset="0.5" stop-color="blue" stop-opacity="0.8"/><stop offset="1" stop-color="#fff"/></linearGradient><linearGradient id="linear-gradient-2" x1="-1705.98" y1="922.66" x2="1815.88" y2="-699.4" xlink:href="#linear-gradient"/><linearGradient id="linear-gradient-3" x1="-1643.53" y1="1026.78" x2="1878.33" y2="-595.27" xlink:href="#linear-gradient"/><linearGradient id="linear-gradient-4" x1="-1581.07" y1="1130.91" x2="1940.78" y2="-491.14" xlink:href="#linear-gradient"/><linearGradient id="linear-gradient-5" x1="-1518.62" y1="1235.04" x2="2003.24" y2="-387.01" xlink:href="#linear-gradient"/><linearGradient id="linear-gradient-6" x1="-1456.17" y1="1339.17" x2="2065.69" y2="-282.88" xlink:href="#linear-gradient"/><linearGradient id="linear-gradient-7" x1="-1393.72" y1="1443.3" x2="2128.14" y2="-178.75" xlink:href="#linear-gradient"/><linearGradient id="linear-gradient-8" x1="-1331.27" y1="1547.43" x2="2190.59" y2="-74.62" xlink:href="#linear-gradient"/><linearGradient id="linear-gradient-9" x1="-1268.82" y1="1651.56" x2="2253.04" y2="29.51" xlink:href="#linear-gradient"/><linearGradient id="linear-gradient-10" x1="-1206.36" y1="1755.69" x2="2315.49" y2="133.63" xlink:href="#linear-gradient"/><linearGradient id="linear-gradient-11" x1="-1143.91" y1="1859.82" x2="2377.94" y2="237.76" xlink:href="#linear-gradient"/><linearGradient id="linear-gradient-12" x1="-1081.46" y1="1963.95" x2="2440.4" y2="341.89" xlink:href="#linear-gradient"/><linearGradient id="linear-gradient-13" x1="-1019.01" y1="2068.08" x2="2502.85" y2="446.02" xlink:href="#linear-gradient"/><linearGradient id="linear-gradient-14" x1="-956.56" y1="2172.2" x2="2565.3" y2="550.15" xlink:href="#linear-gradient"/><linearGradient id="linear-gradient-15" x1="-894.11" y1="2276.33" x2="2627.75" y2="654.28" xlink:href="#linear-gradient"/><linearGradient id="linear-gradient-16" x1="-831.65" y1="2380.46" x2="2690.2" y2="758.41" xlink:href="#linear-gradient"/><linearGradient id="linear-gradient-17" x1="-769.2" y1="2484.59" x2="2752.65" y2="862.54" xlink:href="#linear-gradient"/><linearGradient id="linear-gradient-18" x1="-706.75" y1="2588.72" x2="2815.11" y2="966.67" xlink:href="#linear-gradient"/><linearGradient id="linear-gradient-19" x1="-644.3" y1="2692.85" x2="2877.56" y2="1070.8" xlink:href="#linear-gradient"/><linearGradient id="linear-gradient-20" x1="-581.85" y1="2796.98" x2="2940.01" y2="1174.92" xlink:href="#linear-gradient"/><linearGradient id="linear-gradient-21" x1="-519.4" y1="2901.11" x2="3002.46" y2="1279.05" xlink:href="#linear-gradient"/><linearGradient id="linear-gradient-22" x1="-456.94" y1="3005.24" x2="3064.91" y2="1383.18" xlink:href="#linear-gradient"/><linearGradient id="linear-gradient-23" x1="-394.49" y1="3109.37" x2="3127.36" y2="1487.31" xlink:href="#linear-gradient"/><linearGradient id="linear-gradient-24" x1="-332.04" y1="3213.49" x2="3189.82" y2="1591.44" xlink:href="#linear-gradient"/><linearGradient id="linear-gradient-25" x1="-269.59" y1="3317.62" x2="3252.27" y2="1695.57" xlink:href="#linear-gradient"/><linearGradient id="linear-gradient-26" x1="-207.14" y1="3421.75" x2="3314.72" y2="1799.7" xlink:href="#linear-gradient"/><linearGradient id="linear-gradient-27" x1="-144.69" y1="3525.88" x2="3377.17" y2="1903.83" xlink:href="#linear-gradient"/><linearGradient id="linear-gradient-28" x1="-82.24" y1="3630.01" x2="3439.62" y2="2007.96" xlink:href="#linear-gradient"/><linearGradient id="linear-gradient-29" x1="-19.78" y1="3734.14" x2="3502.07" y2="2112.09" xlink:href="#linear-gradient"/><linearGradient id="linear-gradient-30" x1="42.67" y1="3838.27" x2="3564.53" y2="2216.22" xlink:href="#linear-gradient"/><linearGradient id="linear-gradient-31" x1="105.12" y1="3942.4" x2="3626.98" y2="2320.34" xlink:href="#linear-gradient"/><linearGradient id="linear-gradient-32" x1="167.57" y1="4046.53" x2="3689.43" y2="2424.47" xlink:href="#linear-gradient"/></defs><title>front_page_bg_big</title><g id="briks"><g class="cls-1"><line class="cls-2" x1="1453.5" y1="-1453.5" x2="-1468.5" y2="1468.5"/><line class="cls-3" x1="1515.95" y1="-1349.37" x2="-1406.05" y2="1572.63"/><line class="cls-4" x1="1578.4" y1="-1245.24" x2="-1343.6" y2="1676.76"/><line class="cls-5" x1="1640.85" y1="-1141.11" x2="-1281.15" y2="1780.89"/><line class="cls-6" x1="1703.31" y1="-1036.98" x2="-1218.69" y2="1885.02"/><line class="cls-7" x1="1765.76" y1="-932.85" x2="-1156.24" y2="1989.15"/><line class="cls-8" x1="1828.21" y1="-828.73" x2="-1093.79" y2="2093.27"/><line class="cls-9" x1="1890.66" y1="-724.6" x2="-1031.34" y2="2197.4"/><line class="cls-10" x1="1953.11" y1="-620.47" x2="-968.89" y2="2301.53"/><line class="cls-11" x1="2015.56" y1="-516.34" x2="-906.44" y2="2405.66"/><line class="cls-12" x1="2078.02" y1="-412.21" x2="-843.98" y2="2509.79"/><line class="cls-13" x1="2140.47" y1="-308.08" x2="-781.53" y2="2613.92"/><line class="cls-14" x1="2202.92" y1="-203.95" x2="-719.08" y2="2718.05"/><line class="cls-15" x1="2265.37" y1="-99.82" x2="-656.63" y2="2822.18"/><line class="cls-16" x1="2327.82" y1="4.31" x2="-594.18" y2="2926.31"/><line class="cls-17" x1="2390.27" y1="108.44" x2="-531.73" y2="3030.44"/><line class="cls-18" x1="2452.73" y1="212.56" x2="-469.27" y2="3134.56"/><line class="cls-19" x1="2515.18" y1="316.69" x2="-406.82" y2="3238.69"/><line class="cls-20" x1="2577.63" y1="420.82" x2="-344.37" y2="3342.82"/><line class="cls-21" x1="2640.08" y1="524.95" x2="-281.92" y2="3446.95"/><line class="cls-22" x1="2702.53" y1="629.08" x2="-219.47" y2="3551.08"/><line class="cls-23" x1="2764.98" y1="733.21" x2="-157.02" y2="3655.21"/><line class="cls-24" x1="2827.44" y1="837.34" x2="-94.56" y2="3759.34"/><line class="cls-25" x1="2889.89" y1="941.47" x2="-32.11" y2="3863.47"/><line class="cls-26" x1="2952.34" y1="1045.6" x2="30.34" y2="3967.6"/><line class="cls-27" x1="3014.79" y1="1149.73" x2="92.79" y2="4071.73"/><line class="cls-28" x1="3077.24" y1="1253.85" x2="155.24" y2="4175.85"/><line class="cls-29" x1="3139.69" y1="1357.98" x2="217.69" y2="4279.98"/><line class="cls-30" x1="3202.15" y1="1462.11" x2="280.15" y2="4384.11"/><line class="cls-31" x1="3264.6" y1="1566.24" x2="342.6" y2="4488.24"/><line class="cls-32" x1="3327.05" y1="1670.37" x2="405.05" y2="4592.37"/><line class="cls-33" x1="3389.5" y1="1774.5" x2="467.5" y2="4696.5"/></g></g></svg>