<svg x="0" y="0" width="400" height="700" xmlns="http://www.w3.org/2000/svg" viewBox="0 0 400 710">
    <defs>

    </defs>
    <path d="M197.6,685.2l-3.2-25.6c-.2-1.4-.4-2.4-3.1-2.4H177.7c-1.7,0-2.6.1-3.2,1.2l-14.9,27.2c-.6,1.1-.1,2,.9,2h8.9a2.4,2.4,0,0,0,2.4-1.3l2.3-4.5.3-.2h11.3a.3.3,0,0,1,.3.3l.4,3.9c.2,1.5.9,1.8,2.1,1.8h7.3c1.5,0,2.1-.7,1.8-2.4m-12.7-10.3h-7c-.1,0-.2-.1-.1-.3l5.8-11.5a.2.2,0,0,1,.4,0l1.2,11.5c.1.2-.1.3-.3.3"/>
    <path d="M322.4,685.2l-3.3-25.6c-.2-1.4-.3-2.4-3-2.4H302.5c-1.8,0-2.6.1-3.2,1.2l-15,27.2c-.6,1.1-.1,2,1,2h8.8a2.2,2.2,0,0,0,2.4-1.3c.8-1.5,1.7-3.1,2.3-4.5a.5.5,0,0,1,.4-.2h11.3a.3.3,0,0,1,.3.3l.4,3.9c.2,1.5.9,1.8,2,1.8h7.3c1.6,0,2.1-.7,1.9-2.4m-12.7-10.3h-7c-.2,0-.2-.1-.2-.3l5.9-11.5a.2.2,0,0,1,.3,0l1.3,11.4c0,.3-.1.4-.3.4"/>
    <path d="M270.9,685.6l2.3-12.8c.2-.7-.1-.7-.4-.4l-10.7,14a2.8,2.8,0,0,1-2,1.3h-2.6a1.6,1.6,0,0,1-1.5-1.1l-5.2-14.1c-.2-.6-.4-.4-.4.1l-2.5,13.6a1.7,1.7,0,0,1-1.6,1.5h-7.8c-1.1,0-1.6-.6-1.4-1.8l5.2-26.5a2.4,2.4,0,0,1,2.6-2.2h8.5c1.5,0,2.6.3,3,1.5l4.5,12.2c.3.5.3.5.7,0l9.6-12.3a3.4,3.4,0,0,1,3-1.4h10.7c1.8,0,2.1,1,1.8,2.3l-5.1,26.8a1.7,1.7,0,0,1-1.8,1.4h-7.4c-1.5,0-1.7-1-1.5-2.1"/>
    <path d="M223.3,670.6l2.1-11.3c.3-1.7,1.2-2,2.5-2h6.7c1.2,0,2.1.5,1.8,2.2l-5.1,26c-.4,1.7-1.2,2.2-2.3,2.2h-5.3a2.4,2.4,0,0,1-2.2-1.1l-7.3-12.3c-.1-.3-.3-.2-.3,0l-2,10.9c-.3,1.5-.7,2.5-2.2,2.5h-7.6c-1.3,0-1.8-.6-1.5-1.9l5-26.4c.3-1.8,1.3-2.1,2.1-2.1h5.6c1.4,0,2,.5,2.9,2l6.7,11.3c.1.2.4.3.4,0"/>
    <path d="M354.5,657.2H333.2c-2.4,0-3,.5-3.2,2l-5.2,26.6c-.3,1.2-.1,1.8,1.4,1.9h7.9a1.8,1.8,0,0,0,2-1.6c.7-2.9,1.5-7.5,1.7-8.5s.2-.6,1-.6h5.9c1,0,1.4.5,1.2,1.9l-1.2,7.1c-.1.9.2,1.6,1.4,1.6s6.8.1,7.7,0,2.1-.3,2.4-2.2l1.2-6.7c.4-2.1.5-5-2.9-6.1-.1-.1-.1-.2,0-.2A6.2,6.2,0,0,0,359,668c.4-1.3.7-3.5,1-5.2.6-3.9-1.7-5.6-5.5-5.6m-6,7.9a26.3,26.3,0,0,1-.7,3.8c-.3,1.4-.8,1.7-2.8,1.7h-5.5c-.3,0-.4-.1-.3-.4l1.2-6.4a.2.2,0,0,1,.2-.2c1.5,0,6.2-.1,6.7,0s1.3.6,1.2,1.5"/>
    <path d="M148.6,667.5l7.7-9.5a1.8,1.8,0,0,1,1.6-.8h10.5c1.5,0,1.3.9.9,1.4l-15.6,18.7a1.9,1.9,0,0,0-.2.8l-1.9,8.4c-.2,1-1,1.3-2,1.3h-7.9c-1.7,0-1.8-.9-1.6-2l1.5-7.4a.8.8,0,0,0,0-.7l-10.1-19.3c-.3-.7.2-1.2,1.1-1.2h8.8a2,2,0,0,1,1.9.9l4.6,9.4c.2.5.4.3.7,0"/>
    <polygon points="79.8 691.7 116.1 676.7 116.1 667.5 79.8 682.6 79.8 691.7"/>
    <polygon points="77.7 669.2 39.4 653.3 39.4 662.4 77.7 678.3 116.1 662.4 116.1 653.3 77.7 669.2"/>
    <polygon points="39.4 676.7 75.6 691.7 75.6 682.6 39.4 667.5 39.4 676.7"/>
</svg>
