<svg id="31e81651-729a-464e-98c8-c5cce311998e" data-name="Layer 1" xmlns="http://www.w3.org/2000/svg" viewBox="0 0 500 500">
  <title>bax_icon_czesci</title>
  <path d="M258,194.72a87.17,87.17,0,0,0,.94-12.59l-12.82-4.22a73.78,73.78,0,0,0-2.84-16.66l10.87-7.8A86.17,86.17,0,0,0,249,141.6l-13.34,2.23a74.31,74.31,0,0,0-9.9-12.94l6-12a86.54,86.54,0,0,0-10.27-8.31l-10.75,8.15a74.41,74.41,0,0,0-14.3-6.71l-.24-13.43a86.43,86.43,0,0,0-13.14-2.68l-5.74,12.24c-1.66-.12-3.34-.19-5-.19a74.73,74.73,0,0,0-10.42.74l-6.47-11.8a85.77,85.77,0,0,0-13,3.64L143,114a74.88,74.88,0,0,0-13.45,7.58l-11.24-7.46a88.1,88.1,0,0,0-9.84,9.18l6.76,11.58A74.45,74.45,0,0,0,106.64,148l-13.45-1.38a84.59,84.59,0,0,0-4.46,12.49l11.35,7.11a74.47,74.47,0,0,0-1.68,15.7v.36l-12.54,5a86.74,86.74,0,0,0,1.76,12.89l13.33,1a73.63,73.63,0,0,0,6.16,15.57L98.35,227a85.86,85.86,0,0,0,7.4,10.33l12.27-5.3a74.46,74.46,0,0,0,13.14,11.27l-3,13.14A86.92,86.92,0,0,0,139.31,262l8.42-10.4A73.63,73.63,0,0,0,165,255.48l3.46,13c1.27.06,2.54.09,3.82.09q4.29,0,8.47-.41L183.41,255a73,73,0,0,0,17.27-4.81l9.07,9.87A86,86,0,0,0,220.41,254l-3.79-12.88a74.7,74.7,0,0,0,12.87-12.32l12.59,4.51a86.8,86.8,0,0,0,6.63-10.47l-9.38-9.68a72.79,72.79,0,0,0,5.46-16.58Zm-85.61,41.1A53.57,53.57,0,1,1,226,182.25,53.57,53.57,0,0,1,172.41,235.82Z" fill="#fff"/>
  <path d="M413.87,237.36a87.15,87.15,0,0,0,.09-12.63l-13.07-3.35a73.84,73.84,0,0,0-4-16.43l10.32-8.51A85.27,85.27,0,0,0,401.32,185l-13.15,3.12a74.21,74.21,0,0,0-10.75-12.24l5.19-12.35a87.4,87.4,0,0,0-10.8-7.6l-10.19,8.86A73.63,73.63,0,0,0,346.91,159l-1.15-13.38a86.78,86.78,0,0,0-13.28-1.79l-4.91,12.59c-1.67,0-3.35,0-5,.15A74.39,74.39,0,0,0,312.19,158l-7.26-11.35a85.5,85.5,0,0,0-12.71,4.51l1.5,13.39a73.76,73.76,0,0,0-12.9,8.46l-11.72-6.68a86.16,86.16,0,0,0-9.2,9.81l7.52,11.1a73.62,73.62,0,0,0-7.73,13.65l-13.52-.48a85.84,85.84,0,0,0-3.61,12.76l11.81,6.33a74.52,74.52,0,0,0-.63,15.78c0,.12,0,.24,0,.36l-12.19,5.85a87.17,87.17,0,0,0,2.63,12.74l13.37.12a73.62,73.62,0,0,0,7.2,15.11l-8.06,10.84a86.48,86.48,0,0,0,8.08,9.81L276.7,284a74.25,74.25,0,0,0,13.86,10.35l-2.09,13.32A87.69,87.69,0,0,0,300,312.5l7.7-10.94a73.26,73.26,0,0,0,17.54,2.67L329.51,317c1.27,0,2.54-.08,3.82-.16q4.28-.3,8.42-1l1.73-13.28a73.45,73.45,0,0,0,16.91-6l9.72,9.24A88,88,0,0,0,380.33,299l-4.65-12.6a74.54,74.54,0,0,0,12-13.15l12.87,3.65A86,86,0,0,0,406.47,266l-10-9a73.74,73.74,0,0,0,4.34-16.9Zm-82.66,46.76a53.57,53.57,0,1,1,49.85-57.05A53.57,53.57,0,0,1,331.21,284.12Z" fill="#e6e7e8"/>
  <path d="M283,339.17a72.21,72.21,0,0,0,.3-10.53l-10.84-3a62,62,0,0,0-3-13.77l8.76-6.92a72.91,72.91,0,0,0-4.74-9.68l-11,2.37a61.51,61.51,0,0,0-8.75-10.41L258.29,277a72.85,72.85,0,0,0-8.87-6.53l-8.66,7.21a61.13,61.13,0,0,0-12.17-5.06l-.72-11.18a73.1,73.1,0,0,0-11.05-1.73l-4.31,10.42c-1.4,0-2.8,0-4.21,0a62.89,62.89,0,0,0-8.65,1l-5.85-9.59a72.35,72.35,0,0,0-10.69,3.53l1,11.2a60.48,60.48,0,0,0-10.92,6.83l-9.66-5.79a73.4,73.4,0,0,0-7.85,8l6.07,9.4A61.38,61.38,0,0,0,155.09,306l-11.27-.64A71.56,71.56,0,0,0,140.58,316l9.73,5.49a61.66,61.66,0,0,0-.8,13.16,2.83,2.83,0,0,0,0,.29l-10.27,4.67a72,72,0,0,0,2,10.67l11.15.34a61.19,61.19,0,0,0,5.74,12.73l-6.92,8.9a73.49,73.49,0,0,0,6.56,8.33l10-4.88a62.41,62.41,0,0,0,11.38,8.88l-2,11.07a72,72,0,0,0,9.49,4.21l6.62-9a61.16,61.16,0,0,0,14.58,2.55l3.37,10.69c1.06,0,2.13,0,3.2-.08,2.38-.1,4.73-.33,7-.66l1.68-11a61.38,61.38,0,0,0,14.21-4.68l7.94,7.89A73,73,0,0,0,254,390l-3.65-10.59a62.15,62.15,0,0,0,10.25-10.76l10.67,3.28a73,73,0,0,0,5.13-9l-8.19-7.71a61.19,61.19,0,0,0,3.92-14ZM213.26,376.7a44.7,44.7,0,1,1,42.6-46.7A44.7,44.7,0,0,1,213.26,376.7Z" fill="#d1d3d4"/>
</svg>
