<svg id="2e75e9b0-eb88-488d-8ced-76006183a505" data-name="Layer 1" xmlns="http://www.w3.org/2000/svg" viewBox="0 0 500 500">
  <title>bax_icon_serwis</title>
  <rect x="278.02" y="140.87" width="9.34" height="155.31" rx="4.67" ry="4.67" transform="translate(237.31 -135.89) rotate(45)" fill="#e6e7e8"/>
  <rect x="183.44" y="207.43" width="54.88" height="163.48" rx="14.01" ry="14.01" transform="translate(266.24 -64.42) rotate(45)" fill="#d1d3d4"/>
  <path d="M359,145.34l-4.42-4.42a5,5,0,0,0-5.5-1.07l-27.3,11.55a2.25,2.25,0,0,0-1.22,3,4.94,4.94,0,0,0,1,1.41l23.95,23.94h0a2.23,2.23,0,0,0,3.65-.77l11-28.24A5,5,0,0,0,359,145.34Z" fill="#e6e7e8" stroke="#fff" stroke-miterlimit="10"/>
</svg>
