<svg id="e7d33c7a-3d81-45d5-b9de-22b6ed87e37c" data-name="Layer 1" xmlns="http://www.w3.org/2000/svg" viewBox="0 0 500 500">
  <title>bax_icon_sekretariat</title>
  <g>
    <path d="M293.92,267.82a2.26,2.26,0,0,1-.26.16l6.81,3.1c.27-.18.55-.36.82-.56Q297.69,269.07,293.92,267.82Z" fill="#fff"/>
    <path d="M355,335.76v65.6c0,6.9-7.93,12.56-17.62,12.56H162.64c-9.69,0-17.62-5.66-17.62-12.56v-65.6c0-32.32,29.12-60,69.58-70.44q-20.28-13.81-26-39.43c-.44-2-.11-4.22-.13-6.33-.18-16.53-1.32-33.13-.05-49.54a49.61,49.61,0,0,1,6.41-19.93c13.92-24.62,43-37.09,71.69-30,26.38,6.5,44.94,30.28,45.35,58.49.21,14.54,0,29.09-.09,43.64-2,13.47-7.2,25.44-16.82,35.28a37.14,37.14,0,0,1-9.9,7.76c3,.76,6,1.63,8.83,2.58a2.26,2.26,0,0,1-.26.16,84.15,84.15,0,0,1-20.52,8.16c-2.23.59-3.21-.15-4.59-1.8-4.9-5.88-14.66-7.95-21.48-4.45-4.53,2.32-7.94,5.88-8.07,11.45-.1,4.6,4.88,10.87,10.11,11.63,9.14,1.32,16.2,1.3,19.85-6.07,1.61-3.23,3.66-4.29,6.87-5.17a87.09,87.09,0,0,0,24.64-10.65c.27-.18.55-.36.82-.56C333.27,283.38,355,307.85,355,335.76Z" fill="#fff"/>
    <path d="M351,178.65c-2.17-1.56-4.17-3.46-6.53-4.65-7.85-4-14.13-8.94-11.88-18.95,1.27-5.67-1.34-10.42-2.71-15.41C322.64,113.23,300,94,273.6,88.26c-10.41-2.28-21.44-2.47-32.05-1.93-35.65,1.84-61.21,20.4-70.54,51.29a92.51,92.51,0,0,0-3.65,24c-.06,1.76.36,3.63-1.67,5-3.73,2.5-7,5.73-10.92,7.87-5.05,2.78-9.51,7.61-11.05,11.65-2.74,7.23-2.2,15.77-1.22,23.91,1.59,13.14,13.52,17.95,21,26.15,2.57,2.82,9.38,2.17,14.12-.16,3.92-1.93,5.66-5,5.63-9.49-.12-16.84-.06-33.67,0-50.51,0-2.78,0-5.91-2.45-7.38-4.06-2.46-3.13-5.82-2.61-9.26.72-4.69,3.13-8.74,5.81-12.41,17.86-24.4,42.63-34.05,72.1-32.58,23.7,1.18,43.14,11.41,58.14,29.76,4.35,5.31,8,11.17,8.4,18.41.08,1.62.62,3.34-1.23,4.45-4.25,2.55-4.26,6.72-4.26,11,0,15.59-.12,31.17-.18,46.76.09,1,.17,2.06.28,3.09.5,4.62,3.55,8.48.86,14a59.29,59.29,0,0,1-24.14,26,2.26,2.26,0,0,1-.26.16l6.81,3.1c.27-.18.55-.36.82-.56a60.92,60.92,0,0,0,23.58-29.88c.35-.91.81-2.44,1.39-2.52,6.27-.89,10.54-5.27,15.7-8.15,7.3-4.08,12.08-9.23,14.45-16.91C360.19,200.75,358.24,189.27,351,178.65ZM190.87,127.52c16-23.69,40.15-28.87,66.63-27.17,20.67,1.32,39.28,7.66,51.14,26.39C269.1,100.31,230,100.38,190.87,127.52Z" fill="#fff"/>
  </g>
</svg>
