<svg xmlns="http://www.w3.org/2000/svg" xmlns:xlink="http://www.w3.org/1999/xlink" viewBox="0 0 675 1147.5" >
<defs>
            <linearGradient id="1f7c17eb-e85a-4a65-af97-4df105ab1893" x1="-2150.87" y1="382.79" x2="1464.51" y2="382.79"
            gradientUnits="userSpaceOnUse">
            <stop offset="0" stop-color="#0054a6" />
            <stop offset="0.02" stop-color="#055fad" />
            <stop offset="0.15" stop-color="#1f96d3" />
            <stop offset="0.21" stop-color="#29abe2" />
            <stop offset="0.44" stop-color="#0fdde4" />
            <stop offset="0.7" stop-color="#8cc63f" />
            <stop offset="1" stop-color="#fcee21" />
        </linearGradient>
        <linearGradient id="08dbcc01-a560-4b66-b174-951239b7aeeb" x1="210.75" y1="167.99" x2="438.82" y2="480.61"
            gradientUnits="userSpaceOnUse">
            <stop offset="0" stop-color="#ccc" />
            <stop offset="0.53" stop-color="#eaeaea" />
            <stop offset="1" stop-color="#fff" />
        </linearGradient>
        <linearGradient id="fd5e8728-d232-471a-a786-51b9398f717b" x1="219.28" y1="179.68" x2="432.06" y2="471.33"
            gradientUnits="userSpaceOnUse">
            <stop offset="0" stop-color="#fff" />
            <stop offset="0.47" stop-color="#eaeaea" />
            <stop offset="1" stop-color="#ccc" />
        </linearGradient>
</defs>
                <line x1="337.5" y1="559.77" x2="337.5" y2="788.98" fill="#8cc63f" stroke="#8cc63f" stroke-miterlimit="10"
                stroke-width="12.97" />
            <circle cx="337.5" cy="787.9" r="25.95" fill="#8cc63f" />
            <path
                d="M614.69,151.51a335.29,335.29,0,0,0-59.37,189.76H555c-.76-119.81-98.47-217-218.43-217s-217.7,97.22-218.46,217h-.32A335.33,335.33,0,0,0,58.43,151.54,339.35,339.35,0,0,0-.5,86.1V359.89a335.39,335.39,0,0,0,58.93,174c60.84,88.39,162.71,146.31,278.13,146.31S553.85,622.32,614.69,534a335.71,335.71,0,0,0,59.38-191.23c0-.49,0-1,0-1.46h.32c0,.5,0,1,0,1.46,0,2.71.07,5.41.17,8.09V85.33A339.12,339.12,0,0,0,614.69,151.51Zm-124,345.4A218.06,218.06,0,0,1,118.51,342.73c0-.49,0-1,0-1.46a218,218,0,0,1,436,0c0,.5,0,1,0,1.46A216.65,216.65,0,0,1,490.74,496.91Z"
                fill="url(#1f7c17eb-e85a-4a65-af97-4df105ab1893)" />
            <g opacity="0.15" style="mix-blend-mode: multiply">
                <path
                    d="M759.5,554c0,80.94-44.09,151.77-109.5,189.75a217.86,217.86,0,0,1-109.72,29.5H538.9C418.64,772.46,321,674.4,321,554S418.64,335.48,538.9,334.71h1.38A217.87,217.87,0,0,1,650,364.22c65,37.75,109,108,109.47,188.28C759.5,553,759.5,553.47,759.5,554Z"
                    fill="#fff" opacity="0.2" />
                <path
                    d="M539.49,333.87a217.87,217.87,0,0,1,109.72,29.51c65,37.75,109,108,109.47,188.28,0,.5,0,1,0,1.47,0,80.94-44.09,151.77-109.5,189.75a217.86,217.86,0,0,1-109.72,29.5h-1.38c-120.26-.76-217.88-98.82-217.88-219.25s97.62-218.49,217.88-219.26Z"
                    fill="#fefefe" opacity="0.2" />
                <path
                    d="M538.69,333a217.87,217.87,0,0,1,109.72,29.51c65,37.75,109,108,109.47,188.28,0,.5,0,1,0,1.47,0,80.94-44.09,151.77-109.5,189.75a217.86,217.86,0,0,1-109.72,29.5h-1.38c-120.26-.76-217.88-98.82-217.88-219.25S417.05,333.8,537.31,333Z"
                    fill="#fdfdfd" opacity="0.21" />
                <path
                    d="M537.9,332.19A217.87,217.87,0,0,1,647.62,361.7c65,37.75,109,108,109.47,188.28,0,.5,0,1,0,1.47,0,80.94-44.09,151.77-109.5,189.75A217.86,217.86,0,0,1,537.9,770.7h-1.38c-120.26-.76-217.88-98.82-217.88-219.25S416.26,333,536.52,332.19Z"
                    fill="#fcfcfc" opacity="0.21" />
                <path
                    d="M537.11,331.35a217.87,217.87,0,0,1,109.72,29.51c65,37.75,109,108,109.47,188.28,0,.5,0,1,0,1.47,0,80.94-44.09,151.77-109.5,189.75a217.86,217.86,0,0,1-109.72,29.5h-1.38C415.47,769.1,317.85,671,317.85,550.61s97.62-218.49,217.88-219.26Z"
                    fill="#fbfbfb" opacity="0.21" />
                <path
                    d="M536.31,330.51A217.87,217.87,0,0,1,646,360C711,397.77,755,468,755.5,548.3c0,.5,0,1,0,1.47,0,80.94-44.09,151.77-109.5,189.75A217.86,217.86,0,0,1,536.31,769h-1.38c-120.26-.76-217.88-98.82-217.88-219.25s97.62-218.49,217.88-219.26Z"
                    fill="#fafafa" opacity="0.22" />
                <path
                    d="M535.52,329.67a217.87,217.87,0,0,1,109.72,29.51c65,37.75,109,108,109.47,188.28,0,.5,0,1,0,1.47,0,80.94-44.09,151.77-109.5,189.75a217.86,217.86,0,0,1-109.72,29.5h-1.38c-120.26-.76-217.88-98.82-217.88-219.25s97.62-218.49,217.88-219.26Z"
                    fill="#f9f9f9" opacity="0.22" />
                <path
                    d="M534.73,328.83a217.87,217.87,0,0,1,109.72,29.51c65,37.75,109,108,109.47,188.28,0,.5,0,1,0,1.47,0,80.94-44.09,151.77-109.5,189.75a217.86,217.86,0,0,1-109.72,29.5h-1.38c-120.26-.76-217.88-98.82-217.88-219.25S413.09,329.6,533.35,328.83Z"
                    fill="#f8f8f8" opacity="0.22" />
                <path
                    d="M533.93,328A217.87,217.87,0,0,1,643.65,357.5c65,37.75,109,108,109.47,188.28,0,.5,0,1,0,1.47,0,80.94-44.09,151.77-109.5,189.75a217.86,217.86,0,0,1-109.72,29.5h-1.38c-120.26-.76-217.88-98.82-217.88-219.25S412.29,328.76,532.55,328Z"
                    fill="#f7f7f7" opacity="0.23" />
                <path
                    d="M533.14,327.15a217.87,217.87,0,0,1,109.72,29.51c65,37.76,109,108,109.47,188.28,0,.5,0,1,0,1.47,0,80.94-44.09,151.77-109.5,189.75a217.86,217.86,0,0,1-109.72,29.5h-1.38c-120.26-.76-217.88-98.82-217.88-219.25S411.5,327.92,531.76,327.15Z"
                    fill="#f6f6f6" opacity="0.23" />
                <path
                    d="M532.35,326.32a217.87,217.87,0,0,1,109.72,29.51c65,37.75,109,108,109.47,188.28,0,.5,0,1,0,1.47,0,80.93-44.09,151.76-109.5,189.75a217.86,217.86,0,0,1-109.72,29.5H531C410.71,764.07,313.09,666,313.09,545.58S410.71,327.09,531,326.32Z"
                    fill="#f5f5f5" opacity="0.23" />
                <path
                    d="M531.55,325.48A217.87,217.87,0,0,1,641.27,355c65,37.75,109,108,109.47,188.28,0,.5,0,1,0,1.47,0,80.94-44.09,151.77-109.5,189.75A217.86,217.86,0,0,1,531.55,764h-1.38c-120.26-.76-217.88-98.82-217.88-219.25s97.62-218.49,217.88-219.26Z"
                    fill="#f4f4f4" opacity="0.23" />
                <path
                    d="M530.76,324.64a217.87,217.87,0,0,1,109.72,29.51c65,37.75,109,108,109.47,188.28,0,.5,0,1,0,1.47,0,80.94-44.09,151.77-109.5,189.75a217.86,217.86,0,0,1-109.72,29.5h-1.38C409.12,762.39,311.5,664.33,311.5,543.9s97.62-218.49,217.88-219.26Z"
                    fill="#f3f3f3" opacity="0.24" />
                <path
                    d="M530,323.8a217.87,217.87,0,0,1,109.73,29.51c65,37.75,109,108,109.46,188.28,0,.5,0,1,0,1.47,0,80.94-44.08,151.77-109.49,189.75A217.87,217.87,0,0,1,530,762.31h-1.38c-120.25-.76-217.87-98.82-217.87-219.25S408.33,324.57,528.58,323.8Z"
                    fill="#f2f2f2" opacity="0.24" />
                <path
                    d="M529.17,323a217.87,217.87,0,0,1,109.72,29.51c65,37.75,109,108,109.47,188.28,0,.5,0,1,0,1.47,0,80.94-44.09,151.77-109.5,189.75a217.86,217.86,0,0,1-109.72,29.5h-1.38c-120.26-.76-217.88-98.82-217.88-219.25S407.53,323.73,527.79,323Z"
                    fill="#f1f1f1" opacity="0.24" />
                <path
                    d="M528.38,322.12A217.87,217.87,0,0,1,638.1,351.63c65,37.75,109,108,109.47,188.28,0,.5,0,1,0,1.47,0,80.94-44.09,151.77-109.5,189.75a217.86,217.86,0,0,1-109.72,29.5H527c-120.26-.76-217.88-98.82-217.88-219.25S406.74,322.89,527,322.12Z"
                    fill="#f0f0f0" opacity="0.25" />
                <path
                    d="M527.58,321.28a217.87,217.87,0,0,1,109.73,29.51c65,37.75,109,108,109.46,188.28,0,.5,0,1,0,1.47,0,80.94-44.08,151.77-109.49,189.75a217.87,217.87,0,0,1-109.73,29.5H526.2C405.94,759,308.32,661,308.32,540.54S405.94,322.05,526.2,321.28Z"
                    fill="#efefef" opacity="0.25" />
                <path
                    d="M526.79,320.44A217.87,217.87,0,0,1,636.51,350c65,37.75,109,108,109.47,188.28,0,.5,0,1,0,1.47,0,80.94-44.09,151.77-109.5,189.75A217.86,217.86,0,0,1,526.79,759h-1.38c-120.26-.76-217.88-98.82-217.88-219.25s97.62-218.49,217.88-219.26Z"
                    fill="#eee" opacity="0.25" />
                <path
                    d="M526,319.6a217.87,217.87,0,0,1,109.72,29.51c65,37.75,109,108,109.47,188.28,0,.5,0,1,0,1.47,0,80.94-44.09,151.77-109.5,189.75A217.86,217.86,0,0,1,526,758.11h-1.38c-120.26-.76-217.88-98.82-217.88-219.25S404.36,320.37,524.62,319.6Z"
                    fill="#ededed" opacity="0.26" />
                <path
                    d="M525.2,318.76a217.87,217.87,0,0,1,109.73,29.51c65,37.75,109,108,109.46,188.28,0,.5,0,1,0,1.47,0,80.94-44.08,151.77-109.49,189.75a217.87,217.87,0,0,1-109.73,29.5h-1.38C403.56,756.51,305.94,658.45,305.94,538s97.62-218.49,217.88-219.26Z"
                    fill="#ececec" opacity="0.26" />
                <path
                    d="M524.41,317.92a217.87,217.87,0,0,1,109.72,29.51c65,37.75,109,108,109.47,188.28,0,.5,0,1,0,1.47,0,80.94-44.09,151.77-109.5,189.75a217.86,217.86,0,0,1-109.72,29.5H523c-120.26-.76-217.88-98.82-217.88-219.25S402.77,318.69,523,317.92Z"
                    fill="#ebebeb" opacity="0.26" />
                <path
                    d="M523.62,317.08a217.87,217.87,0,0,1,109.72,29.51c65,37.75,109,108,109.47,188.28,0,.5,0,1,0,1.47,0,80.94-44.09,151.77-109.5,189.75a217.86,217.86,0,0,1-109.72,29.5h-1.38C402,754.83,304.36,656.77,304.36,536.34S402,317.85,522.24,317.08Z"
                    fill="#eaeaea" opacity="0.27" />
                <path
                    d="M522.82,316.24a217.9,217.9,0,0,1,109.73,29.51c65,37.75,109,108,109.46,188.28,0,.5,0,1,0,1.47,0,80.94-44.08,151.77-109.49,189.75a217.87,217.87,0,0,1-109.73,29.5h-1.38C401.18,754,303.56,655.93,303.56,535.5S401.18,317,521.44,316.24Z"
                    fill="#e9e9e9" opacity="0.27" />
                <path
                    d="M522,315.4a217.87,217.87,0,0,1,109.72,29.51c65,37.75,109,108,109.47,188.28,0,.5,0,1,0,1.47,0,80.94-44.09,151.77-109.5,189.75A217.86,217.86,0,0,1,522,753.91h-1.38c-120.26-.76-217.88-98.82-217.88-219.25S400.39,316.17,520.65,315.4Z"
                    fill="#e8e8e8" opacity="0.27" />
                <path
                    d="M521.24,314.56A217.87,217.87,0,0,1,631,344.07c65,37.75,109,108,109.47,188.28,0,.5,0,1,0,1.47,0,80.94-44.09,151.77-109.5,189.75a217.86,217.86,0,0,1-109.72,29.5h-1.38C399.6,752.31,302,654.25,302,533.82S399.6,315.33,519.86,314.56Z"
                    fill="#e7e7e7" opacity="0.28" />
                <path
                    d="M520.44,313.72a217.9,217.9,0,0,1,109.73,29.51c65,37.75,109,108,109.46,188.28,0,.5,0,1,0,1.47,0,80.94-44.08,151.77-109.49,189.75a217.89,217.89,0,0,1-109.73,29.5h-1.38C398.8,751.47,301.18,653.41,301.18,533S398.8,314.49,519.06,313.72Z"
                    fill="#e6e6e6" opacity="0.28" />
                <path
                    d="M519.65,312.88a217.87,217.87,0,0,1,109.72,29.51c65,37.75,109,108,109.47,188.28,0,.5,0,1,0,1.47,0,80.94-44.09,151.77-109.5,189.75a217.86,217.86,0,0,1-109.72,29.5h-1.38C398,750.63,300.39,652.57,300.39,532.14S398,313.65,518.27,312.88Z"
                    fill="#e5e5e5" opacity="0.28" />
                <path
                    d="M518.86,312a217.87,217.87,0,0,1,109.72,29.51c65,37.76,109,108,109.47,188.28,0,.5,0,1,0,1.47,0,80.94-44.09,151.77-109.5,189.75a217.86,217.86,0,0,1-109.72,29.5h-1.38C397.22,749.79,299.6,651.73,299.6,531.3S397.22,312.81,517.48,312Z"
                    fill="#e4e4e4" opacity="0.28" />
                <path
                    d="M518.06,311.21a217.8,217.8,0,0,1,109.73,29.51c65,37.75,109,108,109.46,188.28,0,.49,0,1,0,1.46,0,80.94-44.09,151.77-109.49,189.75a217.79,217.79,0,0,1-109.73,29.5h-1.38C396.42,749,298.8,650.89,298.8,530.46S396.42,312,516.68,311.21Z"
                    fill="#e3e3e3" opacity="0.29" />
                <path
                    d="M517.27,310.37A217.76,217.76,0,0,1,627,339.88c65,37.75,109,108,109.47,188.28,0,.5,0,1,0,1.47,0,80.93-44.09,151.76-109.5,189.74a217.76,217.76,0,0,1-109.72,29.51h-1.38C395.63,748.12,298,650.06,298,529.63s97.62-218.49,217.88-219.26Z"
                    fill="#e2e2e2" opacity="0.29" />
                <path
                    d="M516.48,309.53A217.87,217.87,0,0,1,626.2,339c65,37.75,109,108,109.47,188.28,0,.5,0,1,0,1.47,0,80.93-44.09,151.76-109.5,189.75A217.86,217.86,0,0,1,516.48,748H515.1c-120.26-.76-217.88-98.82-217.88-219.25S394.84,310.3,515.1,309.53Z"
                    fill="#e1e1e1" opacity="0.29" />
                <path
                    d="M515.68,308.69A217.9,217.9,0,0,1,625.41,338.2c65,37.75,109,108,109.46,188.28,0,.5,0,1,0,1.47,0,80.94-44.09,151.77-109.49,189.75a217.89,217.89,0,0,1-109.73,29.5H514.3C394,746.44,296.42,648.38,296.42,528S394,309.46,514.3,308.69Z"
                    fill="#e0e0e0" opacity="0.3" />
                <path
                    d="M514.89,307.85a217.87,217.87,0,0,1,109.72,29.51c65,37.75,109,108,109.47,188.28,0,.5,0,1,0,1.47,0,80.94-44.09,151.77-109.5,189.75a217.86,217.86,0,0,1-109.72,29.5h-1.38c-120.26-.76-217.88-98.82-217.88-219.25s97.62-218.49,217.88-219.26Z"
                    fill="#dfdfdf" opacity="0.3" />
                <path
                    d="M514.1,307a217.87,217.87,0,0,1,109.72,29.51c65,37.75,109,108,109.47,188.28,0,.5,0,1,0,1.47,0,80.94-44.09,151.77-109.5,189.75a217.86,217.86,0,0,1-109.72,29.5h-1.38c-120.26-.76-217.88-98.82-217.88-219.25S392.46,307.78,512.72,307Z"
                    fill="#dedede" opacity="0.3" />
                <path
                    d="M513.3,306.17A217.9,217.9,0,0,1,623,335.68c65,37.75,109,108,109.46,188.28,0,.5,0,1,0,1.47,0,80.94-44.09,151.77-109.49,189.75a217.89,217.89,0,0,1-109.73,29.5h-1.38C391.66,743.92,294,645.86,294,525.43s97.62-218.49,217.88-219.26Z"
                    fill="#ddd" opacity="0.31" />
                <path
                    d="M512.51,305.33a217.87,217.87,0,0,1,109.72,29.51c65,37.75,109,108,109.47,188.28,0,.5,0,1,0,1.47,0,80.94-44.09,151.77-109.5,189.75a217.86,217.86,0,0,1-109.72,29.5h-1.38C390.87,743.08,293.25,645,293.25,524.59S390.87,306.1,511.13,305.33Z"
                    fill="#dcdcdc" opacity="0.31" />
                <path
                    d="M511.71,304.49A217.87,217.87,0,0,1,621.44,334c65,37.75,109,108,109.47,188.28,0,.5,0,1,0,1.47,0,80.94-44.09,151.77-109.5,189.75A217.87,217.87,0,0,1,511.71,743h-1.37c-120.26-.76-217.88-98.82-217.88-219.25s97.62-218.49,217.88-219.26Z"
                    fill="#dbdbdb" opacity="0.31" />
                <path
                    d="M510.92,303.65a217.9,217.9,0,0,1,109.73,29.51c65,37.75,109,108,109.46,188.28,0,.5,0,1,0,1.47,0,80.94-44.09,151.77-109.49,189.75a217.89,217.89,0,0,1-109.73,29.5h-1.38c-120.26-.76-217.88-98.82-217.88-219.25s97.62-218.49,217.88-219.26Z"
                    fill="#dadada" opacity="0.32" />
                <path
                    d="M510.13,302.81a217.87,217.87,0,0,1,109.72,29.51c65,37.75,109,108,109.47,188.28,0,.5,0,1,0,1.47,0,80.94-44.09,151.77-109.5,189.75a217.86,217.86,0,0,1-109.72,29.5h-1.38c-120.26-.76-217.88-98.82-217.88-219.25s97.62-218.49,217.88-219.26Z"
                    fill="#d9d9d9" opacity="0.32" />
                <path
                    d="M509.33,302a217.87,217.87,0,0,1,109.73,29.51c65,37.75,109,108,109.47,188.28,0,.5,0,1,0,1.47,0,80.94-44.08,151.77-109.49,189.75a217.87,217.87,0,0,1-109.73,29.5H508c-120.25-.76-217.87-98.82-217.87-219.25S387.7,302.74,508,302Z"
                    fill="#d8d8d8" opacity="0.32" />
                <path
                    d="M508.54,301.13a217.93,217.93,0,0,1,109.73,29.51c65,37.75,109,108,109.46,188.28,0,.5,0,1,0,1.47,0,80.94-44.09,151.77-109.49,189.75a217.92,217.92,0,0,1-109.73,29.5h-1.38c-120.26-.76-217.88-98.82-217.88-219.25S386.9,301.9,507.16,301.13Z"
                    fill="#d7d7d7" opacity="0.33" />
                <path
                    d="M507.75,300.29A217.87,217.87,0,0,1,617.47,329.8c65,37.75,109,108,109.47,188.28,0,.5,0,1,0,1.47,0,80.94-44.09,151.77-109.5,189.75a217.86,217.86,0,0,1-109.72,29.5h-1.38C386.11,738,288.49,640,288.49,519.55s97.62-218.49,217.88-219.26Z"
                    fill="#d6d6d6" opacity="0.33" />
                <path
                    d="M507,299.45A217.87,217.87,0,0,1,616.68,329c65,37.75,109,108,109.46,188.28,0,.5,0,1,0,1.47,0,80.94-44.08,151.77-109.49,189.75A217.87,217.87,0,0,1,507,738h-1.38C385.31,737.2,287.7,639.14,287.7,518.71s97.61-218.49,217.87-219.26Z"
                    fill="#d5d5d5" opacity="0.33" />
                <path
                    d="M506.16,298.61a217.93,217.93,0,0,1,109.73,29.51c65,37.75,109,108,109.46,188.28,0,.5,0,1,0,1.47,0,80.94-44.09,151.77-109.49,189.75a217.92,217.92,0,0,1-109.73,29.5h-1.38C384.52,736.36,286.9,638.3,286.9,517.87s97.62-218.49,217.88-219.26Z"
                    fill="#d4d4d4" opacity="0.33" />
                <path
                    d="M505.37,297.77a217.87,217.87,0,0,1,109.72,29.51c65,37.76,109,108,109.47,188.28,0,.5,0,1,0,1.47,0,80.94-44.09,151.77-109.5,189.75a217.86,217.86,0,0,1-109.72,29.5H504C383.73,735.52,286.11,637.46,286.11,517S383.73,298.54,504,297.77Z"
                    fill="#d3d3d3" opacity="0.34" />
                <path
                    d="M504.57,296.93A217.87,217.87,0,0,1,614.3,326.44c65,37.76,109,108,109.46,188.28,0,.5,0,1,0,1.47,0,80.94-44.08,151.77-109.49,189.75a217.87,217.87,0,0,1-109.73,29.5h-1.38c-120.26-.76-217.88-98.82-217.88-219.25S382.93,297.7,503.19,296.93Z"
                    fill="#d2d2d2" opacity="0.34" />
                <path
                    d="M503.78,296.1a217.83,217.83,0,0,1,109.73,29.51c65,37.75,109,108,109.46,188.27,0,.5,0,1,0,1.47,0,80.94-44.09,151.77-109.49,189.75a217.92,217.92,0,0,1-109.73,29.5H502.4c-120.26-.76-217.88-98.82-217.88-219.25S382.14,296.86,502.4,296.1Z"
                    fill="#d1d1d1" opacity="0.34" />
                <path
                    d="M503,295.26a217.76,217.76,0,0,1,109.72,29.51c65,37.75,109,108,109.47,188.28,0,.5,0,1,0,1.46,0,80.94-44.09,151.77-109.5,189.75A217.76,217.76,0,0,1,503,733.77h-1.38C381.35,733,283.73,635,283.73,514.51S381.35,296,501.61,295.26Z"
                    fill="#d0d0d0" opacity="0.35" />
                <path
                    d="M502.19,294.42a217.77,217.77,0,0,1,109.73,29.51c65,37.75,109,108,109.46,188.28,0,.5,0,1,0,1.47,0,80.93-44.08,151.76-109.49,189.74a217.77,217.77,0,0,1-109.73,29.51h-1.38c-120.26-.76-217.88-98.82-217.88-219.25s97.62-218.49,217.88-219.26Z"
                    fill="#cfcfcf" opacity="0.35" />
                <path
                    d="M501.4,293.58a217.93,217.93,0,0,1,109.73,29.51c65,37.75,109,108,109.46,188.28,0,.5,0,1,0,1.47,0,80.93-44.09,151.76-109.49,189.75a217.92,217.92,0,0,1-109.73,29.5H500c-120.26-.76-217.88-98.82-217.88-219.25S379.76,294.35,500,293.58Z"
                    fill="#cecece" opacity="0.35" />
                <path
                    d="M500.61,292.74a217.87,217.87,0,0,1,109.72,29.51c65,37.75,109,108,109.47,188.28,0,.5,0,1,0,1.47,0,80.93-44.09,151.76-109.5,189.75a217.86,217.86,0,0,1-109.72,29.5h-1.38C379,730.49,281.35,632.43,281.35,512S379,293.51,499.23,292.74Z"
                    fill="#cdcdcd" opacity="0.36" />
                <path
                    d="M499.81,291.9a217.87,217.87,0,0,1,109.73,29.51c65,37.75,109,108,109.46,188.28,0,.5,0,1,0,1.47C719,592.1,675,662.93,609.54,700.91a217.87,217.87,0,0,1-109.73,29.5h-1.38c-120.26-.76-217.88-98.82-217.88-219.25S378.17,292.67,498.43,291.9Z"
                    fill="#ccc" opacity="0.36" />
                <path
                    d="M499,291.06a217.93,217.93,0,0,1,109.73,29.51c65,37.75,109,108,109.46,188.28,0,.5,0,1,0,1.47,0,80.94-44.09,151.77-109.49,189.75A217.92,217.92,0,0,1,499,729.57h-1.38c-120.26-.76-217.88-98.82-217.88-219.25s97.62-218.49,217.88-219.26Z"
                    fill="#cbcbcb" opacity="0.36" />
                <path
                    d="M498.23,290.22A217.87,217.87,0,0,1,608,319.73c65,37.75,109,108,109.47,188.28,0,.5,0,1,0,1.47,0,80.94-44.09,151.77-109.5,189.75a217.86,217.86,0,0,1-109.72,29.5h-1.38C376.59,728,279,629.91,279,509.48S376.59,291,496.85,290.22Z"
                    fill="#cacaca" opacity="0.37" />
                <path
                    d="M497.43,289.38a217.87,217.87,0,0,1,109.73,29.51c65,37.75,109,108,109.46,188.28,0,.5,0,1,0,1.47,0,80.94-44.08,151.77-109.49,189.75a217.87,217.87,0,0,1-109.73,29.5h-1.38c-120.26-.76-217.88-98.82-217.88-219.25s97.62-218.49,217.88-219.26Z"
                    fill="#c9c9c9" opacity="0.37" />
                <path
                    d="M496.64,288.54a217.93,217.93,0,0,1,109.73,29.51c65,37.75,109,108,109.46,188.28,0,.5,0,1,0,1.47,0,80.94-44.09,151.77-109.49,189.75a217.92,217.92,0,0,1-109.73,29.5h-1.38C375,726.29,277.38,628.23,277.38,507.8S375,289.31,495.26,288.54Z"
                    fill="#c8c8c8" opacity="0.37" />
                <path
                    d="M495.85,287.7a217.87,217.87,0,0,1,109.72,29.51c65,37.75,109,108,109.47,188.28,0,.5,0,1,0,1.47,0,80.94-44.09,151.77-109.5,189.75a217.86,217.86,0,0,1-109.72,29.5h-1.38C374.21,725.45,276.59,627.39,276.59,507S374.21,288.47,494.47,287.7Z"
                    fill="#c7c7c7" opacity="0.38" />
                <path
                    d="M495.05,286.86a217.87,217.87,0,0,1,109.73,29.51c65,37.75,109,108,109.46,188.28,0,.5,0,1,0,1.47,0,80.94-44.08,151.77-109.49,189.75a217.87,217.87,0,0,1-109.73,29.5h-1.38c-120.26-.76-217.88-98.82-217.88-219.25s97.62-218.49,217.88-219.26Z"
                    fill="#c6c6c6" opacity="0.38" />
                <path
                    d="M494.26,286A217.93,217.93,0,0,1,604,315.53c65,37.75,109,108,109.46,188.28,0,.5,0,1,0,1.47,0,80.94-44.09,151.77-109.49,189.75a217.92,217.92,0,0,1-109.73,29.5h-1.38C372.62,723.77,275,625.71,275,505.28S372.62,286.79,492.88,286Z"
                    fill="#c5c5c5" opacity="0.38" />
                <path
                    d="M493.46,285.18a217.87,217.87,0,0,1,109.73,29.51c65,37.75,109,108,109.47,188.28,0,.5,0,1,0,1.47,0,80.94-44.09,151.77-109.5,189.75a217.87,217.87,0,0,1-109.73,29.5h-1.37c-120.26-.76-217.88-98.82-217.88-219.25S371.83,286,492.09,285.18Z"
                    fill="#c4c4c4" opacity="0.39" />
                <path
                    d="M492.67,284.34A217.87,217.87,0,0,1,602.4,313.85c65,37.75,109,108,109.46,188.28,0,.5,0,1,0,1.47,0,80.94-44.08,151.77-109.49,189.75a217.87,217.87,0,0,1-109.73,29.5h-1.38C371,722.09,273.41,624,273.41,503.6S371,285.11,491.29,284.34Z"
                    fill="#c3c3c3" opacity="0.39" />
                <path
                    d="M491.88,283.5A217.93,217.93,0,0,1,601.61,313c65,37.76,108.95,108,109.46,188.28,0,.5,0,1,0,1.47,0,80.94-44.09,151.77-109.49,189.75A217.92,217.92,0,0,1,491.88,722H490.5c-120.26-.76-217.88-98.82-217.88-219.25S370.24,284.27,490.5,283.5Z"
                    fill="#c2c2c2" opacity="0.39" />
                <path
                    d="M491.08,282.66a217.87,217.87,0,0,1,109.73,29.51c65,37.76,109,108,109.47,188.28,0,.5,0,1,0,1.47,0,80.94-44.09,151.77-109.5,189.75a217.87,217.87,0,0,1-109.73,29.5H489.7c-120.25-.76-217.87-98.82-217.87-219.25S369.45,283.43,489.7,282.66Z"
                    fill="#c1c1c1" opacity="0.39" />
                <path
                    d="M490.29,281.82A217.87,217.87,0,0,1,600,311.33c65,37.76,109,108,109.46,188.28,0,.5,0,1,0,1.47,0,80.94-44.08,151.77-109.49,189.75a217.87,217.87,0,0,1-109.73,29.5h-1.38C368.65,719.57,271,621.51,271,501.08s97.62-218.49,217.88-219.26Z"
                    fill="silver" opacity="0.4" />
                <path
                    d="M489.5,281A217.83,217.83,0,0,1,599.23,310.5c65,37.75,108.95,108,109.46,188.27,0,.5,0,1,0,1.47,0,80.94-44.09,151.77-109.49,189.75a217.92,217.92,0,0,1-109.73,29.5h-1.38c-120.26-.76-217.88-98.82-217.88-219.25S367.86,281.75,488.12,281Z"
                    fill="#bfbfbf" opacity="0.4" />
                <path
                    d="M488.7,280.15a217.77,217.77,0,0,1,109.73,29.51c65,37.75,109,108,109.47,188.28,0,.49,0,1,0,1.46,0,80.94-44.08,151.77-109.49,189.75a217.77,217.77,0,0,1-109.73,29.5h-1.38c-120.25-.76-217.87-98.82-217.87-219.25s97.62-218.49,217.87-219.25Z"
                    fill="#bebebe" opacity="0.4" />
                <path
                    d="M487.91,279.31a217.8,217.8,0,0,1,109.73,29.51c65,37.75,109,108,109.46,188.28,0,.5,0,1,0,1.46,0,80.94-44.08,151.77-109.49,189.75a217.77,217.77,0,0,1-109.73,29.51h-1.38C366.27,717.05,268.65,619,268.65,498.56s97.62-218.49,217.88-219.25Z"
                    fill="#bdbdbd" opacity="0.41" />
                <path
                    d="M487.12,278.47A217.83,217.83,0,0,1,596.85,308c65,37.75,108.95,108,109.46,188.28,0,.5,0,1,0,1.47,0,80.93-44.09,151.76-109.49,189.74A217.83,217.83,0,0,1,487.12,717h-1.38c-120.26-.76-217.88-98.82-217.88-219.25s97.62-218.49,217.88-219.26Z"
                    fill="#bcbcbc" opacity="0.41" />
                <path
                    d="M486.32,277.63a217.77,217.77,0,0,1,109.73,29.51c65,37.75,109,108,109.46,188.28,0,.5,0,1,0,1.47,0,80.93-44.08,151.76-109.49,189.74a217.77,217.77,0,0,1-109.73,29.51h-1.38c-120.25-.76-217.87-98.82-217.87-219.25S364.69,278.4,484.94,277.63Z"
                    fill="#bbb" opacity="0.41" />
                <path
                    d="M485.53,276.79A217.9,217.9,0,0,1,595.26,306.3c65,37.75,109,108,109.46,188.28,0,.5,0,1,0,1.47,0,80.93-44.08,151.76-109.49,189.75a217.87,217.87,0,0,1-109.73,29.5h-1.38c-120.26-.76-217.88-98.82-217.88-219.25s97.62-218.49,217.88-219.26Z"
                    fill="#bababa" opacity="0.42" />
                <path
                    d="M484.74,276a217.93,217.93,0,0,1,109.73,29.51c65,37.75,108.95,108,109.46,188.28,0,.5,0,1,0,1.47C704,576.14,659.87,647,594.47,685a217.92,217.92,0,0,1-109.73,29.5h-1.38c-120.26-.76-217.88-98.82-217.88-219.25S363.1,276.72,483.36,276Z"
                    fill="#b9b9b9" opacity="0.42" />
                <path
                    d="M483.94,275.11a217.87,217.87,0,0,1,109.73,29.51c65,37.75,109,108,109.46,188.28,0,.5,0,1,0,1.47,0,80.94-44.08,151.77-109.49,189.75a217.87,217.87,0,0,1-109.73,29.5h-1.38c-120.26-.76-217.87-98.82-217.87-219.25S362.3,275.88,482.56,275.11Z"
                    fill="#b8b8b8" opacity="0.42" />
                <path
                    d="M483.15,274.27a217.9,217.9,0,0,1,109.73,29.51c65,37.75,109,108,109.46,188.28,0,.5,0,1,0,1.47,0,80.94-44.08,151.77-109.49,189.75a217.89,217.89,0,0,1-109.73,29.5h-1.38C361.51,712,263.89,614,263.89,493.53S361.51,275,481.77,274.27Z"
                    fill="#b7b7b7" opacity="0.43" />
                <path
                    d="M482.36,273.43a217.93,217.93,0,0,1,109.73,29.51c65,37.75,108.95,108,109.46,188.28,0,.5,0,1,0,1.47,0,80.94-44.09,151.77-109.49,189.75a217.92,217.92,0,0,1-109.73,29.5H481c-120.26-.76-217.88-98.82-217.88-219.25S360.72,274.2,481,273.43Z"
                    fill="#b6b6b6" opacity="0.43" />
                <path
                    d="M481.56,272.59A217.87,217.87,0,0,1,591.29,302.1c65,37.75,109,108,109.46,188.28,0,.5,0,1,0,1.47,0,80.94-44.08,151.77-109.49,189.75a217.87,217.87,0,0,1-109.73,29.5h-1.38c-120.26-.76-217.88-98.82-217.88-219.25s97.62-218.49,217.88-219.26Z"
                    fill="#b5b5b5" opacity="0.43" />
                <path
                    d="M480.77,271.75A217.9,217.9,0,0,1,590.5,301.26c65,37.75,109,108,109.46,188.28,0,.5,0,1,0,1.47C700,572,655.91,642.78,590.5,680.76a217.89,217.89,0,0,1-109.73,29.5h-1.38C359.13,709.5,261.51,611.44,261.51,491s97.62-218.49,217.88-219.26Z"
                    fill="#b4b4b4" opacity="0.44" />
                <path
                    d="M480,270.91a217.93,217.93,0,0,1,109.73,29.51c65,37.75,108.95,108,109.46,188.28,0,.5,0,1,0,1.47,0,80.94-44.09,151.77-109.49,189.75A217.92,217.92,0,0,1,480,709.42H478.6c-120.26-.76-217.88-98.82-217.88-219.25S358.34,271.68,478.6,270.91Z"
                    fill="#b3b3b3" opacity="0.44" />
                <path
                    d="M479.18,270.07a217.87,217.87,0,0,1,109.73,29.51c65,37.75,109,108,109.46,188.28,0,.5,0,1,0,1.47,0,80.94-44.08,151.77-109.49,189.75a217.87,217.87,0,0,1-109.73,29.5H477.8c-120.26-.76-217.88-98.82-217.88-219.25S357.54,270.84,477.8,270.07Z"
                    fill="#b2b2b2" opacity="0.44" />
                <path
                    d="M478.39,269.23a217.9,217.9,0,0,1,109.73,29.51c65,37.75,109,108,109.46,188.28,0,.5,0,1,0,1.47,0,80.94-44.08,151.77-109.49,189.75a217.89,217.89,0,0,1-109.73,29.5H477C356.75,707,259.13,608.92,259.13,488.49S356.75,270,477,269.23Z"
                    fill="#b1b1b1" opacity="0.44" />
                <path
                    d="M477.6,268.39A217.93,217.93,0,0,1,587.33,297.9c65,37.76,108.95,108,109.46,188.28,0,.5,0,1,0,1.47,0,80.94-44.09,151.77-109.49,189.75A217.92,217.92,0,0,1,477.6,706.9h-1.38C356,706.14,258.34,608.08,258.34,487.65S356,269.16,476.22,268.39Z"
                    fill="#b0b0b0" opacity="0.45" />
                <path
                    d="M476.8,267.55a217.87,217.87,0,0,1,109.73,29.51c65,37.76,109,108,109.46,188.28,0,.5,0,1,0,1.47,0,80.94-44.08,151.77-109.49,189.75a217.87,217.87,0,0,1-109.73,29.5h-1.38c-120.26-.76-217.88-98.82-217.88-219.25s97.62-218.49,217.88-219.26Z"
                    fill="#afafaf" opacity="0.45" />
                <path
                    d="M476,266.71a217.9,217.9,0,0,1,109.73,29.51c65,37.76,109,108,109.46,188.28,0,.5,0,1,0,1.47,0,80.94-44.09,151.77-109.49,189.75A217.89,217.89,0,0,1,476,705.22h-1.38C354.37,704.46,256.75,606.4,256.75,486s97.62-218.49,217.88-219.26Z"
                    fill="#aeaeae" opacity="0.45" />
                <path
                    d="M475.22,265.88A217.83,217.83,0,0,1,585,295.39c65,37.75,108.95,108,109.46,188.27,0,.5,0,1,0,1.47,0,80.94-44.09,151.77-109.49,189.75a217.92,217.92,0,0,1-109.73,29.5h-1.38C353.58,703.62,256,605.56,256,485.13s97.62-218.49,217.88-219.25Z"
                    fill="#adadad" opacity="0.46" />
                <path
                    d="M474.42,265a217.77,217.77,0,0,1,109.73,29.51c65,37.75,109,108,109.46,188.27,0,.5,0,1,0,1.47,0,80.94-44.08,151.77-109.49,189.75a217.77,217.77,0,0,1-109.73,29.5H473c-120.26-.76-217.88-98.82-217.88-219.25S352.78,265.8,473,265Z"
                    fill="#acacac" opacity="0.46" />
                <path
                    d="M473.63,264.2a217.8,217.8,0,0,1,109.73,29.51c65,37.75,108.95,108,109.46,188.28,0,.49,0,1,0,1.46,0,80.94-44.09,151.77-109.49,189.75a217.79,217.79,0,0,1-109.73,29.5h-1.38C352,701.94,254.37,603.88,254.37,483.45S352,265,472.25,264.2Z"
                    fill="#ababab" opacity="0.46" />
                <path
                    d="M472.83,263.36a217.84,217.84,0,0,1,109.74,29.51c65,37.75,108.95,108,109.46,188.28,0,.5,0,1,0,1.46,0,80.94-44.09,151.77-109.5,189.75a217.77,217.77,0,0,1-109.73,29.51h-1.37c-120.26-.77-217.88-98.82-217.88-219.26S351.2,264.12,471.46,263.36Z"
                    fill="#aaa" opacity="0.47" />
                <path
                    d="M472,262.52A217.77,217.77,0,0,1,581.77,292c65,37.75,109,108,109.46,188.28,0,.5,0,1,0,1.47,0,80.93-44.08,151.76-109.49,189.74A217.77,217.77,0,0,1,472,701h-1.38c-120.26-.76-217.88-98.82-217.88-219.25S350.4,263.29,470.66,262.52Z"
                    fill="#a9a9a9" opacity="0.47" />
                <path
                    d="M471.25,261.68A217.8,217.8,0,0,1,581,291.19c65,37.75,108.95,108,109.46,188.28,0,.5,0,1,0,1.47,0,80.93-44.09,151.76-109.49,189.74a217.8,217.8,0,0,1-109.73,29.51h-1.38C349.61,699.43,252,601.37,252,480.94s97.62-218.49,217.88-219.26Z"
                    fill="#a8a8a8" opacity="0.47" />
                <path
                    d="M470.45,260.84a217.94,217.94,0,0,1,109.74,29.51c65,37.75,108.95,108,109.46,188.28,0,.5,0,1,0,1.47,0,80.93-44.09,151.76-109.5,189.74a217.77,217.77,0,0,1-109.73,29.51h-1.38C348.82,698.59,251.2,600.53,251.2,480.1s97.62-218.49,217.87-219.26Z"
                    fill="#a7a7a7" opacity="0.48" />
                <path
                    d="M469.66,260a217.87,217.87,0,0,1,109.73,29.51c65,37.75,109,108,109.46,188.28,0,.5,0,1,0,1.47C688.88,560.19,644.8,631,579.39,669a217.87,217.87,0,0,1-109.73,29.5h-1.38C348,697.75,250.4,599.69,250.4,479.26S348,260.77,468.28,260Z"
                    fill="#a6a6a6" opacity="0.48" />
                <path
                    d="M468.87,259.16A217.9,217.9,0,0,1,578.6,288.67c65,37.75,108.95,108,109.46,188.28,0,.5,0,1,0,1.47,0,80.93-44.09,151.76-109.49,189.75a217.89,217.89,0,0,1-109.73,29.5h-1.38c-120.26-.76-217.88-98.82-217.88-219.25s97.62-218.49,217.88-219.26Z"
                    fill="#a5a5a5" opacity="0.48" />
                <path
                    d="M468.07,258.32a217.94,217.94,0,0,1,109.74,29.51c65,37.75,109,108,109.46,188.28,0,.5,0,1,0,1.47,0,80.94-44.08,151.76-109.49,189.75a217.87,217.87,0,0,1-109.73,29.5h-1.38C346.44,696.07,248.82,598,248.82,477.58s97.62-218.49,217.87-219.26Z"
                    fill="#a4a4a4" opacity="0.49" />
                <path
                    d="M467.28,257.48A217.87,217.87,0,0,1,577,287c65,37.75,109,108,109.46,188.28,0,.5,0,1,0,1.47,0,80.94-44.08,151.77-109.49,189.75A217.87,217.87,0,0,1,467.28,696H465.9C345.64,695.23,248,597.17,248,476.74S345.64,258.25,465.9,257.48Z"
                    fill="#a3a3a3" opacity="0.49" />
                <path
                    d="M466.49,256.64a217.9,217.9,0,0,1,109.73,29.51c65,37.75,108.95,108,109.46,188.28,0,.5,0,1,0,1.47,0,80.94-44.09,151.77-109.49,189.75a217.89,217.89,0,0,1-109.73,29.5h-1.38c-120.26-.76-217.88-98.82-217.88-219.25s97.62-218.49,217.88-219.26Z"
                    fill="#a2a2a2" opacity="0.49" />
                <path
                    d="M465.69,255.8a217.87,217.87,0,0,1,109.73,29.51c65,37.75,109,108,109.46,188.28,0,.5,0,1,0,1.47,0,80.94-44.08,151.77-109.49,189.75a217.87,217.87,0,0,1-109.73,29.5h-1.38c-120.25-.76-217.87-98.82-217.87-219.25S344.06,256.57,464.31,255.8Z"
                    fill="#a1a1a1" opacity="0.49" />
                <path
                    d="M464.9,255a217.87,217.87,0,0,1,109.73,29.51c65,37.75,109,108,109.46,188.28,0,.5,0,1,0,1.47C684.12,555.16,640,626,574.63,664a217.87,217.87,0,0,1-109.73,29.5h-1.38c-120.26-.76-217.88-98.82-217.88-219.25S343.26,255.73,463.52,255Z"
                    fill="#a0a0a0" opacity="0.5" />
                <path
                    d="M464.11,254.12a217.9,217.9,0,0,1,109.73,29.51c65,37.76,108.95,108,109.46,188.28,0,.5,0,1,0,1.47,0,80.94-44.09,151.77-109.49,189.75a217.89,217.89,0,0,1-109.73,29.5h-1.38c-120.26-.76-217.88-98.82-217.88-219.25s97.62-218.49,217.88-219.26Z"
                    fill="#9f9f9f" opacity="0.5" />
                <path
                    d="M463.31,253.28A217.87,217.87,0,0,1,573,282.79c65,37.76,109,108,109.46,188.28,0,.5,0,1,0,1.47,0,80.94-44.08,151.77-109.49,189.75a217.87,217.87,0,0,1-109.73,29.5h-1.38C341.68,691,244.06,593,244.06,472.54s97.62-218.49,217.87-219.26Z"
                    fill="#9e9e9e" opacity="0.5" />
                <path
                    d="M462.52,252.44A217.87,217.87,0,0,1,572.25,282c65,37.76,109,108,109.46,188.28,0,.5,0,1,0,1.47,0,80.94-44.08,151.77-109.49,189.75A217.87,217.87,0,0,1,462.52,691h-1.38c-120.26-.76-217.88-98.82-217.88-219.25s97.62-218.49,217.88-219.26Z"
                    fill="#9d9d9d" opacity="0.51" />
                <path
                    d="M461.73,251.6a217.9,217.9,0,0,1,109.73,29.51c65,37.76,108.95,108,109.46,188.28,0,.5,0,1,0,1.47,0,80.94-44.09,151.77-109.49,189.75a217.89,217.89,0,0,1-109.73,29.5h-1.38c-120.26-.76-217.88-98.82-217.88-219.25S340.09,252.37,460.35,251.6Z"
                    fill="#9c9c9c" opacity="0.51" />
                <path
                    d="M460.93,250.77a217.77,217.77,0,0,1,109.73,29.51c65,37.75,109,108,109.46,188.27,0,.5,0,1,0,1.47,0,80.94-44.08,151.77-109.49,189.75a217.87,217.87,0,0,1-109.73,29.5h-1.38C339.29,688.51,241.68,590.45,241.68,470s97.61-218.49,217.87-219.25Z"
                    fill="#9b9b9b" opacity="0.51" />
                <path
                    d="M460.14,249.93a217.77,217.77,0,0,1,109.73,29.51c65,37.75,109,108,109.46,188.27,0,.5,0,1,0,1.47,0,80.94-44.08,151.77-109.49,189.75a217.87,217.87,0,0,1-109.73,29.5h-1.38c-120.26-.76-217.88-98.82-217.88-219.25S338.5,250.69,458.76,249.93Z"
                    fill="#9a9a9a" opacity="0.52" />
                <path
                    d="M459.35,249.09A217.8,217.8,0,0,1,569.08,278.6c65,37.75,108.95,108,109.46,188.28,0,.49,0,1,0,1.46,0,80.94-44.09,151.77-109.49,189.75a217.79,217.79,0,0,1-109.73,29.5H458c-120.26-.76-217.88-98.82-217.88-219.25S337.71,249.85,458,249.09Z"
                    fill="#999" opacity="0.52" />
                <path
                    d="M458.55,248.25a217.77,217.77,0,0,1,109.73,29.51c65,37.75,109,108,109.46,188.28,0,.5,0,1,0,1.46,0,80.94-44.08,151.77-109.49,189.75a217.77,217.77,0,0,1-109.73,29.51h-1.38C336.91,686,239.3,587.93,239.3,467.5S336.91,249,457.17,248.25Z"
                    fill="#989898" opacity="0.52" />
                <path
                    d="M457.76,247.41a217.77,217.77,0,0,1,109.73,29.51c65,37.75,109,108,109.46,188.28,0,.5,0,1,0,1.46,0,80.94-44.08,151.77-109.49,189.75a217.77,217.77,0,0,1-109.73,29.51h-1.38C336.12,685.15,238.5,587.1,238.5,466.66s97.62-218.49,217.88-219.25Z"
                    fill="#979797" opacity="0.53" />
                <path
                    d="M457,246.57A217.8,217.8,0,0,1,566.7,276.08c65,37.75,108.95,108,109.46,188.28,0,.5,0,1,0,1.47,0,80.93-44.09,151.76-109.49,189.74A217.8,217.8,0,0,1,457,685.08h-1.38c-120.26-.76-217.88-98.82-217.88-219.25s97.62-218.49,217.88-219.26Z"
                    fill="#969696" opacity="0.53" />
                <path
                    d="M456.17,245.73A217.77,217.77,0,0,1,565.9,275.24c65,37.75,109,108,109.46,188.28,0,.5,0,1,0,1.47,0,80.93-44.08,151.76-109.49,189.74a217.77,217.77,0,0,1-109.73,29.51h-1.38C334.53,683.48,236.91,585.42,236.91,465S334.53,246.5,454.79,245.73Z"
                    fill="#959595" opacity="0.53" />
                <path
                    d="M455.38,244.89A217.77,217.77,0,0,1,565.11,274.4c65,37.75,108.95,108,109.46,188.28,0,.5,0,1,0,1.47,0,80.93-44.08,151.76-109.49,189.74A217.77,217.77,0,0,1,455.38,683.4H454c-120.26-.76-217.88-98.82-217.88-219.25S333.74,245.66,454,244.89Z"
                    fill="#949494" opacity="0.54" />
                <path
                    d="M454.58,244.05a217.91,217.91,0,0,1,109.74,29.51c65,37.75,108.95,108,109.46,188.28,0,.5,0,1,0,1.47,0,80.93-44.09,151.76-109.49,189.75a217.9,217.9,0,0,1-109.74,29.5h-1.37C333,681.8,235.33,583.74,235.33,463.31S333,244.82,453.21,244.05Z"
                    fill="#939393" opacity="0.54" />
                <path
                    d="M453.79,243.21a217.87,217.87,0,0,1,109.73,29.51c65,37.75,109,108,109.46,188.28,0,.5,0,1,0,1.47,0,80.93-44.08,151.76-109.49,189.75a217.87,217.87,0,0,1-109.73,29.5h-1.38C332.15,681,234.53,582.9,234.53,462.47S332.15,244,452.41,243.21Z"
                    fill="#929292" opacity="0.54" />
                <path
                    d="M453,242.37a217.9,217.9,0,0,1,109.73,29.51c65,37.75,108.95,108,109.46,188.28,0,.5,0,1,0,1.47,0,80.93-44.08,151.76-109.49,189.75A217.87,217.87,0,0,1,453,680.88h-1.38c-120.26-.76-217.88-98.82-217.88-219.25s97.62-218.49,217.88-219.26Z"
                    fill="#919191" opacity="0.55" />
                <path
                    d="M452.2,241.53A217.91,217.91,0,0,1,561.94,271c65,37.75,108.95,108,109.46,188.28,0,.5,0,1,0,1.47,0,80.94-44.09,151.76-109.49,189.75A217.9,217.9,0,0,1,452.2,680h-1.37C330.57,679.28,233,581.22,233,460.79S330.57,242.3,450.83,241.53Z"
                    fill="#909090" opacity="0.55" />
                <path
                    d="M451.41,240.69A217.87,217.87,0,0,1,561.14,270.2c65,37.75,109,108,109.46,188.28,0,.5,0,1,0,1.47,0,80.94-44.08,151.77-109.49,189.75a217.87,217.87,0,0,1-109.73,29.5H450C329.77,678.44,232.15,580.38,232.15,460S329.77,241.46,450,240.69Z"
                    fill="#8f8f8f" opacity="0.55" />
                <path
                    d="M450.62,239.85a217.9,217.9,0,0,1,109.73,29.51c65,37.76,108.95,108,109.46,188.28,0,.5,0,1,0,1.47,0,80.94-44.08,151.77-109.49,189.75a217.87,217.87,0,0,1-109.73,29.5h-1.38C329,677.6,231.36,579.54,231.36,459.11S329,240.62,449.24,239.85Z"
                    fill="#8e8e8e" opacity="0.55" />
                <path
                    d="M449.82,239a217.94,217.94,0,0,1,109.74,29.51c65,37.76,109,108,109.46,188.28,0,.5,0,1,0,1.47C669.05,539.21,625,610,559.56,648a217.93,217.93,0,0,1-109.74,29.5h-1.38c-120.25-.76-217.87-98.82-217.87-219.25S328.19,239.78,448.44,239Z"
                    fill="#8d8d8d" opacity="0.56" />
                <path
                    d="M449,238.17a217.87,217.87,0,0,1,109.73,29.51c65,37.76,109,108,109.46,188.28,0,.5,0,1,0,1.47,0,80.94-44.08,151.77-109.49,189.75A217.87,217.87,0,0,1,449,676.68h-1.38c-120.26-.76-217.88-98.82-217.88-219.25s97.62-218.49,217.88-219.26Z"
                    fill="#8c8c8c" opacity="0.56" />
                <path
                    d="M448.24,237.33A217.9,217.9,0,0,1,558,266.84c65,37.76,108.95,108,109.46,188.28,0,.5,0,1,0,1.47,0,80.94-44.08,151.77-109.49,189.75a217.87,217.87,0,0,1-109.73,29.5h-1.38C326.6,675.08,229,577,229,456.59S326.6,238.1,446.86,237.33Z"
                    fill="#8b8b8b" opacity="0.56" />
                <path
                    d="M447.44,236.49A217.94,217.94,0,0,1,557.18,266c65,37.76,109,108,109.46,188.28,0,.5,0,1,0,1.47,0,80.94-44.08,151.77-109.48,189.75A217.93,217.93,0,0,1,447.44,675h-1.38c-120.25-.76-217.87-98.82-217.87-219.25s97.62-218.49,217.87-219.26Z"
                    fill="#8a8a8a" opacity="0.57" />
                <path
                    d="M446.65,235.66a217.77,217.77,0,0,1,109.73,29.51c65,37.75,109,108,109.46,188.27,0,.5,0,1,0,1.47,0,80.94-44.08,151.77-109.49,189.75a217.87,217.87,0,0,1-109.73,29.5h-1.38C325,673.4,227.39,575.34,227.39,454.91S325,236.42,445.27,235.66Z"
                    fill="#898989" opacity="0.57" />
                <path
                    d="M445.86,234.82a217.8,217.8,0,0,1,109.73,29.51c65,37.75,108.95,108,109.46,188.27,0,.5,0,1,0,1.47,0,80.94-44.08,151.77-109.49,189.75a217.89,217.89,0,0,1-109.73,29.5h-1.38C324.22,672.56,226.6,574.5,226.6,454.07s97.62-218.49,217.88-219.25Z"
                    fill="#888" opacity="0.57" />
                <path
                    d="M445.06,234A217.84,217.84,0,0,1,554.8,263.49c65,37.75,109,108,109.45,188.27,0,.5,0,1,0,1.47C664.28,534.17,620.2,605,554.8,643a217.83,217.83,0,0,1-109.74,29.5h-1.38c-120.25-.76-217.87-98.82-217.87-219.25S323.43,234.74,443.68,234Z"
                    fill="#878787" opacity="0.58" />
                <path
                    d="M444.27,233.14A217.77,217.77,0,0,1,554,262.65c65,37.75,109,108,109.46,188.28,0,.49,0,1,0,1.46,0,80.94-44.08,151.77-109.49,189.75a217.77,217.77,0,0,1-109.73,29.5h-1.38C322.63,670.88,225,572.82,225,452.39S322.63,233.9,442.89,233.14Z"
                    fill="#868686" opacity="0.58" />
                <path
                    d="M443.48,232.3a217.8,217.8,0,0,1,109.73,29.51c65,37.75,108.95,108,109.46,188.28,0,.5,0,1,0,1.46,0,80.94-44.08,151.77-109.49,189.75a217.8,217.8,0,0,1-109.73,29.51H442.1C321.84,670,224.22,572,224.22,451.55S321.84,233.06,442.1,232.3Z"
                    fill="#858585" opacity="0.58" />
                <path
                    d="M442.68,231.46A217.84,217.84,0,0,1,552.42,261c65,37.75,108.94,108,109.45,188.28,0,.5,0,1,0,1.46,0,80.94-44.08,151.77-109.48,189.75A217.84,217.84,0,0,1,442.68,670H441.3c-120.25-.77-217.87-98.82-217.87-219.26S321.05,232.22,441.3,231.46Z"
                    fill="#848484" opacity="0.59" />
                <path
                    d="M441.89,230.62a217.77,217.77,0,0,1,109.73,29.51c65,37.75,109,108,109.46,188.28,0,.5,0,1,0,1.47,0,80.93-44.08,151.76-109.49,189.74a217.77,217.77,0,0,1-109.73,29.51h-1.38c-120.26-.76-217.88-98.82-217.88-219.25s97.62-218.49,217.88-219.26Z"
                    fill="#838383" opacity="0.59" />
                <path
                    d="M441.1,229.78a217.8,217.8,0,0,1,109.73,29.51c65,37.75,108.95,108,109.46,188.28,0,.5,0,1,0,1.47,0,80.93-44.08,151.76-109.49,189.74A217.8,217.8,0,0,1,441.1,668.29h-1.38C319.46,667.53,221.84,569.47,221.84,449s97.62-218.49,217.88-219.26Z"
                    fill="#828282" opacity="0.59" />
                <path
                    d="M440.3,228.94A217.84,217.84,0,0,1,550,258.45C615,296.2,659,366.4,659.49,446.73c0,.5,0,1,0,1.47,0,80.93-44.08,151.76-109.48,189.74A217.84,217.84,0,0,1,440.3,667.45h-1.38c-120.26-.76-217.87-98.82-217.87-219.25s97.61-218.49,217.87-219.26Z"
                    fill="#818181" opacity="0.6" />
                <path
                    d="M439.51,228.1a217.87,217.87,0,0,1,109.73,29.51c65,37.75,109,108,109.46,188.28,0,.5,0,1,0,1.47,0,80.93-44.08,151.76-109.49,189.74a217.77,217.77,0,0,1-109.73,29.51h-1.38c-120.26-.76-217.88-98.82-217.88-219.25S317.87,228.87,438.13,228.1Z"
                    fill="gray" opacity="0.6" />
                <path
                    d="M438.72,227.26a217.9,217.9,0,0,1,109.73,29.51c65,37.75,108.95,108,109.46,188.28,0,.5,0,1,0,1.47,0,80.93-44.08,151.76-109.49,189.75a217.89,217.89,0,0,1-109.73,29.5h-1.38C317.08,665,219.46,567,219.46,446.52S317.08,228,437.34,227.26Z"
                    fill="#7f7f7f" opacity="0.6" />
                <path
                    d="M437.92,226.42a217.94,217.94,0,0,1,109.74,29.51c65,37.75,108.94,108,109.45,188.28,0,.5,0,1,0,1.47,0,80.93-44.08,151.76-109.48,189.75a217.93,217.93,0,0,1-109.74,29.5h-1.38c-120.26-.76-217.87-98.82-217.87-219.25s97.61-218.49,217.87-219.26Z"
                    fill="#7e7e7e" opacity="0.6" />
                <path
                    d="M437.13,225.58a217.87,217.87,0,0,1,109.73,29.51c65,37.75,108.95,108,109.46,188.28,0,.5,0,1,0,1.47,0,80.94-44.08,151.76-109.49,189.75a217.87,217.87,0,0,1-109.73,29.5h-1.38c-120.26-.76-217.88-98.82-217.88-219.25s97.62-218.49,217.88-219.26Z"
                    fill="#7d7d7d" opacity="0.61" />
                <path
                    d="M436.33,224.74a217.91,217.91,0,0,1,109.74,29.51c65,37.76,108.95,108,109.46,188.28,0,.5,0,1,0,1.47,0,80.94-44.09,151.76-109.49,189.75a217.9,217.9,0,0,1-109.74,29.5H435C314.7,662.49,217.08,564.43,217.08,444S314.7,225.51,435,224.74Z"
                    fill="#7c7c7c" opacity="0.61" />
                <path
                    d="M435.54,223.9a217.94,217.94,0,0,1,109.74,29.51c65,37.76,108.94,108,109.45,188.28,0,.5,0,1,0,1.47,0,80.94-44.08,151.77-109.48,189.75a217.93,217.93,0,0,1-109.74,29.5h-1.38c-120.26-.76-217.87-98.82-217.87-219.25S313.9,224.67,434.16,223.9Z"
                    fill="#7b7b7b" opacity="0.61" />
                <path
                    d="M434.75,223.06a217.87,217.87,0,0,1,109.73,29.51c65,37.76,108.95,108,109.46,188.28,0,.5,0,1,0,1.47,0,80.94-44.08,151.77-109.49,189.75a217.87,217.87,0,0,1-109.73,29.5h-1.38c-120.26-.76-217.88-98.82-217.88-219.25s97.62-218.49,217.88-219.26Z"
                    fill="#7a7a7a" opacity="0.62" />
                <path
                    d="M434,222.22a217.91,217.91,0,0,1,109.74,29.51c65,37.76,108.95,108,109.46,188.28,0,.5,0,1,0,1.47,0,80.94-44.09,151.77-109.49,189.75A217.9,217.9,0,0,1,434,660.73h-1.37C312.32,660,214.7,561.91,214.7,441.48S312.32,223,432.58,222.22Z"
                    fill="#797979" opacity="0.62" />
                <path
                    d="M433.16,221.38A217.94,217.94,0,0,1,542.9,250.89c65,37.76,108.94,108,109.45,188.28,0,.5,0,1,0,1.47,0,80.94-44.08,151.77-109.48,189.75a217.93,217.93,0,0,1-109.74,29.5h-1.38c-120.26-.76-217.88-98.82-217.88-219.25s97.62-218.49,217.88-219.26Z"
                    fill="#787878" opacity="0.62" />
                <path
                    d="M432.37,220.55A217.77,217.77,0,0,1,542.1,250.06c65,37.75,108.95,108,109.46,188.27,0,.5,0,1,0,1.47,0,80.94-44.08,151.77-109.49,189.75a217.87,217.87,0,0,1-109.73,29.5H431c-120.26-.76-217.88-98.82-217.88-219.25S310.73,221.31,431,220.55Z"
                    fill="#777" opacity="0.63" />
                <path
                    d="M431.57,219.71a217.81,217.81,0,0,1,109.74,29.51c65,37.75,109,108,109.46,188.27,0,.5,0,1,0,1.47,0,80.94-44.09,151.77-109.49,189.75a217.9,217.9,0,0,1-109.74,29.5h-1.38C309.94,657.45,212.32,559.39,212.32,439s97.62-218.49,217.87-219.25Z"
                    fill="#767676" opacity="0.63" />
                <path
                    d="M430.78,218.87a217.84,217.84,0,0,1,109.74,29.51c65,37.75,108.94,108,109.45,188.27,0,.5,0,1,0,1.47,0,80.94-44.08,151.77-109.48,189.75a217.93,217.93,0,0,1-109.74,29.5H429.4c-120.26-.76-217.88-98.82-217.88-219.25S309.14,219.63,429.4,218.87Z"
                    fill="#757575" opacity="0.63" />
                <path
                    d="M430,218a217.77,217.77,0,0,1,109.73,29.51c65,37.75,108.95,108,109.46,188.28,0,.49,0,1,0,1.46,0,80.94-44.08,151.77-109.49,189.75A217.77,217.77,0,0,1,430,656.53h-1.38c-120.26-.76-217.88-98.82-217.88-219.25S308.35,218.79,428.61,218Z"
                    fill="#747474" opacity="0.64" />
                <path
                    d="M429.19,217.19A217.81,217.81,0,0,1,538.93,246.7c65,37.75,109,108,109.46,188.28,0,.49,0,1,0,1.46,0,80.94-44.09,151.77-109.49,189.75A217.81,217.81,0,0,1,429.19,655.7h-1.38c-120.25-.77-217.87-98.83-217.87-219.26S307.56,218,427.81,217.19Z"
                    fill="#737373" opacity="0.64" />
                <path
                    d="M428.4,216.35a217.84,217.84,0,0,1,109.74,29.51c65,37.75,108.94,108,109.45,188.28,0,.5,0,1,0,1.46,0,80.94-44.08,151.77-109.48,189.75A217.84,217.84,0,0,1,428.4,654.86H427C306.76,654.09,209.14,556,209.14,435.6S306.76,217.11,427,216.35Z"
                    fill="#727272" opacity="0.64" />
                <path
                    d="M427.61,215.51A217.77,217.77,0,0,1,537.34,245c65,37.75,108.95,108,109.46,188.28,0,.5,0,1,0,1.46,0,80.94-44.08,151.77-109.49,189.75A217.77,217.77,0,0,1,427.61,654h-1.38C306,653.25,208.35,555.2,208.35,434.76S306,216.27,426.23,215.51Z"
                    fill="#717171" opacity="0.65" />
                <path
                    d="M426.81,214.67a217.81,217.81,0,0,1,109.74,29.51c65,37.75,109,108,109.46,188.28,0,.5,0,1,0,1.47,0,80.93-44.08,151.76-109.48,189.74a217.81,217.81,0,0,1-109.74,29.51h-1.38c-120.25-.76-217.87-98.82-217.87-219.25s97.62-218.49,217.87-219.26Z"
                    fill="#707070" opacity="0.65" />
                <path
                    d="M426,213.83a217.84,217.84,0,0,1,109.74,29.51c65,37.75,108.94,108,109.45,188.28,0,.5,0,1,0,1.47,0,80.93-44.08,151.76-109.48,189.74A217.84,217.84,0,0,1,426,652.34h-1.38c-120.26-.76-217.88-98.82-217.88-219.25S304.38,214.6,424.64,213.83Z"
                    fill="#6f6f6f" opacity="0.65" />
                <path
                    d="M425.23,213A217.77,217.77,0,0,1,535,242.5c65,37.75,108.95,108,109.46,188.28,0,.5,0,1,0,1.47C644.45,513.18,600.37,584,535,622A217.77,217.77,0,0,1,425.23,651.5h-1.38C303.59,650.74,206,552.68,206,432.25S303.59,213.76,423.85,213Z"
                    fill="#6e6e6e" opacity="0.65" />
                <path
                    d="M424.43,212.15a217.81,217.81,0,0,1,109.74,29.51c65,37.75,109,108,109.45,188.28,0,.5,0,1,0,1.47,0,80.93-44.08,151.76-109.48,189.74a217.81,217.81,0,0,1-109.74,29.51h-1.38c-120.25-.76-217.87-98.82-217.87-219.25S302.8,212.92,423.05,212.15Z"
                    fill="#6d6d6d" opacity="0.66" />
                <path
                    d="M423.64,211.31a217.94,217.94,0,0,1,109.74,29.51c65,37.75,108.94,108,109.45,188.28,0,.5,0,1,0,1.47,0,80.93-44.08,151.76-109.48,189.75a217.93,217.93,0,0,1-109.74,29.5h-1.38C302,649.06,204.38,551,204.38,430.57S302,212.08,422.26,211.31Z"
                    fill="#6c6c6c" opacity="0.66" />
                <path
                    d="M422.85,210.47A217.87,217.87,0,0,1,532.58,240c65,37.76,108.95,108,109.46,188.28,0,.5,0,1,0,1.47,0,80.93-44.08,151.76-109.49,189.75A217.87,217.87,0,0,1,422.85,649h-1.38c-120.26-.76-217.88-98.82-217.88-219.25s97.62-218.49,217.88-219.26Z"
                    fill="#6b6b6b" opacity="0.66" />
                <path
                    d="M422.05,209.63a217.91,217.91,0,0,1,109.74,29.51c65,37.76,108.94,108,109.45,188.28,0,.5,0,1,0,1.47,0,80.93-44.08,151.76-109.48,189.75a217.9,217.9,0,0,1-109.74,29.5h-1.38c-120.25-.76-217.87-98.82-217.87-219.25S300.42,210.4,420.67,209.63Z"
                    fill="#6a6a6a" opacity="0.67" />
                <path
                    d="M421.26,208.79A217.94,217.94,0,0,1,531,238.3c65,37.76,108.94,108,109.45,188.28,0,.5,0,1,0,1.47C640.48,509,596.4,579.81,531,617.8a217.93,217.93,0,0,1-109.74,29.5h-1.38C299.62,646.54,202,548.48,202,428.05s97.62-218.49,217.88-219.26Z"
                    fill="#696969" opacity="0.67" />
                <path
                    d="M420.47,208A217.87,217.87,0,0,1,530.2,237.46c65,37.76,108.95,108,109.46,188.28,0,.5,0,1,0,1.47C639.69,508.15,595.61,579,530.2,617a217.87,217.87,0,0,1-109.73,29.5h-1.38c-120.26-.76-217.88-98.82-217.88-219.25S298.83,208.72,419.09,208Z"
                    fill="#686868" opacity="0.67" />
                <path
                    d="M419.67,207.11a217.91,217.91,0,0,1,109.74,29.51c65,37.76,108.94,108,109.45,188.28,0,.5,0,1,0,1.47,0,80.94-44.08,151.77-109.48,189.75a217.9,217.9,0,0,1-109.74,29.5h-1.38C298,644.86,200.42,546.8,200.42,426.37S298,207.88,418.29,207.11Z"
                    fill="#676767" opacity="0.68" />
                <path
                    d="M418.88,206.27a217.94,217.94,0,0,1,109.74,29.51c65,37.76,108.94,108,109.45,188.28,0,.5,0,1,0,1.47,0,80.94-44.08,151.77-109.48,189.75a217.93,217.93,0,0,1-109.74,29.5H417.5C297.24,644,199.62,546,199.62,425.53S297.24,207,417.5,206.27Z"
                    fill="#666" opacity="0.68" />
                <path
                    d="M418.08,205.44A217.81,217.81,0,0,1,527.82,235c65,37.75,108.95,108,109.46,188.27,0,.5,0,1,0,1.47,0,80.94-44.08,151.77-109.49,189.75a217.88,217.88,0,0,1-109.74,29.5h-1.37c-120.26-.76-217.88-98.82-217.88-219.25S296.45,206.2,416.71,205.44Z"
                    fill="#656565" opacity="0.68" />
                <path
                    d="M417.29,204.6A217.81,217.81,0,0,1,527,234.11c65,37.75,108.94,108,109.45,188.27,0,.5,0,1,0,1.47,0,80.94-44.08,151.77-109.48,189.75a217.9,217.9,0,0,1-109.74,29.5h-1.38C295.65,642.34,198,544.28,198,423.85S295.65,205.36,415.91,204.6Z"
                    fill="#646464" opacity="0.69" />
                <path
                    d="M416.5,203.76a217.84,217.84,0,0,1,109.74,29.51c65,37.75,108.94,108,109.45,188.27,0,.5,0,1,0,1.47,0,80.94-44.08,151.77-109.48,189.75a217.93,217.93,0,0,1-109.74,29.5h-1.38C294.86,641.5,197.24,543.44,197.24,423s97.62-218.49,217.88-219.25Z"
                    fill="#636363" opacity="0.69" />
                <path
                    d="M415.7,202.92a217.81,217.81,0,0,1,109.74,29.51c65,37.75,108.95,108,109.46,188.27,0,.5,0,1,0,1.47,0,80.94-44.08,151.77-109.49,189.75a217.78,217.78,0,0,1-109.74,29.5h-1.37c-120.26-.76-217.88-98.82-217.88-219.25s97.62-218.49,217.88-219.25Z"
                    fill="#626262" opacity="0.69" />
                <path
                    d="M414.91,202.08a217.81,217.81,0,0,1,109.74,29.51c65,37.75,108.94,108,109.45,188.28,0,.49,0,1,0,1.46,0,80.94-44.08,151.77-109.48,189.75a217.8,217.8,0,0,1-109.74,29.5h-1.38c-120.26-.76-217.87-98.82-217.87-219.25s97.61-218.49,217.87-219.25Z"
                    fill="#616161" opacity="0.7" />
                <path
                    d="M414.12,201.24a217.84,217.84,0,0,1,109.74,29.51c65,37.75,108.94,108,109.45,188.28,0,.5,0,1,0,1.46,0,80.94-44.08,151.77-109.48,189.75a217.84,217.84,0,0,1-109.74,29.51h-1.38C292.48,639,194.86,540.92,194.86,420.49S292.48,202,412.74,201.24Z"
                    fill="#606060" opacity="0.7" />
                <path
                    d="M413.32,200.4a217.81,217.81,0,0,1,109.74,29.51c65,37.75,109,108,109.46,188.28,0,.5,0,1,0,1.46,0,80.94-44.08,151.77-109.49,189.75a217.78,217.78,0,0,1-109.74,29.51H412c-120.26-.77-217.88-98.82-217.88-219.26S291.69,201.16,412,200.4Z"
                    fill="#5f5f5f" opacity="0.7" />
                <path
                    d="M412.53,199.56a217.81,217.81,0,0,1,109.74,29.51c65,37.75,108.94,108,109.45,188.28,0,.5,0,1,0,1.46,0,80.94-44.08,151.77-109.48,189.75a217.81,217.81,0,0,1-109.74,29.51h-1.38c-120.26-.77-217.87-98.82-217.87-219.26s97.61-218.49,217.87-219.25Z"
                    fill="#5e5e5e" opacity="0.71" />
                <path
                    d="M411.74,198.72a217.84,217.84,0,0,1,109.74,29.51c65,37.75,108.94,108,109.45,188.28,0,.5,0,1,0,1.47,0,80.93-44.08,151.76-109.48,189.74a217.84,217.84,0,0,1-109.74,29.51h-1.38C290.1,636.47,192.48,538.41,192.48,418s97.62-218.5,217.88-219.26Z"
                    fill="#5d5d5d" opacity="0.71" />
                <path
                    d="M410.94,197.88a217.81,217.81,0,0,1,109.74,29.51c65,37.75,109,108,109.46,188.28,0,.5,0,1,0,1.47,0,80.93-44.08,151.76-109.49,189.74a217.78,217.78,0,0,1-109.74,29.51h-1.38c-120.25-.76-217.87-98.82-217.87-219.25s97.62-218.49,217.87-219.26Z"
                    fill="#5c5c5c" opacity="0.71" />
                <path
                    d="M410.15,197a217.81,217.81,0,0,1,109.74,29.51c65,37.75,108.94,108,109.45,188.28,0,.5,0,1,0,1.47,0,80.93-44.08,151.76-109.48,189.74a217.81,217.81,0,0,1-109.74,29.51h-1.38c-120.26-.76-217.88-98.82-217.88-219.25S288.51,197.81,408.77,197Z"
                    fill="#5b5b5b" opacity="0.71" />
                <path
                    d="M409.36,196.2A217.84,217.84,0,0,1,519.1,225.71c65,37.76,108.94,108,109.45,188.28,0,.5,0,1,0,1.47,0,80.93-44.08,151.76-109.48,189.74a217.84,217.84,0,0,1-109.74,29.51H408C287.72,634,190.1,535.89,190.1,415.46S287.72,197,408,196.2Z"
                    fill="#5a5a5a" opacity="0.72" />
                <path
                    d="M408.56,195.36A217.91,217.91,0,0,1,518.3,224.87c65,37.76,109,108,109.46,188.28,0,.5,0,1,0,1.47,0,80.93-44.08,151.76-109.49,189.74a217.81,217.81,0,0,1-109.74,29.51h-1.38c-120.25-.76-217.87-98.82-217.87-219.25s97.62-218.49,217.87-219.26Z"
                    fill="#595959" opacity="0.72" />
                <path
                    d="M407.77,194.52A217.91,217.91,0,0,1,517.51,224c65,37.76,108.94,108,109.45,188.28,0,.5,0,1,0,1.47,0,80.93-44.08,151.76-109.48,189.75A217.9,217.9,0,0,1,407.77,633h-1.38c-120.26-.76-217.88-98.82-217.88-219.25s97.62-218.49,217.88-219.26Z"
                    fill="#585858" opacity="0.72" />
                <path
                    d="M407,193.68a217.94,217.94,0,0,1,109.74,29.51c65,37.76,108.94,108,109.45,188.28,0,.5,0,1,0,1.47,0,80.93-44.08,151.76-109.48,189.75A217.93,217.93,0,0,1,407,632.19H405.6c-120.26-.76-217.88-98.82-217.88-219.25S285.34,194.45,405.6,193.68Z"
                    fill="#575757" opacity="0.73" />
                <path
                    d="M406.18,192.84a217.91,217.91,0,0,1,109.74,29.51c65,37.76,109,108,109.46,188.28,0,.5,0,1,0,1.47,0,80.93-44.07,151.76-109.48,189.75a217.9,217.9,0,0,1-109.74,29.5H404.8c-120.25-.76-217.87-98.82-217.87-219.25S284.55,193.61,404.8,192.84Z"
                    fill="#565656" opacity="0.73" />
                <path
                    d="M405.39,192a217.91,217.91,0,0,1,109.74,29.51c65,37.76,108.94,108,109.45,188.28,0,.5,0,1,0,1.47C624.61,492.2,580.53,563,515.13,601a217.9,217.9,0,0,1-109.74,29.5H404c-120.26-.76-217.88-98.82-217.88-219.25S283.75,192.77,404,192Z"
                    fill="#555" opacity="0.73" />
                <path
                    d="M404.6,191.16a217.94,217.94,0,0,1,109.74,29.51c65,37.76,108.94,108,109.45,188.28,0,.5,0,1,0,1.47,0,80.94-44.08,151.76-109.48,189.75a217.93,217.93,0,0,1-109.74,29.5h-1.38C283,628.91,185.34,530.85,185.34,410.42S283,191.93,403.22,191.16Z"
                    fill="#545454" opacity="0.74" />
                <path
                    d="M403.8,190.33a217.81,217.81,0,0,1,109.74,29.51c65,37.75,109,108,109.45,188.27,0,.5,0,1,0,1.47,0,80.94-44.07,151.77-109.48,189.75a217.9,217.9,0,0,1-109.74,29.5h-1.38C282.17,628.07,184.55,530,184.55,409.58s97.62-218.49,217.87-219.25Z"
                    fill="#535353" opacity="0.74" />
                <path
                    d="M403,189.49A217.81,217.81,0,0,1,512.75,219c65,37.75,108.94,108,109.45,188.27,0,.5,0,1,0,1.47,0,80.94-44.08,151.77-109.48,189.75A217.9,217.9,0,0,1,403,628h-1.38c-120.26-.76-217.88-98.82-217.88-219.25s97.62-218.49,217.88-219.25Z"
                    fill="#525252" opacity="0.74" />
                <path
                    d="M402.22,188.65A217.84,217.84,0,0,1,512,218.16c65,37.75,108.94,108,109.45,188.27,0,.5,0,1,0,1.47,0,80.94-44.08,151.77-109.48,189.75a217.93,217.93,0,0,1-109.74,29.5h-1.38C280.58,626.39,183,528.33,183,407.9s97.62-218.49,217.88-219.25Z"
                    fill="#515151" opacity="0.75" />
                <path
                    d="M401.42,187.81a217.81,217.81,0,0,1,109.74,29.51c65,37.75,109,108,109.45,188.27,0,.5,0,1,0,1.47,0,80.94-44.07,151.77-109.48,189.75a217.9,217.9,0,0,1-109.74,29.5H400c-120.25-.76-217.87-98.82-217.87-219.25S279.79,188.57,400,187.81Z"
                    fill="#505050" opacity="0.75" />
                <path
                    d="M400.63,187a217.81,217.81,0,0,1,109.74,29.51c65,37.75,108.94,108,109.45,188.28,0,.49,0,1,0,1.46,0,80.94-44.08,151.77-109.48,189.75a217.8,217.8,0,0,1-109.74,29.5h-1.38C279,624.71,181.37,526.65,181.37,406.22S279,187.73,399.25,187Z"
                    fill="#4f4f4f" opacity="0.75" />
                <path
                    d="M399.83,186.13a217.85,217.85,0,0,1,109.75,29.51c65,37.75,108.94,108,109.45,188.28,0,.49,0,1,0,1.46,0,80.94-44.08,151.77-109.48,189.75a217.84,217.84,0,0,1-109.75,29.5h-1.37c-120.26-.76-217.88-98.82-217.88-219.25S278.2,186.89,398.46,186.13Z"
                    fill="#4e4e4e" opacity="0.76" />
                <path
                    d="M399,185.29A217.81,217.81,0,0,1,508.78,214.8c65,37.75,108.94,108,109.45,188.28,0,.5,0,1,0,1.46,0,80.94-44.07,151.77-109.48,189.75A217.81,217.81,0,0,1,399,623.8h-1.38C277.41,623,179.79,525,179.79,404.54s97.62-218.49,217.87-219.25Z"
                    fill="#4d4d4d" opacity="0.76" />
                <path
                    d="M398.25,184.45A217.81,217.81,0,0,1,508,214c65,37.75,108.94,108,109.45,188.28,0,.5,0,1,0,1.46,0,80.94-44.08,151.77-109.48,189.75A217.81,217.81,0,0,1,398.25,623h-1.38C276.61,622.19,179,524.14,179,403.7s97.62-218.49,217.88-219.25Z"
                    fill="#4c4c4c" opacity="0.76" />
                <path
                    d="M397.45,183.61A217.85,217.85,0,0,1,507.2,213.12c65,37.75,108.94,108,109.45,188.28,0,.5,0,1,0,1.46,0,80.94-44.08,151.77-109.48,189.75a217.85,217.85,0,0,1-109.75,29.51h-1.37C275.82,621.35,178.2,523.3,178.2,402.86s97.62-218.49,217.88-219.25Z"
                    fill="#4b4b4b" opacity="0.76" />
                <path
                    d="M396.66,182.77A217.81,217.81,0,0,1,506.4,212.28c65,37.75,108.94,108,109.45,188.28,0,.5,0,1,0,1.47,0,80.93-44.07,151.76-109.48,189.74a217.81,217.81,0,0,1-109.74,29.51h-1.38C275,620.52,177.41,522.46,177.41,402S275,183.53,395.28,182.77Z"
                    fill="#4a4a4a" opacity="0.77" />
                <path
                    d="M395.87,181.93a217.81,217.81,0,0,1,109.74,29.51c65,37.75,108.94,108,109.45,188.28,0,.5,0,1,0,1.47,0,80.93-44.08,151.76-109.48,189.74a217.81,217.81,0,0,1-109.74,29.51h-1.38c-120.26-.76-217.88-98.82-217.88-219.25S274.23,182.7,394.49,181.93Z"
                    fill="#494949" opacity="0.77" />
                <path
                    d="M395.07,181.09A217.85,217.85,0,0,1,504.82,210.6c65,37.76,108.94,108,109.45,188.28,0,.5,0,1,0,1.47,0,80.93-44.08,151.76-109.48,189.74A217.85,217.85,0,0,1,395.07,619.6H393.7c-120.26-.76-217.88-98.82-217.88-219.25S273.44,181.86,393.7,181.09Z"
                    fill="#484848" opacity="0.77" />
                <path
                    d="M394.28,180.25A217.81,217.81,0,0,1,504,209.76C569,247.52,613,317.72,613.47,398c0,.5,0,1,0,1.47,0,80.93-44.08,151.76-109.48,189.74a217.81,217.81,0,0,1-109.74,29.51H392.9C272.64,618,175,519.94,175,399.51S272.64,181,392.9,180.25Z"
                    fill="#474747" opacity="0.78" />
                <path
                    d="M393.49,179.41a217.81,217.81,0,0,1,109.74,29.51c65,37.76,108.94,108,109.45,188.28,0,.5,0,1,0,1.47,0,80.93-44.08,151.76-109.48,189.74a217.81,217.81,0,0,1-109.74,29.51h-1.38c-120.26-.76-217.88-98.82-217.88-219.25s97.62-218.49,217.88-219.26Z"
                    fill="#464646" opacity="0.78" />
                <path
                    d="M392.69,178.57a218,218,0,0,1,109.75,29.51c65,37.76,108.94,108,109.45,188.28,0,.5,0,1,0,1.47,0,80.93-44.08,151.76-109.48,189.75a217.94,217.94,0,0,1-109.75,29.5h-1.38c-120.25-.76-217.87-98.82-217.87-219.25s97.62-218.49,217.87-219.26Z"
                    fill="#454545" opacity="0.78" />
                <path
                    d="M391.9,177.73a217.91,217.91,0,0,1,109.74,29.51c65,37.76,108.94,108,109.45,188.28,0,.5,0,1,0,1.47,0,80.93-44.08,151.76-109.48,189.75a217.9,217.9,0,0,1-109.74,29.5h-1.38C270.26,615.48,172.65,517.42,172.65,397S270.26,178.5,390.52,177.73Z"
                    fill="#444" opacity="0.79" />
                <path
                    d="M391.11,176.89A217.94,217.94,0,0,1,500.85,206.4c65,37.76,108.94,108,109.45,188.28,0,.5,0,1,0,1.47,0,80.93-44.08,151.76-109.48,189.75a217.93,217.93,0,0,1-109.74,29.5h-1.38c-120.26-.76-217.88-98.82-217.88-219.25s97.62-218.49,217.88-219.26Z"
                    fill="#434343" opacity="0.79" />
                <path
                    d="M390.31,176.05a218,218,0,0,1,109.75,29.51c65,37.76,108.94,108,109.45,188.28,0,.5,0,1,0,1.47,0,80.93-44.08,151.76-109.48,189.75a217.94,217.94,0,0,1-109.75,29.5h-1.38c-120.25-.76-217.87-98.82-217.87-219.25s97.62-218.49,217.87-219.26Z"
                    fill="#424242" opacity="0.79" />
                <path
                    d="M389.52,175.22a217.9,217.9,0,0,1,109.74,29.5c65,37.76,108.94,108,109.45,188.28,0,.5,0,1,0,1.47,0,80.94-44.08,151.76-109.48,189.75a217.9,217.9,0,0,1-109.74,29.5h-1.38C267.88,613,170.27,514.9,170.27,394.47S267.88,176,388.14,175.22Z"
                    fill="#414141" opacity="0.8" />
                <path
                    d="M388.73,174.38a217.84,217.84,0,0,1,109.74,29.51c65,37.75,108.94,108,109.45,188.27,0,.5,0,1,0,1.47,0,80.94-44.08,151.76-109.48,189.75a217.93,217.93,0,0,1-109.74,29.5h-1.38c-120.26-.76-217.88-98.82-217.88-219.25s97.62-218.49,217.88-219.25Z"
                    fill="#404040" opacity="0.8" />
                <path
                    d="M387.93,173.54a217.85,217.85,0,0,1,109.75,29.51c65,37.75,108.94,108,109.45,188.27,0,.5,0,1,0,1.47,0,80.94-44.08,151.76-109.48,189.75A217.94,217.94,0,0,1,387.93,612h-1.38c-120.25-.76-217.87-98.82-217.87-219.25S266.3,174.3,386.55,173.54Z"
                    fill="#3f3f3f" opacity="0.8" />
                <path
                    d="M387.14,172.7a217.81,217.81,0,0,1,109.74,29.51c65,37.75,108.94,108,109.45,188.27,0,.5,0,1,0,1.47,0,80.94-44.08,151.77-109.48,189.75a217.9,217.9,0,0,1-109.74,29.5h-1.38C265.5,610.44,167.88,512.38,167.88,392S265.5,173.46,385.76,172.7Z"
                    fill="#3e3e3e" opacity="0.81" />
                <path
                    d="M386.35,171.86a217.84,217.84,0,0,1,109.74,29.51c65,37.75,108.94,108,109.45,188.27,0,.5,0,1,0,1.47,0,80.94-44.08,151.77-109.48,189.75a217.83,217.83,0,0,1-109.74,29.5H385c-120.26-.76-217.88-98.82-217.88-219.25S264.71,172.62,385,171.86Z"
                    fill="#3d3d3d" opacity="0.81" />
                <path
                    d="M385.55,171A217.85,217.85,0,0,1,495.3,200.53c65,37.75,108.94,108,109.45,188.28,0,.49,0,1,0,1.46C604.77,471.21,560.7,542,495.3,580a217.84,217.84,0,0,1-109.75,29.5h-1.38C263.92,608.76,166.3,510.7,166.3,390.27S263.92,171.78,384.17,171Z"
                    fill="#3c3c3c" opacity="0.81" />
                <path
                    d="M384.76,170.18A217.81,217.81,0,0,1,494.5,199.69c65,37.75,108.94,108,109.45,188.28,0,.49,0,1,0,1.46,0,80.94-44.08,151.77-109.48,189.75a217.81,217.81,0,0,1-109.74,29.51h-1.38c-120.26-.77-217.88-98.83-217.88-219.26s97.62-218.49,217.88-219.25Z"
                    fill="#3b3b3b" opacity="0.81" />
                <path
                    d="M384,169.34a217.84,217.84,0,0,1,109.74,29.51c65,37.75,108.94,108,109.45,188.28,0,.5,0,1,0,1.46,0,80.94-44.08,151.77-109.48,189.75A217.84,217.84,0,0,1,384,607.85h-1.38C262.33,607.08,164.71,509,164.71,388.59S262.33,170.1,382.59,169.34Z"
                    fill="#3a3a3a" opacity="0.82" />
                <path
                    d="M383.17,168.5A217.88,217.88,0,0,1,492.92,198c65,37.75,108.94,108,109.44,188.28,0,.5,0,1,0,1.46,0,80.94-44.07,151.77-109.47,189.75A217.85,217.85,0,0,1,383.17,607h-1.38c-120.25-.77-217.87-98.82-217.87-219.26S261.54,169.26,381.79,168.5Z"
                    fill="#393939" opacity="0.82" />
                <path
                    d="M382.38,167.66a217.81,217.81,0,0,1,109.74,29.51c65,37.75,108.94,108,109.45,188.28,0,.5,0,1,0,1.46,0,80.94-44.08,151.77-109.48,189.75a217.81,217.81,0,0,1-109.74,29.51H381c-120.26-.77-217.88-98.82-217.88-219.26S260.74,168.42,381,167.66Z"
                    fill="#383838" opacity="0.82" />
                <path
                    d="M381.58,166.82a217.85,217.85,0,0,1,109.75,29.51c65,37.76,108.94,108,109.45,188.28,0,.5,0,1,0,1.47,0,80.93-44.08,151.76-109.48,189.74a217.85,217.85,0,0,1-109.75,29.51h-1.37C260,604.57,162.33,506.51,162.33,386.08S260,167.58,380.21,166.82Z"
                    fill="#373737" opacity="0.83" />
                <path
                    d="M380.79,166a217.88,217.88,0,0,1,109.75,29.51c65,37.76,108.94,108,109.44,188.28,0,.5,0,1,0,1.47C600,466.17,555.94,537,490.54,575a217.85,217.85,0,0,1-109.75,29.51h-1.38c-120.25-.76-217.87-98.82-217.87-219.25S259.16,166.75,379.41,166Z"
                    fill="#363636" opacity="0.83" />
                <path
                    d="M380,165.14a217.81,217.81,0,0,1,109.74,29.51c65,37.76,108.94,108,109.45,188.28,0,.5,0,1,0,1.47,0,80.93-44.08,151.76-109.48,189.74A217.81,217.81,0,0,1,380,603.65h-1.38c-120.26-.76-217.88-98.82-217.88-219.25s97.62-218.49,217.88-219.26Z"
                    fill="#353535" opacity="0.83" />
                <path
                    d="M379.2,164.3A217.85,217.85,0,0,1,489,193.81c65,37.76,108.94,108,109.45,188.28,0,.5,0,1,0,1.47,0,80.93-44.08,151.76-109.48,189.74A217.85,217.85,0,0,1,379.2,602.81h-1.37C257.57,602.05,160,504,160,383.56S257.57,165.07,377.83,164.3Z"
                    fill="#343434" opacity="0.84" />
                <path
                    d="M378.41,163.46A217.88,217.88,0,0,1,488.16,193c65,37.76,108.93,108,109.44,188.28,0,.5,0,1,0,1.47,0,80.93-44.07,151.76-109.47,189.74A217.85,217.85,0,0,1,378.41,602H377c-120.25-.76-217.87-98.82-217.87-219.25S256.78,164.23,377,163.46Z"
                    fill="#333" opacity="0.84" />
                <path
                    d="M377.62,162.62a217.91,217.91,0,0,1,109.74,29.51c65,37.76,108.94,108,109.45,188.28,0,.5,0,1,0,1.47,0,80.93-44.08,151.76-109.48,189.74a217.81,217.81,0,0,1-109.74,29.51h-1.38C256,600.37,158.36,502.31,158.36,381.88S256,163.39,376.24,162.62Z"
                    fill="#323232" opacity="0.84" />
                <path
                    d="M376.82,161.78a218,218,0,0,1,109.75,29.51c65,37.76,108.94,108,109.45,188.28,0,.5,0,1,0,1.47C596.05,462,552,532.8,486.57,570.79a217.94,217.94,0,0,1-109.75,29.5h-1.37C255.19,599.53,157.57,501.47,157.57,381s97.62-218.49,217.88-219.26Z"
                    fill="#313131" opacity="0.85" />
                <path
                    d="M376,160.94a218,218,0,0,1,109.75,29.51c65,37.76,108.93,108,109.44,188.28,0,.5,0,1,0,1.47,0,80.93-44.07,151.76-109.47,189.75A217.94,217.94,0,0,1,376,599.45h-1.38c-120.25-.76-217.87-98.82-217.87-219.25S254.4,161.71,374.65,160.94Z"
                    fill="#303030" opacity="0.85" />
                <path
                    d="M375.24,160.11A217.9,217.9,0,0,1,485,189.61c65,37.76,108.94,108,109.45,188.28,0,.5,0,1,0,1.47,0,80.93-44.08,151.76-109.48,189.75a217.9,217.9,0,0,1-109.74,29.5h-1.38C253.6,597.85,156,499.79,156,379.36S253.6,160.87,373.86,160.11Z"
                    fill="#2f2f2f" opacity="0.85" />
                <path
                    d="M374.44,159.27a217.85,217.85,0,0,1,109.75,29.51c65,37.75,108.94,108,109.45,188.27,0,.5,0,1,0,1.47,0,80.93-44.08,151.76-109.48,189.75a217.94,217.94,0,0,1-109.75,29.5h-1.37C252.81,597,155.19,499,155.19,378.52S252.81,160,373.07,159.27Z"
                    fill="#2e2e2e" opacity="0.86" />
                <path
                    d="M373.65,158.43A217.88,217.88,0,0,1,483.4,187.94c65,37.75,108.93,108,109.44,188.27,0,.5,0,1,0,1.47,0,80.94-44.07,151.76-109.47,189.75a218,218,0,0,1-109.75,29.5h-1.38C252,596.17,154.4,498.11,154.4,377.68S252,159.19,372.27,158.43Z"
                    fill="#2d2d2d" opacity="0.86" />
                <path
                    d="M372.86,157.59A217.81,217.81,0,0,1,482.6,187.1c65,37.75,108.94,108,109.45,188.27,0,.5,0,1,0,1.47,0,80.94-44.08,151.76-109.48,189.75a217.9,217.9,0,0,1-109.74,29.5h-1.38c-120.26-.76-217.88-98.82-217.88-219.25s97.62-218.49,217.88-219.25Z"
                    fill="#2c2c2c" opacity="0.86" />
                <path
                    d="M372.06,156.75a217.85,217.85,0,0,1,109.75,29.51c65,37.75,108.94,108,109.45,188.27,0,.5,0,1,0,1.47,0,80.94-44.08,151.76-109.48,189.75a217.84,217.84,0,0,1-109.75,29.5h-1.38C250.43,594.49,152.81,496.43,152.81,376s97.62-218.49,217.87-219.25Z"
                    fill="#2b2b2b" opacity="0.87" />
                <path
                    d="M371.27,155.91A217.88,217.88,0,0,1,481,185.42c65,37.75,108.93,108,109.44,188.28,0,.49,0,1,0,1.46,0,80.94-44.07,151.77-109.47,189.75a217.87,217.87,0,0,1-109.75,29.5h-1.38C249.63,593.65,152,495.59,152,375.16s97.61-218.49,217.87-219.25Z"
                    fill="#2a2a2a" opacity="0.87" />
                <path
                    d="M370.48,155.07a217.81,217.81,0,0,1,109.74,29.51c65,37.75,108.94,108,109.45,188.28,0,.49,0,1,0,1.46,0,80.94-44.08,151.77-109.48,189.75a217.8,217.8,0,0,1-109.74,29.5H369.1c-120.26-.76-217.88-98.82-217.88-219.25S248.84,155.83,369.1,155.07Z"
                    fill="#292929" opacity="0.87" />
                <path
                    d="M369.68,154.23a217.85,217.85,0,0,1,109.75,29.51c65,37.75,108.94,108,109.45,188.28,0,.49,0,1,0,1.46,0,80.94-44.08,151.77-109.48,189.75a217.85,217.85,0,0,1-109.75,29.51H368.3C248.05,592,150.43,493.91,150.43,373.48S248.05,155,368.3,154.23Z"
                    fill="#282828" opacity="0.87" />
                <path
                    d="M368.89,153.39A217.88,217.88,0,0,1,478.64,182.9c65,37.75,108.93,108,109.44,188.28,0,.5,0,1,0,1.46,0,80.94-44.07,151.77-109.47,189.75A217.88,217.88,0,0,1,368.89,591.9h-1.38c-120.26-.77-217.87-98.82-217.87-219.26s97.61-218.49,217.87-219.25Z"
                    fill="#272727" opacity="0.88" />
                <path
                    d="M368.1,152.55a217.81,217.81,0,0,1,109.74,29.51c65,37.76,108.94,108,109.45,188.28,0,.5,0,1,0,1.46,0,80.94-44.08,151.77-109.48,189.75A217.81,217.81,0,0,1,368.1,591.06h-1.38c-120.26-.77-217.88-98.82-217.88-219.26s97.62-218.49,217.88-219.25Z"
                    fill="#262626" opacity="0.88" />
                <path
                    d="M367.3,151.71a217.85,217.85,0,0,1,109.75,29.51C542.05,219,586,289.18,586.5,369.5c0,.5,0,1,0,1.46,0,80.94-44.08,151.77-109.48,189.75A217.85,217.85,0,0,1,367.3,590.22h-1.38C245.67,589.45,148.05,491.4,148.05,371s97.62-218.49,217.87-219.25Z"
                    fill="#252525" opacity="0.88" />
                <path
                    d="M366.51,150.87a217.88,217.88,0,0,1,109.75,29.51c65,37.76,108.93,108,109.44,188.28,0,.5,0,1,0,1.47,0,80.93-44.07,151.76-109.47,189.74a217.88,217.88,0,0,1-109.75,29.51h-1.38c-120.26-.76-217.87-98.82-217.87-219.25s97.61-218.5,217.87-219.26Z"
                    fill="#242424" opacity="0.89" />
                <path
                    d="M365.72,150a217.81,217.81,0,0,1,109.74,29.51c65,37.76,108.94,108,109.45,188.28,0,.5,0,1,0,1.47,0,80.93-44.08,151.76-109.48,189.74a217.81,217.81,0,0,1-109.74,29.51h-1.38c-120.26-.76-217.88-98.82-217.88-219.25S244.08,150.8,364.34,150Z"
                    fill="#232323" opacity="0.89" />
                <path
                    d="M364.92,149.19A217.85,217.85,0,0,1,474.67,178.7c65,37.76,108.94,108,109.45,188.28,0,.5,0,1,0,1.47,0,80.93-44.07,151.76-109.47,189.74A217.85,217.85,0,0,1,364.92,587.7h-1.38c-120.25-.76-217.87-98.82-217.87-219.25S243.29,150,363.54,149.19Z"
                    fill="#222" opacity="0.89" />
                <path
                    d="M364.13,148.35a217.88,217.88,0,0,1,109.75,29.51c65,37.76,108.93,108,109.44,188.28,0,.5,0,1,0,1.47,0,80.93-44.07,151.76-109.47,189.74a217.88,217.88,0,0,1-109.75,29.51h-1.38C242.49,586.1,144.87,488,144.87,367.61s97.62-218.49,217.88-219.26Z"
                    fill="#212121" opacity="0.9" />
                <path
                    d="M363.33,147.51A217.82,217.82,0,0,1,473.08,177c65,37.76,108.94,108,109.45,188.28,0,.5,0,1,0,1.47,0,80.93-44.08,151.76-109.48,189.74A217.82,217.82,0,0,1,363.33,586H362c-120.26-.76-217.88-98.82-217.88-219.25S241.7,148.28,362,147.51Z"
                    fill="#202020" opacity="0.9" />
                <path
                    d="M362.54,146.67a217.85,217.85,0,0,1,109.75,29.51c65,37.76,108.94,108,109.45,188.28,0,.5,0,1,0,1.47,0,80.93-44.07,151.76-109.47,189.74a217.85,217.85,0,0,1-109.75,29.51h-1.38c-120.25-.76-217.87-98.82-217.87-219.25s97.62-218.49,217.87-219.26Z"
                    fill="#1f1f1f" opacity="0.9" />
                <path
                    d="M361.75,145.83A218,218,0,0,1,471.5,175.34c65,37.76,108.93,108,109.44,188.28,0,.5,0,1,0,1.47C581,446,536.9,516.85,471.5,554.84a218,218,0,0,1-109.75,29.5h-1.38c-120.26-.76-217.88-98.82-217.88-219.25S240.11,146.6,360.37,145.83Z"
                    fill="#1e1e1e" opacity="0.91" />
                <path
                    d="M361,145A217.91,217.91,0,0,1,470.7,174.5c65,37.76,108.94,108,109.45,188.28,0,.5,0,1,0,1.47C580.18,445.18,536.1,516,470.7,554A217.91,217.91,0,0,1,361,583.5h-1.37c-120.26-.76-217.88-98.82-217.88-219.25S239.32,145.76,359.58,145Z"
                    fill="#1d1d1d" opacity="0.91" />
                <path
                    d="M360.16,144.16a217.85,217.85,0,0,1,109.75,29.51c65,37.75,108.94,108,109.44,188.27,0,.5,0,1,0,1.47,0,80.93-44.07,151.76-109.47,189.75a217.94,217.94,0,0,1-109.75,29.5h-1.38c-120.25-.76-217.87-98.82-217.87-219.25s97.62-218.49,217.87-219.25Z"
                    fill="#1c1c1c" opacity="0.91" />
                <path
                    d="M359.37,143.32a217.88,217.88,0,0,1,109.75,29.51c65,37.75,108.93,107.95,109.44,188.27,0,.5,0,1,0,1.47,0,80.93-44.07,151.76-109.47,189.75a218,218,0,0,1-109.75,29.5H358C237.73,581.06,140.11,483,140.11,362.57S237.73,144.08,358,143.32Z"
                    fill="#1b1b1b" opacity="0.92" />
                <path
                    d="M358.57,142.48A217.82,217.82,0,0,1,468.32,172c65,37.75,108.94,108,109.45,188.27,0,.5,0,1,0,1.47,0,80.93-44.08,151.76-109.48,189.75A217.91,217.91,0,0,1,358.57,581H357.2c-120.26-.76-217.88-98.82-217.88-219.25S236.94,143.24,357.2,142.48Z"
                    fill="#1a1a1a" opacity="0.92" />
                <path
                    d="M357.78,141.64a217.85,217.85,0,0,1,109.75,29.51c65,37.75,108.93,108,109.44,188.27,0,.5,0,1,0,1.47,0,80.94-44.07,151.76-109.47,189.75a217.94,217.94,0,0,1-109.75,29.5H356.4c-120.25-.76-217.87-98.82-217.87-219.25S236.15,142.4,356.4,141.64Z"
                    fill="#191919" opacity="0.92" />
                <path
                    d="M357,140.8a217.88,217.88,0,0,1,109.75,29.51c65,37.75,108.93,108,109.44,188.27,0,.5,0,1,0,1.47,0,80.94-44.07,151.76-109.47,189.75A217.87,217.87,0,0,1,357,579.3h-1.38c-120.26-.76-217.88-98.82-217.88-219.25S235.35,141.56,355.61,140.8Z"
                    fill="#181818" opacity="0.92" />
                <path
                    d="M356.19,140a217.82,217.82,0,0,1,109.75,29.51c65,37.75,108.94,108,109.45,188.28,0,.49,0,1,0,1.46,0,80.94-44.08,151.76-109.48,189.75a217.81,217.81,0,0,1-109.75,29.5h-1.37c-120.26-.76-217.88-98.82-217.88-219.25S234.56,140.72,354.82,140Z"
                    fill="#171717" opacity="0.93" />
                <path
                    d="M355.4,139.12a217.85,217.85,0,0,1,109.75,29.51c65,37.75,108.93,108,109.44,188.28,0,.49,0,1,0,1.46,0,80.94-44.07,151.77-109.47,189.75a217.84,217.84,0,0,1-109.75,29.5H354c-120.25-.76-217.87-98.82-217.87-219.25S233.77,139.88,354,139.12Z"
                    fill="#161616" opacity="0.93" />
                <path
                    d="M354.61,138.28a217.88,217.88,0,0,1,109.75,29.51c65,37.75,108.93,108,109.44,188.28,0,.5,0,1,0,1.46,0,80.94-44.07,151.77-109.47,189.75a217.88,217.88,0,0,1-109.75,29.51h-1.38C233,576,135.35,478,135.35,357.53S233,139,353.23,138.28Z"
                    fill="#151515" opacity="0.93" />
                <path
                    d="M353.81,137.44A217.82,217.82,0,0,1,463.56,167c65,37.76,108.94,108,109.45,188.28,0,.5,0,1,0,1.46,0,80.94-44.08,151.77-109.48,189.75A217.82,217.82,0,0,1,353.81,576h-1.38c-120.25-.77-217.87-98.82-217.87-219.26S232.18,138.2,352.43,137.44Z"
                    fill="#141414" opacity="0.94" />
                <path
                    d="M353,136.6a217.85,217.85,0,0,1,109.75,29.51c65,37.76,108.93,108,109.44,188.28,0,.5,0,1,0,1.46,0,80.94-44.07,151.77-109.47,189.75A217.85,217.85,0,0,1,353,575.11h-1.38c-120.25-.77-217.87-98.82-217.87-219.26S231.39,137.36,351.64,136.6Z"
                    fill="#131313" opacity="0.94" />
                <path
                    d="M352.23,135.76A217.88,217.88,0,0,1,462,165.27c65,37.76,108.93,108,109.44,188.28,0,.5,0,1,0,1.46,0,80.94-44.08,151.77-109.47,189.75a217.88,217.88,0,0,1-109.75,29.51h-1.38C230.59,573.5,133,475.45,133,355s97.62-218.49,217.88-219.25Z"
                    fill="#121212" opacity="0.94" />
                <path
                    d="M351.43,134.92a217.82,217.82,0,0,1,109.75,29.51c65,37.76,108.94,108,109.45,188.28,0,.5,0,1,0,1.47,0,80.93-44.08,151.76-109.48,189.74a217.82,217.82,0,0,1-109.75,29.51h-1.38c-120.25-.76-217.87-98.82-217.87-219.25s97.62-218.5,217.87-219.26Z"
                    fill="#111" opacity="0.95" />
                <path
                    d="M350.64,134.08a217.85,217.85,0,0,1,109.75,29.51c65,37.76,108.93,108,109.44,188.28,0,.5,0,1,0,1.47,0,80.93-44.07,151.76-109.47,189.74a217.85,217.85,0,0,1-109.75,29.51h-1.38C229,571.83,131.39,473.77,131.39,353.34S229,134.85,349.26,134.08Z"
                    fill="#101010" opacity="0.95" />
                <path
                    d="M349.85,133.24A217.88,217.88,0,0,1,459.6,162.75c65,37.76,108.93,108,109.44,188.28,0,.5,0,1,0,1.47,0,80.93-44.08,151.76-109.47,189.74a217.88,217.88,0,0,1-109.75,29.51h-1.38C228.21,571,130.59,472.93,130.59,352.5S228.21,134,348.47,133.24Z"
                    fill="#0f0f0f" opacity="0.95" />
                <path
                    d="M349.05,132.4A217.82,217.82,0,0,1,458.8,161.91c65,37.76,108.94,108,109.45,188.28,0,.5,0,1,0,1.47,0,80.93-44.08,151.76-109.48,189.74a217.82,217.82,0,0,1-109.75,29.51h-1.38c-120.25-.76-217.87-98.82-217.87-219.25S227.42,133.17,347.67,132.4Z"
                    fill="#0e0e0e" opacity="0.96" />
                <path
                    d="M348.26,131.56A217.88,217.88,0,0,1,458,161.07c65,37.76,108.93,108,109.44,188.28,0,.5,0,1,0,1.47,0,80.93-44.07,151.76-109.47,189.74a217.85,217.85,0,0,1-109.75,29.51h-1.38C226.62,569.31,129,471.25,129,350.82s97.61-218.49,217.87-219.26Z"
                    fill="#0d0d0d" opacity="0.96" />
                <path
                    d="M347.47,130.72a217.88,217.88,0,0,1,109.75,29.51c65,37.76,108.93,108,109.44,188.28,0,.5,0,1,0,1.47,0,80.93-44.08,151.76-109.47,189.74a217.88,217.88,0,0,1-109.75,29.51h-1.38C225.83,568.47,128.21,470.41,128.21,350s97.62-218.49,217.88-219.26Z"
                    fill="#0c0c0c" opacity="0.96" />
                <path
                    d="M346.67,129.89a217.91,217.91,0,0,1,109.75,29.5c65,37.76,108.94,108,109.45,188.28,0,.5,0,1,0,1.47,0,80.93-44.08,151.76-109.48,189.74a217.82,217.82,0,0,1-109.75,29.51h-1.38C225,567.63,127.42,469.57,127.42,349.14S225,130.65,345.29,129.89Z"
                    fill="#0b0b0b" opacity="0.97" />
                <path
                    d="M345.88,129.05a217.88,217.88,0,0,1,109.75,29.51c65,37.75,108.93,108,109.44,188.27,0,.5,0,1,0,1.47,0,80.93-44.07,151.76-109.47,189.75a217.94,217.94,0,0,1-109.75,29.5H344.5c-120.26-.76-217.87-98.82-217.87-219.25S224.24,129.81,344.5,129.05Z"
                    fill="#0a0a0a" opacity="0.97" />
                <path
                    d="M345.08,128.21a217.88,217.88,0,0,1,109.76,29.51c65,37.75,108.93,108,109.44,188.27,0,.5,0,1,0,1.47,0,80.93-44.08,151.76-109.47,189.75a218,218,0,0,1-109.76,29.5h-1.37C223.45,566,125.83,467.89,125.83,347.46S223.45,129,343.71,128.21Z"
                    fill="#090909" opacity="0.97" />
                <path
                    d="M344.29,127.37A217.82,217.82,0,0,1,454,156.88c65,37.75,108.94,108,109.45,188.27,0,.5,0,1,0,1.47,0,80.93-44.07,151.76-109.47,189.75a217.91,217.91,0,0,1-109.75,29.5h-1.38C222.66,565.11,125,467.05,125,346.62s97.62-218.49,217.87-219.25Z"
                    fill="#080808" opacity="0.97" />
                <path
                    d="M343.5,126.53A217.88,217.88,0,0,1,453.25,156c65,37.75,108.93,108,109.44,188.27,0,.5,0,1,0,1.47,0,80.93-44.07,151.76-109.47,189.75A217.94,217.94,0,0,1,343.5,565h-1.38c-120.26-.76-217.87-98.82-217.87-219.25s97.61-218.49,217.87-219.25Z"
                    fill="#070707" opacity="0.98" />
                <path
                    d="M342.7,125.69A217.88,217.88,0,0,1,452.46,155.2c65,37.75,108.93,108,109.44,188.27,0,.5,0,1,0,1.47,0,80.93-44.08,151.76-109.48,189.75a217.81,217.81,0,0,1-109.75,29.5h-1.37c-120.26-.76-217.88-98.82-217.88-219.25s97.62-218.49,217.88-219.25Z"
                    fill="#060606" opacity="0.98" />
                <path
                    d="M341.91,124.85a217.82,217.82,0,0,1,109.75,29.51c65,37.75,108.94,108,109.45,188.28,0,.49,0,1,0,1.46,0,80.94-44.07,151.76-109.47,189.75a217.81,217.81,0,0,1-109.75,29.5h-1.38c-120.25-.76-217.87-98.82-217.87-219.25s97.62-218.49,217.87-219.25Z"
                    fill="#050505" opacity="0.98" />
                <path
                    d="M341.12,124a217.88,217.88,0,0,1,109.75,29.51c65,37.75,108.93,108,109.44,188.28,0,.49,0,1,0,1.46C560.34,424.2,516.27,495,450.87,533a217.84,217.84,0,0,1-109.75,29.5h-1.38c-120.26-.76-217.88-98.82-217.88-219.25S219.48,124.77,339.74,124Z"
                    fill="#040404" opacity="0.99" />
                <path
                    d="M340.32,123.17a217.88,217.88,0,0,1,109.76,29.51c65,37.76,108.93,108,109.44,188.28,0,.49,0,1,0,1.46,0,80.94-44.08,151.76-109.48,189.75a217.82,217.82,0,0,1-109.75,29.51H339c-120.26-.77-217.88-98.83-217.88-219.26S218.69,123.93,339,123.17Z"
                    fill="#030303" opacity="0.99" />
                <path
                    d="M339.53,122.33a217.82,217.82,0,0,1,109.75,29.51c65,37.76,108.94,108,109.44,188.28,0,.5,0,1,0,1.46,0,80.94-44.07,151.77-109.47,189.75a217.82,217.82,0,0,1-109.75,29.51h-1.38C217.9,560.07,120.28,462,120.28,341.58S217.9,123.09,338.15,122.33Z"
                    fill="#020202" opacity="0.99" />
                <path
                    d="M338.74,121.49A217.88,217.88,0,0,1,448.49,151c65,37.76,108.93,108,109.44,188.28,0,.5,0,1,0,1.46,0,80.94-44.07,151.77-109.47,189.75A217.85,217.85,0,0,1,338.74,560h-1.38c-120.26-.77-217.88-98.82-217.88-219.26S217.1,122.25,337.36,121.49Z"
                    fill="#010101" />
                <path
                    d="M557.17,339.9c0,120.91-98.35,219.26-219.23,219.26h-1.37c-120.26-.77-217.88-98.82-217.88-219.26s97.62-218.49,217.88-219.25h1.37c120.38,0,218.44,97.56,219.2,217.79C557.17,338.94,557.17,339.41,557.17,339.9Z" />
            </g>
            <g>
                <path
                    d="M558,341.73c0,121.6-98.92,220.52-220.49,220.52h-1.38C215.18,561.48,117,462.86,117,341.73S215.18,122,336.13,121.22h1.38c121.07,0,219.7,98.12,220.46,219C558,340.76,558,341.23,558,341.73Z"
                    fill="url(#08dbcc01-a560-4b66-b174-951239b7aeeb)" />
                <path
                    d="M336.13,547.5c-112.66-.71-204.39-93-204.39-205.77s91.73-205,204.48-205.77h1.29c112.72,0,205,91.69,205.72,204.39v.4l0,.4v.58c0,113.46-92.3,205.77-205.75,205.77Z"
                    fill="url(#fd5e8728-d232-471a-a786-51b9398f717b)" />
            </g>
            <g>
                <path
                    d="M355.58,310.66a77.14,77.14,0,0,0,.84-11.13l-11.33-3.73a65,65,0,0,0-2.51-14.71l9.61-6.89a76.83,76.83,0,0,0-4.55-10.47l-11.78,2a65.34,65.34,0,0,0-8.75-11.43l5.31-10.58a77.18,77.18,0,0,0-9.07-7.34l-9.5,7.21a65.12,65.12,0,0,0-12.63-5.94L301,225.76a76.79,76.79,0,0,0-11.61-2.36l-5.07,10.8c-1.47-.09-2.95-.16-4.45-.16a65,65,0,0,0-9.2.66L265,224.27a77.31,77.31,0,0,0-11.48,3.21l.54,11.89a64.71,64.71,0,0,0-11.88,6.7l-9.94-6.59a77.39,77.39,0,0,0-8.69,8.1l6,10.23a65.91,65.91,0,0,0-7.62,11.57L210,268.16a75.61,75.61,0,0,0-3.93,11l10,6.28a65.34,65.34,0,0,0-1.49,13.87v.32l-11.08,4.43a76,76,0,0,0,1.56,11.38l11.77.9a64.71,64.71,0,0,0,5.45,13.75l-7.75,9.08a77.6,77.6,0,0,0,6.54,9.12l10.84-4.68a65.66,65.66,0,0,0,11.61,9.95l-2.64,11.61a75.91,75.91,0,0,0,9.84,4.92l7.43-9.19a64.87,64.87,0,0,0,15.3,3.4l3.05,11.47c1.12.05,2.25.08,3.38.08,2.53,0,5-.13,7.48-.37l2.32-11.59a64.53,64.53,0,0,0,15.25-4.26l8,8.73a77.86,77.86,0,0,0,9.41-5.38L319,351.63a65.45,65.45,0,0,0,11.37-10.88l11.12,4a75.31,75.31,0,0,0,5.86-9.26l-8.28-8.55a64.79,64.79,0,0,0,4.82-14.64ZM280,347a47.32,47.32,0,1,1,47.32-47.32A47.33,47.33,0,0,1,280,347Z" />
                <path
                    d="M493.26,348.32a78.3,78.3,0,0,0,.08-11.16l-11.55-3a65.66,65.66,0,0,0-3.49-14.52l9.11-7.52A75.77,75.77,0,0,0,482.17,302l-11.62,2.75A65.67,65.67,0,0,0,461.06,294l4.58-10.9a76.53,76.53,0,0,0-9.54-6.72l-9,7.83a64.51,64.51,0,0,0-13-5.07l-1-11.82a75.76,75.76,0,0,0-11.73-1.58L417,276.83c-1.48,0-3,0-4.46.14a67,67,0,0,0-9.14,1.27l-6.4-10a76.39,76.39,0,0,0-11.24,4L387.12,284a64.77,64.77,0,0,0-11.4,7.48l-10.35-5.91a76.61,76.61,0,0,0-8.13,8.67l6.65,9.81a65.54,65.54,0,0,0-6.83,12.05l-11.94-.42A76.49,76.49,0,0,0,341.93,327l10.43,5.6a65.79,65.79,0,0,0-.55,13.94c0,.1,0,.2,0,.31L341.07,352a77.09,77.09,0,0,0,2.32,11.25l11.81.1a65.6,65.6,0,0,0,6.36,13.36l-7.12,9.57a76.21,76.21,0,0,0,7.14,8.66l10.5-5.39a66,66,0,0,0,12.25,9.15l-1.85,11.76a75.43,75.43,0,0,0,10.15,4.24l6.8-9.67a64.52,64.52,0,0,0,15.49,2.37l3.81,11.23c1.13,0,2.25-.07,3.38-.15,2.52-.16,5-.46,7.44-.86l1.53-11.73A64.07,64.07,0,0,0,446,400.62l8.59,8.17a76.46,76.46,0,0,0,9-6l-4.11-11.13A65.36,65.36,0,0,0,470.13,380l11.37,3.23a76.38,76.38,0,0,0,5.22-9.63l-8.84-8a65.1,65.1,0,0,0,3.83-14.93Zm-73,41.31a47.32,47.32,0,1,1,44-50.4A47.33,47.33,0,0,1,420.24,389.63Z" />
                <path
                    d="M377.69,438.26A65.4,65.4,0,0,0,378,429l-9.59-2.67a54.39,54.39,0,0,0-2.65-12.17l7.74-6.11a63.87,63.87,0,0,0-4.19-8.55l-9.74,2.09a54.42,54.42,0,0,0-7.73-9.19l4-9a63.92,63.92,0,0,0-7.83-5.77l-7.65,6.37a54.64,54.64,0,0,0-10.75-4.47l-.63-9.87a63.12,63.12,0,0,0-9.77-1.53l-3.81,9.2c-1.23,0-2.47,0-3.72,0a54.79,54.79,0,0,0-7.64.9l-5.17-8.47a62.88,62.88,0,0,0-9.44,3.12l.9,9.89a53.87,53.87,0,0,0-9.65,6l-8.53-5.11a64.34,64.34,0,0,0-6.93,7.08l5.36,8.3a54.52,54.52,0,0,0-5.9,9.93l-10-.56a64,64,0,0,0-2.86,9.35l8.6,4.85a54.5,54.5,0,0,0-.71,11.62,2.28,2.28,0,0,0,0,.26l-9.07,4.12a63.51,63.51,0,0,0,1.73,9.43l9.85.3a54.33,54.33,0,0,0,5.06,11.25l-6.11,7.86a65.52,65.52,0,0,0,5.8,7.35l8.86-4.31a55,55,0,0,0,10.05,7.85l-1.75,9.78a63.66,63.66,0,0,0,8.39,3.72l5.84-7.94a54.38,54.38,0,0,0,12.88,2.25l3,9.44c.94,0,1.88,0,2.82-.07a60.37,60.37,0,0,0,6.22-.59l1.49-9.75A53.71,53.71,0,0,0,337.34,481l7,7a64.84,64.84,0,0,0,7.64-4.84l-3.23-9.36a54.69,54.69,0,0,0,9.06-9.5l9.42,2.89a62,62,0,0,0,4.53-7.93l-7.23-6.81A53.91,53.91,0,0,0,368,440.07ZM316,471.41a39.49,39.49,0,1,1,37.64-41.25A39.49,39.49,0,0,1,316,471.41Z" />
            </g>
</svg>