<svg xmlns="http://www.w3.org/2000/svg" xmlns:xlink="http://www.w3.org/1999/xlink">
<defs>
            <linearGradient id="25ce8e8a-9dde-4973-99fa-8b5b56f6799f" x1="-2998.87" x2="616.51" y1="303.09" y2="303.09"
            gradientUnits="userSpaceOnUse">
            <stop offset="0" stop-color="#0054a6" />
            <stop offset="0.02" stop-color="#055fad" />
            <stop offset="0.15" stop-color="#1f96d3" />
            <stop offset="0.21" stop-color="#29abe2" />
            <stop offset="0.45" stop-color="#0fdde4" />
            <stop offset="0.71" stop-color="#8cc63f" />
            <stop offset="1" stop-color="#fcee21" />
        </linearGradient>
        <linearGradient id="86579014-35ae-4445-a44c-1e538f28a413" x1="208.31" x2="438.97" y1="165.02" y2="481.19"
            gradientUnits="userSpaceOnUse">
            <stop offset="0" stop-color="#ccc" />
            <stop offset="0.53" stop-color="#eaeaea" />
            <stop offset="1" stop-color="#fff" />
        </linearGradient>
        <linearGradient id="45baaf0a-65c5-47b1-a3ff-677674a51625" x1="216.94" x2="432.13" y1="176.85" y2="471.8"
            gradientUnits="userSpaceOnUse">
            <stop offset="0" stop-color="#fff" />
            <stop offset="0.47" stop-color="#eaeaea" />
            <stop offset="1" stop-color="#ccc" />
        </linearGradient>
</defs>
        <line x1="336.5" x2="336.5" y1="440.83" y2="788.98" fill="#fcee21" stroke="#fcee21" stroke-miterlimit="10"
            stroke-width="12.97" />
        <circle cx="336.5" cy="787.9" r="25.95" fill="#fcee21" />
        <path fill="url(#25ce8e8a-9dde-4973-99fa-8b5b56f6799f)"
            d="M677.3,341.73c0-2.19,0-4.35-.09-6.51-3.44-183.4-153.2-331-337.42-331C224.4,4.23,122.5,62.14,61.69,150.51A335.29,335.29,0,0,0,2.32,340.27H2A218.91,218.91,0,0,0-1.5,302.66V305a221.4,221.4,0,0,1,3.06,35.24c0,.5,0,1,0,1.46A220.57,220.57,0,0,1-1.5,378.56V602a339.06,339.06,0,0,0,63.19-69,335.71,335.71,0,0,0,59.38-191.23c0-.49,0-1,0-1.46h.32c0,.5,0,1,0,1.46,0,120.48,98,218.49,218.46,218.49s218.49-98,218.49-218.49c0-.49,0-1,0-1.46h119v8C677.27,346.12,677.3,343.92,677.3,341.73ZM494,495.91a218,218,0,0,1-372.2-154.18c0-.49,0-1,0-1.46a218,218,0,0,1,436,0c0,.5,0,1,0,1.46A216.55,216.55,0,0,1,494,495.91Z" />

        <g opacity="0.15" style="mix-blend-mode:multiply">
            <path fill="#fff"
                d="M755.91,553.77c0,80.8-44,151.5-109.3,189.41a217.5,217.5,0,0,1-109.52,29.44h-1.37c-120-.76-217.48-98.64-217.48-218.85s97.44-218.09,217.48-218.85h1.37a217.51,217.51,0,0,1,109.52,29.45c64.89,37.68,108.76,107.75,109.27,187.94C755.91,552.81,755.91,553.27,755.91,553.77Z"
                opacity="0.2" />
            <path fill="#fefefe"
                d="M536.3,334.08a217.51,217.51,0,0,1,109.52,29.45c64.89,37.68,108.76,107.76,109.27,187.94,0,.5,0,1,0,1.47,0,80.79-44,151.49-109.3,189.4A217.5,217.5,0,0,1,536.3,771.78h-1.38c-120-.76-217.48-98.64-217.48-218.84s97.45-218.09,217.48-218.86Z"
                opacity="0.2" />
            <path fill="#fdfdfd"
                d="M535.51,333.24A217.42,217.42,0,0,1,645,362.7c64.89,37.68,108.76,107.75,109.27,187.93,0,.5,0,1,0,1.47,0,80.79-44,151.49-109.3,189.4A217.41,217.41,0,0,1,535.51,771h-1.38c-120-.76-217.48-98.64-217.48-218.85S414.09,334,534.13,333.24Z"
                opacity="0.21" />
            <path fill="#fcfcfc"
                d="M534.72,332.4a217.42,217.42,0,0,1,109.52,29.46C709.13,399.54,753,469.61,753.51,549.79c0,.5,0,1,0,1.47,0,80.79-44,151.49-109.3,189.4a217.41,217.41,0,0,1-109.52,29.45h-1.38c-120-.76-217.48-98.64-217.48-218.85S413.3,333.17,533.34,332.4Z"
                opacity="0.21" />
            <path fill="#fbfbfb"
                d="M533.93,331.56A217.47,217.47,0,0,1,643.45,361C708.34,398.7,752.21,468.77,752.71,549c0,.5,0,1,0,1.47,0,80.79-44,151.49-109.29,189.4a217.47,217.47,0,0,1-109.52,29.45h-1.38c-120-.76-217.48-98.64-217.48-218.85s97.44-218.09,217.48-218.86Z"
                opacity="0.21" />
            <path fill="#fafafa"
                d="M533.13,330.73a217.51,217.51,0,0,1,109.52,29.45c64.89,37.68,108.76,107.75,109.27,187.94,0,.5,0,1,0,1.46,0,80.8-44,151.5-109.3,189.41a217.5,217.5,0,0,1-109.52,29.44h-1.37c-120-.76-217.48-98.64-217.48-218.85s97.44-218.09,217.48-218.85Z"
                opacity="0.22" />
            <path fill="#f9f9f9"
                d="M532.34,329.89a217.51,217.51,0,0,1,109.52,29.45C706.75,397,750.62,467.1,751.13,547.28c0,.5,0,1,0,1.47,0,80.79-44,151.49-109.3,189.4a217.5,217.5,0,0,1-109.52,29.44H531c-120-.75-217.48-98.63-217.48-218.84S410.93,330.66,531,329.89Z"
                opacity="0.22" />
            <path fill="#f8f8f8"
                d="M531.55,329.05a217.42,217.42,0,0,1,109.52,29.46C706,396.19,749.83,466.26,750.34,546.44c0,.5,0,1,0,1.47,0,80.79-44,151.49-109.3,189.4a217.41,217.41,0,0,1-109.52,29.45h-1.38c-120-.76-217.48-98.64-217.48-218.85s97.44-218.09,217.48-218.86Z"
                opacity="0.22" />
            <path fill="#f7f7f7"
                d="M530.76,328.21a217.42,217.42,0,0,1,109.52,29.46C705.17,395.35,749,465.42,749.55,545.6c0,.5,0,1,0,1.47,0,80.79-44,151.49-109.3,189.4a217.41,217.41,0,0,1-109.52,29.45h-1.38c-120-.76-217.48-98.64-217.48-218.85S409.34,329,529.38,328.21Z"
                opacity="0.23" />
            <path fill="#f6f6f6"
                d="M530,327.37a217.45,217.45,0,0,1,109.52,29.46c64.89,37.68,108.76,107.75,109.26,187.94,0,.49,0,1,0,1.46,0,80.79-44,151.49-109.29,189.4A217.44,217.44,0,0,1,530,765.08h-1.38c-120-.76-217.48-98.64-217.48-218.85s97.44-218.09,217.48-218.86Z"
                opacity="0.23" />
            <path fill="#f5f5f5"
                d="M529.17,326.54A217.51,217.51,0,0,1,638.69,356C703.58,393.67,747.45,463.74,748,543.93c0,.5,0,1,0,1.46,0,80.8-44,151.5-109.3,189.41a217.5,217.5,0,0,1-109.52,29.44H527.8c-120-.76-217.48-98.64-217.48-218.85S407.76,327.31,527.8,326.54Z"
                opacity="0.23" />
            <path fill="#f4f4f4"
                d="M528.38,325.7A217.51,217.51,0,0,1,637.9,355.15c64.89,37.69,108.76,107.76,109.27,187.94,0,.5,0,1,0,1.47,0,80.79-44,151.49-109.3,189.4A217.5,217.5,0,0,1,528.38,763.4H527c-120-.75-217.48-98.63-217.48-218.84S407,326.47,527,325.7Z"
                opacity="0.23" />
            <path fill="#f3f3f3"
                d="M527.59,324.86a217.42,217.42,0,0,1,109.52,29.46C702,392,745.87,462.07,746.38,542.25c0,.5,0,1,0,1.47,0,80.79-44,151.49-109.3,189.4a217.41,217.41,0,0,1-109.52,29.45h-1.38c-120-.76-217.48-98.64-217.48-218.85s97.44-218.09,217.48-218.86Z"
                opacity="0.24" />
            <path fill="#f2f2f2"
                d="M526.8,324a217.42,217.42,0,0,1,109.52,29.46c64.89,37.68,108.76,107.75,109.27,187.93,0,.5,0,1,0,1.47,0,80.79-44,151.49-109.3,189.4A217.41,217.41,0,0,1,526.8,761.73h-1.38c-120-.76-217.48-98.64-217.48-218.85S405.38,324.79,525.42,324Z"
                opacity="0.24" />
            <path fill="#f1f1f1"
                d="M526,323.19a217.44,217.44,0,0,1,109.52,29.45c64.89,37.68,108.76,107.75,109.26,187.94,0,.49,0,1,0,1.46,0,80.79-44,151.49-109.29,189.4A217.44,217.44,0,0,1,526,760.89h-1.38c-120-.76-217.48-98.64-217.48-218.85S404.59,324,524.63,323.19Z"
                opacity="0.24" />
            <path fill="#f0f0f0"
                d="M525.21,322.35A217.51,217.51,0,0,1,634.73,351.8C699.62,389.48,743.49,459.56,744,539.74c0,.5,0,1,0,1.46,0,80.8-44,151.5-109.3,189.41a217.5,217.5,0,0,1-109.52,29.44h-1.37c-120-.76-217.48-98.64-217.48-218.85S403.8,323.12,523.84,322.35Z"
                opacity="0.25" />
            <path fill="#efefef"
                d="M524.42,321.51A217.42,217.42,0,0,1,633.94,351C698.83,388.65,742.7,458.72,743.21,538.9c0,.5,0,1,0,1.47,0,80.79-44,151.49-109.3,189.4a217.5,217.5,0,0,1-109.52,29.44H523c-120-.75-217.48-98.63-217.48-218.84S403,322.28,523,321.51Z"
                opacity="0.25" />
            <path fill="#eee"
                d="M523.63,320.67a217.42,217.42,0,0,1,109.52,29.46C698,387.81,741.91,457.88,742.42,538.06c0,.5,0,1,0,1.47,0,80.79-44,151.49-109.3,189.4a217.41,217.41,0,0,1-109.52,29.45h-1.38c-120-.76-217.48-98.64-217.48-218.85s97.44-218.09,217.48-218.86Z"
                opacity="0.25" />
            <path fill="#ededed"
                d="M522.84,319.83a217.42,217.42,0,0,1,109.52,29.46C697.25,387,741.12,457,741.63,537.22c0,.5,0,1,0,1.47,0,80.79-44,151.49-109.3,189.4a217.41,217.41,0,0,1-109.52,29.45h-1.38C401.42,756.78,304,658.9,304,538.69S401.42,320.6,521.46,319.83Z"
                opacity="0.26" />
            <path fill="#ececec"
                d="M522.05,319a217.54,217.54,0,0,1,109.52,29.45c64.89,37.68,108.76,107.75,109.26,187.94,0,.49,0,1,0,1.46,0,80.79-44,151.49-109.29,189.4A217.44,217.44,0,0,1,522.05,756.7h-1.38c-120-.76-217.48-98.64-217.48-218.85S400.63,319.76,520.67,319Z"
                opacity="0.26" />
            <path fill="#ebebeb"
                d="M521.25,318.16a217.58,217.58,0,0,1,109.53,29.45C695.67,385.29,739.53,455.37,740,535.55c0,.5,0,1,0,1.46,0,80.8-44,151.5-109.29,189.41a217.57,217.57,0,0,1-109.53,29.44h-1.37C399.84,755.1,302.4,657.22,302.4,537s97.44-218.08,217.48-218.85Z"
                opacity="0.26" />
            <path fill="#eaeaea"
                d="M520.46,317.32A217.42,217.42,0,0,1,630,346.78c64.89,37.68,108.76,107.75,109.27,187.93,0,.5,0,1,0,1.47,0,80.79-44,151.49-109.3,189.4A217.5,217.5,0,0,1,520.46,755h-1.38c-120-.75-217.48-98.63-217.48-218.84s97.45-218.09,217.48-218.86Z"
                opacity="0.27" />
            <path fill="#e9e9e9"
                d="M519.67,316.48a217.42,217.42,0,0,1,109.52,29.46C694.08,383.62,738,453.69,738.46,533.87c0,.5,0,1,0,1.47,0,80.79-44,151.49-109.3,189.4a217.41,217.41,0,0,1-109.52,29.45h-1.38c-120-.76-217.48-98.64-217.48-218.85s97.44-218.09,217.48-218.86Z"
                opacity="0.27" />
            <path fill="#e8e8e8"
                d="M518.88,315.64A217.42,217.42,0,0,1,628.4,345.1C693.29,382.78,737.16,452.85,737.67,533c0,.5,0,1,0,1.47,0,80.79-44,151.49-109.3,189.4a217.41,217.41,0,0,1-109.52,29.45H517.5C397.46,752.59,300,654.71,300,534.5S397.46,316.41,517.5,315.64Z"
                opacity="0.27" />
            <path fill="#e7e7e7"
                d="M518.09,314.81a217.54,217.54,0,0,1,109.52,29.45C692.5,381.94,736.37,452,736.87,532.2c0,.5,0,1,0,1.46,0,80.79-44,151.49-109.29,189.4a217.44,217.44,0,0,1-109.52,29.45h-1.38c-120-.76-217.48-98.64-217.48-218.85s97.44-218.09,217.48-218.85Z"
                opacity="0.28" />
            <path fill="#e6e6e6"
                d="M517.29,314a217.58,217.58,0,0,1,109.53,29.45c64.89,37.69,108.75,107.76,109.26,187.94,0,.5,0,1,0,1.47,0,80.79-44,151.49-109.29,189.4a217.57,217.57,0,0,1-109.53,29.44h-1.37c-120-.76-217.48-98.64-217.48-218.84S395.88,314.74,515.92,314Z"
                opacity="0.28" />
            <path fill="#e5e5e5"
                d="M516.5,313.13A217.42,217.42,0,0,1,626,342.59c64.89,37.68,108.76,107.75,109.27,187.93,0,.5,0,1,0,1.47,0,80.79-44,151.49-109.3,189.4A217.41,217.41,0,0,1,516.5,750.84h-1.38c-120-.76-217.48-98.64-217.48-218.85S395.09,313.9,515.12,313.13Z"
                opacity="0.28" />
            <path fill="#e4e4e4"
                d="M515.71,312.29a217.42,217.42,0,0,1,109.52,29.46C690.12,379.43,734,449.5,734.5,529.68c0,.5,0,1,0,1.47,0,80.79-44,151.49-109.3,189.4A217.41,217.41,0,0,1,515.71,750h-1.38c-120-.76-217.48-98.64-217.48-218.85s97.44-218.09,217.48-218.86Z"
                opacity="0.28" />
            <path fill="#e3e3e3"
                d="M514.92,311.45a217.42,217.42,0,0,1,109.52,29.46c64.89,37.68,108.76,107.75,109.27,187.93,0,.5,0,1,0,1.47,0,80.79-44,151.49-109.3,189.4a217.41,217.41,0,0,1-109.52,29.45h-1.38c-120-.76-217.48-98.64-217.48-218.85S393.5,312.22,513.54,311.45Z"
                opacity="0.29" />
            <path fill="#e2e2e2"
                d="M514.13,310.62a217.54,217.54,0,0,1,109.52,29.45C688.54,377.75,732.41,447.83,732.91,528c0,.5,0,1,0,1.46,0,80.79-44,151.49-109.29,189.4a217.44,217.44,0,0,1-109.52,29.45h-1.38c-120-.76-217.48-98.64-217.48-218.85s97.44-218.09,217.48-218.85Z"
                opacity="0.29" />
            <path fill="#e1e1e1"
                d="M513.33,309.78a217.58,217.58,0,0,1,109.53,29.45C687.75,376.92,731.61,447,732.12,527.17c0,.5,0,1,0,1.47,0,80.79-44,151.49-109.29,189.4a217.57,217.57,0,0,1-109.53,29.44H512c-120-.76-217.48-98.64-217.48-218.84S391.92,310.55,512,309.78Z"
                opacity="0.29" />
            <path fill="#e0e0e0"
                d="M512.54,308.94A217.42,217.42,0,0,1,622.06,338.4C687,376.08,730.82,446.15,731.33,526.33c0,.5,0,1,0,1.47,0,80.79-44,151.49-109.3,189.4a217.41,217.41,0,0,1-109.52,29.45h-1.38c-120-.76-217.48-98.64-217.48-218.85s97.45-218.09,217.48-218.86Z"
                opacity="0.3" />
            <path fill="#dfdfdf"
                d="M511.75,308.1a217.42,217.42,0,0,1,109.52,29.46C686.16,375.24,730,445.31,730.54,525.49c0,.5,0,1,0,1.47,0,80.79-44,151.49-109.3,189.4a217.41,217.41,0,0,1-109.52,29.45h-1.38c-120-.76-217.48-98.64-217.48-218.85S390.33,308.87,510.37,308.1Z"
                opacity="0.3" />
            <path fill="#dedede"
                d="M511,307.26a217.42,217.42,0,0,1,109.52,29.46c64.89,37.68,108.76,107.75,109.27,187.93,0,.5,0,1,0,1.47,0,80.79-44,151.49-109.3,189.4A217.41,217.41,0,0,1,511,745h-1.38c-120-.76-217.48-98.64-217.48-218.85S389.54,308,509.58,307.26Z"
                opacity="0.3" />
            <path fill="#ddd"
                d="M510.17,306.43a217.54,217.54,0,0,1,109.52,29.45C684.58,373.56,728.45,443.64,729,523.82c0,.5,0,1,0,1.46,0,80.79-44,151.49-109.29,189.41a217.53,217.53,0,0,1-109.52,29.44h-1.38c-120-.76-217.48-98.64-217.48-218.85s97.44-218.09,217.48-218.85Z"
                opacity="0.31" />
            <path fill="#dcdcdc"
                d="M509.37,305.59A217.55,217.55,0,0,1,618.9,335C683.79,372.73,727.65,442.8,728.16,523c0,.5,0,1,0,1.47,0,80.79-44,151.49-109.29,189.4a217.54,217.54,0,0,1-109.53,29.44H508c-120-.75-217.48-98.63-217.48-218.84S388,306.36,508,305.59Z"
                opacity="0.31" />
            <path fill="#dbdbdb"
                d="M508.58,304.75A217.42,217.42,0,0,1,618.1,334.21C683,371.89,726.86,442,727.37,522.14c0,.5,0,1,0,1.47,0,80.79-44,151.49-109.3,189.4a217.41,217.41,0,0,1-109.52,29.45H507.2c-120-.76-217.48-98.64-217.48-218.85S387.17,305.52,507.2,304.75Z"
                opacity="0.31" />
            <path fill="#dadada"
                d="M507.79,303.91a217.42,217.42,0,0,1,109.52,29.46C682.2,371.05,726.07,441.12,726.58,521.3c0,.5,0,1,0,1.47,0,80.79-44,151.49-109.3,189.4a217.41,217.41,0,0,1-109.52,29.45h-1.38c-120-.76-217.48-98.64-217.48-218.85s97.44-218.09,217.48-218.86Z"
                opacity="0.32" />
            <path fill="#d9d9d9"
                d="M507,303.08a217.41,217.41,0,0,1,109.52,29.45c64.89,37.68,108.76,107.75,109.27,187.94,0,.49,0,1,0,1.46,0,80.79-44,151.49-109.3,189.4A217.41,217.41,0,0,1,507,740.78h-1.38c-120-.76-217.48-98.64-217.48-218.85s97.44-218.09,217.48-218.85Z"
                opacity="0.32" />
            <path fill="#d8d8d8"
                d="M506.21,302.24a217.54,217.54,0,0,1,109.52,29.45C680.62,369.38,724.49,439.45,725,519.63c0,.5,0,1,0,1.46,0,80.79-44,151.49-109.29,189.41a217.5,217.5,0,0,1-109.52,29.44h-1.38c-120-.76-217.48-98.64-217.48-218.85S384.79,303,504.83,302.24Z"
                opacity="0.32" />
            <path fill="#d7d7d7"
                d="M505.41,301.4a217.45,217.45,0,0,1,109.53,29.46c64.89,37.68,108.75,107.75,109.26,187.93,0,.5,0,1,0,1.47,0,80.79-44,151.49-109.29,189.4A217.54,217.54,0,0,1,505.41,739.1H504c-120-.75-217.48-98.63-217.48-218.84S384,302.17,504,301.4Z"
                opacity="0.33" />
            <path fill="#d6d6d6"
                d="M504.62,300.56A217.48,217.48,0,0,1,614.15,330C679,367.7,722.9,437.77,723.41,518c0,.5,0,1,0,1.47,0,80.79-44,151.49-109.29,189.4a217.47,217.47,0,0,1-109.53,29.45h-1.38c-120-.76-217.47-98.64-217.47-218.85s97.44-218.09,217.47-218.86Z"
                opacity="0.33" />
            <path fill="#d5d5d5"
                d="M503.83,299.72a217.42,217.42,0,0,1,109.52,29.46c64.89,37.68,108.76,107.75,109.27,187.93,0,.5,0,1,0,1.47,0,80.79-44,151.49-109.3,189.4a217.41,217.41,0,0,1-109.52,29.45h-1.38C382.41,736.67,285,638.79,285,518.58s97.44-218.09,217.48-218.86Z"
                opacity="0.33" />
            <path fill="#d4d4d4"
                d="M503,298.89a217.41,217.41,0,0,1,109.52,29.45C677.45,366,721.32,436.1,721.83,516.28c0,.49,0,1,0,1.46,0,80.79-44,151.49-109.3,189.4A217.41,217.41,0,0,1,503,736.59h-1.38c-120-.76-217.48-98.64-217.48-218.85s97.44-218.09,217.48-218.85Z"
                opacity="0.33" />
            <path fill="#d3d3d3"
                d="M502.25,298.05A217.51,217.51,0,0,1,611.77,327.5C676.66,365.19,720.53,435.26,721,515.44c0,.5,0,1,0,1.46,0,80.79-44,151.49-109.29,189.41a217.5,217.5,0,0,1-109.52,29.44h-1.38c-120-.76-217.48-98.64-217.48-218.85s97.44-218.08,217.48-218.85Z"
                opacity="0.34" />
            <path fill="#d2d2d2"
                d="M501.45,297.21A217.45,217.45,0,0,1,611,326.67c64.89,37.68,108.75,107.75,109.26,187.93,0,.5,0,1,0,1.47,0,80.79-44,151.49-109.29,189.4a217.54,217.54,0,0,1-109.53,29.44h-1.37c-120-.75-217.48-98.63-217.48-218.84S380,298,500.08,297.21Z"
                opacity="0.34" />
            <path fill="#d1d1d1"
                d="M500.66,296.37a217.48,217.48,0,0,1,109.53,29.46c64.88,37.68,108.75,107.75,109.26,187.93,0,.5,0,1,0,1.47,0,80.79-44,151.49-109.29,189.4a217.47,217.47,0,0,1-109.53,29.45h-1.38c-120-.76-217.47-98.64-217.47-218.85s97.44-218.09,217.47-218.86Z"
                opacity="0.34" />
            <path fill="#d0d0d0"
                d="M499.87,295.53A217.42,217.42,0,0,1,609.39,325c64.89,37.68,108.76,107.75,109.27,187.93,0,.5,0,1,0,1.47,0,80.79-44,151.49-109.3,189.4a217.41,217.41,0,0,1-109.52,29.45h-1.38C378.45,732.48,281,634.6,281,514.39S378.45,296.3,498.49,295.53Z"
                opacity="0.35" />
            <path fill="#cfcfcf"
                d="M499.08,294.7A217.41,217.41,0,0,1,608.6,324.15c64.89,37.68,108.76,107.76,109.27,187.94,0,.49,0,1,0,1.46,0,80.79-44,151.49-109.3,189.4A217.41,217.41,0,0,1,499.08,732.4H497.7c-120-.76-217.48-98.64-217.48-218.85S377.66,295.46,497.7,294.7Z"
                opacity="0.35" />
            <path fill="#cecece"
                d="M498.29,293.86a217.51,217.51,0,0,1,109.52,29.45C672.7,361,716.57,431.07,717.07,511.25c0,.5,0,1,0,1.46,0,80.8-44,151.49-109.29,189.41a217.5,217.5,0,0,1-109.52,29.44h-1.38c-120-.76-217.48-98.64-217.48-218.85s97.44-218.08,217.48-218.85Z"
                opacity="0.35" />
            <path fill="#cdcdcd"
                d="M497.49,293A217.45,217.45,0,0,1,607,322.48c64.89,37.68,108.75,107.75,109.26,187.93,0,.5,0,1,0,1.47,0,80.79-44,151.49-109.29,189.4a217.45,217.45,0,0,1-109.53,29.45h-1.37c-120-.76-217.48-98.64-217.48-218.85S376.08,293.79,496.12,293Z"
                opacity="0.36" />
            <path fill="#ccc"
                d="M496.7,292.18a217.48,217.48,0,0,1,109.53,29.46C671.12,359.32,715,429.39,715.49,509.57c0,.5,0,1,0,1.47,0,80.79-44,151.49-109.29,189.4A217.47,217.47,0,0,1,496.7,729.89h-1.38c-120-.76-217.47-98.64-217.47-218.85S375.29,293,495.32,292.18Z"
                opacity="0.36" />
            <path fill="#cbcbcb"
                d="M495.91,291.34A217.42,217.42,0,0,1,605.43,320.8c64.89,37.68,108.76,107.75,109.27,187.93,0,.5,0,1,0,1.47,0,80.79-44,151.49-109.3,189.4a217.41,217.41,0,0,1-109.52,29.45h-1.38c-120-.76-217.48-98.64-217.48-218.85s97.44-218.09,217.48-218.86Z"
                opacity="0.36" />
            <path fill="#cacaca"
                d="M495.12,290.51A217.41,217.41,0,0,1,604.64,320C669.53,357.64,713.4,427.72,713.91,507.9c0,.5,0,1,0,1.46,0,80.79-44,151.49-109.3,189.4a217.41,217.41,0,0,1-109.52,29.45h-1.38c-120-.76-217.48-98.64-217.48-218.85S373.7,291.27,493.74,290.51Z"
                opacity="0.37" />
            <path fill="#c9c9c9"
                d="M494.33,289.67a217.51,217.51,0,0,1,109.52,29.45c64.89,37.69,108.76,107.76,109.26,187.94,0,.5,0,1,0,1.47,0,80.79-44,151.49-109.29,189.4a217.5,217.5,0,0,1-109.52,29.44H493c-120-.76-217.48-98.64-217.48-218.84S372.91,290.44,493,289.67Z"
                opacity="0.37" />
            <path fill="#c8c8c8"
                d="M493.53,288.83a217.45,217.45,0,0,1,109.53,29.46C668,356,711.81,426,712.32,506.22c0,.5,0,1,0,1.47,0,80.79-44,151.49-109.29,189.4a217.45,217.45,0,0,1-109.53,29.45h-1.37c-120-.76-217.48-98.64-217.48-218.85S372.12,289.6,492.16,288.83Z"
                opacity="0.37" />
            <path fill="#c7c7c7"
                d="M492.74,288a217.48,217.48,0,0,1,109.53,29.46C667.16,355.13,711,425.2,711.53,505.38c0,.5,0,1,0,1.47,0,80.79-44,151.49-109.29,189.4A217.47,217.47,0,0,1,492.74,725.7h-1.38c-120-.76-217.47-98.64-217.47-218.85S371.33,288.76,491.36,288Z"
                opacity="0.38" />
            <path fill="#c6c6c6"
                d="M492,287.16a217.41,217.41,0,0,1,109.52,29.45c64.89,37.68,108.76,107.75,109.27,187.93,0,.5,0,1,0,1.47,0,80.79-44,151.49-109.3,189.4A217.41,217.41,0,0,1,492,724.86h-1.38c-120-.76-217.48-98.64-217.48-218.85s97.44-218.09,217.48-218.85Z"
                opacity="0.38" />
            <path fill="#c5c5c5"
                d="M491.16,286.32a217.51,217.51,0,0,1,109.52,29.45C665.57,353.46,709.44,423.53,710,503.71c0,.5,0,1,0,1.46,0,80.79-44,151.49-109.3,189.4A217.41,217.41,0,0,1,491.16,724h-1.38c-120-.76-217.48-98.64-217.48-218.85s97.44-218.09,217.48-218.85Z"
                opacity="0.38" />
            <path fill="#c4c4c4"
                d="M490.37,285.48a217.42,217.42,0,0,1,109.52,29.46c64.89,37.68,108.76,107.75,109.26,187.93,0,.5,0,1,0,1.47,0,80.79-44,151.49-109.29,189.4a217.5,217.5,0,0,1-109.52,29.44H489c-120-.76-217.48-98.64-217.48-218.84S369,286.25,489,285.48Z"
                opacity="0.39" />
            <path fill="#c3c3c3"
                d="M489.57,284.64A217.45,217.45,0,0,1,599.1,314.1C664,351.78,707.85,421.85,708.36,502c0,.5,0,1,0,1.47,0,80.79-44,151.49-109.29,189.4a217.45,217.45,0,0,1-109.53,29.45H488.2c-120-.76-217.48-98.64-217.48-218.85S368.16,285.41,488.2,284.64Z"
                opacity="0.39" />
            <path fill="#c2c2c2"
                d="M488.78,283.8a217.45,217.45,0,0,1,109.53,29.46C663.2,350.94,707.06,421,707.57,501.19c0,.5,0,1,0,1.47,0,80.79-44,151.49-109.29,189.4a217.45,217.45,0,0,1-109.53,29.45H487.4c-120-.76-217.47-98.64-217.47-218.85S367.37,284.57,487.4,283.8Z"
                opacity="0.39" />
            <path fill="#c1c1c1"
                d="M488,283a217.47,217.47,0,0,1,109.53,29.45C662.4,350.1,706.27,420.18,706.78,500.36c0,.49,0,1,0,1.46,0,80.79-44,151.49-109.29,189.4A217.47,217.47,0,0,1,488,720.67h-1.38c-120-.76-217.48-98.64-217.48-218.85S366.57,283.73,486.61,283Z"
                opacity="0.39" />
            <path fill="silver"
                d="M487.2,282.13a217.51,217.51,0,0,1,109.52,29.45C661.61,349.27,705.48,419.34,706,499.52c0,.5,0,1,0,1.46,0,80.79-44,151.49-109.3,189.4A217.41,217.41,0,0,1,487.2,719.83h-1.38c-120-.76-217.48-98.64-217.48-218.85s97.44-218.09,217.48-218.85Z"
                opacity="0.4" />
            <path fill="#bfbfbf"
                d="M486.41,281.29a217.42,217.42,0,0,1,109.52,29.46c64.89,37.68,108.76,107.75,109.26,187.93,0,.5,0,1,0,1.47,0,80.79-44,151.49-109.29,189.4A217.5,217.5,0,0,1,486.41,719H485c-120-.75-217.48-98.63-217.48-218.84S365,282.06,485,281.29Z"
                opacity="0.4" />
            <path fill="#bebebe"
                d="M485.61,280.45a217.45,217.45,0,0,1,109.53,29.46C660,347.59,703.89,417.66,704.4,497.84c0,.5,0,1,0,1.47,0,80.79-44,151.49-109.29,189.4a217.45,217.45,0,0,1-109.53,29.45h-1.37c-120-.76-217.48-98.64-217.48-218.85S364.2,281.22,484.24,280.45Z"
                opacity="0.4" />
            <path fill="#bdbdbd"
                d="M484.82,279.61a217.45,217.45,0,0,1,109.53,29.46C659.24,346.75,703.1,416.82,703.61,497c0,.5,0,1,0,1.47,0,80.79-44,151.49-109.29,189.4a217.45,217.45,0,0,1-109.53,29.45h-1.38C363.41,716.56,266,618.68,266,498.47s97.44-218.09,217.47-218.86Z"
                opacity="0.41" />
            <path fill="#bcbcbc"
                d="M484,278.78a217.47,217.47,0,0,1,109.53,29.45C658.44,345.91,702.31,416,702.82,496.17c0,.49,0,1,0,1.46,0,80.79-44,151.49-109.29,189.4A217.47,217.47,0,0,1,484,716.48h-1.38c-120-.76-217.48-98.64-217.48-218.85s97.44-218.09,217.48-218.85Z"
                opacity="0.41" />
            <path fill="#bbb"
                d="M483.24,277.94a217.51,217.51,0,0,1,109.52,29.45C657.65,345.08,701.52,415.15,702,495.33c0,.5,0,1,0,1.46,0,80.79-44,151.49-109.3,189.4a217.41,217.41,0,0,1-109.52,29.45h-1.38c-120-.76-217.48-98.64-217.48-218.85S361.82,278.7,481.86,277.94Z"
                opacity="0.41" />
            <path fill="#bababa"
                d="M482.45,277.1A217.42,217.42,0,0,1,592,306.56c64.89,37.68,108.76,107.75,109.26,187.93,0,.5,0,1,0,1.47,0,80.79-44,151.49-109.29,189.4A217.5,217.5,0,0,1,482.45,714.8h-1.38C361,714.05,263.59,616.17,263.59,496S361,277.87,481.07,277.1Z"
                opacity="0.42" />
            <path fill="#b9b9b9"
                d="M481.65,276.26a217.45,217.45,0,0,1,109.53,29.46c64.89,37.68,108.75,107.75,109.26,187.93,0,.5,0,1,0,1.47,0,80.79-44,151.49-109.29,189.4A217.45,217.45,0,0,1,481.65,714h-1.37c-120-.76-217.48-98.64-217.48-218.85S360.24,277,480.28,276.26Z"
                opacity="0.42" />
            <path fill="#b8b8b8"
                d="M480.86,275.42a217.45,217.45,0,0,1,109.53,29.46c64.89,37.68,108.75,107.75,109.26,187.93,0,.5,0,1,0,1.47,0,80.79-44,151.49-109.29,189.4a217.45,217.45,0,0,1-109.53,29.45h-1.38C359.45,712.37,262,614.49,262,494.28s97.44-218.09,217.47-218.86Z"
                opacity="0.42" />
            <path fill="#b7b7b7"
                d="M480.07,274.59A217.47,217.47,0,0,1,589.6,304C654.48,341.72,698.35,411.8,698.86,492c0,.49,0,1,0,1.46,0,80.79-44,151.49-109.29,189.4a217.47,217.47,0,0,1-109.53,29.45h-1.38c-120-.76-217.48-98.64-217.48-218.85s97.44-218.09,217.48-218.85Z"
                opacity="0.43" />
            <path fill="#b6b6b6"
                d="M479.28,273.75A217.51,217.51,0,0,1,588.8,303.2C653.69,340.89,697.56,411,698.07,491.14c0,.5,0,1,0,1.46,0,80.79-44,151.49-109.3,189.41a217.5,217.5,0,0,1-109.52,29.44H477.9c-120-.76-217.48-98.64-217.48-218.85S357.86,274.52,477.9,273.75Z"
                opacity="0.43" />
            <path fill="#b5b5b5"
                d="M478.48,272.91A217.43,217.43,0,0,1,588,302.37C652.9,340.05,696.77,410.12,697.27,490.3c0,.5,0,1,0,1.47,0,80.79-44,151.49-109.29,189.4a217.41,217.41,0,0,1-109.53,29.44h-1.37c-120-.75-217.48-98.63-217.48-218.84s97.44-218.09,217.48-218.86Z"
                opacity="0.43" />
            <path fill="#b4b4b4"
                d="M477.69,272.07a217.45,217.45,0,0,1,109.53,29.46C652.11,339.21,696,409.28,696.48,489.46c0,.5,0,1,0,1.47,0,80.79-44,151.49-109.29,189.4a217.45,217.45,0,0,1-109.53,29.45h-1.37c-120-.76-217.48-98.64-217.48-218.85s97.44-218.09,217.48-218.86Z"
                opacity="0.44" />
            <path fill="#b3b3b3"
                d="M476.9,271.24a217.45,217.45,0,0,1,109.53,29.45c64.89,37.68,108.75,107.76,109.26,187.93,0,.5,0,1,0,1.47,0,80.79-44,151.49-109.29,189.4A217.45,217.45,0,0,1,476.9,708.94h-1.38c-120-.76-217.47-98.64-217.47-218.85S355.49,272,475.52,271.24Z"
                opacity="0.44" />
            <path fill="#b2b2b2"
                d="M476.11,270.4a217.47,217.47,0,0,1,109.53,29.45c64.88,37.69,108.75,107.76,109.26,187.94,0,.5,0,1,0,1.46,0,80.79-44,151.49-109.29,189.4A217.47,217.47,0,0,1,476.11,708.1h-1.38c-120-.76-217.48-98.64-217.48-218.85S354.69,271.16,474.73,270.4Z"
                opacity="0.44" />
            <path fill="#b1b1b1"
                d="M475.32,269.56A217.58,217.58,0,0,1,584.85,299C649.73,336.7,693.6,406.77,694.11,487c0,.5,0,1,0,1.46,0,80.79-44,151.49-109.29,189.41a217.57,217.57,0,0,1-109.53,29.44h-1.38c-120-.76-217.48-98.64-217.48-218.85S353.9,270.33,473.94,269.56Z"
                opacity="0.44" />
            <path fill="#b0b0b0"
                d="M474.52,268.72a217.43,217.43,0,0,1,109.53,29.46c64.89,37.68,108.76,107.75,109.26,187.93,0,.5,0,1,0,1.47,0,80.79-44,151.49-109.29,189.4a217.42,217.42,0,0,1-109.53,29.45h-1.37c-120-.76-217.48-98.64-217.48-218.85s97.44-218.09,217.48-218.86Z"
                opacity="0.45" />
            <path fill="#afafaf"
                d="M473.73,267.88a217.45,217.45,0,0,1,109.53,29.46C648.15,335,692,405.09,692.52,485.27c0,.5,0,1,0,1.47,0,80.79-44,151.49-109.29,189.4a217.42,217.42,0,0,1-109.53,29.45h-1.37c-120-.76-217.48-98.64-217.48-218.85s97.44-218.09,217.48-218.86Z"
                opacity="0.45" />
            <path fill="#aeaeae"
                d="M472.94,267.05A217.45,217.45,0,0,1,582.47,296.5c64.89,37.68,108.75,107.76,109.26,187.93,0,.5,0,1,0,1.47,0,80.79-44,151.49-109.29,189.4a217.45,217.45,0,0,1-109.53,29.45h-1.38c-120-.76-217.47-98.64-217.47-218.85s97.44-218.09,217.47-218.85Z"
                opacity="0.45" />
            <path fill="#adadad"
                d="M472.15,266.21a217.47,217.47,0,0,1,109.53,29.45c64.89,37.69,108.75,107.76,109.26,187.94,0,.5,0,1,0,1.46,0,80.79-44,151.49-109.29,189.4a217.47,217.47,0,0,1-109.53,29.45h-1.38c-120-.76-217.48-98.64-217.48-218.85S350.73,267,470.77,266.21Z"
                opacity="0.46" />
            <path fill="#acacac"
                d="M471.36,265.37a217.48,217.48,0,0,1,109.53,29.46c64.88,37.68,108.75,107.75,109.26,187.93,0,.5,0,1,0,1.47,0,80.78-44,151.48-109.29,189.4a217.57,217.57,0,0,1-109.53,29.44H470c-120-.76-217.48-98.64-217.48-218.84S349.94,266.14,470,265.37Z"
                opacity="0.46" />
            <path fill="#ababab"
                d="M470.56,264.53A217.43,217.43,0,0,1,580.09,294C645,331.67,688.85,401.74,689.35,481.92c0,.5,0,1,0,1.47,0,80.79-44,151.49-109.29,189.4a217.42,217.42,0,0,1-109.53,29.45h-1.37c-120-.76-217.48-98.64-217.48-218.85S349.15,265.3,469.19,264.53Z"
                opacity="0.46" />
            <path fill="#aaa"
                d="M469.77,263.69A217.45,217.45,0,0,1,579.3,293.15c64.89,37.68,108.75,107.75,109.26,187.93,0,.5,0,1,0,1.47,0,80.79-44,151.49-109.29,189.4A217.42,217.42,0,0,1,469.77,701.4H468.4c-120-.76-217.48-98.64-217.48-218.85S348.36,264.46,468.4,263.69Z"
                opacity="0.47" />
            <path fill="#a9a9a9"
                d="M469,262.86a217.45,217.45,0,0,1,109.53,29.45C643.4,330,687.26,400.07,687.77,480.25c0,.49,0,1,0,1.46,0,80.79-44,151.49-109.29,189.4A217.45,217.45,0,0,1,469,700.56H467.6c-120-.76-217.47-98.64-217.47-218.85S347.57,263.62,467.6,262.86Z"
                opacity="0.47" />
            <path fill="#a8a8a8"
                d="M468.19,262a217.45,217.45,0,0,1,109.53,29.45C642.61,329.16,686.47,399.23,687,479.41c0,.5,0,1,0,1.46,0,80.79-44,151.49-109.29,189.4a217.45,217.45,0,0,1-109.53,29.45h-1.38c-120-.76-217.48-98.64-217.48-218.85S346.77,262.78,466.81,262Z"
                opacity="0.47" />
            <path fill="#a7a7a7"
                d="M467.4,261.18a217.48,217.48,0,0,1,109.53,29.46c64.88,37.68,108.75,107.75,109.26,187.93,0,.5,0,1,0,1.47,0,80.78-44,151.48-109.29,189.4A217.57,217.57,0,0,1,467.4,698.88H466C346,698.12,248.54,600.25,248.54,480S346,262,466,261.18Z"
                opacity="0.48" />
            <path fill="#a6a6a6"
                d="M466.6,260.34A217.43,217.43,0,0,1,576.13,289.8C641,327.48,684.89,397.55,685.39,477.73c0,.5,0,1,0,1.47,0,80.79-44,151.49-109.29,189.4A217.42,217.42,0,0,1,466.6,698.05h-1.37c-120-.76-217.48-98.64-217.48-218.85s97.44-218.09,217.48-218.86Z"
                opacity="0.48" />
            <path fill="#a5a5a5"
                d="M465.81,259.5A217.43,217.43,0,0,1,575.34,289c64.89,37.68,108.75,107.75,109.26,187.93,0,.5,0,1,0,1.47,0,80.79-44,151.49-109.29,189.4a217.42,217.42,0,0,1-109.53,29.45h-1.37C344.4,696.45,247,598.57,247,478.36S344.4,260.27,464.44,259.5Z"
                opacity="0.48" />
            <path fill="#a4a4a4"
                d="M465,258.67a217.45,217.45,0,0,1,109.53,29.45c64.89,37.69,108.75,107.76,109.26,187.94,0,.49,0,1,0,1.46,0,80.79-44,151.49-109.29,189.4A217.45,217.45,0,0,1,465,696.37h-1.38c-120-.76-217.47-98.64-217.47-218.85s97.44-218.09,217.47-218.85Z"
                opacity="0.49" />
            <path fill="#a3a3a3"
                d="M464.23,257.83a217.55,217.55,0,0,1,109.53,29.45C638.65,325,682.51,395,683,475.22c0,.5,0,1,0,1.46,0,80.79-44,151.49-109.29,189.4a217.45,217.45,0,0,1-109.53,29.45h-1.38c-120-.76-217.48-98.64-217.48-218.85s97.44-218.09,217.48-218.85Z"
                opacity="0.49" />
            <path fill="#a2a2a2"
                d="M463.44,257A217.48,217.48,0,0,1,573,286.45c64.88,37.68,108.75,107.75,109.26,187.93,0,.5,0,1,0,1.47,0,80.78-44,151.48-109.29,189.4a217.57,217.57,0,0,1-109.53,29.44h-1.38c-120-.76-217.48-98.63-217.48-218.84S342,257.76,462.06,257Z"
                opacity="0.49" />
            <path fill="#a1a1a1"
                d="M462.64,256.15a217.43,217.43,0,0,1,109.53,29.46c64.89,37.68,108.76,107.75,109.26,187.93,0,.5,0,1,0,1.47,0,80.79-44,151.49-109.29,189.4a217.42,217.42,0,0,1-109.53,29.45h-1.37c-120-.76-217.48-98.64-217.48-218.85s97.44-218.09,217.48-218.86Z"
                opacity="0.49" />
            <path fill="#a0a0a0"
                d="M461.85,255.31a217.43,217.43,0,0,1,109.53,29.46c64.89,37.68,108.75,107.76,109.26,187.93,0,.5,0,1,0,1.47,0,80.79-44,151.49-109.29,189.4A217.42,217.42,0,0,1,461.85,693h-1.37C340.44,692.26,243,594.38,243,474.17s97.44-218.09,217.48-218.86Z"
                opacity="0.5" />
            <path fill="#9f9f9f"
                d="M461.06,254.48a217.45,217.45,0,0,1,109.53,29.45c64.89,37.69,108.75,107.76,109.26,187.94,0,.49,0,1,0,1.46,0,80.79-44,151.49-109.29,189.4a217.45,217.45,0,0,1-109.53,29.45h-1.38c-120-.76-217.47-98.64-217.47-218.85s97.44-218.09,217.47-218.85Z"
                opacity="0.5" />
            <path fill="#9e9e9e"
                d="M460.27,253.64A217.55,217.55,0,0,1,569.8,283.09C634.69,320.78,678.55,390.85,679.06,471c0,.5,0,1,0,1.46,0,80.79-44,151.49-109.29,189.4a217.45,217.45,0,0,1-109.53,29.45h-1.38c-120-.76-217.48-98.64-217.48-218.85S338.85,254.4,458.89,253.64Z"
                opacity="0.5" />
            <path fill="#9d9d9d"
                d="M459.48,252.8A217.48,217.48,0,0,1,569,282.26C633.89,319.94,677.76,390,678.27,470.19c0,.5,0,1,0,1.47,0,80.79-44,151.48-109.29,189.4A217.47,217.47,0,0,1,459.48,690.5H458.1c-120-.75-217.48-98.63-217.48-218.84S338.06,253.57,458.1,252.8Z"
                opacity="0.51" />
            <path fill="#9c9c9c"
                d="M458.68,252a217.49,217.49,0,0,1,109.54,29.46C633.1,319.1,677,389.17,677.47,469.35c0,.5,0,1,0,1.47,0,80.79-44,151.49-109.28,189.4a217.48,217.48,0,0,1-109.54,29.45h-1.37c-120-.76-217.48-98.64-217.48-218.85S337.27,252.73,457.31,252Z"
                opacity="0.51" />
            <path fill="#9b9b9b"
                d="M457.89,251.13a217.42,217.42,0,0,1,109.53,29.45c64.89,37.68,108.75,107.76,109.26,187.93,0,.5,0,1,0,1.47,0,80.79-44,151.49-109.29,189.4a217.42,217.42,0,0,1-109.53,29.45h-1.37C336.48,688.07,239,590.19,239,470s97.44-218.09,217.48-218.85Z"
                opacity="0.51" />
            <path fill="#9a9a9a"
                d="M457.1,250.29a217.45,217.45,0,0,1,109.53,29.45c64.89,37.69,108.75,107.76,109.26,187.94,0,.49,0,1,0,1.46,0,80.79-44,151.49-109.29,189.4A217.45,217.45,0,0,1,457.1,688h-1.38c-120-.76-217.47-98.64-217.47-218.85s97.44-218.09,217.47-218.85Z"
                opacity="0.52" />
            <path fill="#999"
                d="M456.31,249.45a217.45,217.45,0,0,1,109.53,29.46c64.89,37.68,108.75,107.75,109.26,187.93,0,.5,0,1,0,1.46,0,80.79-44,151.49-109.29,189.4a217.45,217.45,0,0,1-109.53,29.45h-1.38c-120-.76-217.48-98.64-217.48-218.85s97.44-218.08,217.48-218.85Z"
                opacity="0.52" />
            <path fill="#989898"
                d="M455.52,248.61a217.48,217.48,0,0,1,109.53,29.46C629.93,315.75,673.8,385.82,674.31,466c0,.5,0,1,0,1.47,0,80.79-44,151.48-109.29,189.4a217.47,217.47,0,0,1-109.53,29.45h-1.38c-120-.76-217.48-98.64-217.48-218.85S334.1,249.38,454.14,248.61Z"
                opacity="0.52" />
            <path fill="#979797"
                d="M454.72,247.77a217.49,217.49,0,0,1,109.54,29.46C629.14,314.91,673,385,673.51,465.16c0,.5,0,1,0,1.47,0,80.79-44,151.49-109.28,189.4a217.48,217.48,0,0,1-109.54,29.45h-1.37c-120-.76-217.48-98.64-217.48-218.85s97.44-218.09,217.48-218.86Z"
                opacity="0.53" />
            <path fill="#969696"
                d="M453.93,246.94a217.42,217.42,0,0,1,109.53,29.45c64.89,37.68,108.75,107.76,109.26,187.93,0,.5,0,1,0,1.47,0,80.79-44,151.49-109.29,189.4a217.42,217.42,0,0,1-109.53,29.45h-1.37c-120-.76-217.48-98.64-217.48-218.85S332.52,247.7,452.56,246.94Z"
                opacity="0.53" />
            <path fill="#959595"
                d="M453.14,246.1a217.45,217.45,0,0,1,109.53,29.45c64.89,37.69,108.75,107.76,109.26,187.94,0,.5,0,1,0,1.46,0,80.79-44,151.49-109.29,189.4A217.45,217.45,0,0,1,453.14,683.8h-1.38C331.73,683,234.29,585.16,234.29,465S331.73,246.86,451.76,246.1Z"
                opacity="0.53" />
            <path fill="#949494"
                d="M452.35,245.26a217.45,217.45,0,0,1,109.53,29.46c64.89,37.68,108.75,107.75,109.26,187.93,0,.5,0,1,0,1.46,0,80.79-44,151.49-109.29,189.41A217.54,217.54,0,0,1,452.35,683H451c-120-.76-217.48-98.64-217.48-218.85S330.93,246,451,245.26Z"
                opacity="0.54" />
            <path fill="#939393"
                d="M451.56,244.42a217.48,217.48,0,0,1,109.53,29.46C626,311.56,669.84,381.63,670.35,461.81c0,.5,0,1,0,1.47,0,80.79-44,151.48-109.29,189.4a217.47,217.47,0,0,1-109.53,29.45h-1.38c-120-.76-217.48-98.64-217.48-218.85s97.44-218.09,217.48-218.86Z"
                opacity="0.54" />
            <path fill="#929292"
                d="M450.76,243.58A217.49,217.49,0,0,1,560.3,273C625.18,310.72,669.05,380.8,669.55,461c0,.5,0,1,0,1.47,0,80.79-44,151.49-109.28,189.4a217.48,217.48,0,0,1-109.54,29.45h-1.37c-120-.76-217.48-98.64-217.48-218.85s97.44-218.09,217.48-218.86Z"
                opacity="0.54" />
            <path fill="#919191"
                d="M450,242.75A217.42,217.42,0,0,1,559.5,272.2C624.39,309.89,668.25,380,668.76,460.14c0,.49,0,1,0,1.46,0,80.79-44,151.49-109.29,189.4A217.42,217.42,0,0,1,450,680.45H448.6c-120-.76-217.48-98.64-217.48-218.85S328.56,243.51,448.6,242.75Z"
                opacity="0.55" />
            <path fill="#909090"
                d="M449.18,241.91a217.45,217.45,0,0,1,109.53,29.45C623.6,309.05,667.46,379.12,668,459.3c0,.5,0,1,0,1.46,0,80.79-44,151.49-109.29,189.4a217.45,217.45,0,0,1-109.53,29.45H447.8c-120-.76-217.47-98.64-217.47-218.85S327.77,242.67,447.8,241.91Z"
                opacity="0.55" />
            <path fill="#8f8f8f"
                d="M448.39,241.07a217.45,217.45,0,0,1,109.53,29.46c64.89,37.68,108.75,107.75,109.26,187.93,0,.5,0,1,0,1.47,0,80.78-44,151.48-109.29,189.4a217.54,217.54,0,0,1-109.53,29.44H447C327,678,229.53,580.13,229.53,459.93S327,241.84,447,241.07Z"
                opacity="0.55" />
            <path fill="#8e8e8e"
                d="M447.6,240.23a217.45,217.45,0,0,1,109.53,29.46C622,307.37,665.88,377.44,666.39,457.62c0,.5,0,1,0,1.47,0,80.79-44,151.49-109.29,189.4A217.45,217.45,0,0,1,447.6,677.94h-1.38c-120-.76-217.48-98.64-217.48-218.85S326.18,241,446.22,240.23Z"
                opacity="0.55" />
            <path fill="#8d8d8d"
                d="M446.8,239.39a217.49,217.49,0,0,1,109.54,29.46c64.88,37.68,108.75,107.76,109.25,187.93,0,.5,0,1,0,1.47,0,80.79-44,151.49-109.28,189.4A217.48,217.48,0,0,1,446.8,677.1h-1.37C325.39,676.34,228,578.46,228,458.25s97.44-218.09,217.48-218.86Z"
                opacity="0.56" />
            <path fill="#8c8c8c"
                d="M446,238.56A217.48,217.48,0,0,1,555.55,268C620.43,305.7,664.29,375.77,664.8,456c0,.49,0,1,0,1.46,0,80.79-44,151.49-109.29,189.4A217.42,217.42,0,0,1,446,676.26h-1.37c-120-.76-217.48-98.64-217.48-218.85S324.6,239.32,444.64,238.56Z"
                opacity="0.56" />
            <path fill="#8b8b8b"
                d="M445.22,237.72a217.45,217.45,0,0,1,109.53,29.45C619.64,304.86,663.5,374.93,664,455.11c0,.5,0,1,0,1.46,0,80.79-44,151.49-109.29,189.4a217.45,217.45,0,0,1-109.53,29.45h-1.38c-120-.76-217.47-98.64-217.47-218.85s97.44-218.09,217.47-218.85Z"
                opacity="0.56" />
            <path fill="#8a8a8a"
                d="M444.43,236.88A217.45,217.45,0,0,1,554,266.34C618.85,304,662.71,374.09,663.22,454.27c0,.5,0,1,0,1.47,0,80.78-44,151.48-109.29,189.4a217.54,217.54,0,0,1-109.53,29.44h-1.38C323,673.82,225.57,576,225.57,455.74S323,237.65,443.05,236.88Z"
                opacity="0.57" />
            <path fill="#898989"
                d="M443.64,236A217.45,217.45,0,0,1,553.17,265.5c64.89,37.68,108.75,107.75,109.26,187.93,0,.5,0,1,0,1.47,0,80.79-44,151.49-109.29,189.4a217.45,217.45,0,0,1-109.53,29.45h-1.38c-120-.76-217.48-98.64-217.48-218.85S322.22,236.81,442.26,236Z"
                opacity="0.57" />
            <path fill="#888"
                d="M442.84,235.21a217.48,217.48,0,0,1,109.54,29.45c64.88,37.68,108.75,107.76,109.25,187.93,0,.5,0,1,0,1.47,0,80.79-44,151.49-109.28,189.4a217.48,217.48,0,0,1-109.54,29.45h-1.37C321.43,672.15,224,574.27,224,454.06S321.43,236,441.47,235.21Z"
                opacity="0.57" />
            <path fill="#878787"
                d="M442.05,234.37a217.48,217.48,0,0,1,109.54,29.45c64.88,37.69,108.74,107.76,109.25,187.94,0,.49,0,1,0,1.46,0,80.79-44,151.49-109.28,189.4a217.48,217.48,0,0,1-109.54,29.45h-1.37c-120-.76-217.48-98.64-217.48-218.85s97.44-218.09,217.48-218.85Z"
                opacity="0.58" />
            <path fill="#868686"
                d="M441.26,233.53A217.45,217.45,0,0,1,550.79,263c64.89,37.69,108.75,107.76,109.26,187.94,0,.5,0,1,0,1.46,0,80.79-44,151.49-109.29,189.4a217.42,217.42,0,0,1-109.53,29.45h-1.38c-120-.76-217.47-98.64-217.47-218.85s97.44-218.09,217.47-218.85Z"
                opacity="0.58" />
            <path fill="#858585"
                d="M440.47,232.69A217.45,217.45,0,0,1,550,262.15c64.89,37.68,108.75,107.75,109.26,187.93,0,.5,0,1,0,1.47,0,80.78-44,151.48-109.29,189.4a217.44,217.44,0,0,1-109.53,29.44h-1.38c-120-.76-217.48-98.63-217.48-218.84s97.44-218.09,217.48-218.86Z"
                opacity="0.58" />
            <path fill="#848484"
                d="M439.68,231.85a217.45,217.45,0,0,1,109.53,29.46C614.1,299,658,369.07,658.47,449.24c0,.5,0,1,0,1.47,0,80.79-44,151.49-109.29,189.4a217.45,217.45,0,0,1-109.53,29.45H438.3c-120-.76-217.48-98.64-217.48-218.85S318.26,232.62,438.3,231.85Z"
                opacity="0.59" />
            <path fill="#838383"
                d="M438.88,231a217.48,217.48,0,0,1,109.54,29.45C613.3,298.15,657.17,368.23,657.67,448.4c0,.5,0,1,0,1.47,0,80.79-44,151.49-109.28,189.4a217.48,217.48,0,0,1-109.54,29.45h-1.37C317.47,668,220,570.08,220,449.87S317.47,231.78,437.51,231Z"
                opacity="0.59" />
            <path fill="#828282"
                d="M438.09,230.18a217.48,217.48,0,0,1,109.54,29.45c64.88,37.69,108.74,107.76,109.25,187.94,0,.49,0,1,0,1.46,0,80.79-44,151.49-109.28,189.4a217.48,217.48,0,0,1-109.54,29.45h-1.37c-120-.76-217.48-98.64-217.48-218.85s97.44-218.09,217.48-218.85Z"
                opacity="0.59" />
            <path fill="#818181"
                d="M437.3,229.34A217.35,217.35,0,0,1,546.83,258.8c64.89,37.68,108.75,107.75,109.26,187.93,0,.5,0,1,0,1.46,0,80.79-44,151.49-109.29,189.4A217.42,217.42,0,0,1,437.3,667h-1.38c-120-.76-217.47-98.64-217.47-218.85S315.89,230.1,435.92,229.34Z"
                opacity="0.6" />
            <path fill="gray"
                d="M436.51,228.5A217.45,217.45,0,0,1,546,258c64.89,37.68,108.75,107.75,109.26,187.93,0,.5,0,1,0,1.47,0,80.78-44,151.48-109.29,189.4a217.45,217.45,0,0,1-109.53,29.45h-1.38c-120-.76-217.48-98.64-217.48-218.85S315.09,229.27,435.13,228.5Z"
                opacity="0.6" />
            <path fill="#7f7f7f"
                d="M435.72,227.66a217.45,217.45,0,0,1,109.53,29.46C610.14,294.8,654,364.88,654.51,445.05c0,.5,0,1,0,1.47,0,80.79-44,151.49-109.29,189.4a217.45,217.45,0,0,1-109.53,29.45h-1.38c-120-.76-217.48-98.64-217.48-218.85S314.3,228.43,434.34,227.66Z"
                opacity="0.6" />
            <path fill="#7e7e7e"
                d="M434.92,226.83a217.48,217.48,0,0,1,109.54,29.45C609.34,294,653.21,364,653.71,444.21c0,.5,0,1,0,1.47,0,80.79-44,151.49-109.28,189.4a217.48,217.48,0,0,1-109.54,29.45h-1.37c-120-.76-217.48-98.64-217.48-218.85s97.44-218.09,217.48-218.85Z"
                opacity="0.6" />
            <path fill="#7d7d7d"
                d="M434.13,226a217.48,217.48,0,0,1,109.54,29.45c64.88,37.69,108.74,107.76,109.25,187.94,0,.5,0,1,0,1.46,0,80.79-44,151.49-109.28,189.4a217.48,217.48,0,0,1-109.54,29.45h-1.37c-120-.76-217.48-98.64-217.48-218.85S312.72,226.75,432.76,226Z"
                opacity="0.61" />
            <path fill="#7c7c7c"
                d="M433.34,225.15a217.43,217.43,0,0,1,109.53,29.46c64.89,37.68,108.75,107.75,109.26,187.93,0,.5,0,1,0,1.46,0,80.79-44,151.49-109.29,189.4a217.42,217.42,0,0,1-109.53,29.45H432c-120-.76-217.47-98.64-217.47-218.85S311.93,225.91,432,225.15Z"
                opacity="0.61" />
            <path fill="#7b7b7b"
                d="M432.55,224.31a217.45,217.45,0,0,1,109.53,29.46C607,291.45,650.83,361.52,651.34,441.7c0,.5,0,1,0,1.47,0,80.78-44,151.48-109.29,189.4A217.45,217.45,0,0,1,432.55,662h-1.38c-120-.76-217.48-98.64-217.48-218.85s97.44-218.09,217.48-218.86Z"
                opacity="0.61" />
            <path fill="#7a7a7a"
                d="M431.76,223.47a217.45,217.45,0,0,1,109.53,29.46C606.18,290.61,650,360.69,650.55,440.86c0,.5,0,1,0,1.47,0,80.79-44,151.49-109.29,189.4a217.45,217.45,0,0,1-109.53,29.45h-1.38c-120-.76-217.48-98.64-217.48-218.85s97.44-218.09,217.48-218.86Z"
                opacity="0.62" />
            <path fill="#797979"
                d="M431,222.64A217.48,217.48,0,0,1,540.5,252.09C605.38,289.78,649.25,359.85,649.75,440c0,.49,0,1,0,1.46,0,80.79-44,151.49-109.28,189.4A217.48,217.48,0,0,1,431,660.34h-1.37c-120-.76-217.48-98.64-217.48-218.85S309.55,223.4,429.59,222.64Z"
                opacity="0.62" />
            <path fill="#787878"
                d="M430.17,221.8a217.48,217.48,0,0,1,109.54,29.45C604.59,288.94,648.45,359,649,439.19c0,.5,0,1,0,1.46,0,80.79-44,151.49-109.28,189.4A217.48,217.48,0,0,1,430.17,659.5H428.8c-120-.76-217.48-98.64-217.48-218.85S308.76,222.56,428.8,221.8Z"
                opacity="0.62" />
            <path fill="#777"
                d="M429.38,221a217.49,217.49,0,0,1,109.54,29.46C603.8,288.1,647.66,358.17,648.17,438.35c0,.5,0,1,0,1.46,0,80.79-44,151.49-109.29,189.4a217.42,217.42,0,0,1-109.53,29.45H428C308,657.9,210.53,560,210.53,439.81S308,221.73,428,221Z"
                opacity="0.63" />
            <path fill="#767676"
                d="M428.59,220.12a217.45,217.45,0,0,1,109.53,29.46C603,287.26,646.87,357.33,647.38,437.51c0,.5,0,1,0,1.47,0,80.78-44,151.48-109.29,189.4a217.45,217.45,0,0,1-109.53,29.45h-1.38c-120-.76-217.48-98.64-217.48-218.85s97.44-218.09,217.48-218.86Z"
                opacity="0.63" />
            <path fill="#757575"
                d="M427.8,219.28a217.45,217.45,0,0,1,109.53,29.46c64.89,37.68,108.75,107.76,109.26,187.93,0,.5,0,1,0,1.47,0,80.79-44,151.49-109.29,189.4A217.45,217.45,0,0,1,427.8,657h-1.38c-120-.76-217.48-98.64-217.48-218.85s97.44-218.09,217.48-218.86Z"
                opacity="0.63" />
            <path fill="#747474"
                d="M427,218.45A217.46,217.46,0,0,1,536.54,247.9c64.89,37.69,108.74,107.76,109.25,187.94,0,.49,0,1,0,1.46,0,80.79-44,151.49-109.28,189.4A217.46,217.46,0,0,1,427,656.15h-1.37c-120-.76-217.48-98.64-217.48-218.85s97.44-218.09,217.48-218.85Z"
                opacity="0.64" />
            <path fill="#737373"
                d="M426.21,217.61a217.48,217.48,0,0,1,109.54,29.45C600.63,284.75,644.49,354.82,645,435c0,.5,0,1,0,1.46,0,80.79-44,151.49-109.28,189.4a217.48,217.48,0,0,1-109.54,29.45h-1.37c-120-.76-217.48-98.64-217.48-218.85S304.8,218.37,424.84,217.61Z"
                opacity="0.64" />
            <path fill="#727272"
                d="M425.42,216.77A217.49,217.49,0,0,1,535,246.23C599.84,283.91,643.7,354,644.21,434.16c0,.5,0,1,0,1.46,0,80.79-44,151.49-109.28,189.4a217.48,217.48,0,0,1-109.54,29.45H424c-120-.76-217.47-98.63-217.47-218.85S304,217.54,424,216.77Z"
                opacity="0.64" />
            <path fill="#717171"
                d="M424.63,215.93a217.45,217.45,0,0,1,109.53,29.46c64.89,37.68,108.75,107.76,109.26,187.93,0,.5,0,1,0,1.47,0,80.78-44,151.48-109.29,189.4a217.45,217.45,0,0,1-109.53,29.45h-1.38c-120-.76-217.48-98.64-217.48-218.85S303.21,216.7,423.25,215.93Z"
                opacity="0.65" />
            <path fill="#707070"
                d="M423.84,215.1a217.45,217.45,0,0,1,109.53,29.45c64.89,37.69,108.75,107.76,109.26,187.93,0,.5,0,1,0,1.47,0,80.79-44,151.49-109.29,189.4A217.45,217.45,0,0,1,423.84,652.8h-1.38C302.42,652,205,554.16,205,434S302.42,215.86,422.46,215.1Z"
                opacity="0.65" />
            <path fill="#6f6f6f"
                d="M423,214.26a217.46,217.46,0,0,1,109.54,29.45c64.89,37.69,108.74,107.76,109.25,187.94,0,.49,0,1,0,1.46,0,80.79-44,151.49-109.28,189.4A217.46,217.46,0,0,1,423,652h-1.37c-120-.76-217.48-98.64-217.48-218.85S301.63,215,421.67,214.26Z"
                opacity="0.65" />
            <path fill="#6e6e6e"
                d="M422.25,213.42a217.39,217.39,0,0,1,109.54,29.46C596.67,280.56,640.53,350.63,641,430.81c0,.5,0,1,0,1.46,0,80.79-44,151.49-109.28,189.4a217.48,217.48,0,0,1-109.54,29.45h-1.37c-120-.76-217.48-98.64-217.48-218.85s97.44-218.09,217.48-218.85Z"
                opacity="0.65" />
            <path fill="#6d6d6d"
                d="M421.46,212.58A217.49,217.49,0,0,1,531,242C595.88,279.72,639.74,349.79,640.25,430c0,.5,0,1,0,1.47,0,80.78-44,151.48-109.28,189.4a217.48,217.48,0,0,1-109.54,29.44h-1.38c-120-.76-217.47-98.63-217.47-218.84s97.44-218.09,217.47-218.86Z"
                opacity="0.66" />
            <path fill="#6c6c6c"
                d="M420.67,211.74A217.45,217.45,0,0,1,530.2,241.2C595.09,278.88,639,349,639.46,429.13c0,.5,0,1,0,1.47,0,80.79-44,151.48-109.29,189.4a217.45,217.45,0,0,1-109.53,29.45h-1.38c-120-.76-217.48-98.64-217.48-218.85s97.44-218.09,217.48-218.86Z"
                opacity="0.66" />
            <path fill="#6b6b6b"
                d="M419.88,210.91a217.45,217.45,0,0,1,109.53,29.45c64.89,37.69,108.75,107.76,109.26,187.93,0,.5,0,1,0,1.47,0,80.79-44,151.49-109.29,189.4a217.45,217.45,0,0,1-109.53,29.45H418.5C298.46,647.85,201,550,201,429.76S298.46,211.67,418.5,210.91Z"
                opacity="0.66" />
            <path fill="#6a6a6a"
                d="M419.08,210.07a217.46,217.46,0,0,1,109.54,29.45c64.89,37.69,108.74,107.76,109.25,187.94,0,.49,0,1,0,1.46,0,80.79-44,151.49-109.28,189.4a217.46,217.46,0,0,1-109.54,29.45h-1.37c-120-.76-217.48-98.64-217.48-218.85s97.44-218.09,217.48-218.85Z"
                opacity="0.67" />
            <path fill="#696969"
                d="M418.29,209.23a217.39,217.39,0,0,1,109.54,29.46c64.88,37.68,108.74,107.75,109.25,187.93,0,.5,0,1,0,1.46,0,80.79-44,151.49-109.28,189.4a217.48,217.48,0,0,1-109.54,29.45h-1.37c-120-.76-217.48-98.64-217.48-218.85S296.88,210,416.92,209.23Z"
                opacity="0.67" />
            <path fill="#686868"
                d="M417.5,208.39A217.49,217.49,0,0,1,527,237.85c64.88,37.68,108.74,107.75,109.25,187.93,0,.5,0,1,0,1.47,0,80.78-44,151.48-109.28,189.4A217.48,217.48,0,0,1,417.5,646.09h-1.38c-120-.76-217.47-98.63-217.47-218.84s97.44-218.09,217.47-218.86Z"
                opacity="0.67" />
            <path fill="#676767"
                d="M416.71,207.55A217.45,217.45,0,0,1,526.24,237C591.13,274.69,635,344.77,635.5,424.94c0,.5,0,1,0,1.47,0,80.79-44,151.48-109.29,189.4a217.45,217.45,0,0,1-109.53,29.45h-1.38c-120-.76-217.48-98.64-217.48-218.85s97.44-218.09,217.48-218.86Z"
                opacity="0.68" />
            <path fill="#666"
                d="M415.92,206.72a217.45,217.45,0,0,1,109.53,29.45C590.34,273.86,634.2,343.93,634.71,424.1c0,.5,0,1,0,1.47,0,80.79-44,151.49-109.29,189.4a217.45,217.45,0,0,1-109.53,29.45h-1.38c-120-.76-217.48-98.64-217.48-218.85S294.5,207.48,414.54,206.72Z"
                opacity="0.68" />
            <path fill="#656565"
                d="M415.12,205.88a217.46,217.46,0,0,1,109.54,29.45C589.55,273,633.4,343.09,633.91,423.27c0,.49,0,1,0,1.46,0,80.79-44,151.49-109.28,189.4a217.46,217.46,0,0,1-109.54,29.45h-1.37c-120-.76-217.48-98.64-217.48-218.85s97.44-218.09,217.48-218.85Z"
                opacity="0.68" />
            <path fill="#646464"
                d="M414.33,205A217.39,217.39,0,0,1,523.87,234.5c64.88,37.68,108.74,107.75,109.25,187.93,0,.5,0,1,0,1.46,0,80.79-44,151.49-109.28,189.4a217.48,217.48,0,0,1-109.54,29.45H413c-120-.76-217.47-98.64-217.47-218.85S292.92,205.8,413,205Z"
                opacity="0.69" />
            <path fill="#636363"
                d="M413.54,204.2a217.49,217.49,0,0,1,109.54,29.46C588,271.34,631.82,341.42,632.33,421.59c0,.5,0,1,0,1.47,0,80.78-44,151.48-109.28,189.4a217.48,217.48,0,0,1-109.54,29.45h-1.38c-120-.76-217.47-98.64-217.47-218.85S292.13,205,412.16,204.2Z"
                opacity="0.69" />
            <path fill="#626262"
                d="M412.75,203.36a217.52,217.52,0,0,1,109.54,29.46C587.17,270.5,631,340.58,631.54,420.75c0,.5,0,1,0,1.47,0,80.79-44,151.48-109.28,189.4a217.48,217.48,0,0,1-109.54,29.45h-1.38c-120-.76-217.48-98.64-217.48-218.85s97.44-218.09,217.48-218.86Z"
                opacity="0.69" />
            <path fill="#616161"
                d="M412,202.53A217.45,217.45,0,0,1,521.49,232c64.89,37.69,108.75,107.76,109.26,187.94,0,.49,0,1,0,1.46,0,80.79-44,151.49-109.29,189.4A217.45,217.45,0,0,1,412,640.23h-1.38c-120-.76-217.48-98.64-217.48-218.85s97.44-218.09,217.48-218.85Z"
                opacity="0.7" />
            <path fill="#606060"
                d="M411.16,201.69A217.46,217.46,0,0,1,520.7,231.14C585.59,268.83,629.44,338.9,630,419.08c0,.5,0,1,0,1.46,0,80.79-44,151.49-109.28,189.4a217.46,217.46,0,0,1-109.54,29.45h-1.37c-120-.76-217.48-98.64-217.48-218.85s97.44-218.09,217.48-218.85Z"
                opacity="0.7" />
            <path fill="#5f5f5f"
                d="M410.37,200.85a217.39,217.39,0,0,1,109.54,29.46C584.79,268,628.65,338.06,629.16,418.24c0,.5,0,1,0,1.46,0,80.79-44,151.49-109.28,189.4a217.48,217.48,0,0,1-109.54,29.45H409c-120-.76-217.47-98.64-217.47-218.85S289,201.61,409,200.85Z"
                opacity="0.7" />
            <path fill="#5e5e5e"
                d="M409.58,200a217.49,217.49,0,0,1,109.54,29.46C584,267.15,627.86,337.23,628.37,417.4c0,.5,0,1,0,1.47,0,80.78-44,151.48-109.28,189.4a217.48,217.48,0,0,1-109.54,29.45H408.2c-120-.76-217.47-98.64-217.47-218.85S288.17,200.78,408.2,200Z"
                opacity="0.71" />
            <path fill="#5d5d5d"
                d="M408.79,199.18a217.51,217.51,0,0,1,109.54,29.45c64.88,37.69,108.74,107.76,109.25,187.93,0,.5,0,1,0,1.47,0,80.79-44,151.48-109.28,189.4a217.48,217.48,0,0,1-109.54,29.45h-1.38c-120-.76-217.48-98.64-217.48-218.85s97.44-218.09,217.48-218.85Z"
                opacity="0.71" />
            <path fill="#5c5c5c"
                d="M408,198.34a217.45,217.45,0,0,1,109.53,29.45c64.89,37.69,108.75,107.76,109.26,187.94,0,.49,0,1,0,1.46,0,80.79-44,151.49-109.29,189.4A217.45,217.45,0,0,1,408,636h-1.38c-120-.76-217.48-98.64-217.48-218.85S286.58,199.1,406.62,198.34Z"
                opacity="0.71" />
            <path fill="#5b5b5b"
                d="M407.2,197.5A217.46,217.46,0,0,1,516.74,227C581.63,264.64,625.48,334.71,626,414.89c0,.5,0,1,0,1.46,0,80.79-44,151.49-109.28,189.4A217.46,217.46,0,0,1,407.2,635.2h-1.37c-120-.76-217.48-98.64-217.48-218.85S285.79,198.26,405.83,197.5Z"
                opacity="0.71" />
            <path fill="#5a5a5a"
                d="M406.41,196.66A217.46,217.46,0,0,1,516,226.12C580.83,263.8,624.69,333.87,625.2,414.05c0,.5,0,1,0,1.46,0,80.79-44,151.49-109.28,189.4a217.46,217.46,0,0,1-109.54,29.45H405c-120-.76-217.47-98.64-217.47-218.85S285,197.43,405,196.66Z"
                opacity="0.72" />
            <path fill="#595959"
                d="M405.62,195.82a217.49,217.49,0,0,1,109.54,29.46C580,263,623.9,333,624.41,413.21c0,.5,0,1,0,1.47,0,80.78-44,151.48-109.28,189.4a217.48,217.48,0,0,1-109.54,29.45h-1.38c-120-.76-217.47-98.64-217.47-218.85s97.44-218.09,217.47-218.86Z"
                opacity="0.72" />
            <path fill="#585858"
                d="M404.83,195a217.51,217.51,0,0,1,109.54,29.45c64.88,37.69,108.74,107.76,109.25,187.93,0,.5,0,1,0,1.47,0,80.79-44,151.48-109.28,189.4a217.48,217.48,0,0,1-109.54,29.45h-1.38C283.41,631.93,186,534.05,186,413.84S283.41,195.75,403.45,195Z"
                opacity="0.72" />
            <path fill="#575757"
                d="M404,194.15A217.45,217.45,0,0,1,513.57,223.6c64.89,37.69,108.75,107.76,109.26,187.94,0,.49,0,1,0,1.46,0,80.79-44,151.49-109.29,189.4A217.45,217.45,0,0,1,404,631.85h-1.38c-120-.76-217.48-98.64-217.48-218.85s97.44-218.09,217.48-218.85Z"
                opacity="0.73" />
            <path fill="#565656"
                d="M403.24,193.31a217.36,217.36,0,0,1,109.54,29.46C577.67,260.45,621.52,330.52,622,410.7c0,.5,0,1,0,1.46,0,80.79-44,151.49-109.28,189.4A217.46,217.46,0,0,1,403.24,631h-1.37c-120-.76-217.48-98.64-217.48-218.85s97.44-218.09,217.48-218.85Z"
                opacity="0.73" />
            <path fill="#555"
                d="M402.45,192.47A217.46,217.46,0,0,1,512,221.93c64.89,37.68,108.74,107.75,109.25,187.93,0,.5,0,1,0,1.46,0,80.79-44,151.49-109.28,189.4a217.36,217.36,0,0,1-109.54,29.45h-1.38c-120-.76-217.47-98.63-217.47-218.85S281,193.24,401.07,192.47Z"
                opacity="0.73" />
            <path fill="#545454"
                d="M401.66,191.63A217.49,217.49,0,0,1,511.2,221.09C576.08,258.77,619.94,328.85,620.45,409c0,.5,0,1,0,1.47,0,80.78-44,151.48-109.28,189.4a217.48,217.48,0,0,1-109.54,29.45h-1.38c-120-.76-217.47-98.64-217.47-218.85S280.25,192.4,400.28,191.63Z"
                opacity="0.74" />
            <path fill="#535353"
                d="M400.87,190.8a217.51,217.51,0,0,1,109.54,29.45C575.29,257.94,619.15,328,619.66,408.18c0,.5,0,1,0,1.47,0,80.79-44,151.49-109.28,189.4A217.48,217.48,0,0,1,400.87,628.5h-1.38C279.45,627.74,182,529.86,182,409.65S279.45,191.56,399.49,190.8Z"
                opacity="0.74" />
            <path fill="#525252"
                d="M400.07,190a217.52,217.52,0,0,1,109.55,29.45C574.5,257.1,618.36,327.17,618.87,407.35c0,.49,0,1,0,1.46,0,80.79-44,151.49-109.29,189.4a217.46,217.46,0,0,1-109.54,29.45H398.7c-120-.76-217.48-98.64-217.48-218.85S278.66,190.72,398.7,190Z"
                opacity="0.74" />
            <path fill="#515151"
                d="M399.28,189.12a217.36,217.36,0,0,1,109.54,29.46c64.89,37.68,108.74,107.75,109.25,187.93,0,.5,0,1,0,1.46,0,80.79-44,151.49-109.28,189.4a217.46,217.46,0,0,1-109.54,29.45h-1.37c-120-.76-217.48-98.64-217.48-218.85s97.44-218.09,217.48-218.85Z"
                opacity="0.75" />
            <path fill="#505050"
                d="M398.49,188.28A217.46,217.46,0,0,1,508,217.74c64.89,37.68,108.74,107.76,109.25,187.93,0,.5,0,1,0,1.47,0,80.78-44,151.48-109.28,189.39A217.36,217.36,0,0,1,398.49,626h-1.38c-120-.76-217.47-98.63-217.47-218.84s97.44-218.09,217.47-218.86Z"
                opacity="0.75" />
            <path fill="#4f4f4f"
                d="M397.7,187.44A217.49,217.49,0,0,1,507.24,216.9C572.12,254.58,616,324.66,616.49,404.83c0,.5,0,1,0,1.47,0,80.78-44,151.48-109.28,189.4A217.48,217.48,0,0,1,397.7,625.15h-1.38c-120-.76-217.47-98.64-217.47-218.85s97.44-218.09,217.47-218.86Z"
                opacity="0.75" />
            <path fill="#4e4e4e"
                d="M396.91,186.61a217.48,217.48,0,0,1,109.54,29.45C571.33,253.75,615.19,323.82,615.7,404c0,.5,0,1,0,1.47,0,80.79-44,151.49-109.28,189.4a217.48,217.48,0,0,1-109.54,29.45h-1.38c-120-.76-217.48-98.64-217.48-218.85s97.44-218.09,217.48-218.85Z"
                opacity="0.76" />
            <path fill="#4d4d4d"
                d="M396.11,185.77a217.52,217.52,0,0,1,109.55,29.45C570.54,252.91,614.4,323,614.91,403.16c0,.49,0,1,0,1.46,0,80.79-44,151.49-109.27,189.4a217.52,217.52,0,0,1-109.55,29.45h-1.37c-120-.76-217.48-98.64-217.48-218.85S274.7,186.53,394.74,185.77Z"
                opacity="0.76" />
            <path fill="#4c4c4c"
                d="M395.32,184.93a217.36,217.36,0,0,1,109.54,29.46c64.89,37.68,108.74,107.75,109.25,187.93,0,.5,0,1,0,1.46,0,80.79-44,151.49-109.28,189.4a217.46,217.46,0,0,1-109.54,29.45H394c-120-.76-217.48-98.64-217.48-218.85S273.91,185.69,394,184.93Z"
                opacity="0.76" />
            <path fill="#4b4b4b"
                d="M394.53,184.09a217.46,217.46,0,0,1,109.54,29.46C569,251.23,612.81,321.31,613.32,401.48c0,.5,0,1,0,1.47,0,80.78-44,151.48-109.28,189.39A217.36,217.36,0,0,1,394.53,621.8h-1.38C273.12,621,175.68,523.16,175.68,403s97.44-218.09,217.47-218.86Z"
                opacity="0.76" />
            <path fill="#4a4a4a"
                d="M393.74,183.25a217.49,217.49,0,0,1,109.54,29.46C568.16,250.4,612,320.47,612.53,400.64c0,.5,0,1,0,1.47,0,80.78-44,151.48-109.28,189.4A217.48,217.48,0,0,1,393.74,621h-1.38c-120-.76-217.47-98.64-217.47-218.85S272.33,184,392.36,183.25Z"
                opacity="0.77" />
            <path fill="#494949"
                d="M393,182.42a217.48,217.48,0,0,1,109.54,29.45c64.88,37.69,108.74,107.76,109.25,187.94,0,.49,0,1,0,1.46,0,80.79-44,151.49-109.28,189.4A217.48,217.48,0,0,1,393,620.12h-1.38c-120-.76-217.48-98.64-217.48-218.85s97.44-218.09,217.48-218.85Z"
                opacity="0.77" />
            <path fill="#484848"
                d="M392.15,181.58A217.52,217.52,0,0,1,501.7,211C566.58,248.72,610.44,318.79,611,399c0,.5,0,1,0,1.46,0,80.79-44,151.49-109.27,189.4a217.52,217.52,0,0,1-109.55,29.45h-1.37c-120-.76-217.48-98.64-217.48-218.85s97.44-218.09,217.48-218.85Z"
                opacity="0.77" />
            <path fill="#474747"
                d="M391.36,180.74A217.36,217.36,0,0,1,500.9,210.2C565.79,247.88,609.64,318,610.15,398.13c0,.5,0,1,0,1.46,0,80.79-44,151.49-109.28,189.4a217.46,217.46,0,0,1-109.54,29.45H390c-120-.76-217.48-98.64-217.48-218.85S270,181.5,390,180.74Z"
                opacity="0.78" />
            <path fill="#464646"
                d="M390.57,179.9a217.46,217.46,0,0,1,109.54,29.46C565,247,608.85,317.12,609.36,397.29c0,.5,0,1,0,1.47,0,80.78-44,151.48-109.28,189.4a217.46,217.46,0,0,1-109.54,29.45h-1.38c-120-.76-217.47-98.64-217.47-218.85S269.16,180.67,389.19,179.9Z"
                opacity="0.78" />
            <path fill="#454545"
                d="M389.78,179.07a217.48,217.48,0,0,1,109.54,29.45c64.88,37.69,108.74,107.76,109.25,187.93,0,.5,0,1,0,1.47,0,80.78-44,151.48-109.28,189.4a217.48,217.48,0,0,1-109.54,29.45H388.4c-120-.76-217.47-98.64-217.47-218.85S268.37,179.83,388.4,179.07Z"
                opacity="0.78" />
            <path fill="#444"
                d="M389,178.23a217.48,217.48,0,0,1,109.54,29.45c64.88,37.69,108.74,107.76,109.25,187.94,0,.49,0,1,0,1.46,0,80.79-44,151.49-109.28,189.4A217.48,217.48,0,0,1,389,615.93h-1.38c-120-.76-217.48-98.64-217.48-218.85S267.57,179,387.61,178.23Z"
                opacity="0.79" />
            <path fill="#434343"
                d="M388.19,177.39a217.43,217.43,0,0,1,109.55,29.46C562.62,244.53,606.48,314.6,607,394.78c0,.5,0,1,0,1.46,0,80.79-44,151.49-109.27,189.4a217.52,217.52,0,0,1-109.55,29.45h-1.37c-120-.76-217.48-98.64-217.48-218.85s97.44-218.09,217.48-218.85Z"
                opacity="0.79" />
            <path fill="#424242"
                d="M387.4,176.55A217.36,217.36,0,0,1,496.94,206c64.89,37.68,108.74,107.76,109.25,187.93,0,.5,0,1,0,1.46,0,80.79-44,151.49-109.28,189.4A217.46,217.46,0,0,1,387.4,614.25H386c-120-.76-217.48-98.64-217.48-218.85S266,177.31,386,176.55Z"
                opacity="0.79" />
            <path fill="#414141"
                d="M386.61,175.71a217.46,217.46,0,0,1,109.54,29.46C561,242.85,604.89,312.93,605.4,393.1c0,.5,0,1,0,1.47,0,80.78-44,151.48-109.28,189.4a217.46,217.46,0,0,1-109.54,29.45h-1.38c-120-.76-217.47-98.64-217.47-218.85S265.2,176.48,385.23,175.71Z"
                opacity="0.8" />
            <path fill="#404040"
                d="M385.82,174.88a217.46,217.46,0,0,1,109.54,29.45C560.24,242,604.1,312.09,604.61,392.26c0,.5,0,1,0,1.47,0,80.78-44,151.48-109.28,189.4a217.46,217.46,0,0,1-109.54,29.45h-1.38C264.41,611.82,167,513.94,167,393.73s97.44-218.09,217.47-218.85Z"
                opacity="0.8" />
            <path fill="#3f3f3f"
                d="M385,174a217.48,217.48,0,0,1,109.54,29.45c64.88,37.69,108.74,107.76,109.25,187.94,0,.49,0,1,0,1.46,0,80.79-44,151.49-109.28,189.4A217.48,217.48,0,0,1,385,611.74h-1.38c-120-.76-217.48-98.64-217.48-218.85S263.61,174.8,383.65,174Z"
                opacity="0.8" />
            <path fill="#3e3e3e"
                d="M384.23,173.2a217.43,217.43,0,0,1,109.55,29.46C558.66,240.34,602.52,310.41,603,390.59c0,.5,0,1,0,1.46,0,80.79-44,151.49-109.27,189.4A217.52,217.52,0,0,1,384.23,610.9h-1.37c-120-.76-217.48-98.64-217.48-218.85S262.82,174,382.86,173.2Z"
                opacity="0.81" />
            <path fill="#3d3d3d"
                d="M383.44,172.36A217.43,217.43,0,0,1,493,201.82c64.88,37.68,108.73,107.76,109.24,187.93,0,.5,0,1,0,1.46,0,80.79-44,151.49-109.28,189.4a217.36,217.36,0,0,1-109.54,29.45h-1.37c-120-.76-217.48-98.63-217.48-218.85S262,173.13,382.07,172.36Z"
                opacity="0.81" />
            <path fill="#3c3c3c"
                d="M382.65,171.52A217.46,217.46,0,0,1,492.19,201c64.89,37.69,108.74,107.76,109.25,187.93,0,.5,0,1,0,1.47,0,80.78-44,151.48-109.28,189.4a217.46,217.46,0,0,1-109.54,29.45h-1.38c-120-.76-217.47-98.64-217.47-218.85s97.44-218.09,217.47-218.86Z"
                opacity="0.81" />
            <path fill="#3b3b3b"
                d="M381.86,170.69A217.46,217.46,0,0,1,491.4,200.14c64.88,37.69,108.74,107.76,109.25,187.93,0,.5,0,1,0,1.47,0,80.79-44,151.48-109.28,189.4a217.46,217.46,0,0,1-109.54,29.45h-1.38C260.45,607.63,163,509.75,163,389.54s97.44-218.09,217.47-218.85Z"
                opacity="0.81" />
            <path fill="#3a3a3a"
                d="M381.07,169.85A217.48,217.48,0,0,1,490.61,199.3C555.49,237,599.35,307.06,599.86,387.24c0,.49,0,1,0,1.46,0,80.79-44,151.49-109.28,189.4a217.48,217.48,0,0,1-109.54,29.45h-1.38c-120-.76-217.48-98.64-217.48-218.85s97.44-218.09,217.48-218.85Z"
                opacity="0.82" />
            <path fill="#393939"
                d="M380.27,169a217.43,217.43,0,0,1,109.55,29.46C554.7,236.15,598.56,306.22,599.07,386.4c0,.5,0,1,0,1.46,0,80.79-44,151.49-109.27,189.4a217.49,217.49,0,0,1-109.55,29.45H378.9c-120-.76-217.48-98.64-217.48-218.85S258.86,169.77,378.9,169Z"
                opacity="0.82" />
            <path fill="#383838"
                d="M379.48,168.17A217.43,217.43,0,0,1,489,197.63c64.88,37.68,108.73,107.76,109.24,187.93,0,.5,0,1,0,1.46,0,80.79-44,151.49-109.27,189.4a217.42,217.42,0,0,1-109.55,29.45h-1.37c-120-.76-217.48-98.63-217.48-218.85s97.44-218.08,217.48-218.85Z"
                opacity="0.82" />
            <path fill="#373737"
                d="M378.69,167.33a217.46,217.46,0,0,1,109.54,29.46C553.12,234.48,597,304.55,597.48,384.72c0,.5,0,1,0,1.47,0,80.78-44,151.48-109.28,189.4A217.46,217.46,0,0,1,378.69,605h-1.38c-120-.76-217.47-98.64-217.47-218.85S257.28,168.1,377.31,167.33Z"
                opacity="0.83" />
            <path fill="#363636"
                d="M377.9,166.5A217.46,217.46,0,0,1,487.44,196c64.89,37.69,108.74,107.76,109.25,187.93,0,.5,0,1,0,1.47,0,80.79-44,151.48-109.28,189.4A217.46,217.46,0,0,1,377.9,604.2h-1.38c-120-.76-217.47-98.64-217.47-218.85S256.49,167.26,376.52,166.5Z"
                opacity="0.83" />
            <path fill="#353535"
                d="M377.11,165.66a217.48,217.48,0,0,1,109.54,29.45C551.53,232.8,595.39,302.87,595.9,383.05c0,.49,0,1,0,1.46,0,80.79-44,151.49-109.28,189.4a217.48,217.48,0,0,1-109.54,29.45h-1.38c-120-.76-217.48-98.64-217.48-218.85s97.44-218.09,217.48-218.85Z"
                opacity="0.83" />
            <path fill="#343434"
                d="M376.31,164.82a217.43,217.43,0,0,1,109.55,29.46C550.74,232,594.6,302,595.11,382.21c0,.5,0,1,0,1.46,0,80.79-44,151.49-109.27,189.4a217.49,217.49,0,0,1-109.55,29.45h-1.37c-120-.76-217.48-98.64-217.48-218.85S254.9,165.58,374.94,164.82Z"
                opacity="0.84" />
            <path fill="#333"
                d="M375.52,164a217.53,217.53,0,0,1,109.55,29.46C550,231.12,593.8,301.2,594.31,381.37c0,.5,0,1,0,1.47,0,80.78-44,151.48-109.27,189.39a217.42,217.42,0,0,1-109.55,29.45h-1.37c-120-.76-217.48-98.63-217.48-218.84S254.11,164.75,374.15,164Z"
                opacity="0.84" />
            <path fill="#323232"
                d="M374.73,163.15A217.46,217.46,0,0,1,484.27,192.6C549.16,230.29,593,300.36,593.52,380.53c0,.5,0,1,0,1.47,0,80.78-44,151.48-109.28,189.4a217.46,217.46,0,0,1-109.54,29.45h-1.38c-120-.76-217.47-98.64-217.47-218.85s97.44-218.09,217.47-218.85Z"
                opacity="0.84" />
            <path fill="#313131"
                d="M373.94,162.31a217.46,217.46,0,0,1,109.54,29.45c64.89,37.69,108.74,107.76,109.25,187.94,0,.49,0,1,0,1.46,0,80.79-44,151.48-109.28,189.4A217.46,217.46,0,0,1,373.94,600h-1.38c-120-.76-217.47-98.64-217.47-218.85s97.44-218.09,217.47-218.85Z"
                opacity="0.85" />
            <path fill="#303030"
                d="M373.15,161.47a217.48,217.48,0,0,1,109.54,29.45c64.88,37.69,108.74,107.76,109.25,187.94,0,.49,0,1,0,1.46,0,80.79-44,151.49-109.28,189.4a217.48,217.48,0,0,1-109.54,29.45h-1.38c-120-.76-217.48-98.64-217.48-218.85s97.44-218.09,217.48-218.85Z"
                opacity="0.85" />
            <path fill="#2f2f2f"
                d="M372.35,160.63A217.43,217.43,0,0,1,481.9,190.09C546.78,227.77,590.64,297.85,591.15,378c0,.5,0,1,0,1.46,0,80.79-44,151.49-109.27,189.4a217.49,217.49,0,0,1-109.55,29.45H371c-120-.76-217.48-98.64-217.48-218.85S250.94,161.39,371,160.63Z"
                opacity="0.85" />
            <path fill="#2e2e2e"
                d="M371.56,159.79a217.53,217.53,0,0,1,109.55,29.46C546,226.93,589.84,297,590.35,377.18c0,.5,0,1,0,1.47,0,80.78-44,151.48-109.27,189.39A217.43,217.43,0,0,1,371.56,597.5h-1.37c-120-.77-217.48-98.64-217.48-218.85s97.44-218.09,217.48-218.86Z"
                opacity="0.86" />
            <path fill="#2d2d2d"
                d="M370.77,159a217.46,217.46,0,0,1,109.54,29.45C545.2,226.1,589.05,296.17,589.56,376.34c0,.5,0,1,0,1.47,0,80.78-44,151.48-109.28,189.4a217.46,217.46,0,0,1-109.54,29.45h-1.38c-120-.76-217.47-98.64-217.47-218.85S249.36,159.72,369.39,159Z"
                opacity="0.86" />
            <path fill="#2c2c2c"
                d="M370,158.12a217.46,217.46,0,0,1,109.54,29.45c64.89,37.69,108.74,107.76,109.25,187.94,0,.49,0,1,0,1.46,0,80.79-44,151.48-109.28,189.4A217.46,217.46,0,0,1,370,595.82H368.6c-120-.76-217.47-98.64-217.47-218.85S248.57,158.88,368.6,158.12Z"
                opacity="0.86" />
            <path fill="#2b2b2b"
                d="M369.19,157.28a217.39,217.39,0,0,1,109.54,29.46C543.61,224.42,587.47,294.49,588,374.67c0,.5,0,1,0,1.46,0,80.79-44,151.49-109.28,189.4A217.48,217.48,0,0,1,369.19,595h-1.38c-120-.76-217.48-98.64-217.48-218.85S247.77,158,367.81,157.28Z"
                opacity="0.87" />
            <path fill="#2a2a2a"
                d="M368.39,156.44A217.43,217.43,0,0,1,477.94,185.9c64.88,37.68,108.74,107.76,109.25,187.93,0,.5,0,1,0,1.46,0,80.79-44,151.49-109.27,189.4a217.49,217.49,0,0,1-109.55,29.45H367c-120-.76-217.48-98.64-217.48-218.85S247,157.2,367,156.44Z"
                opacity="0.87" />
            <path fill="#292929"
                d="M367.6,155.6a217.53,217.53,0,0,1,109.55,29.46C542,222.75,585.88,292.82,586.39,373c0,.5,0,1,0,1.47,0,80.78-44,151.48-109.27,189.39A217.43,217.43,0,0,1,367.6,593.31h-1.37c-120-.76-217.48-98.64-217.48-218.85S246.19,156.37,366.23,155.6Z"
                opacity="0.87" />
            <path fill="#282828"
                d="M366.81,154.77a217.52,217.52,0,0,1,109.55,29.45C541.24,221.91,585.09,292,585.6,372.15c0,.5,0,1,0,1.47,0,80.78-44,151.48-109.28,189.4a217.46,217.46,0,0,1-109.54,29.45h-1.38C245.4,591.71,148,493.83,148,373.62S245.4,155.53,365.43,154.77Z"
                opacity="0.87" />
            <path fill="#272727"
                d="M366,153.93a217.46,217.46,0,0,1,109.54,29.45c64.89,37.69,108.74,107.76,109.25,187.94,0,.49,0,1,0,1.46,0,80.79-44,151.48-109.28,189.4A217.46,217.46,0,0,1,366,591.63h-1.38c-120-.76-217.47-98.64-217.47-218.85s97.44-218.09,217.47-218.85Z"
                opacity="0.88" />
            <path fill="#262626"
                d="M365.23,153.09a217.36,217.36,0,0,1,109.54,29.46C539.65,220.23,583.51,290.3,584,370.48c0,.5,0,1,0,1.46,0,80.79-44,151.49-109.28,189.4a217.46,217.46,0,0,1-109.54,29.45h-1.38c-120-.76-217.48-98.64-217.48-218.85s97.44-218.09,217.48-218.85Z"
                opacity="0.88" />
            <path fill="#252525"
                d="M364.43,152.25A217.4,217.4,0,0,1,474,181.71c64.88,37.68,108.74,107.76,109.25,187.93,0,.5,0,1,0,1.46,0,80.79-44,151.49-109.27,189.4A217.39,217.39,0,0,1,364.43,590h-1.37c-120-.76-217.48-98.64-217.48-218.85S243,153,363.06,152.25Z"
                opacity="0.88" />
            <path fill="#242424"
                d="M363.64,151.41a217.53,217.53,0,0,1,109.55,29.46c64.88,37.69,108.73,107.76,109.24,187.93,0,.5,0,1,0,1.47,0,80.78-44,151.48-109.27,189.39a217.43,217.43,0,0,1-109.55,29.46h-1.37c-120-.76-217.48-98.64-217.48-218.85s97.44-218.09,217.48-218.86Z"
                opacity="0.89" />
            <path fill="#232323"
                d="M362.85,150.58A217.52,217.52,0,0,1,472.4,180C537.28,217.72,581.13,287.79,581.64,368c0,.5,0,1,0,1.47,0,80.78-44,151.48-109.27,189.4a217.52,217.52,0,0,1-109.55,29.45h-1.38C241.44,587.52,144,489.64,144,369.43s97.44-218.09,217.47-218.85Z"
                opacity="0.89" />
            <path fill="#222"
                d="M362.06,149.74A217.46,217.46,0,0,1,471.6,179.19C536.49,216.88,580.34,287,580.85,367.13c0,.49,0,1,0,1.46,0,80.79-44,151.48-109.28,189.4a217.46,217.46,0,0,1-109.54,29.45h-1.38c-120-.76-217.47-98.64-217.47-218.85S240.65,150.5,360.68,149.74Z"
                opacity="0.89" />
            <path fill="#212121"
                d="M361.27,148.9a217.36,217.36,0,0,1,109.54,29.46C535.69,216,579.55,286.12,580.06,366.29c0,.5,0,1,0,1.46,0,80.79-44,151.49-109.28,189.4A217.46,217.46,0,0,1,361.27,586.6h-1.38c-120-.76-217.48-98.64-217.48-218.85S239.85,149.66,359.89,148.9Z"
                opacity="0.9" />
            <path fill="#202020"
                d="M360.47,148.06A217.4,217.4,0,0,1,470,177.52C534.9,215.2,578.76,285.28,579.27,365.45c0,.5,0,1,0,1.46,0,80.79-44,151.49-109.27,189.4a217.39,217.39,0,0,1-109.55,29.45H359.1c-120-.76-217.48-98.63-217.48-218.85S239.06,148.82,359.1,148.06Z"
                opacity="0.9" />
            <path fill="#1f1f1f"
                d="M359.68,147.23a217.52,217.52,0,0,1,109.55,29.45C534.11,214.37,578,284.44,578.47,364.61c0,.5,0,1,0,1.47,0,80.78-44,151.48-109.27,189.4a217.52,217.52,0,0,1-109.55,29.45h-1.37c-120-.76-217.48-98.64-217.48-218.85S238.27,148,358.31,147.23Z"
                opacity="0.9" />
            <path fill="#1e1e1e"
                d="M358.89,146.39a217.52,217.52,0,0,1,109.55,29.45c64.88,37.69,108.73,107.76,109.24,187.93,0,.5,0,1,0,1.47,0,80.78-44,151.48-109.27,189.4a217.52,217.52,0,0,1-109.55,29.45h-1.38C237.48,583.33,140,485.45,140,365.24s97.44-218.09,217.47-218.85Z"
                opacity="0.91" />
            <path fill="#1d1d1d"
                d="M358.1,145.55A217.46,217.46,0,0,1,467.64,175c64.89,37.69,108.74,107.76,109.25,187.94,0,.49,0,1,0,1.46,0,80.79-44,151.48-109.28,189.4A217.46,217.46,0,0,1,358.1,583.25h-1.38c-120-.76-217.47-98.64-217.47-218.85s97.44-218.09,217.47-218.85Z"
                opacity="0.91" />
            <path fill="#1c1c1c"
                d="M357.31,144.71a217.36,217.36,0,0,1,109.54,29.46C531.73,211.85,575.59,281.93,576.1,362.1c0,.5,0,1,0,1.46,0,80.79-44,151.49-109.28,189.4a217.46,217.46,0,0,1-109.54,29.45h-1.38c-120-.76-217.48-98.64-217.48-218.85s97.44-218.09,217.48-218.85Z"
                opacity="0.91" />
            <path fill="#1b1b1b"
                d="M356.51,143.87a217.4,217.4,0,0,1,109.55,29.46C530.94,211,574.8,281.09,575.31,361.26c0,.5,0,1,0,1.46,0,80.79-44,151.49-109.27,189.4a217.39,217.39,0,0,1-109.55,29.45h-1.37c-120-.76-217.48-98.63-217.48-218.85S235.1,144.64,355.14,143.87Z"
                opacity="0.92" />
            <path fill="#1a1a1a"
                d="M355.72,143a217.52,217.52,0,0,1,109.55,29.45C530.15,210.18,574,280.25,574.51,360.42c0,.5,0,1,0,1.47,0,80.78-44,151.48-109.27,189.4a217.52,217.52,0,0,1-109.55,29.45h-1.37c-120-.76-217.48-98.64-217.48-218.85S234.31,143.8,354.35,143Z"
                opacity="0.92" />
            <path fill="#191919"
                d="M354.93,142.2a217.52,217.52,0,0,1,109.55,29.45c64.88,37.69,108.73,107.76,109.24,187.93,0,.5,0,1,0,1.47,0,80.78-44,151.48-109.27,189.4A217.52,217.52,0,0,1,354.93,579.9h-1.38c-120-.76-217.47-98.64-217.47-218.85S233.52,143,353.55,142.2Z"
                opacity="0.92" />
            <path fill="#181818"
                d="M354.14,141.36a217.43,217.43,0,0,1,109.55,29.46c64.88,37.68,108.73,107.75,109.24,187.93,0,.49,0,1,0,1.46,0,80.79-44,151.49-109.28,189.4a217.46,217.46,0,0,1-109.54,29.45h-1.38c-120-.76-217.47-98.64-217.47-218.85s97.44-218.09,217.47-218.85Z"
                opacity="0.92" />
            <path fill="#171717"
                d="M353.35,140.52A217.36,217.36,0,0,1,462.89,170c64.89,37.68,108.74,107.76,109.25,187.93,0,.5,0,1,0,1.46,0,80.79-44,151.49-109.28,189.4a217.46,217.46,0,0,1-109.54,29.45H352c-120-.76-217.48-98.64-217.48-218.85S231.93,141.28,352,140.52Z"
                opacity="0.93" />
            <path fill="#161616"
                d="M352.55,139.68A217.4,217.4,0,0,1,462.1,169.14C527,206.83,570.84,276.9,571.35,357.07c0,.5,0,1,0,1.47,0,80.78-44,151.48-109.27,189.39a217.4,217.4,0,0,1-109.55,29.46h-1.37c-120-.77-217.48-98.64-217.48-218.85s97.44-218.09,217.48-218.86Z"
                opacity="0.93" />
            <path fill="#151515"
                d="M351.76,138.85A217.52,217.52,0,0,1,461.31,168.3C526.19,206,570,276.06,570.55,356.23c0,.5,0,1,0,1.47,0,80.78-44,151.48-109.27,189.4a217.52,217.52,0,0,1-109.55,29.45h-1.37c-120-.76-217.48-98.64-217.48-218.85s97.44-218.09,217.48-218.85Z"
                opacity="0.93" />
            <path fill="#141414"
                d="M351,138a217.52,217.52,0,0,1,109.55,29.45C525.4,205.15,569.25,275.22,569.76,355.4c0,.49,0,1,0,1.46,0,80.78-44,151.48-109.27,189.4A217.52,217.52,0,0,1,351,575.71h-1.38c-120-.76-217.47-98.64-217.47-218.85S229.56,138.77,349.59,138Z"
                opacity="0.94" />
            <path fill="#131313"
                d="M350.18,137.17a217.43,217.43,0,0,1,109.55,29.46C524.61,204.31,568.46,274.39,569,354.56c0,.5,0,1,0,1.46,0,80.79-44,151.49-109.27,189.4a217.52,217.52,0,0,1-109.55,29.45H348.8c-120-.76-217.47-98.64-217.47-218.85S228.77,137.93,348.8,137.17Z"
                opacity="0.94" />
            <path fill="#121212"
                d="M349.39,136.33a217.36,217.36,0,0,1,109.54,29.46c64.89,37.68,108.74,107.76,109.25,187.93,0,.5,0,1,0,1.46,0,80.79-44,151.49-109.28,189.4A217.46,217.46,0,0,1,349.39,574H348c-120-.76-217.48-98.64-217.48-218.85S228,137.09,348,136.33Z"
                opacity="0.94" />
            <path fill="#111"
                d="M348.59,135.49A217.4,217.4,0,0,1,458.14,165C523,202.64,566.88,272.71,567.39,352.88c0,.5,0,1,0,1.47,0,80.78-44,151.48-109.27,189.39A217.4,217.4,0,0,1,348.59,573.2h-1.37c-120-.77-217.48-98.64-217.48-218.85s97.44-218.09,217.48-218.86Z"
                opacity="0.95" />
            <path fill="#101010"
                d="M347.8,134.66a217.52,217.52,0,0,1,109.55,29.45C522.23,201.8,566.08,271.87,566.59,352c0,.5,0,1,0,1.47,0,80.78-44,151.48-109.27,189.4A217.49,217.49,0,0,1,347.8,572.36h-1.37C226.39,571.6,129,473.72,129,353.51s97.44-218.09,217.48-218.85Z"
                opacity="0.95" />
            <path fill="#0f0f0f"
                d="M347,133.82a217.52,217.52,0,0,1,109.55,29.45C521.44,201,565.29,271,565.8,351.21c0,.49,0,1,0,1.46,0,80.78-44,151.48-109.27,189.4A217.52,217.52,0,0,1,347,571.52h-1.38c-120-.76-217.47-98.64-217.47-218.85S225.6,134.58,345.63,133.82Z"
                opacity="0.95" />
            <path fill="#0e0e0e"
                d="M346.22,133a217.43,217.43,0,0,1,109.55,29.46C520.65,200.12,564.5,270.2,565,350.37c0,.5,0,1,0,1.46,0,80.79-44,151.49-109.27,189.4a217.52,217.52,0,0,1-109.55,29.45h-1.38c-120-.76-217.47-98.64-217.47-218.85S224.81,133.74,344.84,133Z"
                opacity="0.96" />
            <path fill="#0d0d0d"
                d="M345.43,132.14A217.36,217.36,0,0,1,455,161.6c64.89,37.68,108.74,107.76,109.25,187.93,0,.5,0,1,0,1.46,0,80.79-44,151.49-109.28,189.4a217.36,217.36,0,0,1-109.54,29.45h-1.38C224,569.08,126.57,471.2,126.57,351S224,132.9,344.05,132.14Z"
                opacity="0.96" />
            <path fill="#0c0c0c"
                d="M344.63,131.3a217.47,217.47,0,0,1,109.55,29.46c64.88,37.69,108.74,107.76,109.25,187.93,0,.5,0,1,0,1.47,0,80.78-44,151.48-109.27,189.39A217.37,217.37,0,0,1,344.63,569h-1.37c-120-.76-217.48-98.64-217.48-218.85S223.22,132.07,343.26,131.3Z"
                opacity="0.96" />
            <path fill="#0b0b0b"
                d="M343.84,130.47a217.52,217.52,0,0,1,109.55,29.45c64.88,37.69,108.73,107.76,109.24,187.93,0,.5,0,1,0,1.47,0,80.78-44,151.48-109.27,189.4a217.49,217.49,0,0,1-109.55,29.45h-1.37C222.43,567.41,125,469.53,125,349.32s97.44-218.09,217.48-218.85Z"
                opacity="0.97" />
            <path fill="#0a0a0a"
                d="M343.05,129.63A217.52,217.52,0,0,1,452.6,159.08C517.48,196.77,561.33,266.84,561.84,347c0,.49,0,1,0,1.46,0,80.79-44,151.48-109.27,189.4a217.52,217.52,0,0,1-109.55,29.45h-1.38c-120-.76-217.47-98.64-217.47-218.85s97.44-218.09,217.47-218.85Z"
                opacity="0.97" />
            <path fill="#090909"
                d="M342.26,128.79a217.43,217.43,0,0,1,109.55,29.46C516.69,195.93,560.54,266,561.05,346.18c0,.5,0,1,0,1.46,0,80.79-44,151.49-109.27,189.4a217.52,217.52,0,0,1-109.55,29.45h-1.38c-120-.76-217.47-98.64-217.47-218.85s97.44-218.09,217.47-218.85Z"
                opacity="0.97" />
            <path fill="#080808"
                d="M341.47,128A217.36,217.36,0,0,1,451,157.41C515.9,195.1,559.75,265.17,560.26,345.34c0,.5,0,1,0,1.46,0,80.79-44,151.49-109.28,189.4a217.36,217.36,0,0,1-109.54,29.45h-1.38c-120-.76-217.48-98.63-217.48-218.85S220.05,128.71,340.09,128Z"
                opacity="0.97" />
            <path fill="#070707"
                d="M340.67,127.12a217.47,217.47,0,0,1,109.55,29.45C515.1,194.26,559,264.33,559.47,344.5c0,.5,0,1,0,1.47,0,80.78-44,151.48-109.27,189.39a217.37,217.37,0,0,1-109.55,29.46H339.3c-120-.76-217.48-98.64-217.48-218.85S219.26,127.88,339.3,127.12Z"
                opacity="0.98" />
            <path fill="#060606"
                d="M339.88,126.28a217.52,217.52,0,0,1,109.55,29.45c64.88,37.69,108.73,107.76,109.24,187.93,0,.5,0,1,0,1.47,0,80.78-44,151.48-109.27,189.4A217.49,217.49,0,0,1,339.88,564h-1.37C218.47,563.22,121,465.34,121,345.13S218.47,127,338.51,126.28Z"
                opacity="0.98" />
            <path fill="#050505"
                d="M339.09,125.44a217.52,217.52,0,0,1,109.55,29.45c64.88,37.69,108.73,107.77,109.24,187.94,0,.49,0,1,0,1.46,0,80.79-44,151.48-109.27,189.4a217.52,217.52,0,0,1-109.55,29.45h-1.38c-120-.76-217.47-98.64-217.47-218.85S217.68,126.2,337.71,125.44Z"
                opacity="0.98" />
            <path fill="#040404"
                d="M338.3,124.6a217.43,217.43,0,0,1,109.55,29.46C512.73,191.74,556.58,261.82,557.09,342c0,.5,0,1,0,1.46,0,80.79-44,151.49-109.27,189.4A217.52,217.52,0,0,1,338.3,562.3h-1.38c-120-.76-217.47-98.64-217.47-218.85S216.89,125.36,336.92,124.6Z"
                opacity="0.99" />
            <path fill="#030303"
                d="M337.51,123.76a217.43,217.43,0,0,1,109.55,29.46C511.94,190.91,555.79,261,556.3,341.15c0,.5,0,1,0,1.46,0,80.79-44,151.49-109.28,189.4a217.36,217.36,0,0,1-109.54,29.45h-1.38c-120-.76-217.48-98.63-217.48-218.85s97.44-218.09,217.48-218.85Z"
                opacity="0.99" />
            <path fill="#020202"
                d="M336.71,122.93a217.47,217.47,0,0,1,109.55,29.45C511.14,190.07,555,260.14,555.51,340.31c0,.5,0,1,0,1.47,0,80.78-44,151.48-109.27,189.39a217.37,217.37,0,0,1-109.55,29.46h-1.37c-120-.76-217.48-98.64-217.48-218.85S215.3,123.69,335.34,122.93Z"
                opacity="0.99" />
            <path fill="#010101"
                d="M335.92,122.09a217.52,217.52,0,0,1,109.55,29.45C510.35,189.23,554.2,259.3,554.71,339.47c0,.5,0,1,0,1.47,0,80.78-44,151.48-109.27,189.4a217.49,217.49,0,0,1-109.55,29.45h-1.37c-120-.76-217.48-98.64-217.48-218.85s97.44-218.09,217.48-218.85Z" />
            <path
                d="M554,340.1C554,460.78,455.78,559,335.13,559h-1.38c-120-.76-217.47-98.64-217.47-218.85S213.72,122,333.75,121.25h1.38c120.15,0,218,97.38,218.79,217.39C554,339.13,554,339.6,554,340.1Z" />
        </g>
        <g>
            <path fill="url(#86579014-35ae-4445-a44c-1e538f28a413)"
                d="M559.5,340.73c0,123-100,223-223,223h-1.4C212.79,563,113.5,463.23,113.5,340.73s99.29-222.24,221.61-223h1.4c122.44,0,222.18,99.23,223,221.52C559.5,339.75,559.5,340.23,559.5,340.73Z" />
            <path fill="url(#45baaf0a-65c5-47b1-a3ff-677674a51625)"
                d="M335.11,548.83c-113.93-.72-206.7-94.07-206.7-208.1s92.77-207.37,206.8-208.1h1.3c114,0,207.32,92.73,208,206.71v.4l0,.4v.59c0,114.75-93.34,208.1-208.08,208.1Z" />
        </g>
        <g>
            <rect width="161.45" height="237.64" x="274.46" y="207.36" fill="#fff" stroke="#000" stroke-miterlimit="10"
                stroke-width="4.28" rx="10.88" ry="10.88" />
            <line x1="298.49" x2="407.33" y1="256.8" y2="256.8" fill="none" stroke="#000" stroke-miterlimit="10"
                stroke-width="2.72" />
            <line x1="298.94" x2="407.79" y1="276.75" y2="276.75" fill="none" stroke="#000" stroke-miterlimit="10"
                stroke-width="2.72" />
            <line x1="298.94" x2="407.79" y1="296.7" y2="296.7" fill="none" stroke="#000" stroke-miterlimit="10"
                stroke-width="2.72" />
            <g>
                <line x1="347.15" x2="406.46" y1="381.89" y2="381.89" fill="none" stroke="#000" stroke-miterlimit="10"
                    stroke-width="1.76" />
                <rect width="8.9" height="18.75" x="347.4" y="363.14" fill="none" stroke="#000" stroke-miterlimit="10"
                    stroke-width="1.76" />
                <rect width="8.9" height="28.47" x="360.25" y="353.18" fill="none" stroke="#000" stroke-miterlimit="10"
                    stroke-width="2.17" />
                <rect width="8.9" height="24.3" x="373.1" y="357.44" fill="none" stroke="#000" stroke-miterlimit="10"
                    stroke-width="2" />
                <rect width="8.9" height="33.33" x="385.95" y="348.21" fill="none" stroke="#000" stroke-miterlimit="10"
                    stroke-width="2.34" />
                <rect width="8.9" height="40.97" x="398.8" y="340.42" fill="none" stroke="#000" stroke-miterlimit="10"
                    stroke-width="2.6" />
            </g>
            <line x1="298.94" x2="407.79" y1="316.66" y2="316.66" fill="none" stroke="#000" stroke-miterlimit="10"
                stroke-width="2.72" />
            <g>
                <rect width="111.66" height="145.22" x="218.17" y="326.47" fill="#fff" rx="8.21" ry="8.21" />
                <path
                    d="M321.62,329.15a5.55,5.55,0,0,1,5.54,5.54V463.48a5.55,5.55,0,0,1-5.54,5.54H226.38a5.54,5.54,0,0,1-5.53-5.54V334.69a5.54,5.54,0,0,1,5.53-5.54h95.24m0-5.35H226.38a10.92,10.92,0,0,0-10.88,10.89V463.48a10.91,10.91,0,0,0,10.88,10.88h95.24a10.9,10.9,0,0,0,10.88-10.88V334.69a10.91,10.91,0,0,0-10.88-10.89Z" />
            </g>
            <rect width="79.82" height="21.77" x="234.09" y="344.32" />
            <g>
                <g>
                    <ellipse cx="250.42" cy="395.45" rx="9.07" ry="9.52" />
                    <ellipse cx="274" cy="395.45" rx="9.07" ry="9.52" />
                    <ellipse cx="297.58" cy="395.45" rx="9.07" ry="9.52" />
                </g>
                <g>
                    <ellipse cx="250.87" cy="420.06" rx="9.07" ry="9.52" />
                    <ellipse cx="274.46" cy="420.06" rx="9.07" ry="9.52" />
                    <ellipse cx="298.04" cy="420.06" rx="9.07" ry="9.52" />
                </g>
                <g>
                    <ellipse cx="251.33" cy="444.66" rx="9.07" ry="9.52" />
                    <ellipse cx="274.91" cy="444.66" rx="9.07" ry="9.52" />
                    <ellipse cx="298.49" cy="444.66" rx="9.07" ry="9.52" />
                </g>
            </g>
            <line x1="352" x2="390.1" y1="399.2" y2="399.2" fill="none" stroke="#000" stroke-miterlimit="10"
                stroke-width="2.72" />
            <line x1="352.46" x2="390.55" y1="410.99" y2="410.99" fill="none" stroke="#000" stroke-miterlimit="10"
                stroke-width="2.72" />
            <circle cx="436.36" cy="280.44" r="29" fill="#fff" stroke="#000" stroke-miterlimit="10"
                stroke-width="4.28" />
            <text font-family="RobotoCondensed-Regular, Roboto Condensed" font-size="47.99"
                transform="translate(423.93 297.76)">
                S
            </text>
            <g>
                <line x1="434.13" x2="434.13" y1="258.67" y2="302.21" fill="none" stroke="#000" stroke-miterlimit="10"
                    stroke-width="1.04" />
                <line x1="438.58" x2="438.58" y1="258.67" y2="302.21" fill="none" stroke="#000" stroke-miterlimit="10"
                    stroke-width="1.04" />
            </g>
        </g>
    
</svg>