<svg xmlns="http://www.w3.org/2000/svg" xmlns:xlink="http://www.w3.org/1999/xlink" viewBox="0 0 675 1147.5" >
 <defs>
        <linearGradient id="3a5d1f44-644e-4033-bd55-c2fc7d95bb21" x1="-53.83" y1="341.75" x2="3561.56" y2="341.75"
            gradientUnits="userSpaceOnUse">
            <stop offset="0" stop-color="#0054a6" />
            <stop offset="0.02" stop-color="#055fad" />
            <stop offset="0.15" stop-color="#1f96d3" />
            <stop offset="0.21" stop-color="#29abe2" />
            <stop offset="0.45" stop-color="#0fdde4" />
            <stop offset="0.71" stop-color="#8cc63f" />
            <stop offset="1" stop-color="#fcee21" />
        </linearGradient>  
        <linearGradient id="819ec383-63f3-4ada-b60a-178d370fbc82" x1="212.75" y1="167.99" x2="440.82" y2="480.61"
            gradientUnits="userSpaceOnUse">
            <stop offset="0" stop-color="#ccc" />
            <stop offset="0.53" stop-color="#eaeaea" />
            <stop offset="1" stop-color="#fff" />
        </linearGradient>
        <linearGradient id="a576a2fd-eb07-43f0-bac2-18aaa933a046" x1="221.28" y1="179.68" x2="434.06" y2="471.33"
            gradientUnits="userSpaceOnUse">
            <stop offset="0" stop-color="#fff" />
            <stop offset="0.47" stop-color="#eaeaea" />
            <stop offset="1" stop-color="#ccc" />
        </linearGradient>   
 </defs>

            <line x1="337.5" y1="559.77" x2="337.5" y2="788.98" fill="#29abe2" stroke="#29abe2" stroke-miterlimit="10"
                stroke-width="12.97" />
            <circle cx="337.5" cy="787.9" r="25.95" fill="#29abe2" />

            <path
                d="M619.2,150.51a335.29,335.29,0,0,0-59.37,189.76h-.32c-.76-119.81-98.48-217-218.44-217H339.7V4.25C153.94,5,3.57,155.8,3.57,341.73S153.94,678.51,339.7,679.21c.47,0,.91,0,1.37,0,115.4,0,217.3-57.92,278.13-146.28a335.27,335.27,0,0,0,55.3-138.59V88.24A339.38,339.38,0,0,0,619.2,150.51Zm-124,345.4a216.67,216.67,0,0,1-154.18,63.87c-.46,0-.9,0-1.37,0a218,218,0,0,1,0-436c.47,0,.91,0,1.37,0a218,218,0,0,1,218,216.59c0,.5,0,1,0,1.46A216.65,216.65,0,0,1,495.25,495.91Z"
                fill="url(#3a5d1f44-644e-4033-bd55-c2fc7d95bb21)" />
            <g opacity="0.15" style="mix-blend-mode: multiply">
                <path
                    d="M761.5,558.25c0,80.83-44,151.58-109.36,189.51a217.64,217.64,0,0,1-109.58,29.46h-1.38c-120.11-.76-217.61-98.7-217.61-219s97.5-218.22,217.61-219h1.38a217.55,217.55,0,0,1,109.58,29.48c64.93,37.7,108.82,107.81,109.33,188C761.5,557.28,761.5,557.75,761.5,558.25Z"
                    fill="#fff" opacity="0.2" />
                <path
                    d="M541.76,338.43A217.58,217.58,0,0,1,651.35,367.9c64.92,37.7,108.82,107.81,109.33,188,0,.5,0,1,0,1.47,0,80.84-44,151.58-109.36,189.51a217.58,217.58,0,0,1-109.59,29.46h-1.37c-120.11-.76-217.61-98.69-217.61-219s97.5-218.22,217.61-219Z"
                    fill="#fefefe" opacity="0.2" />
                <path
                    d="M541,337.59a217.55,217.55,0,0,1,109.58,29.47c64.93,37.7,108.83,107.81,109.34,188,0,.5,0,1,0,1.47,0,80.84-44,151.58-109.37,189.51A217.54,217.54,0,0,1,541,775.54h-1.38c-120.1-.76-217.6-98.69-217.6-219s97.5-218.21,217.6-219Z"
                    fill="#fdfdfd" opacity="0.21" />
                <path
                    d="M540.18,336.75a217.55,217.55,0,0,1,109.58,29.47c64.93,37.7,108.82,107.81,109.33,188,0,.5,0,1,0,1.47,0,80.84-44,151.58-109.36,189.51A217.54,217.54,0,0,1,540.18,774.7H538.8C418.69,774,321.2,676,321.2,555.73s97.49-218.21,217.6-219Z"
                    fill="#fcfcfc" opacity="0.21" />
                <path
                    d="M539.39,335.91A217.65,217.65,0,0,1,649,365.38c64.93,37.71,108.82,107.82,109.33,188,0,.49,0,1,0,1.46,0,80.84-44,151.58-109.36,189.51a217.55,217.55,0,0,1-109.58,29.47H538c-120.11-.76-217.61-98.7-217.61-219s97.5-218.21,217.61-219Z"
                    fill="#fbfbfb" opacity="0.21" />
                <path
                    d="M538.59,335.07a217.68,217.68,0,0,1,109.59,29.47C713.1,402.25,757,472.36,757.51,552.59c0,.5,0,1,0,1.46,0,80.84-44,151.58-109.36,189.52A217.68,217.68,0,0,1,538.59,773h-1.37c-120.11-.76-217.61-98.7-217.61-219s97.5-218.21,217.61-219Z"
                    fill="#fafafa" opacity="0.22" />
                <path
                    d="M537.8,334.23a217.55,217.55,0,0,1,109.58,29.48c64.93,37.7,108.83,107.81,109.34,188,0,.5,0,1,0,1.47,0,80.83-44,151.57-109.37,189.51A217.64,217.64,0,0,1,537.8,772.19h-1.38c-120.1-.76-217.6-98.7-217.6-219s97.5-218.22,217.6-219Z"
                    fill="#f9f9f9" opacity="0.22" />
                <path
                    d="M537,333.39a217.55,217.55,0,0,1,109.58,29.48c64.93,37.7,108.82,107.81,109.33,188,0,.5,0,1,0,1.47,0,80.84-44,151.58-109.36,189.51A217.64,217.64,0,0,1,537,771.35h-1.38c-120.11-.76-217.6-98.69-217.6-219s97.49-218.22,217.6-219Z"
                    fill="#f8f8f8" opacity="0.22" />
                <path
                    d="M536.22,332.56A217.55,217.55,0,0,1,645.8,362c64.93,37.7,108.82,107.81,109.33,188,0,.5,0,1,0,1.47,0,80.84-44,151.58-109.36,189.51a217.54,217.54,0,0,1-109.58,29.46h-1.38c-120.11-.76-217.61-98.69-217.61-219s97.5-218.21,217.61-219Z"
                    fill="#f7f7f7" opacity="0.23" />
                <path
                    d="M535.42,331.72A217.58,217.58,0,0,1,645,361.19c64.92,37.7,108.82,107.81,109.33,188,0,.5,0,1,0,1.47,0,80.84-44,151.58-109.36,189.51a217.58,217.58,0,0,1-109.59,29.46h-1.37c-120.11-.75-217.61-98.69-217.61-219s97.5-218.21,217.61-219Z"
                    fill="#f6f6f6" opacity="0.23" />
                <path
                    d="M534.63,330.88a217.62,217.62,0,0,1,109.58,29.47c64.93,37.7,108.83,107.82,109.34,188,0,.5,0,1,0,1.47,0,80.84-44,151.58-109.37,189.51a217.52,217.52,0,0,1-109.58,29.47h-1.38c-120.1-.76-217.6-98.7-217.6-219s97.5-218.21,217.6-219Z"
                    fill="#f5f5f5" opacity="0.23" />
                <path
                    d="M533.84,330a217.65,217.65,0,0,1,109.58,29.47c64.93,37.71,108.82,107.82,109.33,188,0,.5,0,1,0,1.46,0,80.84-44,151.58-109.36,189.51A217.55,217.55,0,0,1,533.84,768h-1.38c-120.11-.76-217.6-98.7-217.6-219s97.49-218.21,217.6-219Z"
                    fill="#f4f4f4" opacity="0.23" />
                <path
                    d="M533.05,329.2a217.55,217.55,0,0,1,109.58,29.48c64.93,37.7,108.82,107.81,109.33,188,0,.5,0,1,0,1.47C752,629,708,699.76,642.63,737.7a217.64,217.64,0,0,1-109.58,29.46h-1.38c-120.11-.76-217.61-98.7-217.61-219s97.5-218.22,217.61-219Z"
                    fill="#f3f3f3" opacity="0.24" />
                <path
                    d="M532.25,328.36a217.59,217.59,0,0,1,109.59,29.48c64.93,37.7,108.82,107.81,109.33,188,0,.5,0,1,0,1.47,0,80.83-44,151.58-109.36,189.51a217.65,217.65,0,0,1-109.59,29.46h-1.37c-120.11-.76-217.61-98.69-217.61-219s97.5-218.22,217.61-219Z"
                    fill="#f2f2f2" opacity="0.24" />
                <path
                    d="M531.46,327.53A217.58,217.58,0,0,1,641.05,357C706,394.7,749.87,464.81,750.38,545c0,.5,0,1,0,1.47,0,80.84-44,151.58-109.36,189.51a217.58,217.58,0,0,1-109.59,29.46h-1.38c-120.1-.76-217.6-98.69-217.6-219s97.5-218.22,217.6-219Z"
                    fill="#f1f1f1" opacity="0.24" />
                <path
                    d="M530.67,326.69a217.55,217.55,0,0,1,109.58,29.47c64.93,37.7,108.82,107.81,109.33,188,0,.5,0,1,0,1.47,0,80.84-44,151.58-109.36,189.51a217.54,217.54,0,0,1-109.58,29.46h-1.38c-120.11-.76-217.6-98.69-217.6-219s97.49-218.21,217.6-219Z"
                    fill="#f0f0f0" opacity="0.25" />
                <path
                    d="M529.88,325.85a217.65,217.65,0,0,1,109.58,29.47c64.93,37.7,108.82,107.82,109.33,188,0,.5,0,1,0,1.47,0,80.84-44,151.58-109.36,189.51a217.55,217.55,0,0,1-109.58,29.47H528.5c-120.11-.76-217.61-98.7-217.61-219s97.5-218.21,217.61-219Z"
                    fill="#efefef" opacity="0.25" />
                <path
                    d="M529.08,325a217.66,217.66,0,0,1,109.59,29.47C703.6,392.19,747.49,462.3,748,542.53c0,.5,0,1,0,1.46,0,80.84-44,151.58-109.36,189.51A217.56,217.56,0,0,1,529.08,763h-1.37c-120.11-.76-217.61-98.7-217.61-219s97.5-218.21,217.61-219Z"
                    fill="#eee" opacity="0.25" />
                <path
                    d="M528.29,324.17a217.59,217.59,0,0,1,109.59,29.48c64.92,37.7,108.82,107.81,109.33,188,0,.5,0,1,0,1.47,0,80.83-44,151.57-109.36,189.51a217.68,217.68,0,0,1-109.59,29.46h-1.38c-120.1-.76-217.6-98.7-217.6-219s97.5-218.22,217.6-219Z"
                    fill="#ededed" opacity="0.26" />
                <path
                    d="M527.5,323.33a217.55,217.55,0,0,1,109.58,29.48c64.93,37.7,108.82,107.81,109.33,188,0,.5,0,1,0,1.47,0,80.83-44,151.57-109.36,189.51A217.64,217.64,0,0,1,527.5,761.29h-1.38c-120.11-.76-217.6-98.7-217.6-219s97.49-218.22,217.6-219Z"
                    fill="#ececec" opacity="0.26" />
                <path
                    d="M526.71,322.5A217.55,217.55,0,0,1,636.29,352c64.93,37.7,108.82,107.81,109.33,188,0,.5,0,1,0,1.47,0,80.84-44,151.58-109.36,189.51a217.54,217.54,0,0,1-109.58,29.46h-1.38c-120.11-.76-217.61-98.69-217.61-219s97.5-218.22,217.61-219Z"
                    fill="#ebebeb" opacity="0.26" />
                <path
                    d="M525.91,321.66A217.56,217.56,0,0,1,635.5,351.13c64.93,37.7,108.82,107.81,109.33,188,0,.5,0,1,0,1.47,0,80.84-44,151.58-109.36,189.51a217.55,217.55,0,0,1-109.59,29.46h-1.37c-120.11-.76-217.61-98.69-217.61-219s97.5-218.21,217.61-219Z"
                    fill="#eaeaea" opacity="0.27" />
                <path
                    d="M525.12,320.82a217.58,217.58,0,0,1,109.59,29.47C699.63,388,743.53,458.11,744,538.33c0,.5,0,1,0,1.47,0,80.84-44,151.58-109.36,189.51a217.58,217.58,0,0,1-109.59,29.47h-1.38c-120.1-.76-217.6-98.7-217.6-219s97.5-218.21,217.6-219Z"
                    fill="#e9e9e9" opacity="0.27" />
                <path
                    d="M524.33,320a217.65,217.65,0,0,1,109.58,29.47c64.93,37.71,108.82,107.82,109.33,188.05,0,.49,0,1,0,1.46,0,80.84-44,151.58-109.36,189.51a217.55,217.55,0,0,1-109.58,29.47H523c-120.11-.76-217.6-98.7-217.6-219S402.84,320.75,523,320Z"
                    fill="#e8e8e8" opacity="0.27" />
                <path
                    d="M523.54,319.14a217.65,217.65,0,0,1,109.58,29.47c64.93,37.71,108.82,107.82,109.33,188,0,.5,0,1,0,1.46,0,80.84-44,151.58-109.36,189.51A217.55,217.55,0,0,1,523.54,757.1h-1.38c-120.11-.76-217.61-98.7-217.61-219s97.5-218.21,217.61-219Z"
                    fill="#e7e7e7" opacity="0.28" />
                <path
                    d="M522.74,318.3a217.56,217.56,0,0,1,109.59,29.48c64.93,37.7,108.82,107.81,109.33,188,0,.5,0,1,0,1.47,0,80.83-44,151.57-109.36,189.51a217.65,217.65,0,0,1-109.59,29.46h-1.37c-120.11-.76-217.61-98.7-217.61-219s97.5-218.22,217.61-219Z"
                    fill="#e6e6e6" opacity="0.28" />
                <path
                    d="M522,317.47a217.58,217.58,0,0,1,109.59,29.47c64.92,37.7,108.82,107.81,109.33,188,0,.5,0,1,0,1.47,0,80.84-44,151.58-109.36,189.51A217.58,217.58,0,0,1,522,755.42h-1.38c-120.1-.76-217.6-98.69-217.6-219s97.5-218.22,217.6-219Z"
                    fill="#e5e5e5" opacity="0.28" />
                <path
                    d="M521.16,316.63A217.55,217.55,0,0,1,630.74,346.1c64.93,37.7,108.82,107.81,109.33,188,0,.5,0,1,0,1.47,0,80.84-44,151.58-109.36,189.51a217.54,217.54,0,0,1-109.58,29.46h-1.38c-120.11-.76-217.6-98.69-217.6-219s97.49-218.21,217.6-219Z"
                    fill="#e4e4e4" opacity="0.28" />
                <path
                    d="M520.37,315.79A217.55,217.55,0,0,1,630,345.26c64.93,37.7,108.82,107.82,109.33,188,0,.5,0,1,0,1.47,0,80.84-44,151.58-109.36,189.51a217.54,217.54,0,0,1-109.58,29.46H519c-120.11-.75-217.6-98.69-217.6-219s97.49-218.21,217.6-219Z"
                    fill="#e3e3e3" opacity="0.29" />
                <path
                    d="M519.57,315a217.66,217.66,0,0,1,109.59,29.47C694.09,382.13,738,452.24,738.49,532.47c0,.49,0,1,0,1.46,0,80.84-44,151.58-109.36,189.51a217.56,217.56,0,0,1-109.59,29.47H518.2c-120.11-.76-217.61-98.7-217.61-219s97.5-218.21,217.61-219Z"
                    fill="#e2e2e2" opacity="0.29" />
                <path
                    d="M518.78,314.11a217.68,217.68,0,0,1,109.59,29.47C693.29,381.29,737.19,451.4,737.7,531.63c0,.5,0,1,0,1.46,0,80.84-44,151.58-109.36,189.51a217.58,217.58,0,0,1-109.59,29.47H517.4c-120.1-.76-217.6-98.7-217.6-219s97.5-218.21,217.6-219Z"
                    fill="#e1e1e1" opacity="0.29" />
                <path
                    d="M518,313.27a217.59,217.59,0,0,1,109.59,29.48c64.92,37.7,108.81,107.81,109.32,188,0,.5,0,1,0,1.47,0,80.83-44,151.57-109.35,189.51A217.68,217.68,0,0,1,518,751.23h-1.38c-120.11-.76-217.6-98.7-217.6-219s97.49-218.22,217.6-219Z"
                    fill="#e0e0e0" opacity="0.3" />
                <path
                    d="M517.2,312.44a217.55,217.55,0,0,1,109.58,29.47c64.93,37.7,108.82,107.81,109.33,188,0,.5,0,1,0,1.47,0,80.83-44,151.57-109.36,189.51A217.64,217.64,0,0,1,517.2,750.39h-1.38c-120.11-.76-217.6-98.69-217.6-219s97.49-218.22,217.6-219Z"
                    fill="#dfdfdf" opacity="0.3" />
                <path
                    d="M516.41,311.6A217.55,217.55,0,0,1,626,341.07c64.93,37.7,108.82,107.81,109.33,188,0,.5,0,1,0,1.47,0,80.84-44,151.58-109.36,189.51a217.54,217.54,0,0,1-109.58,29.46H515c-120.11-.76-217.61-98.69-217.61-219s97.5-218.22,217.61-219Z"
                    fill="#dedede" opacity="0.3" />
                <path
                    d="M515.61,310.76A217.58,217.58,0,0,1,625.2,340.23c64.92,37.7,108.82,107.82,109.33,188,0,.5,0,1,0,1.47,0,80.84-44,151.58-109.36,189.51a217.58,217.58,0,0,1-109.59,29.46h-1.38c-120.1-.76-217.6-98.69-217.6-219s97.5-218.21,217.6-219Z"
                    fill="#ddd" opacity="0.31" />
                <path
                    d="M514.82,309.92a217.58,217.58,0,0,1,109.59,29.47c64.92,37.71,108.81,107.82,109.32,188,0,.5,0,1,0,1.47,0,80.84-44,151.58-109.35,189.51a217.58,217.58,0,0,1-109.59,29.47h-1.38c-120.11-.76-217.6-98.7-217.6-219s97.49-218.21,217.6-219Z"
                    fill="#dcdcdc" opacity="0.31" />
                <path
                    d="M514,309.08a217.65,217.65,0,0,1,109.58,29.47c64.93,37.71,108.82,107.82,109.33,188.05,0,.5,0,1,0,1.46,0,80.84-44,151.58-109.36,189.51A217.55,217.55,0,0,1,514,747h-1.38c-120.11-.76-217.6-98.7-217.6-219s97.49-218.21,217.6-219Z"
                    fill="#dbdbdb" opacity="0.31" />
                <path
                    d="M513.24,308.24a217.55,217.55,0,0,1,109.58,29.48c64.93,37.7,108.82,107.81,109.33,188,0,.5,0,1,0,1.47,0,80.83-44,151.57-109.36,189.51A217.64,217.64,0,0,1,513.24,746.2h-1.38c-120.11-.76-217.61-98.7-217.61-219s97.5-218.22,217.61-219Z"
                    fill="#dadada" opacity="0.32" />
                <path
                    d="M512.44,307.4A217.59,217.59,0,0,1,622,336.88c64.93,37.7,108.82,107.81,109.33,188,0,.5,0,1,0,1.47,0,80.83-44,151.57-109.36,189.51a217.68,217.68,0,0,1-109.59,29.46h-1.38c-120.1-.76-217.6-98.69-217.6-219s97.5-218.22,217.6-219Z"
                    fill="#d9d9d9" opacity="0.32" />
                <path
                    d="M511.65,306.57A217.58,217.58,0,0,1,621.24,336c64.92,37.7,108.81,107.81,109.32,188,0,.5,0,1,0,1.47,0,80.84-44,151.58-109.35,189.51a217.58,217.58,0,0,1-109.59,29.46h-1.38c-120.11-.76-217.6-98.69-217.6-219s97.49-218.22,217.6-219Z"
                    fill="#d8d8d8" opacity="0.32" />
                <path
                    d="M510.86,305.73A217.55,217.55,0,0,1,620.44,335.2c64.93,37.7,108.82,107.82,109.33,188,0,.5,0,1,0,1.47,0,80.84-44,151.58-109.36,189.51a217.54,217.54,0,0,1-109.58,29.46h-1.38c-120.11-.76-217.6-98.69-217.6-219s97.49-218.21,217.6-219Z"
                    fill="#d7d7d7" opacity="0.33" />
                <path
                    d="M510.07,304.89a217.55,217.55,0,0,1,109.58,29.47c64.93,37.71,108.82,107.82,109.33,188,0,.5,0,1,0,1.47,0,80.84-44,151.58-109.36,189.51a217.55,217.55,0,0,1-109.58,29.47h-1.38c-120.11-.76-217.61-98.7-217.61-219s97.5-218.21,217.61-219Z"
                    fill="#d6d6d6" opacity="0.33" />
                <path
                    d="M509.27,304.05a217.66,217.66,0,0,1,109.59,29.47c64.93,37.71,108.82,107.82,109.33,188.05,0,.49,0,1,0,1.46,0,80.84-44,151.58-109.36,189.51A217.56,217.56,0,0,1,509.27,742h-1.38c-120.1-.76-217.6-98.7-217.6-219s97.5-218.21,217.6-219Z"
                    fill="#d5d5d5" opacity="0.33" />
                <path
                    d="M508.48,303.21a217.59,217.59,0,0,1,109.59,29.48c64.92,37.7,108.82,107.81,109.32,188,0,.5,0,1,0,1.46,0,80.84-44,151.58-109.35,189.51a217.58,217.58,0,0,1-109.59,29.47H507.1c-120.11-.76-217.6-98.7-217.6-219S387,304,507.1,303.21Z"
                    fill="#d4d4d4" opacity="0.33" />
                <path
                    d="M507.69,302.37a217.55,217.55,0,0,1,109.58,29.48c64.93,37.7,108.82,107.81,109.33,188,0,.5,0,1,0,1.47,0,80.83-44,151.57-109.36,189.51a217.64,217.64,0,0,1-109.58,29.46h-1.38c-120.11-.76-217.6-98.7-217.6-219s97.49-218.22,217.6-219Z"
                    fill="#d3d3d3" opacity="0.34" />
                <path
                    d="M506.9,301.54A217.55,217.55,0,0,1,616.48,331c64.93,37.7,108.82,107.81,109.33,188,0,.5,0,1,0,1.47,0,80.83-44,151.58-109.36,189.51A217.54,217.54,0,0,1,506.9,739.49h-1.38c-120.11-.76-217.61-98.69-217.61-219s97.5-218.22,217.61-219Z"
                    fill="#d2d2d2" opacity="0.34" />
                <path
                    d="M506.1,300.7a217.56,217.56,0,0,1,109.59,29.47C680.62,367.87,724.51,438,725,518.21c0,.5,0,1,0,1.47,0,80.84-44,151.58-109.36,189.51A217.55,217.55,0,0,1,506.1,738.65h-1.38c-120.1-.76-217.6-98.69-217.6-219s97.5-218.21,217.6-219Z"
                    fill="#d1d1d1" opacity="0.34" />
                <path
                    d="M505.31,299.86A217.58,217.58,0,0,1,614.9,329.33c64.92,37.71,108.82,107.82,109.32,188,0,.5,0,1,0,1.47,0,80.84-44,151.58-109.35,189.51a217.58,217.58,0,0,1-109.59,29.46h-1.38c-120.1-.75-217.6-98.69-217.6-219s97.5-218.21,217.6-219Z"
                    fill="#d0d0d0" opacity="0.35" />
                <path
                    d="M504.52,299a217.71,217.71,0,0,1,109.59,29.47c64.92,37.71,108.81,107.82,109.32,188,0,.49,0,1,0,1.46,0,80.84-44,151.58-109.35,189.51A217.61,217.61,0,0,1,504.52,737h-1.38c-120.11-.76-217.6-98.7-217.6-219S383,299.79,503.14,299Z"
                    fill="#cfcfcf" opacity="0.35" />
                <path
                    d="M503.73,298.18a217.55,217.55,0,0,1,109.58,29.48c64.93,37.7,108.82,107.81,109.33,188,0,.5,0,1,0,1.46,0,80.84-44,151.58-109.36,189.51a217.55,217.55,0,0,1-109.58,29.47h-1.38c-120.11-.76-217.61-98.7-217.61-219s97.5-218.21,217.61-219Z"
                    fill="#cecece" opacity="0.35" />
                <path
                    d="M502.93,297.34a217.56,217.56,0,0,1,109.59,29.48c64.93,37.7,108.82,107.81,109.33,188,0,.5,0,1,0,1.47,0,80.83-44,151.57-109.36,189.51A217.65,217.65,0,0,1,502.93,735.3h-1.37C381.45,734.54,284,636.6,284,516.33s97.5-218.22,217.61-219Z"
                    fill="#cdcdcd" opacity="0.36" />
                <path
                    d="M502.14,296.51A217.58,217.58,0,0,1,611.73,326c64.92,37.7,108.82,107.81,109.32,188,0,.5,0,1,0,1.47,0,80.83-44,151.57-109.35,189.51a217.58,217.58,0,0,1-109.59,29.46h-1.38c-120.1-.76-217.6-98.69-217.6-219s97.5-218.22,217.6-219Z"
                    fill="#ccc" opacity="0.36" />
                <path
                    d="M501.35,295.67a217.58,217.58,0,0,1,109.59,29.47c64.92,37.7,108.81,107.82,109.32,188,0,.5,0,1,0,1.47,0,80.84-44,151.58-109.35,189.51a217.58,217.58,0,0,1-109.59,29.46H500c-120.11-.76-217.6-98.69-217.6-219s97.49-218.22,217.6-219Z"
                    fill="#cbcbcb" opacity="0.36" />
                <path
                    d="M500.56,294.83A217.55,217.55,0,0,1,610.14,324.3C675.07,362,719,432.12,719.47,512.34c0,.5,0,1,0,1.47,0,80.84-44,151.58-109.36,189.51a217.54,217.54,0,0,1-109.58,29.46h-1.38c-120.11-.75-217.61-98.69-217.61-219s97.5-218.21,217.61-219Z"
                    fill="#cacaca" opacity="0.37" />
                <path
                    d="M499.76,294a217.56,217.56,0,0,1,109.59,29.47c64.93,37.71,108.82,107.82,109.33,188.05,0,.49,0,1,0,1.46,0,80.84-44,151.58-109.36,189.51A217.56,217.56,0,0,1,499.76,732h-1.37c-120.11-.76-217.61-98.7-217.61-219s97.5-218.21,217.61-219Z"
                    fill="#c9c9c9" opacity="0.37" />
                <path
                    d="M499,293.15a217.68,217.68,0,0,1,109.59,29.47c64.92,37.71,108.82,107.82,109.32,188.05,0,.5,0,1,0,1.46,0,80.84-44,151.58-109.35,189.51A217.58,217.58,0,0,1,499,731.11h-1.38c-120.1-.76-217.6-98.7-217.6-219s97.5-218.21,217.6-219Z"
                    fill="#c8c8c8" opacity="0.37" />
                <path
                    d="M498.18,292.31a217.59,217.59,0,0,1,109.59,29.48c64.92,37.7,108.81,107.81,109.32,188,0,.5,0,1,0,1.47,0,80.83-44,151.57-109.35,189.51a217.68,217.68,0,0,1-109.59,29.46H496.8c-120.11-.76-217.6-98.7-217.6-219s97.49-218.22,217.6-219Z"
                    fill="#c7c7c7" opacity="0.38" />
                <path
                    d="M497.39,291.48A217.55,217.55,0,0,1,607,321c64.93,37.7,108.82,107.81,109.33,188,0,.5,0,1,0,1.47C716.33,591.29,672.3,662,607,700a217.64,217.64,0,0,1-109.58,29.46H496c-120.11-.76-217.61-98.69-217.61-219s97.5-218.22,217.61-219Z"
                    fill="#c6c6c6" opacity="0.38" />
                <path
                    d="M496.59,290.64a217.56,217.56,0,0,1,109.59,29.47c64.93,37.7,108.82,107.82,109.33,188,0,.5,0,1,0,1.47,0,80.83-44,151.58-109.36,189.51a217.55,217.55,0,0,1-109.59,29.46h-1.37c-120.11-.76-217.61-98.69-217.61-219s97.5-218.22,217.61-219Z"
                    fill="#c5c5c5" opacity="0.38" />
                <path
                    d="M495.8,289.8a217.58,217.58,0,0,1,109.59,29.47c64.93,37.71,108.82,107.82,109.32,188,0,.5,0,1,0,1.47,0,80.84-44,151.58-109.35,189.51A217.58,217.58,0,0,1,495.8,727.75h-1.38c-120.1-.76-217.6-98.69-217.6-219s97.5-218.21,217.6-219Z"
                    fill="#c4c4c4" opacity="0.39" />
                <path
                    d="M495,289A217.58,217.58,0,0,1,604.6,318.43c64.92,37.71,108.81,107.82,109.32,188,0,.5,0,1,0,1.47,0,80.84-44,151.58-109.35,189.51A217.58,217.58,0,0,1,495,726.92h-1.38c-120.11-.76-217.6-98.7-217.6-219s97.49-218.21,217.6-219Z"
                    fill="#c3c3c3" opacity="0.39" />
                <path
                    d="M494.22,288.12A217.65,217.65,0,0,1,603.8,317.59c64.93,37.71,108.82,107.82,109.33,188.05,0,.5,0,1,0,1.46,0,80.84-44,151.58-109.36,189.51a217.55,217.55,0,0,1-109.58,29.47h-1.38c-120.11-.76-217.61-98.7-217.61-219s97.5-218.21,217.61-219Z"
                    fill="#c2c2c2" opacity="0.39" />
                <path
                    d="M493.42,287.28A217.56,217.56,0,0,1,603,316.76c64.93,37.7,108.82,107.81,109.33,188,0,.5,0,1,0,1.47,0,80.83-44,151.57-109.36,189.5a217.56,217.56,0,0,1-109.59,29.47h-1.37c-120.11-.76-217.61-98.7-217.61-219s97.5-218.22,217.61-219Z"
                    fill="#c1c1c1" opacity="0.39" />
                <path
                    d="M492.63,286.45a217.58,217.58,0,0,1,109.59,29.47C667.15,353.62,711,423.73,711.55,504c0,.5,0,1,0,1.47,0,80.83-44,151.57-109.35,189.51A217.68,217.68,0,0,1,492.63,724.4h-1.38c-120.1-.76-217.6-98.69-217.6-219s97.5-218.22,217.6-219Z"
                    fill="silver" opacity="0.4" />
                <path
                    d="M491.84,285.61a217.58,217.58,0,0,1,109.59,29.47c64.92,37.7,108.81,107.82,109.32,188,0,.5,0,1,0,1.47,0,80.83-44,151.57-109.35,189.51a217.58,217.58,0,0,1-109.59,29.46h-1.38c-120.11-.76-217.6-98.69-217.6-219s97.49-218.22,217.6-219Z"
                    fill="#bfbfbf" opacity="0.4" />
                <path
                    d="M491.05,284.77a217.61,217.61,0,0,1,109.59,29.47c64.92,37.7,108.81,107.82,109.32,188,0,.5,0,1,0,1.47,0,80.84-44,151.58-109.35,189.51a217.6,217.6,0,0,1-109.59,29.46h-1.38C369.56,722,272.06,624,272.06,503.75s97.5-218.21,217.61-219Z"
                    fill="#bebebe" opacity="0.4" />
                <path
                    d="M490.25,283.93A217.56,217.56,0,0,1,599.84,313.4c64.93,37.71,108.82,107.82,109.33,188,0,.5,0,1,0,1.47,0,80.84-44,151.58-109.36,189.51a217.56,217.56,0,0,1-109.59,29.47h-1.37c-120.11-.76-217.61-98.7-217.61-219s97.5-218.21,217.61-219Z"
                    fill="#bdbdbd" opacity="0.41" />
                <path
                    d="M489.46,283.09a217.68,217.68,0,0,1,109.59,29.47C664,350.27,707.87,420.38,708.38,500.61c0,.49,0,1,0,1.46,0,80.84-44,151.58-109.36,189.51a217.56,217.56,0,0,1-109.59,29.47h-1.38c-120.1-.76-217.6-98.7-217.6-219s97.5-218.21,217.6-219Z"
                    fill="#bcbcbc" opacity="0.41" />
                <path
                    d="M488.67,282.25a217.59,217.59,0,0,1,109.59,29.48c64.92,37.7,108.81,107.81,109.32,188,0,.5,0,1,0,1.46,0,80.84-44,151.58-109.35,189.51a217.58,217.58,0,0,1-109.59,29.47h-1.38c-120.11-.76-217.6-98.7-217.6-219s97.49-218.21,217.6-219Z"
                    fill="#bbb" opacity="0.41" />
                <path
                    d="M487.88,281.41a217.59,217.59,0,0,1,109.59,29.48c64.92,37.7,108.81,107.81,109.32,188,0,.5,0,1,0,1.47,0,80.83-44,151.57-109.35,189.51a217.68,217.68,0,0,1-109.59,29.46H486.5c-120.11-.76-217.61-98.7-217.61-219s97.5-218.22,217.61-219Z"
                    fill="#bababa" opacity="0.42" />
                <path
                    d="M487.08,280.58a217.56,217.56,0,0,1,109.59,29.47c64.93,37.7,108.82,107.82,109.33,188,0,.5,0,1,0,1.47,0,80.83-44,151.57-109.36,189.51a217.55,217.55,0,0,1-109.59,29.46h-1.37c-120.11-.76-217.61-98.69-217.61-219s97.5-218.22,217.61-219Z"
                    fill="#b9b9b9" opacity="0.42" />
                <path
                    d="M486.29,279.74a217.56,217.56,0,0,1,109.59,29.47c64.93,37.7,108.82,107.82,109.33,188,0,.5,0,1,0,1.47,0,80.84-44,151.58-109.36,189.51a217.55,217.55,0,0,1-109.59,29.46h-1.38c-120.1-.76-217.6-98.69-217.6-219s97.5-218.21,217.6-219Z"
                    fill="#b8b8b8" opacity="0.42" />
                <path
                    d="M485.5,278.9a217.58,217.58,0,0,1,109.59,29.47c64.92,37.71,108.81,107.82,109.32,188,0,.5,0,1,0,1.47,0,80.84-44,151.58-109.35,189.51A217.58,217.58,0,0,1,485.5,716.85h-1.38c-120.11-.75-217.6-98.69-217.6-219s97.49-218.21,217.6-219Z"
                    fill="#b7b7b7" opacity="0.43" />
                <path
                    d="M484.71,278.06A217.58,217.58,0,0,1,594.3,307.53c64.92,37.71,108.81,107.82,109.32,188.05,0,.49,0,1,0,1.46,0,80.84-44,151.58-109.35,189.51A217.58,217.58,0,0,1,484.71,716h-1.38c-120.11-.76-217.61-98.7-217.61-219s97.5-218.21,217.61-219Z"
                    fill="#b6b6b6" opacity="0.43" />
                <path
                    d="M483.91,277.22A217.56,217.56,0,0,1,593.5,306.7c64.93,37.7,108.82,107.81,109.33,188,0,.5,0,1,0,1.46,0,80.84-44,151.58-109.36,189.51a217.56,217.56,0,0,1-109.59,29.47h-1.37c-120.11-.76-217.61-98.7-217.61-219s97.5-218.21,217.61-219Z"
                    fill="#b5b5b5" opacity="0.43" />
                <path
                    d="M483.12,276.38a217.56,217.56,0,0,1,109.59,29.48c64.93,37.7,108.82,107.81,109.33,188,0,.5,0,1,0,1.47,0,80.83-44,151.57-109.36,189.51a217.65,217.65,0,0,1-109.59,29.46h-1.38c-120.1-.76-217.6-98.7-217.6-219s97.5-218.22,217.6-219Z"
                    fill="#b4b4b4" opacity="0.44" />
                <path
                    d="M482.33,275.55A217.58,217.58,0,0,1,591.92,305c64.92,37.7,108.81,107.81,109.32,188,0,.5,0,1,0,1.47,0,80.83-44,151.57-109.35,189.51A217.58,217.58,0,0,1,482.33,713.5H481c-120.11-.76-217.6-98.69-217.6-219s97.49-218.22,217.6-219Z"
                    fill="#b3b3b3" opacity="0.44" />
                <path
                    d="M481.54,274.71a217.58,217.58,0,0,1,109.59,29.47c64.92,37.7,108.81,107.82,109.32,188,0,.5,0,1,0,1.47,0,80.83-44,151.57-109.35,189.51a217.58,217.58,0,0,1-109.59,29.46h-1.38c-120.11-.76-217.6-98.69-217.6-219s97.49-218.22,217.6-219Z"
                    fill="#b2b2b2" opacity="0.44" />
                <path
                    d="M480.74,273.87a217.56,217.56,0,0,1,109.59,29.47c64.93,37.71,108.82,107.82,109.33,188,0,.5,0,1,0,1.47,0,80.84-44,151.58-109.36,189.51a217.55,217.55,0,0,1-109.59,29.46h-1.37c-120.11-.76-217.61-98.69-217.61-219s97.5-218.21,217.61-219Z"
                    fill="#b1b1b1" opacity="0.44" />
                <path
                    d="M480,273A217.56,217.56,0,0,1,589.54,302.5c64.93,37.71,108.82,107.82,109.33,188.05,0,.49,0,1,0,1.46,0,80.84-44,151.58-109.36,189.51A217.56,217.56,0,0,1,480,711h-1.38c-120.1-.76-217.6-98.7-217.6-219s97.5-218.21,217.6-219Z"
                    fill="#b0b0b0" opacity="0.45" />
                <path
                    d="M479.16,272.19a217.59,217.59,0,0,1,109.59,29.48c64.93,37.7,108.81,107.81,109.32,188,0,.5,0,1,0,1.46,0,80.84-44,151.58-109.35,189.51a217.58,217.58,0,0,1-109.59,29.47h-1.38c-120.11-.76-217.6-98.7-217.6-219s97.49-218.21,217.6-219Z"
                    fill="#afafaf" opacity="0.45" />
                <path
                    d="M478.37,271.35A217.59,217.59,0,0,1,588,300.83c64.92,37.7,108.81,107.81,109.32,188,0,.5,0,1,0,1.47,0,80.83-44,151.57-109.35,189.5a217.58,217.58,0,0,1-109.59,29.47H477c-120.11-.76-217.6-98.7-217.6-219s97.49-218.22,217.6-219Z"
                    fill="#aeaeae" opacity="0.45" />
                <path
                    d="M477.57,270.52A217.62,217.62,0,0,1,587.17,300C652.09,337.69,696,407.8,696.49,488c0,.5,0,1,0,1.47,0,80.83-44,151.57-109.35,189.51a217.71,217.71,0,0,1-109.6,29.46H476.2c-120.11-.76-217.61-98.69-217.61-219s97.5-218.22,217.61-219Z"
                    fill="#adadad" opacity="0.46" />
                <path
                    d="M476.78,269.68a217.56,217.56,0,0,1,109.59,29.47c64.93,37.7,108.82,107.82,109.33,188,0,.5,0,1,0,1.47,0,80.83-44,151.57-109.36,189.51a217.55,217.55,0,0,1-109.59,29.46H475.4c-120.1-.76-217.6-98.69-217.6-219s97.5-218.22,217.6-219Z"
                    fill="#acacac" opacity="0.46" />
                <path
                    d="M476,268.84a217.58,217.58,0,0,1,109.59,29.47c64.93,37.71,108.81,107.82,109.32,188,0,.5,0,1,0,1.47,0,80.84-44,151.58-109.35,189.51A217.58,217.58,0,0,1,476,706.79h-1.38C354.5,706,257,608.1,257,487.82s97.49-218.21,217.6-219Z"
                    fill="#ababab" opacity="0.46" />
                <path
                    d="M475.2,268a217.58,217.58,0,0,1,109.59,29.47c64.92,37.71,108.81,107.82,109.32,188,0,.5,0,1,0,1.47,0,80.84-44,151.58-109.35,189.51A217.58,217.58,0,0,1,475.2,706h-1.38c-120.11-.76-217.6-98.7-217.6-219s97.49-218.21,217.6-219Z"
                    fill="#aaa" opacity="0.47" />
                <path
                    d="M474.4,267.16A217.72,217.72,0,0,1,584,296.63c64.92,37.71,108.81,107.82,109.32,188.05,0,.5,0,1,0,1.46,0,80.84-44,151.58-109.35,189.51a217.62,217.62,0,0,1-109.6,29.47H473c-120.11-.76-217.61-98.7-217.61-219s97.5-218.21,217.61-219Z"
                    fill="#a9a9a9" opacity="0.47" />
                <path
                    d="M473.61,266.32A217.56,217.56,0,0,1,583.2,295.8c64.93,37.7,108.82,107.81,109.33,188,0,.5,0,1,0,1.46,0,80.84-44,151.58-109.36,189.51a217.56,217.56,0,0,1-109.59,29.47h-1.38c-120.1-.76-217.6-98.7-217.6-219s97.5-218.21,217.6-219Z"
                    fill="#a8a8a8" opacity="0.47" />
                <path
                    d="M472.82,265.49A217.58,217.58,0,0,1,582.41,295c64.93,37.7,108.81,107.81,109.32,188,0,.5,0,1,0,1.47,0,80.83-44,151.57-109.35,189.51a217.68,217.68,0,0,1-109.59,29.46h-1.38c-120.11-.76-217.6-98.7-217.6-219s97.49-218.22,217.6-219Z"
                    fill="#a7a7a7" opacity="0.48" />
                <path
                    d="M472,264.65a217.58,217.58,0,0,1,109.59,29.47c64.92,37.7,108.81,107.82,109.32,188,0,.5,0,1,0,1.47,0,80.83-44,151.57-109.35,189.51A217.58,217.58,0,0,1,472,702.6h-1.38c-120.11-.76-217.6-98.69-217.6-219s97.49-218.22,217.6-219Z"
                    fill="#a6a6a6" opacity="0.48" />
                <path
                    d="M471.23,263.81a217.59,217.59,0,0,1,109.6,29.47c64.92,37.71,108.81,107.82,109.32,188,0,.5,0,1,0,1.47,0,80.83-44,151.58-109.35,189.51a217.59,217.59,0,0,1-109.6,29.46h-1.37c-120.11-.76-217.61-98.69-217.61-219s97.5-218.21,217.61-219Z"
                    fill="#a5a5a5" opacity="0.48" />
                <path
                    d="M470.44,263A217.56,217.56,0,0,1,580,292.44c64.93,37.71,108.82,107.82,109.33,188,0,.5,0,1,0,1.47,0,80.84-44,151.58-109.36,189.51a217.56,217.56,0,0,1-109.59,29.47h-1.38c-120.1-.76-217.6-98.7-217.6-219S349,263.74,469.06,263Z"
                    fill="#a4a4a4" opacity="0.49" />
                <path
                    d="M469.65,262.13A217.58,217.58,0,0,1,579.24,291.6c64.93,37.71,108.81,107.82,109.32,188,0,.49,0,1,0,1.46,0,80.84-44,151.58-109.35,189.51a217.56,217.56,0,0,1-109.59,29.47h-1.38c-120.11-.76-217.6-98.7-217.6-219s97.49-218.21,217.6-219Z"
                    fill="#a3a3a3" opacity="0.49" />
                <path
                    d="M468.86,261.29a217.59,217.59,0,0,1,109.59,29.48c64.92,37.7,108.81,107.81,109.32,188,0,.5,0,1,0,1.46,0,80.84-44,151.58-109.35,189.51a217.58,217.58,0,0,1-109.59,29.47h-1.38c-120.11-.76-217.6-98.7-217.6-219s97.49-218.21,217.6-219Z"
                    fill="#a2a2a2" opacity="0.49" />
                <path
                    d="M468.06,260.46a217.59,217.59,0,0,1,109.6,29.47C642.58,327.63,686.47,397.74,687,478c0,.5,0,1,0,1.47,0,80.83-44,151.57-109.35,189.5a217.59,217.59,0,0,1-109.6,29.47h-1.37c-120.11-.76-217.61-98.7-217.61-219s97.5-218.22,217.61-219Z"
                    fill="#a1a1a1" opacity="0.49" />
                <path
                    d="M467.27,259.62a217.56,217.56,0,0,1,109.59,29.47c64.93,37.7,108.82,107.82,109.33,188,0,.5,0,1,0,1.47,0,80.83-44,151.57-109.36,189.51a217.55,217.55,0,0,1-109.59,29.46h-1.38c-120.1-.76-217.6-98.69-217.6-219s97.5-218.22,217.6-219Z"
                    fill="#a0a0a0" opacity="0.5" />
                <path
                    d="M466.48,258.78a217.56,217.56,0,0,1,109.59,29.47C641,326,684.88,396.07,685.39,476.29c0,.5,0,1,0,1.47,0,80.83-44,151.57-109.35,189.51a217.55,217.55,0,0,1-109.59,29.46H465.1C345,696,247.5,598,247.5,477.76s97.49-218.22,217.6-219Z"
                    fill="#9f9f9f" opacity="0.5" />
                <path
                    d="M465.69,257.94a217.58,217.58,0,0,1,109.59,29.47c64.92,37.71,108.81,107.82,109.32,188,0,.5,0,1,0,1.47,0,80.84-44,151.58-109.35,189.51a217.58,217.58,0,0,1-109.59,29.46h-1.38c-120.11-.76-217.6-98.69-217.6-219s97.49-218.21,217.6-219Z"
                    fill="#9e9e9e" opacity="0.5" />
                <path
                    d="M464.89,257.1a217.59,217.59,0,0,1,109.6,29.47c64.92,37.71,108.81,107.82,109.32,188.05,0,.49,0,1,0,1.46,0,80.84-44,151.58-109.35,189.51a217.59,217.59,0,0,1-109.6,29.47h-1.37c-120.11-.76-217.61-98.7-217.61-219s97.5-218.21,217.61-219Z"
                    fill="#9d9d9d" opacity="0.51" />
                <path
                    d="M464.1,256.26a217.63,217.63,0,0,1,109.6,29.48c64.92,37.7,108.81,107.81,109.32,188,0,.5,0,1,0,1.46,0,80.84-44,151.58-109.35,189.51a217.62,217.62,0,0,1-109.6,29.47h-1.38c-120.1-.76-217.6-98.7-217.6-219s97.5-218.21,217.6-219Z"
                    fill="#9c9c9c" opacity="0.51" />
                <path
                    d="M463.31,255.42A217.56,217.56,0,0,1,572.9,284.9c64.93,37.7,108.82,107.81,109.32,188,0,.5,0,1,0,1.47,0,80.83-44,151.57-109.35,189.5a217.56,217.56,0,0,1-109.59,29.47h-1.38c-120.1-.76-217.6-98.7-217.6-219s97.5-218.22,217.6-219Z"
                    fill="#9b9b9b" opacity="0.51" />
                <path
                    d="M462.52,254.59a217.58,217.58,0,0,1,109.59,29.47c64.92,37.7,108.81,107.82,109.32,188,0,.5,0,1,0,1.47,0,80.83-44,151.57-109.35,189.51a217.58,217.58,0,0,1-109.59,29.46h-1.38c-120.11-.76-217.6-98.69-217.6-219s97.49-218.22,217.6-219Z"
                    fill="#9a9a9a" opacity="0.52" />
                <path
                    d="M461.72,253.75a217.59,217.59,0,0,1,109.6,29.47c64.92,37.71,108.81,107.82,109.32,188,0,.5,0,1,0,1.47,0,80.83-44,151.57-109.35,189.51a217.59,217.59,0,0,1-109.6,29.46h-1.37c-120.11-.76-217.61-98.69-217.61-219s97.5-218.22,217.61-219Z"
                    fill="#999" opacity="0.52" />
                <path
                    d="M460.93,252.91a217.62,217.62,0,0,1,109.6,29.47c64.92,37.71,108.81,107.82,109.32,188,0,.5,0,1,0,1.47,0,80.84-44,151.58-109.35,189.51a217.61,217.61,0,0,1-109.6,29.46h-1.38c-120.1-.76-217.6-98.69-217.6-219s97.5-218.21,217.6-219Z"
                    fill="#989898" opacity="0.52" />
                <path
                    d="M460.14,252.07a217.56,217.56,0,0,1,109.59,29.47c64.93,37.71,108.82,107.82,109.32,188,0,.49,0,1,0,1.46,0,80.84-44,151.58-109.35,189.51A217.56,217.56,0,0,1,460.14,690h-1.38c-120.1-.76-217.6-98.7-217.6-219s97.5-218.21,217.6-219Z"
                    fill="#979797" opacity="0.53" />
                <path
                    d="M459.35,251.23a217.59,217.59,0,0,1,109.59,29.48c64.93,37.7,108.81,107.81,109.32,188,0,.5,0,1,0,1.46,0,80.84-44,151.58-109.35,189.51a217.58,217.58,0,0,1-109.59,29.47H458c-120.11-.76-217.6-98.7-217.6-219S337.86,252,458,251.23Z"
                    fill="#969696" opacity="0.53" />
                <path
                    d="M458.55,250.39a217.6,217.6,0,0,1,109.6,29.48c64.92,37.7,108.81,107.81,109.32,188,0,.5,0,1,0,1.46,0,80.84-44,151.58-109.35,189.51a217.59,217.59,0,0,1-109.6,29.47h-1.37c-120.11-.76-217.61-98.7-217.61-219s97.5-218.21,217.61-219Z"
                    fill="#959595" opacity="0.53" />
                <path
                    d="M457.76,249.56A217.62,217.62,0,0,1,567.36,279c64.92,37.7,108.81,107.82,109.32,188,0,.5,0,1,0,1.47,0,80.83-44,151.57-109.35,189.51a217.61,217.61,0,0,1-109.6,29.46h-1.38c-120.1-.76-217.6-98.69-217.6-219s97.5-218.22,217.6-219Z"
                    fill="#949494" opacity="0.54" />
                <path
                    d="M457,248.72a217.56,217.56,0,0,1,109.59,29.47c64.93,37.71,108.82,107.82,109.32,188,0,.5,0,1,0,1.47,0,80.83-44,151.57-109.35,189.51A217.55,217.55,0,0,1,457,686.67h-1.38C335.49,685.91,238,588,238,467.7s97.5-218.22,217.6-219Z"
                    fill="#939393" opacity="0.54" />
                <path
                    d="M456.18,247.88a217.58,217.58,0,0,1,109.59,29.47c64.93,37.71,108.81,107.82,109.32,188,0,.5,0,1,0,1.47,0,80.83-44,151.57-109.35,189.51a217.58,217.58,0,0,1-109.59,29.46H454.8c-120.11-.76-217.6-98.69-217.6-219s97.49-218.21,217.6-219Z"
                    fill="#929292" opacity="0.54" />
                <path
                    d="M455.38,247A217.59,217.59,0,0,1,565,276.51c64.92,37.71,108.81,107.82,109.32,188,0,.5,0,1,0,1.47,0,80.84-44,151.58-109.35,189.51A217.59,217.59,0,0,1,455.38,685H454C333.9,684.24,236.4,586.3,236.4,466S333.9,247.81,454,247Z"
                    fill="#919191" opacity="0.55" />
                <path
                    d="M454.59,246.2a217.5,217.5,0,0,1,109.6,29.48c64.92,37.7,108.81,107.81,109.32,188,0,.49,0,1,0,1.46,0,80.84-44,151.58-109.35,189.51a217.59,217.59,0,0,1-109.6,29.47h-1.38c-120.1-.76-217.6-98.7-217.6-219s97.5-218.21,217.6-219Z"
                    fill="#909090" opacity="0.55" />
                <path
                    d="M453.8,245.36a217.63,217.63,0,0,1,109.6,29.48c64.92,37.7,108.81,107.81,109.31,188,0,.5,0,1,0,1.46,0,80.84-44,151.58-109.35,189.51A217.56,217.56,0,0,1,453.8,683.32h-1.38c-120.1-.76-217.6-98.7-217.6-219s97.5-218.21,217.6-219Z"
                    fill="#8f8f8f" opacity="0.55" />
                <path
                    d="M453,244.53A217.58,217.58,0,0,1,562.6,274c64.93,37.7,108.81,107.82,109.32,188,0,.5,0,1,0,1.47,0,80.83-44,151.57-109.35,189.5A217.58,217.58,0,0,1,453,682.48h-1.38c-120.11-.76-217.6-98.7-217.6-219s97.49-218.22,217.6-219Z"
                    fill="#8e8e8e" opacity="0.55" />
                <path
                    d="M452.21,243.69a217.59,217.59,0,0,1,109.6,29.47c64.92,37.71,108.81,107.82,109.32,188,0,.5,0,1,0,1.47,0,80.83-44,151.57-109.35,189.51a217.59,217.59,0,0,1-109.6,29.46h-1.37c-120.11-.76-217.61-98.69-217.61-219s97.5-218.22,217.61-219Z"
                    fill="#8d8d8d" opacity="0.56" />
                <path
                    d="M451.42,242.85A217.59,217.59,0,0,1,561,272.32c64.92,37.71,108.81,107.82,109.32,188,0,.5,0,1,0,1.47,0,80.83-44,151.57-109.35,189.51a217.59,217.59,0,0,1-109.6,29.46H450c-120.1-.76-217.6-98.69-217.6-219s97.5-218.22,217.6-219Z"
                    fill="#8c8c8c" opacity="0.56" />
                <path
                    d="M450.63,242a217.62,217.62,0,0,1,109.6,29.47c64.92,37.71,108.81,107.82,109.31,188,0,.5,0,1,0,1.47,0,80.84-44,151.58-109.34,189.51A217.62,217.62,0,0,1,450.63,680h-1.38c-120.1-.77-217.6-98.7-217.6-219s97.5-218.21,217.6-219Z"
                    fill="#8b8b8b" opacity="0.56" />
                <path
                    d="M449.84,241.17a217.58,217.58,0,0,1,109.59,29.47c64.93,37.71,108.81,107.82,109.32,188.05,0,.49,0,1,0,1.46,0,80.84-44,151.58-109.35,189.51a217.56,217.56,0,0,1-109.59,29.47h-1.38c-120.11-.76-217.6-98.7-217.6-219s97.49-218.21,217.6-219Z"
                    fill="#8a8a8a" opacity="0.57" />
                <path
                    d="M449,240.33a217.6,217.6,0,0,1,109.6,29.48c64.92,37.7,108.81,107.81,109.32,188,0,.5,0,1,0,1.46,0,80.84-44,151.58-109.35,189.51A217.59,217.59,0,0,1,449,678.29h-1.37c-120.11-.76-217.61-98.7-217.61-219s97.5-218.21,217.61-219Z"
                    fill="#898989" opacity="0.57" />
                <path
                    d="M448.25,239.5A217.59,217.59,0,0,1,557.85,269c64.92,37.7,108.81,107.82,109.32,188,0,.5,0,1,0,1.47,0,80.83-44,151.57-109.35,189.5a217.59,217.59,0,0,1-109.6,29.47h-1.38c-120.1-.76-217.6-98.7-217.6-219s97.5-218.22,217.6-219Z"
                    fill="#888" opacity="0.57" />
                <path
                    d="M447.46,238.66a217.62,217.62,0,0,1,109.6,29.47C622,305.83,665.87,376,666.38,456.17c0,.5,0,1,0,1.47,0,80.83-44,151.57-109.34,189.51a217.61,217.61,0,0,1-109.6,29.46h-1.38c-120.1-.76-217.6-98.69-217.6-219s97.5-218.22,217.6-219Z"
                    fill="#878787" opacity="0.58" />
                <path
                    d="M446.67,237.82a217.58,217.58,0,0,1,109.59,29.47c64.93,37.71,108.81,107.82,109.32,188,0,.5,0,1,0,1.47,0,80.83-44,151.57-109.35,189.51a217.55,217.55,0,0,1-109.59,29.46h-1.38c-120.11-.76-217.6-98.69-217.6-219s97.49-218.22,217.6-219Z"
                    fill="#868686" opacity="0.58" />
                <path
                    d="M445.87,237a217.59,217.59,0,0,1,109.6,29.47c64.92,37.71,108.81,107.82,109.32,188,0,.5,0,1,0,1.47,0,80.83-44,151.57-109.35,189.51a217.59,217.59,0,0,1-109.6,29.46H444.5c-120.11-.76-217.6-98.69-217.6-219s97.49-218.21,217.6-219Z"
                    fill="#858585" opacity="0.58" />
                <path
                    d="M445.08,236.14a217.59,217.59,0,0,1,109.6,29.47C619.6,303.32,663.49,373.43,664,453.66c0,.49,0,1,0,1.46C664,536,620,606.7,554.68,644.63a217.59,217.59,0,0,1-109.6,29.47h-1.37c-120.11-.76-217.61-98.7-217.61-219s97.5-218.21,217.61-219Z"
                    fill="#848484" opacity="0.59" />
                <path
                    d="M444.29,235.3a217.53,217.53,0,0,1,109.6,29.48c64.92,37.7,108.81,107.81,109.32,188,0,.5,0,1,0,1.46,0,80.84-44,151.58-109.34,189.51a217.62,217.62,0,0,1-109.6,29.47h-1.38c-120.1-.76-217.6-98.7-217.6-219s97.5-218.21,217.6-219Z"
                    fill="#838383" opacity="0.59" />
                <path
                    d="M443.5,234.47a217.56,217.56,0,0,1,109.59,29.47C618,301.64,661.9,371.76,662.41,452c0,.5,0,1,0,1.46,0,80.84-44,151.58-109.35,189.51A217.56,217.56,0,0,1,443.5,672.42h-1.38c-120.11-.76-217.6-98.7-217.6-219s97.49-218.21,217.6-219Z"
                    fill="#828282" opacity="0.59" />
                <path
                    d="M442.7,233.63A217.59,217.59,0,0,1,552.3,263.1c64.93,37.7,108.81,107.82,109.32,188,0,.5,0,1,0,1.47,0,80.83-44,151.57-109.35,189.51a217.59,217.59,0,0,1-109.6,29.46h-1.37c-120.11-.76-217.6-98.69-217.6-219s97.49-218.22,217.6-219Z"
                    fill="#818181" opacity="0.6" />
                <path
                    d="M441.91,232.79a217.59,217.59,0,0,1,109.6,29.47c64.92,37.71,108.81,107.82,109.32,188,0,.5,0,1,0,1.47,0,80.83-44,151.57-109.35,189.51a217.59,217.59,0,0,1-109.6,29.46h-1.37c-120.11-.76-217.61-98.69-217.61-219s97.5-218.22,217.61-219Z"
                    fill="gray" opacity="0.6" />
                <path
                    d="M441.12,232a217.62,217.62,0,0,1,109.6,29.47c64.92,37.71,108.81,107.82,109.32,188,0,.5,0,1,0,1.47,0,80.83-44,151.57-109.35,189.51a217.61,217.61,0,0,1-109.6,29.46h-1.38c-120.1-.76-217.6-98.69-217.6-219s97.5-218.21,217.6-219Z"
                    fill="#7f7f7f" opacity="0.6" />
                <path
                    d="M440.33,231.11a217.62,217.62,0,0,1,109.6,29.47c64.92,37.71,108.8,107.82,109.31,188.05,0,.49,0,1,0,1.46,0,80.84-44,151.58-109.35,189.51a217.56,217.56,0,0,1-109.59,29.47H439c-120.11-.76-217.6-98.7-217.6-219s97.49-218.21,217.6-219Z"
                    fill="#7e7e7e" opacity="0.6" />
                <path
                    d="M439.54,230.27a217.49,217.49,0,0,1,109.59,29.48c64.93,37.7,108.81,107.81,109.32,188,0,.5,0,1,0,1.46,0,80.84-44,151.58-109.35,189.51a217.58,217.58,0,0,1-109.59,29.47h-1.38c-120.11-.76-217.6-98.7-217.6-219s97.49-218.21,217.6-219Z"
                    fill="#7d7d7d" opacity="0.61" />
                <path
                    d="M438.74,229.43a217.6,217.6,0,0,1,109.6,29.48c64.92,37.7,108.81,107.82,109.32,188,0,.5,0,1,0,1.46,0,80.84-44,151.58-109.35,189.51a217.59,217.59,0,0,1-109.6,29.47h-1.37c-120.11-.76-217.61-98.7-217.61-219s97.5-218.21,217.61-219Z"
                    fill="#7c7c7c" opacity="0.61" />
                <path
                    d="M438,228.6a217.59,217.59,0,0,1,109.6,29.47c64.92,37.7,108.81,107.82,109.32,188,0,.5,0,1,0,1.47,0,80.83-44,151.57-109.35,189.5A217.49,217.49,0,0,1,438,666.55h-1.38c-120.1-.76-217.6-98.69-217.6-219s97.5-218.22,217.6-219Z"
                    fill="#7b7b7b" opacity="0.61" />
                <path
                    d="M437.16,227.76a217.62,217.62,0,0,1,109.6,29.47c64.92,37.71,108.8,107.82,109.31,188,0,.5,0,1,0,1.47,0,80.83-44,151.57-109.34,189.51a217.61,217.61,0,0,1-109.6,29.46h-1.38c-120.11-.76-217.6-98.69-217.6-219s97.49-218.22,217.6-219Z"
                    fill="#7a7a7a" opacity="0.62" />
                <path
                    d="M436.37,226.92A217.58,217.58,0,0,1,546,256.39c64.93,37.71,108.81,107.82,109.32,188,0,.5,0,1,0,1.47,0,80.83-44,151.57-109.35,189.51a217.58,217.58,0,0,1-109.59,29.46H435c-120.11-.76-217.6-98.69-217.6-219s97.49-218.22,217.6-219Z"
                    fill="#797979" opacity="0.62" />
                <path
                    d="M435.57,226.08a217.59,217.59,0,0,1,109.6,29.47c64.92,37.71,108.81,107.82,109.32,188,0,.5,0,1,0,1.47,0,80.84-44,151.57-109.35,189.51A217.59,217.59,0,0,1,435.57,664H434.2c-120.11-.76-217.61-98.7-217.61-219s97.5-218.21,217.61-219Z"
                    fill="#787878" opacity="0.62" />
                <path
                    d="M434.78,225.24a217.5,217.5,0,0,1,109.6,29.48c64.92,37.7,108.81,107.81,109.32,188,0,.49,0,1,0,1.46,0,80.84-44,151.58-109.35,189.51a217.59,217.59,0,0,1-109.6,29.47H433.4c-120.1-.76-217.6-98.7-217.6-219s97.5-218.21,217.6-219Z"
                    fill="#777" opacity="0.63" />
                <path
                    d="M434,224.4a217.63,217.63,0,0,1,109.6,29.48c64.92,37.7,108.8,107.82,109.31,188,0,.5,0,1,0,1.46,0,80.84-44,151.58-109.34,189.51A217.62,217.62,0,0,1,434,662.36h-1.38c-120.11-.76-217.6-98.7-217.6-219s97.49-218.21,217.6-219Z"
                    fill="#767676" opacity="0.63" />
                <path
                    d="M433.2,223.57A217.58,217.58,0,0,1,542.79,253c64.93,37.7,108.81,107.82,109.32,188,0,.5,0,1,0,1.47,0,80.83-44,151.57-109.35,189.5A217.58,217.58,0,0,1,433.2,661.52h-1.38c-120.11-.76-217.6-98.7-217.6-219s97.49-218.22,217.6-219Z"
                    fill="#757575" opacity="0.63" />
                <path
                    d="M432.4,222.73A217.59,217.59,0,0,1,542,252.2c64.92,37.71,108.81,107.82,109.32,188,0,.5,0,1,0,1.47,0,80.83-44,151.57-109.35,189.51a217.59,217.59,0,0,1-109.6,29.46H431c-120.11-.76-217.61-98.69-217.61-219s97.5-218.22,217.61-219Z"
                    fill="#747474" opacity="0.64" />
                <path
                    d="M431.61,221.89a217.59,217.59,0,0,1,109.6,29.47c64.92,37.71,108.81,107.82,109.32,188,0,.5,0,1,0,1.47,0,80.83-44,151.57-109.35,189.51a217.59,217.59,0,0,1-109.6,29.46h-1.38c-120.1-.76-217.6-98.69-217.6-219s97.5-218.22,217.6-219Z"
                    fill="#737373" opacity="0.64" />
                <path
                    d="M430.82,221.05a217.62,217.62,0,0,1,109.6,29.47c64.92,37.71,108.8,107.82,109.31,188,0,.5,0,1,0,1.47,0,80.83-44,151.57-109.34,189.51A217.61,217.61,0,0,1,430.82,659h-1.38c-120.11-.76-217.6-98.69-217.6-219s97.49-218.21,217.6-219Z"
                    fill="#727272" opacity="0.64" />
                <path
                    d="M430,220.21a217.49,217.49,0,0,1,109.59,29.48c64.93,37.7,108.81,107.81,109.32,188,0,.49,0,1,0,1.46C649,520,605,590.77,539.62,628.7A217.56,217.56,0,0,1,430,658.17h-1.38c-120.11-.76-217.6-98.7-217.6-219s97.49-218.21,217.6-219Z"
                    fill="#717171" opacity="0.65" />
                <path
                    d="M429.23,219.37a217.5,217.5,0,0,1,109.6,29.48c64.92,37.7,108.81,107.82,109.32,188,0,.5,0,1,0,1.46,0,80.84-44,151.58-109.35,189.51a217.59,217.59,0,0,1-109.6,29.47h-1.37c-120.11-.76-217.61-98.7-217.61-219s97.5-218.21,217.61-219Z"
                    fill="#707070" opacity="0.65" />
                <path
                    d="M428.44,218.54A217.59,217.59,0,0,1,538,248c64.92,37.7,108.81,107.82,109.32,188,0,.5,0,1,0,1.47,0,80.83-44,151.57-109.35,189.5a217.59,217.59,0,0,1-109.6,29.47h-1.38c-120.1-.76-217.6-98.7-217.6-219s97.5-218.22,217.6-219Z"
                    fill="#6f6f6f" opacity="0.65" />
                <path
                    d="M427.65,217.7a217.62,217.62,0,0,1,109.6,29.47c64.92,37.71,108.8,107.82,109.31,188,0,.5,0,1,0,1.47,0,80.83-44,151.57-109.34,189.51a217.61,217.61,0,0,1-109.6,29.46h-1.38c-120.11-.76-217.6-98.69-217.6-219s97.49-218.22,217.6-219Z"
                    fill="#6e6e6e" opacity="0.65" />
                <path
                    d="M426.86,216.86a217.65,217.65,0,0,1,109.6,29.47c64.92,37.71,108.8,107.82,109.31,188,0,.5,0,1,0,1.47,0,80.83-44,151.57-109.35,189.51a217.55,217.55,0,0,1-109.59,29.46h-1.38c-120.11-.76-217.6-98.69-217.6-219s97.49-218.22,217.6-219Z"
                    fill="#6d6d6d" opacity="0.66" />
                <path
                    d="M426.06,216a217.59,217.59,0,0,1,109.6,29.47c64.93,37.71,108.81,107.82,109.32,188,0,.5,0,1,0,1.47,0,80.83-44,151.57-109.35,189.51A217.59,217.59,0,0,1,426.06,654h-1.37c-120.11-.76-217.61-98.69-217.61-219s97.5-218.21,217.61-219Z"
                    fill="#6c6c6c" opacity="0.66" />
                <path
                    d="M425.27,215.18a217.59,217.59,0,0,1,109.6,29.47c64.92,37.71,108.81,107.82,109.32,188,0,.49,0,1,0,1.46,0,80.84-44,151.58-109.35,189.51a217.59,217.59,0,0,1-109.6,29.47h-1.38c-120.1-.76-217.6-98.7-217.6-219s97.5-218.21,217.6-219Z"
                    fill="#6b6b6b" opacity="0.66" />
                <path
                    d="M424.48,214.34a217.53,217.53,0,0,1,109.6,29.48c64.92,37.7,108.8,107.82,109.31,188,0,.5,0,1,0,1.46,0,80.84-44,151.58-109.34,189.51a217.62,217.62,0,0,1-109.6,29.47H423.1c-120.11-.76-217.6-98.7-217.6-219s97.49-218.21,217.6-219Z"
                    fill="#6a6a6a" opacity="0.67" />
                <path
                    d="M423.69,213.51A217.62,217.62,0,0,1,533.29,243c64.92,37.7,108.8,107.82,109.31,188,0,.5,0,1,0,1.46,0,80.84-44,151.58-109.34,189.51a217.62,217.62,0,0,1-109.6,29.47h-1.38c-120.11-.76-217.6-98.7-217.6-219s97.49-218.21,217.6-219Z"
                    fill="#696969" opacity="0.67" />
                <path
                    d="M422.89,212.67a217.59,217.59,0,0,1,109.6,29.47c64.93,37.71,108.81,107.82,109.32,188,0,.5,0,1,0,1.47,0,80.83-44,151.57-109.35,189.5a217.49,217.49,0,0,1-109.6,29.47h-1.37c-120.11-.76-217.61-98.69-217.61-219s97.5-218.22,217.61-219Z"
                    fill="#686868" opacity="0.67" />
                <path
                    d="M422.1,211.83A217.59,217.59,0,0,1,531.7,241.3C596.62,279,640.51,349.12,641,429.34c0,.5,0,1,0,1.47,0,80.83-44,151.57-109.35,189.51a217.59,217.59,0,0,1-109.6,29.46h-1.38c-120.1-.76-217.6-98.69-217.6-219s97.5-218.22,217.6-219Z"
                    fill="#676767" opacity="0.68" />
                <path
                    d="M421.31,211a217.59,217.59,0,0,1,109.6,29.47c64.92,37.71,108.81,107.82,109.31,188,0,.5,0,1,0,1.47,0,80.83-44,151.57-109.34,189.51a217.59,217.59,0,0,1-109.6,29.46h-1.38c-120.1-.76-217.6-98.69-217.6-219s97.5-218.22,217.6-219Z"
                    fill="#666" opacity="0.68" />
                <path
                    d="M420.52,210.15a217.62,217.62,0,0,1,109.6,29.47C595,277.33,638.92,347.44,639.43,427.67c0,.49,0,1,0,1.46,0,80.83-44,151.57-109.34,189.51a217.62,217.62,0,0,1-109.6,29.47h-1.38c-120.11-.76-217.6-98.7-217.6-219s97.49-218.21,217.6-219Z"
                    fill="#656565" opacity="0.68" />
                <path
                    d="M419.72,209.31a217.5,217.5,0,0,1,109.6,29.48c64.93,37.7,108.81,107.81,109.32,188,0,.5,0,1,0,1.46,0,80.84-44,151.58-109.35,189.51a217.59,217.59,0,0,1-109.6,29.47h-1.37c-120.11-.76-217.61-98.7-217.61-219s97.5-218.21,217.61-219Z"
                    fill="#646464" opacity="0.69" />
                <path
                    d="M418.93,208.48A217.59,217.59,0,0,1,528.53,238c64.92,37.7,108.81,107.82,109.32,188,0,.5,0,1,0,1.46,0,80.84-44,151.58-109.35,189.51a217.59,217.59,0,0,1-109.6,29.47h-1.38c-120.1-.76-217.6-98.7-217.6-219s97.5-218.21,217.6-219Z"
                    fill="#636363" opacity="0.69" />
                <path
                    d="M418.14,207.64a217.59,217.59,0,0,1,109.6,29.47c64.92,37.71,108.81,107.82,109.31,188,0,.5,0,1,0,1.47,0,80.83-44,151.57-109.34,189.5a217.49,217.49,0,0,1-109.6,29.47h-1.38c-120.1-.76-217.6-98.7-217.6-219s97.5-218.22,217.6-219Z"
                    fill="#626262" opacity="0.69" />
                <path
                    d="M417.35,206.8A217.62,217.62,0,0,1,527,236.27c64.92,37.71,108.8,107.82,109.31,188,0,.5,0,1,0,1.47,0,80.83-44,151.57-109.34,189.51a217.61,217.61,0,0,1-109.6,29.46H416c-120.11-.76-217.6-98.69-217.6-219s97.49-218.22,217.6-219Z"
                    fill="#616161" opacity="0.7" />
                <path
                    d="M416.55,206a217.59,217.59,0,0,1,109.6,29.47c64.93,37.71,108.81,107.82,109.32,188,0,.5,0,1,0,1.47,0,80.83-44,151.57-109.35,189.51a217.59,217.59,0,0,1-109.6,29.46h-1.37c-120.11-.76-217.61-98.69-217.61-219s97.5-218.22,217.61-219Z"
                    fill="#606060" opacity="0.7" />
                <path
                    d="M415.76,205.12a217.59,217.59,0,0,1,109.6,29.47c64.92,37.71,108.81,107.82,109.32,188,0,.5,0,1,0,1.47,0,80.83-44,151.57-109.35,189.51a217.59,217.59,0,0,1-109.6,29.47h-1.38c-120.1-.77-217.6-98.7-217.6-219s97.5-218.21,217.6-219Z"
                    fill="#5f5f5f" opacity="0.7" />
                <path
                    d="M415,204.28a217.5,217.5,0,0,1,109.6,29.48c64.92,37.7,108.81,107.81,109.31,188,0,.49,0,1,0,1.46,0,80.84-44,151.58-109.34,189.51A217.59,217.59,0,0,1,415,642.24h-1.38c-120.1-.76-217.6-98.7-217.6-219s97.5-218.21,217.6-219Z"
                    fill="#5e5e5e" opacity="0.71" />
                <path
                    d="M414.18,203.44a217.53,217.53,0,0,1,109.6,29.48c64.92,37.7,108.8,107.82,109.31,188,0,.5,0,1,0,1.46,0,80.84-44,151.58-109.34,189.51a217.62,217.62,0,0,1-109.6,29.47H412.8c-120.11-.76-217.6-98.7-217.6-219s97.49-218.21,217.6-219Z"
                    fill="#5d5d5d" opacity="0.71" />
                <path
                    d="M413.38,202.61A217.66,217.66,0,0,1,523,232.08c64.92,37.71,108.8,107.82,109.31,188,0,.5,0,1,0,1.47,0,80.83-44,151.57-109.35,189.5a217.59,217.59,0,0,1-109.6,29.47H412c-120.11-.76-217.61-98.7-217.61-219s97.5-218.22,217.61-219Z"
                    fill="#5c5c5c" opacity="0.71" />
                <path
                    d="M412.59,201.77a217.59,217.59,0,0,1,109.6,29.47C587.11,269,631,339.06,631.51,419.28c0,.5,0,1,0,1.47,0,80.83-44,151.57-109.35,189.5a217.49,217.49,0,0,1-109.6,29.47h-1.38c-120.1-.76-217.6-98.69-217.6-219s97.5-218.22,217.6-219Z"
                    fill="#5b5b5b" opacity="0.71" />
                <path
                    d="M411.8,200.93A217.59,217.59,0,0,1,521.4,230.4c64.92,37.71,108.81,107.82,109.31,188,0,.5,0,1,0,1.47,0,80.83-44,151.57-109.34,189.51a217.59,217.59,0,0,1-109.6,29.46h-1.38c-120.1-.76-217.6-98.69-217.6-219s97.5-218.22,217.6-219Z"
                    fill="#5a5a5a" opacity="0.72" />
                <path
                    d="M411,200.09a217.62,217.62,0,0,1,109.6,29.47c64.92,37.71,108.8,107.82,109.31,188,0,.5,0,1,0,1.47,0,80.83-44,151.57-109.34,189.51A217.61,217.61,0,0,1,411,638h-1.38c-120.11-.76-217.6-98.69-217.6-219s97.49-218.21,217.6-219Z"
                    fill="#595959" opacity="0.72" />
                <path
                    d="M410.21,199.25a217.56,217.56,0,0,1,109.61,29.48c64.92,37.7,108.8,107.81,109.31,188,0,.49,0,1,0,1.46,0,80.84-44,151.57-109.34,189.51a217.66,217.66,0,0,1-109.61,29.47h-1.37c-120.11-.76-217.6-98.7-217.6-219s97.49-218.21,217.6-219Z"
                    fill="#585858" opacity="0.72" />
                <path
                    d="M409.42,198.41A217.5,217.5,0,0,1,519,227.89c64.93,37.7,108.81,107.82,109.32,188,0,.5,0,1,0,1.46,0,80.84-44,151.58-109.35,189.51a217.59,217.59,0,0,1-109.6,29.47H408c-120.1-.76-217.6-98.7-217.6-219s97.5-218.21,217.6-219Z"
                    fill="#575757" opacity="0.73" />
                <path
                    d="M408.63,197.58a217.59,217.59,0,0,1,109.6,29.47c64.92,37.71,108.81,107.82,109.31,188,0,.5,0,1,0,1.46,0,80.84-44,151.58-109.34,189.51a217.59,217.59,0,0,1-109.6,29.47h-1.38c-120.1-.76-217.6-98.7-217.6-219s97.5-218.21,217.6-219Z"
                    fill="#565656" opacity="0.73" />
                <path
                    d="M407.84,196.74a217.62,217.62,0,0,1,109.6,29.47c64.92,37.71,108.8,107.82,109.31,188,0,.5,0,1,0,1.47,0,80.83-44,151.57-109.34,189.5a217.49,217.49,0,0,1-109.6,29.47h-1.38c-120.11-.76-217.6-98.69-217.6-219s97.49-218.22,217.6-219Z"
                    fill="#555" opacity="0.73" />
                <path
                    d="M407,195.9a217.66,217.66,0,0,1,109.61,29.47c64.92,37.71,108.8,107.82,109.31,188,0,.5,0,1,0,1.47,0,80.83-44,151.57-109.34,189.51A217.62,217.62,0,0,1,407,633.85h-1.37c-120.11-.76-217.6-98.69-217.6-219s97.49-218.22,217.6-219Z"
                    fill="#545454" opacity="0.74" />
                <path
                    d="M406.25,195.06a217.59,217.59,0,0,1,109.6,29.47c64.93,37.71,108.81,107.82,109.32,188,0,.5,0,1,0,1.47,0,80.83-44,151.57-109.35,189.51A217.59,217.59,0,0,1,406.25,633h-1.38c-120.1-.76-217.6-98.69-217.6-219s97.5-218.21,217.6-219Z"
                    fill="#535353" opacity="0.74" />
                <path
                    d="M405.46,194.22a217.5,217.5,0,0,1,109.6,29.48c64.92,37.7,108.81,107.81,109.31,188,0,.49,0,1,0,1.46,0,80.83-44,151.57-109.34,189.51a217.59,217.59,0,0,1-109.6,29.47h-1.38c-120.1-.76-217.6-98.7-217.6-219S284,195,404.08,194.22Z"
                    fill="#525252" opacity="0.74" />
                <path
                    d="M404.67,193.38a217.5,217.5,0,0,1,109.6,29.48c64.92,37.7,108.8,107.82,109.31,188,0,.5,0,1,0,1.46,0,80.84-44,151.58-109.34,189.51a217.59,217.59,0,0,1-109.6,29.47h-1.38c-120.11-.76-217.6-98.7-217.6-219s97.49-218.21,217.6-219Z"
                    fill="#515151" opacity="0.75" />
                <path
                    d="M403.87,192.55A217.66,217.66,0,0,1,513.48,222c64.92,37.7,108.8,107.82,109.31,188,0,.5,0,1,0,1.46,0,80.84-44,151.58-109.34,189.51A217.63,217.63,0,0,1,403.87,630.5H402.5c-120.11-.76-217.6-98.7-217.6-219s97.49-218.21,217.6-219Z"
                    fill="#505050" opacity="0.75" />
                <path
                    d="M403.08,191.71a217.59,217.59,0,0,1,109.6,29.47C577.61,258.89,621.49,329,622,409.22c0,.5,0,1,0,1.47,0,80.83-44,151.57-109.35,189.5a217.49,217.49,0,0,1-109.6,29.47H401.7c-120.1-.76-217.6-98.69-217.6-219s97.5-218.22,217.6-219Z"
                    fill="#4f4f4f" opacity="0.75" />
                <path
                    d="M402.29,190.87a217.59,217.59,0,0,1,109.6,29.47c64.92,37.71,108.81,107.82,109.31,188,0,.5,0,1,0,1.47,0,80.83-44,151.57-109.34,189.51a217.59,217.59,0,0,1-109.6,29.46h-1.38c-120.1-.76-217.6-98.69-217.6-219s97.5-218.22,217.6-219Z"
                    fill="#4e4e4e" opacity="0.76" />
                <path
                    d="M401.5,190A217.59,217.59,0,0,1,511.1,219.5c64.92,37.71,108.8,107.82,109.31,188,0,.5,0,1,0,1.47,0,80.83-44,151.57-109.34,189.51A217.59,217.59,0,0,1,401.5,628h-1.38c-120.11-.76-217.6-98.69-217.6-219S280,190.79,400.12,190Z"
                    fill="#4d4d4d" opacity="0.76" />
                <path
                    d="M400.7,189.19a217.63,217.63,0,0,1,109.61,29.47c64.92,37.71,108.8,107.82,109.31,188,0,.49,0,1,0,1.46,0,80.83-44,151.57-109.34,189.51A217.63,217.63,0,0,1,400.7,627.15h-1.37c-120.11-.77-217.6-98.7-217.6-219s97.49-218.21,217.6-219Z"
                    fill="#4c4c4c" opacity="0.76" />
                <path
                    d="M399.91,188.35a217.56,217.56,0,0,1,109.61,29.48c64.92,37.7,108.8,107.82,109.31,188,0,.49,0,1,0,1.46,0,80.84-44,151.57-109.35,189.51a217.59,217.59,0,0,1-109.6,29.47h-1.38c-120.1-.76-217.6-98.7-217.6-219s97.5-218.21,217.6-219Z"
                    fill="#4b4b4b" opacity="0.76" />
                <path
                    d="M399.12,187.52A217.49,217.49,0,0,1,508.72,217C573.64,254.69,617.53,324.81,618,405c0,.5,0,1,0,1.46,0,80.84-44,151.58-109.34,189.51a217.59,217.59,0,0,1-109.6,29.47h-1.38c-120.1-.76-217.6-98.7-217.6-219s97.5-218.21,217.6-219Z"
                    fill="#4a4a4a" opacity="0.77" />
                <path
                    d="M398.33,186.68a217.59,217.59,0,0,1,109.6,29.47c64.92,37.71,108.8,107.82,109.31,188,0,.5,0,1,0,1.47,0,80.83-44,151.57-109.34,189.5a217.49,217.49,0,0,1-109.6,29.47H397c-120.11-.76-217.6-98.7-217.6-219s97.49-218.22,217.6-219Z"
                    fill="#494949" opacity="0.77" />
                <path
                    d="M397.53,185.84a217.63,217.63,0,0,1,109.61,29.47c64.92,37.71,108.8,107.82,109.31,188,0,.5,0,1,0,1.47,0,80.83-44,151.57-109.34,189.5a217.53,217.53,0,0,1-109.61,29.47h-1.37c-120.11-.76-217.6-98.69-217.6-219s97.49-218.22,217.6-219Z"
                    fill="#484848" opacity="0.77" />
                <path
                    d="M396.74,185a217.66,217.66,0,0,1,109.61,29.47c64.92,37.71,108.8,107.82,109.31,188,0,.5,0,1,0,1.47,0,80.83-44,151.57-109.34,189.51A217.65,217.65,0,0,1,396.74,623h-1.38c-120.1-.76-217.6-98.69-217.6-219s97.5-218.22,217.6-219Z"
                    fill="#474747" opacity="0.78" />
                <path
                    d="M396,184.16a217.59,217.59,0,0,1,109.6,29.47c64.92,37.71,108.81,107.82,109.32,188,0,.5,0,1,0,1.47,0,80.83-44,151.57-109.34,189.51A217.59,217.59,0,0,1,396,622.12h-1.38c-120.1-.77-217.6-98.7-217.6-219s97.5-218.21,217.6-219Z"
                    fill="#464646" opacity="0.78" />
                <path
                    d="M395.16,183.32a217.5,217.5,0,0,1,109.6,29.48c64.92,37.7,108.8,107.82,109.31,188,0,.49,0,1,0,1.46,0,80.83-44,151.57-109.34,189.51a217.59,217.59,0,0,1-109.6,29.47h-1.38c-120.11-.76-217.6-98.7-217.6-219s97.49-218.21,217.6-219Z"
                    fill="#454545" opacity="0.78" />
                <path
                    d="M394.36,182.49A217.53,217.53,0,0,1,504,212c64.92,37.7,108.8,107.82,109.31,188,0,.5,0,1,0,1.46C613.31,482.3,569.29,553,504,591a217.63,217.63,0,0,1-109.61,29.47H393c-120.11-.76-217.6-98.7-217.6-219s97.49-218.21,217.6-219Z"
                    fill="#444" opacity="0.79" />
                <path
                    d="M393.57,181.65a217.66,217.66,0,0,1,109.61,29.47c64.92,37.71,108.8,107.82,109.31,188,0,.5,0,1,0,1.46,0,80.84-44,151.58-109.34,189.51A217.66,217.66,0,0,1,393.57,619.6h-1.38c-120.1-.76-217.6-98.7-217.6-219s97.5-218.21,217.6-219Z"
                    fill="#434343" opacity="0.79" />
                <path
                    d="M392.78,180.81a217.59,217.59,0,0,1,109.6,29.47C567.3,248,611.19,318.1,611.7,398.32c0,.5,0,1,0,1.47,0,80.83-44,151.57-109.34,189.5a217.49,217.49,0,0,1-109.6,29.47H391.4c-120.1-.76-217.6-98.69-217.6-219s97.5-218.22,217.6-219Z"
                    fill="#424242" opacity="0.79" />
                <path
                    d="M392,180a217.59,217.59,0,0,1,109.6,29.47c64.92,37.71,108.8,107.82,109.31,188,0,.5,0,1,0,1.47,0,80.83-44,151.57-109.34,189.51A217.59,217.59,0,0,1,392,617.92h-1.38C270.5,617.16,173,519.23,173,399s97.49-218.22,217.6-219Z"
                    fill="#414141" opacity="0.8" />
                <path
                    d="M391.19,179.13A217.6,217.6,0,0,1,500.8,208.6c64.92,37.71,108.8,107.82,109.31,188,0,.5,0,1,0,1.47,0,80.83-44,151.57-109.34,189.51a217.59,217.59,0,0,1-109.61,29.46h-1.37c-120.11-.76-217.6-98.69-217.6-219s97.49-218.21,217.6-219Z"
                    fill="#404040" opacity="0.8" />
                <path
                    d="M390.4,178.29A217.56,217.56,0,0,1,500,207.77c64.92,37.7,108.8,107.82,109.31,188,0,.49,0,1,0,1.46,0,80.83-44,151.57-109.34,189.51A217.66,217.66,0,0,1,390.4,616.25H389c-120.1-.76-217.6-98.7-217.6-219s97.5-218.21,217.6-219Z"
                    fill="#3f3f3f" opacity="0.8" />
                <path
                    d="M389.61,177.45a217.5,217.5,0,0,1,109.6,29.48C564.14,244.63,608,314.75,608.53,395c0,.5,0,1,0,1.46,0,80.84-44,151.58-109.35,189.51a217.59,217.59,0,0,1-109.6,29.47h-1.38c-120.1-.76-217.6-98.7-217.6-219s97.5-218.21,217.6-219Z"
                    fill="#3e3e3e" opacity="0.81" />
                <path
                    d="M388.82,176.62a217.59,217.59,0,0,1,109.6,29.47c64.92,37.71,108.8,107.82,109.31,188,0,.5,0,1,0,1.46,0,80.84-44,151.58-109.34,189.51a217.59,217.59,0,0,1-109.6,29.47h-1.38c-120.11-.76-217.6-98.7-217.6-219s97.49-218.21,217.6-219Z"
                    fill="#3d3d3d" opacity="0.81" />
                <path
                    d="M388,175.78a217.6,217.6,0,0,1,109.61,29.47c64.92,37.71,108.8,107.82,109.31,188,0,.5,0,1,0,1.47,0,80.83-44,151.57-109.34,189.5A217.5,217.5,0,0,1,388,613.73h-1.37c-120.11-.76-217.6-98.69-217.6-219s97.49-218.22,217.6-219Z"
                    fill="#3c3c3c" opacity="0.81" />
                <path
                    d="M387.23,174.94a217.66,217.66,0,0,1,109.61,29.47c64.92,37.71,108.8,107.82,109.31,188,0,.5,0,1,0,1.47,0,80.83-44,151.57-109.34,189.51a217.62,217.62,0,0,1-109.61,29.46h-1.38c-120.1-.76-217.6-98.69-217.6-219s97.5-218.22,217.6-219Z"
                    fill="#3b3b3b" opacity="0.81" />
                <path
                    d="M386.44,174.1a217.66,217.66,0,0,1,109.61,29.47c64.92,37.71,108.8,107.82,109.31,188,0,.5,0,1,0,1.47,0,80.83-44,151.57-109.35,189.51a217.59,217.59,0,0,1-109.6,29.46h-1.38c-120.1-.76-217.6-98.69-217.6-219s97.5-218.22,217.6-219Z"
                    fill="#3a3a3a" opacity="0.82" />
                <path
                    d="M385.65,173.26a217.5,217.5,0,0,1,109.6,29.48c64.92,37.7,108.8,107.82,109.31,188,0,.49,0,1,0,1.46,0,80.83-44,151.57-109.34,189.51a217.59,217.59,0,0,1-109.6,29.47h-1.38c-120.11-.76-217.6-98.7-217.6-219s97.49-218.21,217.6-219Z"
                    fill="#393939" opacity="0.82" />
                <path
                    d="M384.85,172.42A217.51,217.51,0,0,1,494.46,201.9c64.92,37.7,108.8,107.82,109.31,188,0,.5,0,1,0,1.46,0,80.84-44,151.57-109.34,189.51a217.6,217.6,0,0,1-109.61,29.47h-1.37c-120.11-.76-217.6-98.7-217.6-219s97.49-218.21,217.6-219Z"
                    fill="#383838" opacity="0.82" />
                <path
                    d="M384.06,171.59a217.56,217.56,0,0,1,109.61,29.47c64.92,37.71,108.8,107.82,109.31,188,0,.5,0,1,0,1.46,0,80.84-44,151.58-109.34,189.51a217.63,217.63,0,0,1-109.61,29.47h-1.37c-120.11-.76-217.61-98.7-217.61-219s97.5-218.21,217.61-219Z"
                    fill="#373737" opacity="0.83" />
                <path
                    d="M383.27,170.75a217.66,217.66,0,0,1,109.61,29.47c64.92,37.71,108.8,107.82,109.31,188,0,.5,0,1,0,1.47,0,80.83-44,151.57-109.34,189.5A217.56,217.56,0,0,1,383.27,608.7h-1.38c-120.1-.76-217.6-98.69-217.6-219s97.5-218.22,217.6-219Z"
                    fill="#363636" opacity="0.83" />
                <path
                    d="M382.48,169.91a217.59,217.59,0,0,1,109.6,29.47c64.92,37.71,108.8,107.82,109.31,188,0,.5,0,1,0,1.47,0,80.83-44,151.57-109.34,189.5a217.49,217.49,0,0,1-109.6,29.47H381.1c-120.11-.76-217.6-98.69-217.6-219s97.49-218.22,217.6-219Z"
                    fill="#353535" opacity="0.83" />
                <path
                    d="M381.68,169.07a217.6,217.6,0,0,1,109.61,29.47c64.92,37.71,108.8,107.82,109.31,188,0,.5,0,1,0,1.47,0,80.83-44,151.57-109.34,189.51A217.59,217.59,0,0,1,381.68,607h-1.37c-120.11-.76-217.6-98.69-217.6-219s97.49-218.22,217.6-219Z"
                    fill="#343434" opacity="0.84" />
                <path
                    d="M380.89,168.23A217.54,217.54,0,0,1,490.5,197.71c64.92,37.7,108.8,107.82,109.31,188,0,.49,0,1,0,1.46,0,80.83-44,151.57-109.34,189.51a217.63,217.63,0,0,1-109.61,29.47h-1.37c-120.11-.77-217.61-98.7-217.61-219s97.5-218.21,217.61-219Z"
                    fill="#333" opacity="0.84" />
                <path
                    d="M380.1,167.39a217.56,217.56,0,0,1,109.61,29.48c64.92,37.7,108.8,107.82,109.31,188,0,.49,0,1,0,1.46,0,80.83-44,151.57-109.34,189.51A217.66,217.66,0,0,1,380.1,605.35h-1.38c-120.1-.76-217.6-98.7-217.6-219s97.5-218.21,217.6-219Z"
                    fill="#323232" opacity="0.84" />
                <path
                    d="M379.31,166.56A217.49,217.49,0,0,1,488.91,196c64.92,37.71,108.8,107.82,109.31,188,0,.5,0,1,0,1.46,0,80.84-44,151.58-109.34,189.51a217.59,217.59,0,0,1-109.6,29.47h-1.38c-120.1-.76-217.6-98.7-217.6-219s97.5-218.21,217.6-219Z"
                    fill="#313131" opacity="0.85" />
                <path
                    d="M378.51,165.72a217.6,217.6,0,0,1,109.61,29.47C553,232.9,596.92,303,597.43,383.23c0,.5,0,1,0,1.46,0,80.84-44,151.58-109.34,189.51a217.5,217.5,0,0,1-109.61,29.47h-1.37c-120.11-.76-217.6-98.7-217.6-219s97.49-218.21,217.6-219Z"
                    fill="#303030" opacity="0.85" />
                <path
                    d="M377.72,164.88a217.63,217.63,0,0,1,109.61,29.47c64.92,37.71,108.8,107.82,109.31,188,0,.5,0,1,0,1.47,0,80.83-44,151.57-109.34,189.5a217.53,217.53,0,0,1-109.61,29.47h-1.37c-120.11-.76-217.61-98.69-217.61-219s97.5-218.22,217.61-219Z"
                    fill="#2f2f2f" opacity="0.85" />
                <path
                    d="M376.93,164a217.66,217.66,0,0,1,109.61,29.47c64.92,37.71,108.8,107.82,109.31,188,0,.5,0,1,0,1.47,0,80.83-44,151.57-109.34,189.51A217.65,217.65,0,0,1,376.93,602h-1.38C255.45,601.23,158,503.3,158,383s97.5-218.22,217.6-219Z"
                    fill="#2e2e2e" opacity="0.86" />
                <path
                    d="M376.14,163.2a217.59,217.59,0,0,1,109.6,29.47c64.92,37.71,108.81,107.83,109.31,188,0,.5,0,1,0,1.47,0,80.83-44,151.57-109.34,189.51a217.59,217.59,0,0,1-109.6,29.47h-1.38c-120.1-.77-217.6-98.7-217.6-219s97.5-218.21,217.6-219Z"
                    fill="#2d2d2d" opacity="0.86" />
                <path
                    d="M375.34,162.36A217.51,217.51,0,0,1,485,191.84c64.92,37.7,108.8,107.82,109.31,188,0,.49,0,1,0,1.46,0,80.83-44,151.57-109.34,189.51a217.6,217.6,0,0,1-109.61,29.47H374c-120.11-.76-217.6-98.7-217.6-219s97.49-218.21,217.6-219Z"
                    fill="#2c2c2c" opacity="0.86" />
                <path
                    d="M374.55,161.53A217.5,217.5,0,0,1,484.16,191C549.08,228.71,593,298.82,593.47,379c0,.5,0,1,0,1.46,0,80.84-44,151.57-109.34,189.51a217.6,217.6,0,0,1-109.61,29.47h-1.37c-120.11-.76-217.6-98.7-217.6-219s97.49-218.21,217.6-219Z"
                    fill="#2b2b2b" opacity="0.87" />
                <path
                    d="M373.76,160.69a217.56,217.56,0,0,1,109.61,29.47c64.92,37.71,108.8,107.82,109.31,188,0,.5,0,1,0,1.46,0,80.84-44,151.58-109.34,189.51a217.66,217.66,0,0,1-109.61,29.47h-1.38c-120.1-.76-217.6-98.7-217.6-219s97.5-218.21,217.6-219Z"
                    fill="#2a2a2a" opacity="0.87" />
                <path
                    d="M373,159.85a217.66,217.66,0,0,1,109.61,29.47c64.92,37.71,108.8,107.82,109.3,188,0,.5,0,1,0,1.47,0,80.83-44,151.57-109.34,189.5A217.49,217.49,0,0,1,373,597.8h-1.38C251.49,597,154,499.11,154,378.83s97.5-218.22,217.6-219Z"
                    fill="#292929" opacity="0.87" />
                <path
                    d="M372.17,159a217.6,217.6,0,0,1,109.61,29.47c64.92,37.71,108.8,107.82,109.31,188,0,.5,0,1,0,1.47,0,80.83-44,151.57-109.34,189.51A217.59,217.59,0,0,1,372.17,597H370.8c-120.11-.76-217.6-98.69-217.6-219s97.49-218.22,217.6-219Z"
                    fill="#282828" opacity="0.87" />
                <path
                    d="M371.38,158.17A217.6,217.6,0,0,1,481,187.64c64.92,37.71,108.8,107.83,109.31,188,0,.5,0,1,0,1.47,0,80.83-44,151.57-109.34,189.51a217.59,217.59,0,0,1-109.61,29.46H370c-120.11-.76-217.6-98.69-217.6-219s97.49-218.22,217.6-219Z"
                    fill="#272727" opacity="0.88" />
                <path
                    d="M370.59,157.33A217.56,217.56,0,0,1,480.2,186.81c64.92,37.7,108.8,107.82,109.31,188,0,.49,0,1,0,1.46,0,80.83-44,151.57-109.34,189.51a217.66,217.66,0,0,1-109.61,29.47h-1.38c-120.1-.76-217.6-98.7-217.6-219s97.5-218.21,217.6-219Z"
                    fill="#262626" opacity="0.88" />
                <path
                    d="M369.8,156.5A217.56,217.56,0,0,1,479.41,186c64.92,37.71,108.8,107.82,109.3,188,0,.5,0,1,0,1.46,0,80.83-44,151.57-109.33,189.51A217.66,217.66,0,0,1,369.8,594.45h-1.38c-120.1-.76-217.6-98.7-217.6-219s97.5-218.21,217.6-219Z"
                    fill="#252525" opacity="0.88" />
                <path
                    d="M369,155.66a217.5,217.5,0,0,1,109.61,29.47c64.92,37.71,108.8,107.82,109.31,188,0,.5,0,1,0,1.46,0,80.84-44,151.58-109.34,189.51A217.6,217.6,0,0,1,369,593.61h-1.37c-120.11-.76-217.6-98.7-217.6-219s97.49-218.21,217.6-219Z"
                    fill="#242424" opacity="0.89" />
                <path
                    d="M368.21,154.82a217.6,217.6,0,0,1,109.61,29.47c64.92,37.71,108.8,107.82,109.31,188,0,.5,0,1,0,1.47,0,80.83-44,151.57-109.34,189.5a217.5,217.5,0,0,1-109.61,29.47h-1.37c-120.11-.76-217.6-98.69-217.6-219s97.49-218.22,217.6-219Z"
                    fill="#232323" opacity="0.89" />
                <path
                    d="M367.42,154A217.66,217.66,0,0,1,477,183.45c64.92,37.71,108.8,107.82,109.31,188,0,.5,0,1,0,1.47,0,80.83-44,151.57-109.34,189.5a217.53,217.53,0,0,1-109.61,29.47H366c-120.1-.76-217.6-98.69-217.6-219S245.94,154.74,366,154Z"
                    fill="#222" opacity="0.89" />
                <path
                    d="M366.63,153.14a217.66,217.66,0,0,1,109.61,29.47c64.92,37.71,108.8,107.83,109.3,188,0,.5,0,1,0,1.47,0,80.83-44,151.57-109.33,189.51a217.65,217.65,0,0,1-109.61,29.46h-1.38c-120.1-.76-217.6-98.69-217.6-219s97.5-218.22,217.6-219Z"
                    fill="#212121" opacity="0.9" />
                <path
                    d="M365.83,152.3a217.51,217.51,0,0,1,109.61,29.48c64.92,37.7,108.8,107.82,109.31,188,0,.49,0,1,0,1.46,0,80.83-44,151.57-109.34,189.51a217.6,217.6,0,0,1-109.61,29.47h-1.37c-120.11-.77-217.6-98.7-217.6-219s97.49-218.21,217.6-219Z"
                    fill="#202020" opacity="0.9" />
                <path
                    d="M365,151.47a217.5,217.5,0,0,1,109.61,29.47C539.57,218.65,583.45,288.76,584,369c0,.5,0,1,0,1.46C584,451.27,540,522,474.65,560A217.6,217.6,0,0,1,365,589.42h-1.37c-120.11-.76-217.6-98.7-217.6-219s97.49-218.21,217.6-219Z"
                    fill="#1f1f1f" opacity="0.9" />
                <path
                    d="M364.25,150.63A217.56,217.56,0,0,1,473.86,180.1c64.92,37.71,108.8,107.82,109.31,188,0,.5,0,1,0,1.46,0,80.84-44,151.57-109.34,189.51a217.63,217.63,0,0,1-109.61,29.47h-1.38c-120.1-.76-217.6-98.7-217.6-219s97.5-218.21,217.6-219Z"
                    fill="#1e1e1e" opacity="0.91" />
                <path
                    d="M363.46,149.79a217.66,217.66,0,0,1,109.61,29.47C538,217,581.87,287.08,582.37,367.3c0,.5,0,1,0,1.47,0,80.83-44,151.57-109.33,189.5a217.56,217.56,0,0,1-109.61,29.47h-1.38c-120.1-.76-217.6-98.7-217.6-219s97.5-218.22,217.6-219Z"
                    fill="#1d1d1d" opacity="0.91" />
                <path
                    d="M362.67,149a217.59,217.59,0,0,1,109.6,29.47c64.92,37.71,108.8,107.82,109.31,188,0,.5,0,1,0,1.47,0,80.83-44,151.57-109.34,189.5a217.49,217.49,0,0,1-109.6,29.47h-1.38c-120.11-.76-217.6-98.69-217.6-219s97.49-218.22,217.6-219Z"
                    fill="#1c1c1c" opacity="0.91" />
                <path
                    d="M361.87,148.11a217.6,217.6,0,0,1,109.61,29.47c64.92,37.71,108.8,107.82,109.31,188,0,.5,0,1,0,1.47,0,80.83-44,151.57-109.34,189.51a217.59,217.59,0,0,1-109.61,29.46H360.5c-120.11-.76-217.6-98.69-217.6-219s97.49-218.22,217.6-219Z"
                    fill="#1b1b1b" opacity="0.92" />
                <path
                    d="M361.08,147.27a217.56,217.56,0,0,1,109.61,29.48c64.92,37.7,108.8,107.82,109.31,188,0,.49,0,1,0,1.46,0,80.83-44,151.57-109.34,189.51a217.63,217.63,0,0,1-109.61,29.47H359.7c-120.1-.77-217.6-98.7-217.6-219s97.5-218.21,217.6-219Z"
                    fill="#1a1a1a" opacity="0.92" />
                <path
                    d="M360.29,146.43A217.56,217.56,0,0,1,469.9,175.91c64.92,37.7,108.8,107.82,109.3,188,0,.49,0,1,0,1.46,0,80.83-44,151.57-109.33,189.51a217.66,217.66,0,0,1-109.61,29.47h-1.38c-120.1-.76-217.6-98.7-217.6-219s97.5-218.21,217.6-219Z"
                    fill="#191919" opacity="0.92" />
                <path
                    d="M359.5,145.6a217.56,217.56,0,0,1,109.61,29.47c64.91,37.71,108.79,107.82,109.3,188,0,.5,0,1,0,1.46,0,80.83-44,151.57-109.34,189.51a217.59,217.59,0,0,1-109.6,29.47h-1.38c-120.11-.76-217.6-98.7-217.6-219s97.49-218.21,217.6-219Z"
                    fill="#181818" opacity="0.92" />
                <path
                    d="M358.7,144.76a217.5,217.5,0,0,1,109.61,29.47c64.92,37.71,108.8,107.82,109.31,188,0,.5,0,1,0,1.46,0,80.84-44,151.58-109.34,189.51A217.5,217.5,0,0,1,358.7,582.71h-1.37c-120.11-.76-217.6-98.7-217.6-219s97.49-218.21,217.6-219Z"
                    fill="#171717" opacity="0.93" />
                <path
                    d="M357.91,143.92a217.6,217.6,0,0,1,109.61,29.47c64.92,37.71,108.8,107.82,109.31,188,0,.5,0,1,0,1.47,0,80.83-44,151.57-109.34,189.5a217.5,217.5,0,0,1-109.61,29.47h-1.38c-120.1-.76-217.6-98.69-217.6-219s97.5-218.22,217.6-219Z"
                    fill="#161616" opacity="0.93" />
                <path
                    d="M357.12,143.08a217.66,217.66,0,0,1,109.61,29.47c64.92,37.71,108.8,107.82,109.3,188,0,.5,0,1,0,1.47A219.07,219.07,0,0,1,357.12,581h-1.38c-120.1-.76-217.6-98.69-217.6-219s97.5-218.22,217.6-219Z"
                    fill="#151515" opacity="0.93" />
                <path
                    d="M356.33,142.24a217.56,217.56,0,0,1,109.61,29.48c64.92,37.7,108.79,107.82,109.3,188,0,.5,0,1,0,1.47,0,80.83-44,151.57-109.33,189.51a217.65,217.65,0,0,1-109.61,29.46H355c-120.11-.76-217.6-98.69-217.6-219S234.84,143,355,142.24Z"
                    fill="#141414" opacity="0.94" />
                <path
                    d="M355.53,141.4a217.51,217.51,0,0,1,109.61,29.48c64.92,37.7,108.8,107.82,109.31,188,0,.49,0,1,0,1.46,0,80.83-44,151.57-109.34,189.51a217.6,217.6,0,0,1-109.61,29.47h-1.37c-120.11-.76-217.6-98.7-217.6-219s97.49-218.21,217.6-219Z"
                    fill="#131313" opacity="0.94" />
                <path
                    d="M354.74,140.57A217.5,217.5,0,0,1,464.35,170c64.92,37.71,108.8,107.82,109.31,188,0,.5,0,1,0,1.46,0,80.83-44,151.57-109.34,189.51a217.6,217.6,0,0,1-109.61,29.47h-1.38c-120.1-.76-217.6-98.7-217.6-219s97.5-218.21,217.6-219Z"
                    fill="#121212" opacity="0.94" />
                <path
                    d="M354,139.73A217.56,217.56,0,0,1,463.56,169.2c64.92,37.71,108.8,107.82,109.3,188,0,.5,0,1,0,1.46A219.07,219.07,0,0,1,354,577.68h-1.38C232.47,576.92,135,479,135,358.7s97.5-218.21,217.6-219Z"
                    fill="#111" opacity="0.95" />
                <path
                    d="M353.16,138.89a217.66,217.66,0,0,1,109.61,29.47c64.92,37.71,108.79,107.82,109.3,188,0,.5,0,1,0,1.47,0,80.83-44,151.57-109.33,189.5a217.56,217.56,0,0,1-109.61,29.47h-1.38c-120.11-.76-217.6-98.69-217.6-219s97.49-218.22,217.6-219Z"
                    fill="#101010" opacity="0.95" />
                <path
                    d="M352.36,138.05A217.6,217.6,0,0,1,462,167.52c64.92,37.71,108.8,107.82,109.31,188,0,.5,0,1,0,1.47,0,80.83-44,151.57-109.34,189.5A217.5,217.5,0,0,1,352.36,576H351c-120.11-.76-217.6-98.69-217.6-219s97.49-218.22,217.6-219Z"
                    fill="#0f0f0f" opacity="0.95" />
                <path
                    d="M351.57,137.21a217.6,217.6,0,0,1,109.61,29.47c64.92,37.71,108.8,107.83,109.31,188,0,.5,0,1,0,1.47,0,80.83-44,151.57-109.34,189.51a217.59,217.59,0,0,1-109.61,29.46h-1.38c-120.1-.76-217.6-98.69-217.6-219s97.5-218.22,217.6-219Z"
                    fill="#0e0e0e" opacity="0.96" />
                <path
                    d="M350.78,136.37a217.56,217.56,0,0,1,109.61,29.48c64.92,37.7,108.8,107.82,109.31,188,0,.49,0,1,0,1.46,0,80.83-44,151.57-109.33,189.51a217.66,217.66,0,0,1-109.61,29.47H349.4c-120.1-.77-217.6-98.7-217.6-219s97.5-218.21,217.6-219Z"
                    fill="#0d0d0d" opacity="0.96" />
                <path
                    d="M350,135.54A217.56,217.56,0,0,1,459.6,165c64.92,37.71,108.79,107.82,109.3,188,0,.5,0,1,0,1.46,0,80.83-44,151.57-109.33,189.51A217.66,217.66,0,0,1,350,573.49h-1.38c-120.11-.76-217.6-98.7-217.6-219s97.49-218.21,217.6-219Z"
                    fill="#0c0c0c" opacity="0.96" />
                <path
                    d="M349.19,134.7A217.5,217.5,0,0,1,458.8,164.17c64.92,37.71,108.8,107.82,109.31,188,0,.5,0,1,0,1.46,0,80.84-44,151.57-109.34,189.51a217.6,217.6,0,0,1-109.61,29.47h-1.37c-120.11-.76-217.6-98.7-217.6-219s97.49-218.21,217.6-219Z"
                    fill="#0b0b0b" opacity="0.97" />
                <path
                    d="M348.4,133.86A217.6,217.6,0,0,1,458,163.33c64.92,37.71,108.8,107.82,109.31,188,0,.5,0,1,0,1.47,0,80.83-44,151.57-109.34,189.5A217.5,217.5,0,0,1,348.4,571.81H347c-120.1-.76-217.6-98.69-217.6-219s97.5-218.22,217.6-219Z"
                    fill="#0a0a0a" opacity="0.97" />
                <path
                    d="M347.61,133a217.66,217.66,0,0,1,109.61,29.47c64.92,37.71,108.8,107.82,109.31,188,0,.5,0,1,0,1.47A219.07,219.07,0,0,1,347.61,571h-1.38c-120.1-.76-217.6-98.69-217.6-219s97.5-218.22,217.6-219Z"
                    fill="#090909" opacity="0.97" />
                <path
                    d="M346.82,132.18a217.66,217.66,0,0,1,109.61,29.47c64.92,37.71,108.79,107.83,109.3,188,0,.5,0,1,0,1.47,0,80.83-44,151.57-109.33,189.51a217.65,217.65,0,0,1-109.61,29.46h-1.38c-120.11-.76-217.6-98.69-217.6-219s97.49-218.22,217.6-219Z"
                    fill="#080808" opacity="0.97" />
                <path
                    d="M346,131.34a217.57,217.57,0,0,1,109.62,29.48c64.91,37.7,108.79,107.82,109.3,188,0,.49,0,1,0,1.46,0,80.83-44,151.57-109.34,189.51A217.6,217.6,0,0,1,346,569.3h-1.37c-120.11-.77-217.6-98.7-217.6-219s97.49-218.21,217.6-219Z"
                    fill="#070707" opacity="0.98" />
                <path
                    d="M345.23,130.51A217.5,217.5,0,0,1,454.84,160c64.92,37.71,108.8,107.82,109.31,188,0,.49,0,1,0,1.46,0,80.83-44,151.57-109.34,189.51a217.6,217.6,0,0,1-109.61,29.47h-1.38c-120.1-.76-217.6-98.7-217.6-219s97.5-218.21,217.6-219Z"
                    fill="#060606" opacity="0.98" />
                <path
                    d="M344.44,129.67a217.56,217.56,0,0,1,109.61,29.47C519,196.85,562.85,267,563.36,347.18c0,.5,0,1,0,1.46,0,80.83-44,151.57-109.33,189.51a217.63,217.63,0,0,1-109.61,29.47h-1.38c-120.1-.76-217.6-98.7-217.6-219s97.5-218.21,217.6-219Z"
                    fill="#050505" opacity="0.98" />
                <path
                    d="M343.65,128.83A217.56,217.56,0,0,1,453.26,158.3c64.92,37.71,108.79,107.82,109.3,188,0,.5,0,1,0,1.46,0,80.84-44,151.58-109.33,189.51a217.56,217.56,0,0,1-109.61,29.47h-1.38c-120.11-.76-217.6-98.7-217.6-219s97.49-218.21,217.6-219Z"
                    fill="#040404" opacity="0.99" />
                <path
                    d="M342.85,128a217.67,217.67,0,0,1,109.62,29.47c64.91,37.71,108.79,107.82,109.3,188,0,.5,0,1,0,1.47,0,80.83-44,151.57-109.33,189.5a217.57,217.57,0,0,1-109.62,29.47h-1.37c-120.11-.76-217.6-98.69-217.6-219s97.49-218.22,217.6-219Z"
                    fill="#030303" opacity="0.99" />
                <path
                    d="M342.06,127.15a217.6,217.6,0,0,1,109.61,29.47c64.92,37.71,108.8,107.83,109.31,188,0,.5,0,1,0,1.47,0,80.83-44,151.57-109.34,189.5A217.5,217.5,0,0,1,342.06,565.1h-1.38c-120.1-.76-217.6-98.69-217.6-219s97.5-218.22,217.6-219Z"
                    fill="#020202" opacity="0.99" />
                <path
                    d="M341.27,126.31a217.54,217.54,0,0,1,109.61,29.48c64.92,37.7,108.8,107.82,109.31,188,0,.49,0,1,0,1.46,0,80.83-44,151.57-109.33,189.51a217.6,217.6,0,0,1-109.61,29.47h-1.38c-120.1-.77-217.6-98.7-217.6-219s97.5-218.22,217.6-219Z"
                    fill="#010101" />
                <path
                    d="M559.42,344.45c0,120.75-98.22,219-218.94,219H339.1c-120.1-.76-217.6-98.7-217.6-219s97.5-218.21,217.6-219h1.38c120.22,0,218.15,97.43,218.91,217.51C559.42,343.48,559.42,344,559.42,344.45Z" />
            </g>
            <g>
                <path
                    d="M560,341.73c0,121.6-98.92,220.52-220.49,220.52h-1.38C217.18,561.48,119,462.86,119,341.73S217.18,122,338.13,121.22h1.38c121.07,0,219.7,98.12,220.46,219C560,340.76,560,341.23,560,341.73Z"
                    fill="url(#819ec383-63f3-4ada-b60a-178d370fbc82)" />
                <path
                    d="M338.13,547.5c-112.66-.71-204.39-93-204.39-205.77s91.73-205,204.48-205.77h1.29c112.72,0,205,91.69,205.72,204.39v.4l0,.4v.58c0,113.46-92.3,205.77-205.75,205.77Z"
                    fill="url(#a576a2fd-eb07-43f0-bac2-18aaa933a046)" />
            </g>
            <g>
                <path
                    d="M337.5,342.53h0c-57.25,0-104.09,33.4-104.09,74.22v65c0,6.85,7.86,12.46,17.47,12.46H424.12c9.61,0,17.47-5.61,17.47-12.46v-65C441.59,375.93,394.75,342.53,337.5,342.53Z" />
                <path
                    d="M360.44,357.63c-2.21.58-3.18-.15-4.55-1.79-4.86-5.82-14.54-7.88-21.3-4.4-4.49,2.3-7.87,5.83-8,11.35-.1,4.56,4.84,10.77,10,11.53,9.06,1.31,16.06,1.28,19.68-6,1.59-3.2,3.62-4.25,6.81-5.12a86.61,86.61,0,0,0,24.43-10.57l-6.75-3.07A83.56,83.56,0,0,1,360.44,357.63Z" />
                <g>
                    <path
                        d="M398.88,260.87c-.4-28-18.81-51.55-45-58-28.45-7-57.29,5.35-71.09,29.76a49.12,49.12,0,0,0-6.35,19.76c-1.26,16.28-.13,32.74,0,49.12,0,2.1-.3,4.28.14,6.28C281.3,329,293.58,344,313.24,353c5,2.24,8.66,2.62,12.67-3.06,5.47-7.75,21.39-9.63,29.32-3.35,5.53,4.39,9.71,3.17,15,1.13,4.8-1.84,8.41-5.07,11.86-8.59,9.53-9.75,14.66-21.63,16.67-35C398.84,289.72,399.08,275.29,398.88,260.87Z" />
                    <path
                        d="M360.44,357.63c-2.21.58-3.18-.15-4.55-1.79-4.86-5.82-14.54-7.88-21.3-4.4-4.49,2.3-7.87,5.83-8,11.35-.1,4.56,4.84,10.77,10,11.53,9.06,1.31,16.06,1.28,19.68-6,1.59-3.2,3.62-4.25,6.81-5.12a86.61,86.61,0,0,0,24.43-10.57l-6.75-3.07A83.56,83.56,0,0,1,360.44,357.63Z"
                        fill="#fff" />
                    <path
                        d="M437.67,261c-2.15-1.56-4.14-3.43-6.48-4.62-7.78-3.93-14-8.86-11.78-18.78,1.26-5.63-1.32-10.34-2.69-15.29-7.19-26.19-29.65-45.22-55.82-50.95-10.32-2.26-21.26-2.45-31.78-1.91-35.35,1.82-60.7,20.23-69.95,50.86A92.24,92.24,0,0,0,255.55,244c-.05,1.75.37,3.6-1.65,4.95-3.7,2.47-7,5.67-10.83,7.8-5,2.75-9.43,7.54-10.95,11.55-2.72,7.17-2.19,15.64-1.21,23.71,1.57,13,13.4,17.8,20.81,25.93,2.55,2.8,9.3,2.15,14-.16,3.89-1.91,5.61-5,5.58-9.41-.12-16.69-.06-33.39,0-50.09,0-2.75,0-5.86-2.42-7.32-4-2.44-3.12-5.76-2.59-9.17.71-4.65,3.1-8.68,5.76-12.31,17.7-24.2,42.26-33.77,71.49-32.31,23.5,1.18,42.77,11.32,57.65,29.51,4.31,5.27,8,11.08,8.33,18.26.08,1.61.62,3.31-1.22,4.41C404,251.91,404,256,404,260.26c0,15.46-.11,30.91-.18,46.36.1,1,.18,2.05.28,3.07.49,4.58,3.52,8.41.86,13.87a58.92,58.92,0,0,1-24.2,26l6.75,3.07a60.51,60.51,0,0,0,24.2-30.18c.34-.91.8-2.42,1.38-2.5,6.21-.88,10.45-5.22,15.56-8.08,7.24-4.05,12-9.15,14.33-16.77C446.76,282.87,444.83,271.49,437.67,261Zm-158.8-50.71c15.88-23.49,39.81-28.62,66.07-26.94,20.49,1.31,38.94,7.6,50.71,26.17C356.44,183.28,317.7,183.35,278.87,210.26Z" />
                </g>
            </g>
</svg>