<svg xmlns="http://www.w3.org/2000/svg" xmlns:xlink="http://www.w3.org/1999/xlink" viewBox="0 0 675 1147.5" >
<defs>
            <linearGradient id="ce9a6562-b5d0-488c-b7b1-290def82a613" x1="-1295.87" y1="297.78" x2="2319.51" y2="297.78"
            gradientUnits="userSpaceOnUse">
            <stop offset="0" stop-color="#0054a6" />
            <stop offset="0.02" stop-color="#055fad" />
            <stop offset="0.15" stop-color="#1f96d3" />
            <stop offset="0.21" stop-color="#29abe2" />
            <stop offset="0.45" stop-color="#0fdde4" />
            <stop offset="0.71" stop-color="#8cc63f" />
            <stop offset="1" stop-color="#fcee21" />
        </linearGradient>
        <linearGradient id="3b52aa36-ca20-43c4-9b79-32e0a4ad79a0" x1="210.75" y1="163.99" x2="438.82" y2="476.61"
            gradientUnits="userSpaceOnUse">
            <stop offset="0" stop-color="#ccc" />
            <stop offset="0.53" stop-color="#eaeaea" />
            <stop offset="1" stop-color="#fff" />
        </linearGradient>
        <linearGradient id="c80af6ed-1449-4dd0-ab9d-25b74efa1958" x1="219.28" y1="175.68" x2="432.06" y2="467.33"
            gradientUnits="userSpaceOnUse">
            <stop offset="0" stop-color="#fff" />
            <stop offset="0.47" stop-color="#eaeaea" />
            <stop offset="1" stop-color="#ccc" />
        </linearGradient>
</defs>

                <line x1="337.5" y1="460.29" x2="337.5" y2="788.98" fill="#0fdde4" stroke="#0fdde4" stroke-miterlimit="10"
                stroke-width="12.97" />
            <circle cx="337.5" cy="787.9" r="25.95" fill="#0fdde4" />
            <path
                d="M675.1,336.27h-.32a335.33,335.33,0,0,0-59.35-189.73C554.6,58.14,452.73.23,337.3.23S120,58.14,59.2,146.51A335.29,335.29,0,0,0-.17,336.27H-.49a2.26,2.26,0,0,1,0-.26V595A339.16,339.16,0,0,0,59.2,529a335.71,335.71,0,0,0,59.38-191.23c0-.49,0-1,0-1.46h.32c0,.5,0,1,0,1.46,0,120.48,98,218.49,218.45,218.49s218.49-98,218.49-218.49c0-.49,0-1,0-1.46h.33c0,.5,0,1,0,1.46a335.61,335.61,0,0,0,59.37,191.2,339.29,339.29,0,0,0,60.07,66.4V324.5Q675.16,330.35,675.1,336.27ZM491.48,491.91a218,218,0,0,1-372.2-154.18c0-.49,0-1,0-1.46a218,218,0,0,1,436,0c0,.5,0,1,0,1.46A216.56,216.56,0,0,1,491.48,491.91Z"
                fill="url(#ce9a6562-b5d0-488c-b7b1-290def82a613)" />
            <g opacity="0.15" style="mix-blend-mode: multiply">
                <path
                    d="M760.5,554c0,80.94-44.09,151.77-109.5,189.75a217.86,217.86,0,0,1-109.72,29.5H539.9C419.64,772.46,322,674.4,322,554S419.64,335.48,539.9,334.71h1.38A217.87,217.87,0,0,1,651,364.22c65,37.75,109,108,109.47,188.28C760.5,553,760.5,553.47,760.5,554Z"
                    fill="#fff" opacity="0.2" />
                <path
                    d="M540.49,333.87a217.87,217.87,0,0,1,109.72,29.51c65,37.75,109,108,109.47,188.28,0,.5,0,1,0,1.47,0,80.94-44.09,151.77-109.5,189.75a217.86,217.86,0,0,1-109.72,29.5h-1.38c-120.26-.76-217.88-98.82-217.88-219.25s97.62-218.49,217.88-219.26Z"
                    fill="#fefefe" opacity="0.2" />
                <path
                    d="M539.69,333a217.87,217.87,0,0,1,109.72,29.51c65,37.75,109,108,109.47,188.28,0,.5,0,1,0,1.47,0,80.94-44.09,151.77-109.5,189.75a217.86,217.86,0,0,1-109.72,29.5h-1.38c-120.26-.76-217.88-98.82-217.88-219.25S418.05,333.8,538.31,333Z"
                    fill="#fdfdfd" opacity="0.21" />
                <path
                    d="M538.9,332.19A217.87,217.87,0,0,1,648.62,361.7c65,37.75,109,108,109.47,188.28,0,.5,0,1,0,1.47,0,80.94-44.09,151.77-109.5,189.75A217.86,217.86,0,0,1,538.9,770.7h-1.38c-120.26-.76-217.88-98.82-217.88-219.25S417.26,333,537.52,332.19Z"
                    fill="#fcfcfc" opacity="0.21" />
                <path
                    d="M538.11,331.35a217.87,217.87,0,0,1,109.72,29.51c65,37.75,109,108,109.47,188.28,0,.5,0,1,0,1.47,0,80.94-44.09,151.77-109.5,189.75a217.86,217.86,0,0,1-109.72,29.5h-1.38C416.47,769.1,318.85,671,318.85,550.61s97.62-218.49,217.88-219.26Z"
                    fill="#fbfbfb" opacity="0.21" />
                <path
                    d="M537.31,330.51A217.87,217.87,0,0,1,647,360C712,397.77,756,468,756.5,548.3c0,.5,0,1,0,1.47,0,80.94-44.09,151.77-109.5,189.75A217.86,217.86,0,0,1,537.31,769h-1.38c-120.26-.76-217.88-98.82-217.88-219.25s97.62-218.49,217.88-219.26Z"
                    fill="#fafafa" opacity="0.22" />
                <path
                    d="M536.52,329.67a217.87,217.87,0,0,1,109.72,29.51c65,37.75,109,108,109.47,188.28,0,.5,0,1,0,1.47,0,80.94-44.09,151.77-109.5,189.75a217.86,217.86,0,0,1-109.72,29.5h-1.38c-120.26-.76-217.88-98.82-217.88-219.25s97.62-218.49,217.88-219.26Z"
                    fill="#f9f9f9" opacity="0.22" />
                <path
                    d="M535.73,328.83a217.87,217.87,0,0,1,109.72,29.51c65,37.75,109,108,109.47,188.28,0,.5,0,1,0,1.47,0,80.94-44.09,151.77-109.5,189.75a217.86,217.86,0,0,1-109.72,29.5h-1.38c-120.26-.76-217.88-98.82-217.88-219.25S414.09,329.6,534.35,328.83Z"
                    fill="#f8f8f8" opacity="0.22" />
                <path
                    d="M534.93,328A217.87,217.87,0,0,1,644.65,357.5c65,37.75,109,108,109.47,188.28,0,.5,0,1,0,1.47,0,80.94-44.09,151.77-109.5,189.75a217.86,217.86,0,0,1-109.72,29.5h-1.38c-120.26-.76-217.88-98.82-217.88-219.25S413.29,328.76,533.55,328Z"
                    fill="#f7f7f7" opacity="0.23" />
                <path
                    d="M534.14,327.15a217.87,217.87,0,0,1,109.72,29.51c65,37.76,109,108,109.47,188.28,0,.5,0,1,0,1.47,0,80.94-44.09,151.77-109.5,189.75a217.86,217.86,0,0,1-109.72,29.5h-1.38c-120.26-.76-217.88-98.82-217.88-219.25S412.5,327.92,532.76,327.15Z"
                    fill="#f6f6f6" opacity="0.23" />
                <path
                    d="M533.35,326.32a217.87,217.87,0,0,1,109.72,29.51c65,37.75,109,108,109.47,188.28,0,.5,0,1,0,1.47,0,80.93-44.09,151.76-109.5,189.75a217.86,217.86,0,0,1-109.72,29.5H532C411.71,764.07,314.09,666,314.09,545.58S411.71,327.09,532,326.32Z"
                    fill="#f5f5f5" opacity="0.23" />
                <path
                    d="M532.55,325.48A217.87,217.87,0,0,1,642.27,355c65,37.75,109,108,109.47,188.28,0,.5,0,1,0,1.47,0,80.94-44.09,151.77-109.5,189.75A217.86,217.86,0,0,1,532.55,764h-1.38c-120.26-.76-217.88-98.82-217.88-219.25s97.62-218.49,217.88-219.26Z"
                    fill="#f4f4f4" opacity="0.23" />
                <path
                    d="M531.76,324.64a217.87,217.87,0,0,1,109.72,29.51c65,37.75,109,108,109.47,188.28,0,.5,0,1,0,1.47,0,80.94-44.09,151.77-109.5,189.75a217.86,217.86,0,0,1-109.72,29.5h-1.38C410.12,762.39,312.5,664.33,312.5,543.9s97.62-218.49,217.88-219.26Z"
                    fill="#f3f3f3" opacity="0.24" />
                <path
                    d="M531,323.8a217.87,217.87,0,0,1,109.73,29.51c65,37.75,109,108,109.46,188.28,0,.5,0,1,0,1.47,0,80.94-44.08,151.77-109.49,189.75A217.87,217.87,0,0,1,531,762.31h-1.38c-120.25-.76-217.87-98.82-217.87-219.25S409.33,324.57,529.58,323.8Z"
                    fill="#f2f2f2" opacity="0.24" />
                <path
                    d="M530.17,323a217.87,217.87,0,0,1,109.72,29.51c65,37.75,109,108,109.47,188.28,0,.5,0,1,0,1.47,0,80.94-44.09,151.77-109.5,189.75a217.86,217.86,0,0,1-109.72,29.5h-1.38c-120.26-.76-217.88-98.82-217.88-219.25S408.53,323.73,528.79,323Z"
                    fill="#f1f1f1" opacity="0.24" />
                <path
                    d="M529.38,322.12A217.87,217.87,0,0,1,639.1,351.63c65,37.75,109,108,109.47,188.28,0,.5,0,1,0,1.47,0,80.94-44.09,151.77-109.5,189.75a217.86,217.86,0,0,1-109.72,29.5H528c-120.26-.76-217.88-98.82-217.88-219.25S407.74,322.89,528,322.12Z"
                    fill="#f0f0f0" opacity="0.25" />
                <path
                    d="M528.58,321.28a217.87,217.87,0,0,1,109.73,29.51c65,37.75,109,108,109.46,188.28,0,.5,0,1,0,1.47,0,80.94-44.08,151.77-109.49,189.75a217.87,217.87,0,0,1-109.73,29.5H527.2C406.94,759,309.32,661,309.32,540.54S406.94,322.05,527.2,321.28Z"
                    fill="#efefef" opacity="0.25" />
                <path
                    d="M527.79,320.44A217.87,217.87,0,0,1,637.51,350c65,37.75,109,108,109.47,188.28,0,.5,0,1,0,1.47,0,80.94-44.09,151.77-109.5,189.75A217.86,217.86,0,0,1,527.79,759h-1.38c-120.26-.76-217.88-98.82-217.88-219.25s97.62-218.49,217.88-219.26Z"
                    fill="#eee" opacity="0.25" />
                <path
                    d="M527,319.6a217.87,217.87,0,0,1,109.72,29.51c65,37.75,109,108,109.47,188.28,0,.5,0,1,0,1.47,0,80.94-44.09,151.77-109.5,189.75A217.86,217.86,0,0,1,527,758.11h-1.38c-120.26-.76-217.88-98.82-217.88-219.25S405.36,320.37,525.62,319.6Z"
                    fill="#ededed" opacity="0.26" />
                <path
                    d="M526.2,318.76a217.87,217.87,0,0,1,109.73,29.51c65,37.75,109,108,109.46,188.28,0,.5,0,1,0,1.47,0,80.94-44.08,151.77-109.49,189.75a217.87,217.87,0,0,1-109.73,29.5h-1.38C404.56,756.51,306.94,658.45,306.94,538s97.62-218.49,217.88-219.26Z"
                    fill="#ececec" opacity="0.26" />
                <path
                    d="M525.41,317.92a217.87,217.87,0,0,1,109.72,29.51c65,37.75,109,108,109.47,188.28,0,.5,0,1,0,1.47,0,80.94-44.09,151.77-109.5,189.75a217.86,217.86,0,0,1-109.72,29.5H524c-120.26-.76-217.88-98.82-217.88-219.25S403.77,318.69,524,317.92Z"
                    fill="#ebebeb" opacity="0.26" />
                <path
                    d="M524.62,317.08a217.87,217.87,0,0,1,109.72,29.51c65,37.75,109,108,109.47,188.28,0,.5,0,1,0,1.47,0,80.94-44.09,151.77-109.5,189.75a217.86,217.86,0,0,1-109.72,29.5h-1.38C403,754.83,305.36,656.77,305.36,536.34S403,317.85,523.24,317.08Z"
                    fill="#eaeaea" opacity="0.27" />
                <path
                    d="M523.82,316.24a217.9,217.9,0,0,1,109.73,29.51c65,37.75,109,108,109.46,188.28,0,.5,0,1,0,1.47,0,80.94-44.08,151.77-109.49,189.75a217.87,217.87,0,0,1-109.73,29.5h-1.38C402.18,754,304.56,655.93,304.56,535.5S402.18,317,522.44,316.24Z"
                    fill="#e9e9e9" opacity="0.27" />
                <path
                    d="M523,315.4a217.87,217.87,0,0,1,109.72,29.51c65,37.75,109,108,109.47,188.28,0,.5,0,1,0,1.47,0,80.94-44.09,151.77-109.5,189.75A217.86,217.86,0,0,1,523,753.91h-1.38c-120.26-.76-217.88-98.82-217.88-219.25S401.39,316.17,521.65,315.4Z"
                    fill="#e8e8e8" opacity="0.27" />
                <path
                    d="M522.24,314.56A217.87,217.87,0,0,1,632,344.07c65,37.75,109,108,109.47,188.28,0,.5,0,1,0,1.47,0,80.94-44.09,151.77-109.5,189.75a217.86,217.86,0,0,1-109.72,29.5h-1.38C400.6,752.31,303,654.25,303,533.82S400.6,315.33,520.86,314.56Z"
                    fill="#e7e7e7" opacity="0.28" />
                <path
                    d="M521.44,313.72a217.9,217.9,0,0,1,109.73,29.51c65,37.75,109,108,109.46,188.28,0,.5,0,1,0,1.47,0,80.94-44.08,151.77-109.49,189.75a217.89,217.89,0,0,1-109.73,29.5h-1.38C399.8,751.47,302.18,653.41,302.18,533S399.8,314.49,520.06,313.72Z"
                    fill="#e6e6e6" opacity="0.28" />
                <path
                    d="M520.65,312.88a217.87,217.87,0,0,1,109.72,29.51c65,37.75,109,108,109.47,188.28,0,.5,0,1,0,1.47,0,80.94-44.09,151.77-109.5,189.75a217.86,217.86,0,0,1-109.72,29.5h-1.38C399,750.63,301.39,652.57,301.39,532.14S399,313.65,519.27,312.88Z"
                    fill="#e5e5e5" opacity="0.28" />
                <path
                    d="M519.86,312a217.87,217.87,0,0,1,109.72,29.51c65,37.76,109,108,109.47,188.28,0,.5,0,1,0,1.47,0,80.94-44.09,151.77-109.5,189.75a217.86,217.86,0,0,1-109.72,29.5h-1.38C398.22,749.79,300.6,651.73,300.6,531.3S398.22,312.81,518.48,312Z"
                    fill="#e4e4e4" opacity="0.28" />
                <path
                    d="M519.06,311.21a217.8,217.8,0,0,1,109.73,29.51c65,37.75,109,108,109.46,188.28,0,.49,0,1,0,1.46,0,80.94-44.09,151.77-109.49,189.75a217.79,217.79,0,0,1-109.73,29.5h-1.38C397.42,749,299.8,650.89,299.8,530.46S397.42,312,517.68,311.21Z"
                    fill="#e3e3e3" opacity="0.29" />
                <path
                    d="M518.27,310.37A217.76,217.76,0,0,1,628,339.88c65,37.75,109,108,109.47,188.28,0,.5,0,1,0,1.47,0,80.93-44.09,151.76-109.5,189.74a217.76,217.76,0,0,1-109.72,29.51h-1.38C396.63,748.12,299,650.06,299,529.63s97.62-218.49,217.88-219.26Z"
                    fill="#e2e2e2" opacity="0.29" />
                <path
                    d="M517.48,309.53A217.87,217.87,0,0,1,627.2,339c65,37.75,109,108,109.47,188.28,0,.5,0,1,0,1.47,0,80.93-44.09,151.76-109.5,189.75A217.86,217.86,0,0,1,517.48,748H516.1c-120.26-.76-217.88-98.82-217.88-219.25S395.84,310.3,516.1,309.53Z"
                    fill="#e1e1e1" opacity="0.29" />
                <path
                    d="M516.68,308.69A217.9,217.9,0,0,1,626.41,338.2c65,37.75,109,108,109.46,188.28,0,.5,0,1,0,1.47,0,80.94-44.09,151.77-109.49,189.75a217.89,217.89,0,0,1-109.73,29.5H515.3C395,746.44,297.42,648.38,297.42,528S395,309.46,515.3,308.69Z"
                    fill="#e0e0e0" opacity="0.3" />
                <path
                    d="M515.89,307.85a217.87,217.87,0,0,1,109.72,29.51c65,37.75,109,108,109.47,188.28,0,.5,0,1,0,1.47,0,80.94-44.09,151.77-109.5,189.75a217.86,217.86,0,0,1-109.72,29.5h-1.38c-120.26-.76-217.88-98.82-217.88-219.25s97.62-218.49,217.88-219.26Z"
                    fill="#dfdfdf" opacity="0.3" />
                <path
                    d="M515.1,307a217.87,217.87,0,0,1,109.72,29.51c65,37.75,109,108,109.47,188.28,0,.5,0,1,0,1.47,0,80.94-44.09,151.77-109.5,189.75a217.86,217.86,0,0,1-109.72,29.5h-1.38c-120.26-.76-217.88-98.82-217.88-219.25S393.46,307.78,513.72,307Z"
                    fill="#dedede" opacity="0.3" />
                <path
                    d="M514.3,306.17A217.9,217.9,0,0,1,624,335.68c65,37.75,109,108,109.46,188.28,0,.5,0,1,0,1.47,0,80.94-44.09,151.77-109.49,189.75a217.89,217.89,0,0,1-109.73,29.5h-1.38C392.66,743.92,295,645.86,295,525.43s97.62-218.49,217.88-219.26Z"
                    fill="#ddd" opacity="0.31" />
                <path
                    d="M513.51,305.33a217.87,217.87,0,0,1,109.72,29.51c65,37.75,109,108,109.47,188.28,0,.5,0,1,0,1.47,0,80.94-44.09,151.77-109.5,189.75a217.86,217.86,0,0,1-109.72,29.5h-1.38C391.87,743.08,294.25,645,294.25,524.59S391.87,306.1,512.13,305.33Z"
                    fill="#dcdcdc" opacity="0.31" />
                <path
                    d="M512.71,304.49A217.87,217.87,0,0,1,622.44,334c65,37.75,109,108,109.47,188.28,0,.5,0,1,0,1.47,0,80.94-44.09,151.77-109.5,189.75A217.87,217.87,0,0,1,512.71,743h-1.37c-120.26-.76-217.88-98.82-217.88-219.25s97.62-218.49,217.88-219.26Z"
                    fill="#dbdbdb" opacity="0.31" />
                <path
                    d="M511.92,303.65a217.9,217.9,0,0,1,109.73,29.51c65,37.75,109,108,109.46,188.28,0,.5,0,1,0,1.47,0,80.94-44.09,151.77-109.49,189.75a217.89,217.89,0,0,1-109.73,29.5h-1.38c-120.26-.76-217.88-98.82-217.88-219.25s97.62-218.49,217.88-219.26Z"
                    fill="#dadada" opacity="0.32" />
                <path
                    d="M511.13,302.81a217.87,217.87,0,0,1,109.72,29.51c65,37.75,109,108,109.47,188.28,0,.5,0,1,0,1.47,0,80.94-44.09,151.77-109.5,189.75a217.86,217.86,0,0,1-109.72,29.5h-1.38c-120.26-.76-217.88-98.82-217.88-219.25s97.62-218.49,217.88-219.26Z"
                    fill="#d9d9d9" opacity="0.32" />
                <path
                    d="M510.33,302a217.87,217.87,0,0,1,109.73,29.51c65,37.75,109,108,109.47,188.28,0,.5,0,1,0,1.47,0,80.94-44.08,151.77-109.49,189.75a217.87,217.87,0,0,1-109.73,29.5H509c-120.25-.76-217.87-98.82-217.87-219.25S388.7,302.74,509,302Z"
                    fill="#d8d8d8" opacity="0.32" />
                <path
                    d="M509.54,301.13a217.93,217.93,0,0,1,109.73,29.51c65,37.75,109,108,109.46,188.28,0,.5,0,1,0,1.47,0,80.94-44.09,151.77-109.49,189.75a217.92,217.92,0,0,1-109.73,29.5h-1.38c-120.26-.76-217.88-98.82-217.88-219.25S387.9,301.9,508.16,301.13Z"
                    fill="#d7d7d7" opacity="0.33" />
                <path
                    d="M508.75,300.29A217.87,217.87,0,0,1,618.47,329.8c65,37.75,109,108,109.47,188.28,0,.5,0,1,0,1.47,0,80.94-44.09,151.77-109.5,189.75a217.86,217.86,0,0,1-109.72,29.5h-1.38C387.11,738,289.49,640,289.49,519.55s97.62-218.49,217.88-219.26Z"
                    fill="#d6d6d6" opacity="0.33" />
                <path
                    d="M508,299.45A217.87,217.87,0,0,1,617.68,329c65,37.75,109,108,109.46,188.28,0,.5,0,1,0,1.47,0,80.94-44.08,151.77-109.49,189.75A217.87,217.87,0,0,1,508,738h-1.38C386.31,737.2,288.7,639.14,288.7,518.71s97.61-218.49,217.87-219.26Z"
                    fill="#d5d5d5" opacity="0.33" />
                <path
                    d="M507.16,298.61a217.93,217.93,0,0,1,109.73,29.51c65,37.75,109,108,109.46,188.28,0,.5,0,1,0,1.47,0,80.94-44.09,151.77-109.49,189.75a217.92,217.92,0,0,1-109.73,29.5h-1.38C385.52,736.36,287.9,638.3,287.9,517.87s97.62-218.49,217.88-219.26Z"
                    fill="#d4d4d4" opacity="0.33" />
                <path
                    d="M506.37,297.77a217.87,217.87,0,0,1,109.72,29.51c65,37.76,109,108,109.47,188.28,0,.5,0,1,0,1.47,0,80.94-44.09,151.77-109.5,189.75a217.86,217.86,0,0,1-109.72,29.5H505C384.73,735.52,287.11,637.46,287.11,517S384.73,298.54,505,297.77Z"
                    fill="#d3d3d3" opacity="0.34" />
                <path
                    d="M505.57,296.93A217.87,217.87,0,0,1,615.3,326.44c65,37.76,109,108,109.46,188.28,0,.5,0,1,0,1.47,0,80.94-44.08,151.77-109.49,189.75a217.87,217.87,0,0,1-109.73,29.5h-1.38c-120.26-.76-217.88-98.82-217.88-219.25S383.93,297.7,504.19,296.93Z"
                    fill="#d2d2d2" opacity="0.34" />
                <path
                    d="M504.78,296.1a217.83,217.83,0,0,1,109.73,29.51c65,37.75,109,108,109.46,188.27,0,.5,0,1,0,1.47,0,80.94-44.09,151.77-109.49,189.75a217.92,217.92,0,0,1-109.73,29.5H503.4c-120.26-.76-217.88-98.82-217.88-219.25S383.14,296.86,503.4,296.1Z"
                    fill="#d1d1d1" opacity="0.34" />
                <path
                    d="M504,295.26a217.76,217.76,0,0,1,109.72,29.51c65,37.75,109,108,109.47,188.28,0,.5,0,1,0,1.46,0,80.94-44.09,151.77-109.5,189.75A217.76,217.76,0,0,1,504,733.77h-1.38C382.35,733,284.73,635,284.73,514.51S382.35,296,502.61,295.26Z"
                    fill="#d0d0d0" opacity="0.35" />
                <path
                    d="M503.19,294.42a217.77,217.77,0,0,1,109.73,29.51c65,37.75,109,108,109.46,188.28,0,.5,0,1,0,1.47,0,80.93-44.08,151.76-109.49,189.74a217.77,217.77,0,0,1-109.73,29.51h-1.38c-120.26-.76-217.88-98.82-217.88-219.25s97.62-218.49,217.88-219.26Z"
                    fill="#cfcfcf" opacity="0.35" />
                <path
                    d="M502.4,293.58a217.93,217.93,0,0,1,109.73,29.51c65,37.75,109,108,109.46,188.28,0,.5,0,1,0,1.47,0,80.93-44.09,151.76-109.49,189.75a217.92,217.92,0,0,1-109.73,29.5H501c-120.26-.76-217.88-98.82-217.88-219.25S380.76,294.35,501,293.58Z"
                    fill="#cecece" opacity="0.35" />
                <path
                    d="M501.61,292.74a217.87,217.87,0,0,1,109.72,29.51c65,37.75,109,108,109.47,188.28,0,.5,0,1,0,1.47,0,80.93-44.09,151.76-109.5,189.75a217.86,217.86,0,0,1-109.72,29.5h-1.38C380,730.49,282.35,632.43,282.35,512S380,293.51,500.23,292.74Z"
                    fill="#cdcdcd" opacity="0.36" />
                <path
                    d="M500.81,291.9a217.87,217.87,0,0,1,109.73,29.51c65,37.75,109,108,109.46,188.28,0,.5,0,1,0,1.47C720,592.1,676,662.93,610.54,700.91a217.87,217.87,0,0,1-109.73,29.5h-1.38c-120.26-.76-217.88-98.82-217.88-219.25S379.17,292.67,499.43,291.9Z"
                    fill="#ccc" opacity="0.36" />
                <path
                    d="M500,291.06a217.93,217.93,0,0,1,109.73,29.51c65,37.75,109,108,109.46,188.28,0,.5,0,1,0,1.47,0,80.94-44.09,151.77-109.49,189.75A217.92,217.92,0,0,1,500,729.57h-1.38c-120.26-.76-217.88-98.82-217.88-219.25s97.62-218.49,217.88-219.26Z"
                    fill="#cbcbcb" opacity="0.36" />
                <path
                    d="M499.23,290.22A217.87,217.87,0,0,1,609,319.73c65,37.75,109,108,109.47,188.28,0,.5,0,1,0,1.47,0,80.94-44.09,151.77-109.5,189.75a217.86,217.86,0,0,1-109.72,29.5h-1.38C377.59,728,280,629.91,280,509.48S377.59,291,497.85,290.22Z"
                    fill="#cacaca" opacity="0.37" />
                <path
                    d="M498.43,289.38a217.87,217.87,0,0,1,109.73,29.51c65,37.75,109,108,109.46,188.28,0,.5,0,1,0,1.47,0,80.94-44.08,151.77-109.49,189.75a217.87,217.87,0,0,1-109.73,29.5h-1.38c-120.26-.76-217.88-98.82-217.88-219.25s97.62-218.49,217.88-219.26Z"
                    fill="#c9c9c9" opacity="0.37" />
                <path
                    d="M497.64,288.54a217.93,217.93,0,0,1,109.73,29.51c65,37.75,109,108,109.46,188.28,0,.5,0,1,0,1.47,0,80.94-44.09,151.77-109.49,189.75a217.92,217.92,0,0,1-109.73,29.5h-1.38C376,726.29,278.38,628.23,278.38,507.8S376,289.31,496.26,288.54Z"
                    fill="#c8c8c8" opacity="0.37" />
                <path
                    d="M496.85,287.7a217.87,217.87,0,0,1,109.72,29.51c65,37.75,109,108,109.47,188.28,0,.5,0,1,0,1.47,0,80.94-44.09,151.77-109.5,189.75a217.86,217.86,0,0,1-109.72,29.5h-1.38C375.21,725.45,277.59,627.39,277.59,507S375.21,288.47,495.47,287.7Z"
                    fill="#c7c7c7" opacity="0.38" />
                <path
                    d="M496.05,286.86a217.87,217.87,0,0,1,109.73,29.51c65,37.75,109,108,109.46,188.28,0,.5,0,1,0,1.47,0,80.94-44.08,151.77-109.49,189.75a217.87,217.87,0,0,1-109.73,29.5h-1.38c-120.26-.76-217.88-98.82-217.88-219.25s97.62-218.49,217.88-219.26Z"
                    fill="#c6c6c6" opacity="0.38" />
                <path
                    d="M495.26,286A217.93,217.93,0,0,1,605,315.53c65,37.75,109,108,109.46,188.28,0,.5,0,1,0,1.47,0,80.94-44.09,151.77-109.49,189.75a217.92,217.92,0,0,1-109.73,29.5h-1.38C373.62,723.77,276,625.71,276,505.28S373.62,286.79,493.88,286Z"
                    fill="#c5c5c5" opacity="0.38" />
                <path
                    d="M494.46,285.18a217.87,217.87,0,0,1,109.73,29.51c65,37.75,109,108,109.47,188.28,0,.5,0,1,0,1.47,0,80.94-44.09,151.77-109.5,189.75a217.87,217.87,0,0,1-109.73,29.5h-1.37c-120.26-.76-217.88-98.82-217.88-219.25S372.83,286,493.09,285.18Z"
                    fill="#c4c4c4" opacity="0.39" />
                <path
                    d="M493.67,284.34A217.87,217.87,0,0,1,603.4,313.85c65,37.75,109,108,109.46,188.28,0,.5,0,1,0,1.47,0,80.94-44.08,151.77-109.49,189.75a217.87,217.87,0,0,1-109.73,29.5h-1.38C372,722.09,274.41,624,274.41,503.6S372,285.11,492.29,284.34Z"
                    fill="#c3c3c3" opacity="0.39" />
                <path
                    d="M492.88,283.5A217.93,217.93,0,0,1,602.61,313c65,37.76,108.95,108,109.46,188.28,0,.5,0,1,0,1.47,0,80.94-44.09,151.77-109.49,189.75A217.92,217.92,0,0,1,492.88,722H491.5c-120.26-.76-217.88-98.82-217.88-219.25S371.24,284.27,491.5,283.5Z"
                    fill="#c2c2c2" opacity="0.39" />
                <path
                    d="M492.08,282.66a217.87,217.87,0,0,1,109.73,29.51c65,37.76,109,108,109.47,188.28,0,.5,0,1,0,1.47,0,80.94-44.09,151.77-109.5,189.75a217.87,217.87,0,0,1-109.73,29.5H490.7c-120.25-.76-217.87-98.82-217.87-219.25S370.45,283.43,490.7,282.66Z"
                    fill="#c1c1c1" opacity="0.39" />
                <path
                    d="M491.29,281.82A217.87,217.87,0,0,1,601,311.33c65,37.76,109,108,109.46,188.28,0,.5,0,1,0,1.47,0,80.94-44.08,151.77-109.49,189.75a217.87,217.87,0,0,1-109.73,29.5h-1.38C369.65,719.57,272,621.51,272,501.08s97.62-218.49,217.88-219.26Z"
                    fill="silver" opacity="0.4" />
                <path
                    d="M490.5,281A217.83,217.83,0,0,1,600.23,310.5c65,37.75,108.95,108,109.46,188.27,0,.5,0,1,0,1.47,0,80.94-44.09,151.77-109.49,189.75a217.92,217.92,0,0,1-109.73,29.5h-1.38c-120.26-.76-217.88-98.82-217.88-219.25S368.86,281.75,489.12,281Z"
                    fill="#bfbfbf" opacity="0.4" />
                <path
                    d="M489.7,280.15a217.77,217.77,0,0,1,109.73,29.51c65,37.75,109,108,109.47,188.28,0,.49,0,1,0,1.46,0,80.94-44.08,151.77-109.49,189.75a217.77,217.77,0,0,1-109.73,29.5h-1.38c-120.25-.76-217.87-98.82-217.87-219.25s97.62-218.49,217.87-219.25Z"
                    fill="#bebebe" opacity="0.4" />
                <path
                    d="M488.91,279.31a217.8,217.8,0,0,1,109.73,29.51c65,37.75,109,108,109.46,188.28,0,.5,0,1,0,1.46,0,80.94-44.08,151.77-109.49,189.75a217.77,217.77,0,0,1-109.73,29.51h-1.38C367.27,717.05,269.65,619,269.65,498.56s97.62-218.49,217.88-219.25Z"
                    fill="#bdbdbd" opacity="0.41" />
                <path
                    d="M488.12,278.47A217.83,217.83,0,0,1,597.85,308c65,37.75,108.95,108,109.46,188.28,0,.5,0,1,0,1.47,0,80.93-44.09,151.76-109.49,189.74A217.83,217.83,0,0,1,488.12,717h-1.38c-120.26-.76-217.88-98.82-217.88-219.25s97.62-218.49,217.88-219.26Z"
                    fill="#bcbcbc" opacity="0.41" />
                <path
                    d="M487.32,277.63a217.77,217.77,0,0,1,109.73,29.51c65,37.75,109,108,109.46,188.28,0,.5,0,1,0,1.47,0,80.93-44.08,151.76-109.49,189.74a217.77,217.77,0,0,1-109.73,29.51h-1.38c-120.25-.76-217.87-98.82-217.87-219.25S365.69,278.4,485.94,277.63Z"
                    fill="#bbb" opacity="0.41" />
                <path
                    d="M486.53,276.79A217.9,217.9,0,0,1,596.26,306.3c65,37.75,109,108,109.46,188.28,0,.5,0,1,0,1.47,0,80.93-44.08,151.76-109.49,189.75a217.87,217.87,0,0,1-109.73,29.5h-1.38c-120.26-.76-217.88-98.82-217.88-219.25s97.62-218.49,217.88-219.26Z"
                    fill="#bababa" opacity="0.42" />
                <path
                    d="M485.74,276a217.93,217.93,0,0,1,109.73,29.51c65,37.75,108.95,108,109.46,188.28,0,.5,0,1,0,1.47C705,576.14,660.87,647,595.47,685a217.92,217.92,0,0,1-109.73,29.5h-1.38c-120.26-.76-217.88-98.82-217.88-219.25S364.1,276.72,484.36,276Z"
                    fill="#b9b9b9" opacity="0.42" />
                <path
                    d="M484.94,275.11a217.87,217.87,0,0,1,109.73,29.51c65,37.75,109,108,109.46,188.28,0,.5,0,1,0,1.47,0,80.94-44.08,151.77-109.49,189.75a217.87,217.87,0,0,1-109.73,29.5h-1.38c-120.26-.76-217.87-98.82-217.87-219.25S363.3,275.88,483.56,275.11Z"
                    fill="#b8b8b8" opacity="0.42" />
                <path
                    d="M484.15,274.27a217.9,217.9,0,0,1,109.73,29.51c65,37.75,109,108,109.46,188.28,0,.5,0,1,0,1.47,0,80.94-44.08,151.77-109.49,189.75a217.89,217.89,0,0,1-109.73,29.5h-1.38C362.51,712,264.89,614,264.89,493.53S362.51,275,482.77,274.27Z"
                    fill="#b7b7b7" opacity="0.43" />
                <path
                    d="M483.36,273.43a217.93,217.93,0,0,1,109.73,29.51c65,37.75,108.95,108,109.46,188.28,0,.5,0,1,0,1.47,0,80.94-44.09,151.77-109.49,189.75a217.92,217.92,0,0,1-109.73,29.5H482c-120.26-.76-217.88-98.82-217.88-219.25S361.72,274.2,482,273.43Z"
                    fill="#b6b6b6" opacity="0.43" />
                <path
                    d="M482.56,272.59A217.87,217.87,0,0,1,592.29,302.1c65,37.75,109,108,109.46,188.28,0,.5,0,1,0,1.47,0,80.94-44.08,151.77-109.49,189.75a217.87,217.87,0,0,1-109.73,29.5h-1.38c-120.26-.76-217.88-98.82-217.88-219.25s97.62-218.49,217.88-219.26Z"
                    fill="#b5b5b5" opacity="0.43" />
                <path
                    d="M481.77,271.75A217.9,217.9,0,0,1,591.5,301.26c65,37.75,109,108,109.46,188.28,0,.5,0,1,0,1.47C701,572,656.91,642.78,591.5,680.76a217.89,217.89,0,0,1-109.73,29.5h-1.38C360.13,709.5,262.51,611.44,262.51,491s97.62-218.49,217.88-219.26Z"
                    fill="#b4b4b4" opacity="0.44" />
                <path
                    d="M481,270.91a217.93,217.93,0,0,1,109.73,29.51c65,37.75,108.95,108,109.46,188.28,0,.5,0,1,0,1.47,0,80.94-44.09,151.77-109.49,189.75A217.92,217.92,0,0,1,481,709.42H479.6c-120.26-.76-217.88-98.82-217.88-219.25S359.34,271.68,479.6,270.91Z"
                    fill="#b3b3b3" opacity="0.44" />
                <path
                    d="M480.18,270.07a217.87,217.87,0,0,1,109.73,29.51c65,37.75,109,108,109.46,188.28,0,.5,0,1,0,1.47,0,80.94-44.08,151.77-109.49,189.75a217.87,217.87,0,0,1-109.73,29.5H478.8c-120.26-.76-217.88-98.82-217.88-219.25S358.54,270.84,478.8,270.07Z"
                    fill="#b2b2b2" opacity="0.44" />
                <path
                    d="M479.39,269.23a217.9,217.9,0,0,1,109.73,29.51c65,37.75,109,108,109.46,188.28,0,.5,0,1,0,1.47,0,80.94-44.08,151.77-109.49,189.75a217.89,217.89,0,0,1-109.73,29.5H478C357.75,707,260.13,608.92,260.13,488.49S357.75,270,478,269.23Z"
                    fill="#b1b1b1" opacity="0.44" />
                <path
                    d="M478.6,268.39A217.93,217.93,0,0,1,588.33,297.9c65,37.76,108.95,108,109.46,188.28,0,.5,0,1,0,1.47,0,80.94-44.09,151.77-109.49,189.75A217.92,217.92,0,0,1,478.6,706.9h-1.38C357,706.14,259.34,608.08,259.34,487.65S357,269.16,477.22,268.39Z"
                    fill="#b0b0b0" opacity="0.45" />
                <path
                    d="M477.8,267.55a217.87,217.87,0,0,1,109.73,29.51c65,37.76,109,108,109.46,188.28,0,.5,0,1,0,1.47,0,80.94-44.08,151.77-109.49,189.75a217.87,217.87,0,0,1-109.73,29.5h-1.38c-120.26-.76-217.88-98.82-217.88-219.25s97.62-218.49,217.88-219.26Z"
                    fill="#afafaf" opacity="0.45" />
                <path
                    d="M477,266.71a217.9,217.9,0,0,1,109.73,29.51c65,37.76,109,108,109.46,188.28,0,.5,0,1,0,1.47,0,80.94-44.09,151.77-109.49,189.75A217.89,217.89,0,0,1,477,705.22h-1.38C355.37,704.46,257.75,606.4,257.75,486s97.62-218.49,217.88-219.26Z"
                    fill="#aeaeae" opacity="0.45" />
                <path
                    d="M476.22,265.88A217.83,217.83,0,0,1,586,295.39c65,37.75,108.95,108,109.46,188.27,0,.5,0,1,0,1.47,0,80.94-44.09,151.77-109.49,189.75a217.92,217.92,0,0,1-109.73,29.5h-1.38C354.58,703.62,257,605.56,257,485.13s97.62-218.49,217.88-219.25Z"
                    fill="#adadad" opacity="0.46" />
                <path
                    d="M475.42,265a217.77,217.77,0,0,1,109.73,29.51c65,37.75,109,108,109.46,188.27,0,.5,0,1,0,1.47,0,80.94-44.08,151.77-109.49,189.75a217.77,217.77,0,0,1-109.73,29.5H474c-120.26-.76-217.88-98.82-217.88-219.25S353.78,265.8,474,265Z"
                    fill="#acacac" opacity="0.46" />
                <path
                    d="M474.63,264.2a217.8,217.8,0,0,1,109.73,29.51c65,37.75,108.95,108,109.46,188.28,0,.49,0,1,0,1.46,0,80.94-44.09,151.77-109.49,189.75a217.79,217.79,0,0,1-109.73,29.5h-1.38C353,701.94,255.37,603.88,255.37,483.45S353,265,473.25,264.2Z"
                    fill="#ababab" opacity="0.46" />
                <path
                    d="M473.83,263.36a217.84,217.84,0,0,1,109.74,29.51c65,37.75,108.95,108,109.46,188.28,0,.5,0,1,0,1.46,0,80.94-44.09,151.77-109.5,189.75a217.77,217.77,0,0,1-109.73,29.51h-1.37c-120.26-.77-217.88-98.82-217.88-219.26S352.2,264.12,472.46,263.36Z"
                    fill="#aaa" opacity="0.47" />
                <path
                    d="M473,262.52A217.77,217.77,0,0,1,582.77,292c65,37.75,109,108,109.46,188.28,0,.5,0,1,0,1.47,0,80.93-44.08,151.76-109.49,189.74A217.77,217.77,0,0,1,473,701h-1.38c-120.26-.76-217.88-98.82-217.88-219.25S351.4,263.29,471.66,262.52Z"
                    fill="#a9a9a9" opacity="0.47" />
                <path
                    d="M472.25,261.68A217.8,217.8,0,0,1,582,291.19c65,37.75,108.95,108,109.46,188.28,0,.5,0,1,0,1.47,0,80.93-44.09,151.76-109.49,189.74a217.8,217.8,0,0,1-109.73,29.51h-1.38C350.61,699.43,253,601.37,253,480.94s97.62-218.49,217.88-219.26Z"
                    fill="#a8a8a8" opacity="0.47" />
                <path
                    d="M471.45,260.84a217.94,217.94,0,0,1,109.74,29.51c65,37.75,108.95,108,109.46,188.28,0,.5,0,1,0,1.47,0,80.93-44.09,151.76-109.5,189.74a217.77,217.77,0,0,1-109.73,29.51h-1.38C349.82,698.59,252.2,600.53,252.2,480.1s97.62-218.49,217.87-219.26Z"
                    fill="#a7a7a7" opacity="0.48" />
                <path
                    d="M470.66,260a217.87,217.87,0,0,1,109.73,29.51c65,37.75,109,108,109.46,188.28,0,.5,0,1,0,1.47C689.88,560.19,645.8,631,580.39,669a217.87,217.87,0,0,1-109.73,29.5h-1.38C349,697.75,251.4,599.69,251.4,479.26S349,260.77,469.28,260Z"
                    fill="#a6a6a6" opacity="0.48" />
                <path
                    d="M469.87,259.16A217.9,217.9,0,0,1,579.6,288.67c65,37.75,108.95,108,109.46,188.28,0,.5,0,1,0,1.47,0,80.93-44.09,151.76-109.49,189.75a217.89,217.89,0,0,1-109.73,29.5h-1.38c-120.26-.76-217.88-98.82-217.88-219.25s97.62-218.49,217.88-219.26Z"
                    fill="#a5a5a5" opacity="0.48" />
                <path
                    d="M469.07,258.32a217.94,217.94,0,0,1,109.74,29.51c65,37.75,109,108,109.46,188.28,0,.5,0,1,0,1.47,0,80.94-44.08,151.76-109.49,189.75a217.87,217.87,0,0,1-109.73,29.5h-1.38C347.44,696.07,249.82,598,249.82,477.58s97.62-218.49,217.87-219.26Z"
                    fill="#a4a4a4" opacity="0.49" />
                <path
                    d="M468.28,257.48A217.87,217.87,0,0,1,578,287c65,37.75,109,108,109.46,188.28,0,.5,0,1,0,1.47,0,80.94-44.08,151.77-109.49,189.75A217.87,217.87,0,0,1,468.28,696H466.9C346.64,695.23,249,597.17,249,476.74S346.64,258.25,466.9,257.48Z"
                    fill="#a3a3a3" opacity="0.49" />
                <path
                    d="M467.49,256.64a217.9,217.9,0,0,1,109.73,29.51c65,37.75,108.95,108,109.46,188.28,0,.5,0,1,0,1.47,0,80.94-44.09,151.77-109.49,189.75a217.89,217.89,0,0,1-109.73,29.5h-1.38c-120.26-.76-217.88-98.82-217.88-219.25s97.62-218.49,217.88-219.26Z"
                    fill="#a2a2a2" opacity="0.49" />
                <path
                    d="M466.69,255.8a217.87,217.87,0,0,1,109.73,29.51c65,37.75,109,108,109.46,188.28,0,.5,0,1,0,1.47,0,80.94-44.08,151.77-109.49,189.75a217.87,217.87,0,0,1-109.73,29.5h-1.38c-120.25-.76-217.87-98.82-217.87-219.25S345.06,256.57,465.31,255.8Z"
                    fill="#a1a1a1" opacity="0.49" />
                <path
                    d="M465.9,255a217.87,217.87,0,0,1,109.73,29.51c65,37.75,109,108,109.46,188.28,0,.5,0,1,0,1.47C685.12,555.16,641,626,575.63,664a217.87,217.87,0,0,1-109.73,29.5h-1.38c-120.26-.76-217.88-98.82-217.88-219.25S344.26,255.73,464.52,255Z"
                    fill="#a0a0a0" opacity="0.5" />
                <path
                    d="M465.11,254.12a217.9,217.9,0,0,1,109.73,29.51c65,37.76,108.95,108,109.46,188.28,0,.5,0,1,0,1.47,0,80.94-44.09,151.77-109.49,189.75a217.89,217.89,0,0,1-109.73,29.5h-1.38c-120.26-.76-217.88-98.82-217.88-219.25s97.62-218.49,217.88-219.26Z"
                    fill="#9f9f9f" opacity="0.5" />
                <path
                    d="M464.31,253.28A217.87,217.87,0,0,1,574,282.79c65,37.76,109,108,109.46,188.28,0,.5,0,1,0,1.47,0,80.94-44.08,151.77-109.49,189.75a217.87,217.87,0,0,1-109.73,29.5h-1.38C342.68,691,245.06,593,245.06,472.54s97.62-218.49,217.87-219.26Z"
                    fill="#9e9e9e" opacity="0.5" />
                <path
                    d="M463.52,252.44A217.87,217.87,0,0,1,573.25,282c65,37.76,109,108,109.46,188.28,0,.5,0,1,0,1.47,0,80.94-44.08,151.77-109.49,189.75A217.87,217.87,0,0,1,463.52,691h-1.38c-120.26-.76-217.88-98.82-217.88-219.25s97.62-218.49,217.88-219.26Z"
                    fill="#9d9d9d" opacity="0.51" />
                <path
                    d="M462.73,251.6a217.9,217.9,0,0,1,109.73,29.51c65,37.76,108.95,108,109.46,188.28,0,.5,0,1,0,1.47,0,80.94-44.09,151.77-109.49,189.75a217.89,217.89,0,0,1-109.73,29.5h-1.38c-120.26-.76-217.88-98.82-217.88-219.25S341.09,252.37,461.35,251.6Z"
                    fill="#9c9c9c" opacity="0.51" />
                <path
                    d="M461.93,250.77a217.77,217.77,0,0,1,109.73,29.51c65,37.75,109,108,109.46,188.27,0,.5,0,1,0,1.47,0,80.94-44.08,151.77-109.49,189.75a217.87,217.87,0,0,1-109.73,29.5h-1.38C340.29,688.51,242.68,590.45,242.68,470s97.61-218.49,217.87-219.25Z"
                    fill="#9b9b9b" opacity="0.51" />
                <path
                    d="M461.14,249.93a217.77,217.77,0,0,1,109.73,29.51c65,37.75,109,108,109.46,188.27,0,.5,0,1,0,1.47,0,80.94-44.08,151.77-109.49,189.75a217.87,217.87,0,0,1-109.73,29.5h-1.38c-120.26-.76-217.88-98.82-217.88-219.25S339.5,250.69,459.76,249.93Z"
                    fill="#9a9a9a" opacity="0.52" />
                <path
                    d="M460.35,249.09A217.8,217.8,0,0,1,570.08,278.6c65,37.75,108.95,108,109.46,188.28,0,.49,0,1,0,1.46,0,80.94-44.09,151.77-109.49,189.75a217.79,217.79,0,0,1-109.73,29.5H459c-120.26-.76-217.88-98.82-217.88-219.25S338.71,249.85,459,249.09Z"
                    fill="#999" opacity="0.52" />
                <path
                    d="M459.55,248.25a217.77,217.77,0,0,1,109.73,29.51c65,37.75,109,108,109.46,188.28,0,.5,0,1,0,1.46,0,80.94-44.08,151.77-109.49,189.75a217.77,217.77,0,0,1-109.73,29.51h-1.38C337.91,686,240.3,587.93,240.3,467.5S337.91,249,458.17,248.25Z"
                    fill="#989898" opacity="0.52" />
                <path
                    d="M458.76,247.41a217.77,217.77,0,0,1,109.73,29.51c65,37.75,109,108,109.46,188.28,0,.5,0,1,0,1.46,0,80.94-44.08,151.77-109.49,189.75a217.77,217.77,0,0,1-109.73,29.51h-1.38C337.12,685.15,239.5,587.1,239.5,466.66s97.62-218.49,217.88-219.25Z"
                    fill="#979797" opacity="0.53" />
                <path
                    d="M458,246.57A217.8,217.8,0,0,1,567.7,276.08c65,37.75,108.95,108,109.46,188.28,0,.5,0,1,0,1.47,0,80.93-44.09,151.76-109.49,189.74A217.8,217.8,0,0,1,458,685.08h-1.38c-120.26-.76-217.88-98.82-217.88-219.25s97.62-218.49,217.88-219.26Z"
                    fill="#969696" opacity="0.53" />
                <path
                    d="M457.17,245.73A217.77,217.77,0,0,1,566.9,275.24c65,37.75,109,108,109.46,188.28,0,.5,0,1,0,1.47,0,80.93-44.08,151.76-109.49,189.74a217.77,217.77,0,0,1-109.73,29.51h-1.38C335.53,683.48,237.91,585.42,237.91,465S335.53,246.5,455.79,245.73Z"
                    fill="#959595" opacity="0.53" />
                <path
                    d="M456.38,244.89A217.77,217.77,0,0,1,566.11,274.4c65,37.75,108.95,108,109.46,188.28,0,.5,0,1,0,1.47,0,80.93-44.08,151.76-109.49,189.74A217.77,217.77,0,0,1,456.38,683.4H455c-120.26-.76-217.88-98.82-217.88-219.25S334.74,245.66,455,244.89Z"
                    fill="#949494" opacity="0.54" />
                <path
                    d="M455.58,244.05a217.91,217.91,0,0,1,109.74,29.51c65,37.75,108.95,108,109.46,188.28,0,.5,0,1,0,1.47,0,80.93-44.09,151.76-109.49,189.75a217.9,217.9,0,0,1-109.74,29.5h-1.37C334,681.8,236.33,583.74,236.33,463.31S334,244.82,454.21,244.05Z"
                    fill="#939393" opacity="0.54" />
                <path
                    d="M454.79,243.21a217.87,217.87,0,0,1,109.73,29.51c65,37.75,109,108,109.46,188.28,0,.5,0,1,0,1.47,0,80.93-44.08,151.76-109.49,189.75a217.87,217.87,0,0,1-109.73,29.5h-1.38C333.15,681,235.53,582.9,235.53,462.47S333.15,244,453.41,243.21Z"
                    fill="#929292" opacity="0.54" />
                <path
                    d="M454,242.37a217.9,217.9,0,0,1,109.73,29.51c65,37.75,108.95,108,109.46,188.28,0,.5,0,1,0,1.47,0,80.93-44.08,151.76-109.49,189.75A217.87,217.87,0,0,1,454,680.88h-1.38c-120.26-.76-217.88-98.82-217.88-219.25s97.62-218.49,217.88-219.26Z"
                    fill="#919191" opacity="0.55" />
                <path
                    d="M453.2,241.53A217.91,217.91,0,0,1,562.94,271c65,37.75,108.95,108,109.46,188.28,0,.5,0,1,0,1.47,0,80.94-44.09,151.76-109.49,189.75A217.9,217.9,0,0,1,453.2,680h-1.37C331.57,679.28,234,581.22,234,460.79S331.57,242.3,451.83,241.53Z"
                    fill="#909090" opacity="0.55" />
                <path
                    d="M452.41,240.69A217.87,217.87,0,0,1,562.14,270.2c65,37.75,109,108,109.46,188.28,0,.5,0,1,0,1.47,0,80.94-44.08,151.77-109.49,189.75a217.87,217.87,0,0,1-109.73,29.5H451C330.77,678.44,233.15,580.38,233.15,460S330.77,241.46,451,240.69Z"
                    fill="#8f8f8f" opacity="0.55" />
                <path
                    d="M451.62,239.85a217.9,217.9,0,0,1,109.73,29.51c65,37.76,108.95,108,109.46,188.28,0,.5,0,1,0,1.47,0,80.94-44.08,151.77-109.49,189.75a217.87,217.87,0,0,1-109.73,29.5h-1.38C330,677.6,232.36,579.54,232.36,459.11S330,240.62,450.24,239.85Z"
                    fill="#8e8e8e" opacity="0.55" />
                <path
                    d="M450.82,239a217.94,217.94,0,0,1,109.74,29.51c65,37.76,109,108,109.46,188.28,0,.5,0,1,0,1.47C670.05,539.21,626,610,560.56,648a217.93,217.93,0,0,1-109.74,29.5h-1.38c-120.25-.76-217.87-98.82-217.87-219.25S329.19,239.78,449.44,239Z"
                    fill="#8d8d8d" opacity="0.56" />
                <path
                    d="M450,238.17a217.87,217.87,0,0,1,109.73,29.51c65,37.76,109,108,109.46,188.28,0,.5,0,1,0,1.47,0,80.94-44.08,151.77-109.49,189.75A217.87,217.87,0,0,1,450,676.68h-1.38c-120.26-.76-217.88-98.82-217.88-219.25s97.62-218.49,217.88-219.26Z"
                    fill="#8c8c8c" opacity="0.56" />
                <path
                    d="M449.24,237.33A217.9,217.9,0,0,1,559,266.84c65,37.76,108.95,108,109.46,188.28,0,.5,0,1,0,1.47,0,80.94-44.08,151.77-109.49,189.75a217.87,217.87,0,0,1-109.73,29.5h-1.38C327.6,675.08,230,577,230,456.59S327.6,238.1,447.86,237.33Z"
                    fill="#8b8b8b" opacity="0.56" />
                <path
                    d="M448.44,236.49A217.94,217.94,0,0,1,558.18,266c65,37.76,109,108,109.46,188.28,0,.5,0,1,0,1.47,0,80.94-44.08,151.77-109.48,189.75A217.93,217.93,0,0,1,448.44,675h-1.38c-120.25-.76-217.87-98.82-217.87-219.25s97.62-218.49,217.87-219.26Z"
                    fill="#8a8a8a" opacity="0.57" />
                <path
                    d="M447.65,235.66a217.77,217.77,0,0,1,109.73,29.51c65,37.75,109,108,109.46,188.27,0,.5,0,1,0,1.47,0,80.94-44.08,151.77-109.49,189.75a217.87,217.87,0,0,1-109.73,29.5h-1.38C326,673.4,228.39,575.34,228.39,454.91S326,236.42,446.27,235.66Z"
                    fill="#898989" opacity="0.57" />
                <path
                    d="M446.86,234.82a217.8,217.8,0,0,1,109.73,29.51c65,37.75,108.95,108,109.46,188.27,0,.5,0,1,0,1.47,0,80.94-44.08,151.77-109.49,189.75a217.89,217.89,0,0,1-109.73,29.5h-1.38C325.22,672.56,227.6,574.5,227.6,454.07s97.62-218.49,217.88-219.25Z"
                    fill="#888" opacity="0.57" />
                <path
                    d="M446.06,234A217.84,217.84,0,0,1,555.8,263.49c65,37.75,109,108,109.45,188.27,0,.5,0,1,0,1.47C665.28,534.17,621.2,605,555.8,643a217.83,217.83,0,0,1-109.74,29.5h-1.38c-120.25-.76-217.87-98.82-217.87-219.25S324.43,234.74,444.68,234Z"
                    fill="#878787" opacity="0.58" />
                <path
                    d="M445.27,233.14A217.77,217.77,0,0,1,555,262.65c65,37.75,109,108,109.46,188.28,0,.49,0,1,0,1.46,0,80.94-44.08,151.77-109.49,189.75a217.77,217.77,0,0,1-109.73,29.5h-1.38C323.63,670.88,226,572.82,226,452.39S323.63,233.9,443.89,233.14Z"
                    fill="#868686" opacity="0.58" />
                <path
                    d="M444.48,232.3a217.8,217.8,0,0,1,109.73,29.51c65,37.75,108.95,108,109.46,188.28,0,.5,0,1,0,1.46,0,80.94-44.08,151.77-109.49,189.75a217.8,217.8,0,0,1-109.73,29.51H443.1C322.84,670,225.22,572,225.22,451.55S322.84,233.06,443.1,232.3Z"
                    fill="#858585" opacity="0.58" />
                <path
                    d="M443.68,231.46A217.84,217.84,0,0,1,553.42,261c65,37.75,108.94,108,109.45,188.28,0,.5,0,1,0,1.46,0,80.94-44.08,151.77-109.48,189.75A217.84,217.84,0,0,1,443.68,670H442.3c-120.25-.77-217.87-98.82-217.87-219.26S322.05,232.22,442.3,231.46Z"
                    fill="#848484" opacity="0.59" />
                <path
                    d="M442.89,230.62a217.77,217.77,0,0,1,109.73,29.51c65,37.75,109,108,109.46,188.28,0,.5,0,1,0,1.47,0,80.93-44.08,151.76-109.49,189.74a217.77,217.77,0,0,1-109.73,29.51h-1.38c-120.26-.76-217.88-98.82-217.88-219.25s97.62-218.49,217.88-219.26Z"
                    fill="#838383" opacity="0.59" />
                <path
                    d="M442.1,229.78a217.8,217.8,0,0,1,109.73,29.51c65,37.75,108.95,108,109.46,188.28,0,.5,0,1,0,1.47,0,80.93-44.08,151.76-109.49,189.74A217.8,217.8,0,0,1,442.1,668.29h-1.38C320.46,667.53,222.84,569.47,222.84,449s97.62-218.49,217.88-219.26Z"
                    fill="#828282" opacity="0.59" />
                <path
                    d="M441.3,228.94A217.84,217.84,0,0,1,551,258.45C616,296.2,660,366.4,660.49,446.73c0,.5,0,1,0,1.47,0,80.93-44.08,151.76-109.48,189.74A217.84,217.84,0,0,1,441.3,667.45h-1.38c-120.26-.76-217.87-98.82-217.87-219.25s97.61-218.49,217.87-219.26Z"
                    fill="#818181" opacity="0.6" />
                <path
                    d="M440.51,228.1a217.87,217.87,0,0,1,109.73,29.51c65,37.75,109,108,109.46,188.28,0,.5,0,1,0,1.47,0,80.93-44.08,151.76-109.49,189.74a217.77,217.77,0,0,1-109.73,29.51h-1.38c-120.26-.76-217.88-98.82-217.88-219.25S318.87,228.87,439.13,228.1Z"
                    fill="gray" opacity="0.6" />
                <path
                    d="M439.72,227.26a217.9,217.9,0,0,1,109.73,29.51c65,37.75,108.95,108,109.46,188.28,0,.5,0,1,0,1.47,0,80.93-44.08,151.76-109.49,189.75a217.89,217.89,0,0,1-109.73,29.5h-1.38C318.08,665,220.46,567,220.46,446.52S318.08,228,438.34,227.26Z"
                    fill="#7f7f7f" opacity="0.6" />
                <path
                    d="M438.92,226.42a217.94,217.94,0,0,1,109.74,29.51c65,37.75,108.94,108,109.45,188.28,0,.5,0,1,0,1.47,0,80.93-44.08,151.76-109.48,189.75a217.93,217.93,0,0,1-109.74,29.5h-1.38c-120.26-.76-217.87-98.82-217.87-219.25s97.61-218.49,217.87-219.26Z"
                    fill="#7e7e7e" opacity="0.6" />
                <path
                    d="M438.13,225.58a217.87,217.87,0,0,1,109.73,29.51c65,37.75,108.95,108,109.46,188.28,0,.5,0,1,0,1.47,0,80.94-44.08,151.76-109.49,189.75a217.87,217.87,0,0,1-109.73,29.5h-1.38c-120.26-.76-217.88-98.82-217.88-219.25s97.62-218.49,217.88-219.26Z"
                    fill="#7d7d7d" opacity="0.61" />
                <path
                    d="M437.33,224.74a217.91,217.91,0,0,1,109.74,29.51c65,37.76,108.95,108,109.46,188.28,0,.5,0,1,0,1.47,0,80.94-44.09,151.76-109.49,189.75a217.9,217.9,0,0,1-109.74,29.5H436C315.7,662.49,218.08,564.43,218.08,444S315.7,225.51,436,224.74Z"
                    fill="#7c7c7c" opacity="0.61" />
                <path
                    d="M436.54,223.9a217.94,217.94,0,0,1,109.74,29.51c65,37.76,108.94,108,109.45,188.28,0,.5,0,1,0,1.47,0,80.94-44.08,151.77-109.48,189.75a217.93,217.93,0,0,1-109.74,29.5h-1.38c-120.26-.76-217.87-98.82-217.87-219.25S314.9,224.67,435.16,223.9Z"
                    fill="#7b7b7b" opacity="0.61" />
                <path
                    d="M435.75,223.06a217.87,217.87,0,0,1,109.73,29.51c65,37.76,108.95,108,109.46,188.28,0,.5,0,1,0,1.47,0,80.94-44.08,151.77-109.49,189.75a217.87,217.87,0,0,1-109.73,29.5h-1.38c-120.26-.76-217.88-98.82-217.88-219.25s97.62-218.49,217.88-219.26Z"
                    fill="#7a7a7a" opacity="0.62" />
                <path
                    d="M435,222.22a217.91,217.91,0,0,1,109.74,29.51c65,37.76,108.95,108,109.46,188.28,0,.5,0,1,0,1.47,0,80.94-44.09,151.77-109.49,189.75A217.9,217.9,0,0,1,435,660.73h-1.37C313.32,660,215.7,561.91,215.7,441.48S313.32,223,433.58,222.22Z"
                    fill="#797979" opacity="0.62" />
                <path
                    d="M434.16,221.38A217.94,217.94,0,0,1,543.9,250.89c65,37.76,108.94,108,109.45,188.28,0,.5,0,1,0,1.47,0,80.94-44.08,151.77-109.48,189.75a217.93,217.93,0,0,1-109.74,29.5h-1.38c-120.26-.76-217.88-98.82-217.88-219.25s97.62-218.49,217.88-219.26Z"
                    fill="#787878" opacity="0.62" />
                <path
                    d="M433.37,220.55A217.77,217.77,0,0,1,543.1,250.06c65,37.75,108.95,108,109.46,188.27,0,.5,0,1,0,1.47,0,80.94-44.08,151.77-109.49,189.75a217.87,217.87,0,0,1-109.73,29.5H432c-120.26-.76-217.88-98.82-217.88-219.25S311.73,221.31,432,220.55Z"
                    fill="#777" opacity="0.63" />
                <path
                    d="M432.57,219.71a217.81,217.81,0,0,1,109.74,29.51c65,37.75,109,108,109.46,188.27,0,.5,0,1,0,1.47,0,80.94-44.09,151.77-109.49,189.75a217.9,217.9,0,0,1-109.74,29.5h-1.38C310.94,657.45,213.32,559.39,213.32,439s97.62-218.49,217.87-219.25Z"
                    fill="#767676" opacity="0.63" />
                <path
                    d="M431.78,218.87a217.84,217.84,0,0,1,109.74,29.51c65,37.75,108.94,108,109.45,188.27,0,.5,0,1,0,1.47,0,80.94-44.08,151.77-109.48,189.75a217.93,217.93,0,0,1-109.74,29.5H430.4c-120.26-.76-217.88-98.82-217.88-219.25S310.14,219.63,430.4,218.87Z"
                    fill="#757575" opacity="0.63" />
                <path
                    d="M431,218a217.77,217.77,0,0,1,109.73,29.51c65,37.75,108.95,108,109.46,188.28,0,.49,0,1,0,1.46,0,80.94-44.08,151.77-109.49,189.75A217.77,217.77,0,0,1,431,656.53h-1.38c-120.26-.76-217.88-98.82-217.88-219.25S309.35,218.79,429.61,218Z"
                    fill="#747474" opacity="0.64" />
                <path
                    d="M430.19,217.19A217.81,217.81,0,0,1,539.93,246.7c65,37.75,109,108,109.46,188.28,0,.49,0,1,0,1.46,0,80.94-44.09,151.77-109.49,189.75A217.81,217.81,0,0,1,430.19,655.7h-1.38c-120.25-.77-217.87-98.83-217.87-219.26S308.56,218,428.81,217.19Z"
                    fill="#737373" opacity="0.64" />
                <path
                    d="M429.4,216.35a217.84,217.84,0,0,1,109.74,29.51c65,37.75,108.94,108,109.45,188.28,0,.5,0,1,0,1.46,0,80.94-44.08,151.77-109.48,189.75A217.84,217.84,0,0,1,429.4,654.86H428C307.76,654.09,210.14,556,210.14,435.6S307.76,217.11,428,216.35Z"
                    fill="#727272" opacity="0.64" />
                <path
                    d="M428.61,215.51A217.77,217.77,0,0,1,538.34,245c65,37.75,108.95,108,109.46,188.28,0,.5,0,1,0,1.46,0,80.94-44.08,151.77-109.49,189.75A217.77,217.77,0,0,1,428.61,654h-1.38C307,653.25,209.35,555.2,209.35,434.76S307,216.27,427.23,215.51Z"
                    fill="#717171" opacity="0.65" />
                <path
                    d="M427.81,214.67a217.81,217.81,0,0,1,109.74,29.51c65,37.75,109,108,109.46,188.28,0,.5,0,1,0,1.47,0,80.93-44.08,151.76-109.48,189.74a217.81,217.81,0,0,1-109.74,29.51h-1.38c-120.25-.76-217.87-98.82-217.87-219.25s97.62-218.49,217.87-219.26Z"
                    fill="#707070" opacity="0.65" />
                <path
                    d="M427,213.83a217.84,217.84,0,0,1,109.74,29.51c65,37.75,108.94,108,109.45,188.28,0,.5,0,1,0,1.47,0,80.93-44.08,151.76-109.48,189.74A217.84,217.84,0,0,1,427,652.34h-1.38c-120.26-.76-217.88-98.82-217.88-219.25S305.38,214.6,425.64,213.83Z"
                    fill="#6f6f6f" opacity="0.65" />
                <path
                    d="M426.23,213A217.77,217.77,0,0,1,536,242.5c65,37.75,108.95,108,109.46,188.28,0,.5,0,1,0,1.47C645.45,513.18,601.37,584,536,622A217.77,217.77,0,0,1,426.23,651.5h-1.38C304.59,650.74,207,552.68,207,432.25S304.59,213.76,424.85,213Z"
                    fill="#6e6e6e" opacity="0.65" />
                <path
                    d="M425.43,212.15a217.81,217.81,0,0,1,109.74,29.51c65,37.75,109,108,109.45,188.28,0,.5,0,1,0,1.47,0,80.93-44.08,151.76-109.48,189.74a217.81,217.81,0,0,1-109.74,29.51h-1.38c-120.25-.76-217.87-98.82-217.87-219.25S303.8,212.92,424.05,212.15Z"
                    fill="#6d6d6d" opacity="0.66" />
                <path
                    d="M424.64,211.31a217.94,217.94,0,0,1,109.74,29.51c65,37.75,108.94,108,109.45,188.28,0,.5,0,1,0,1.47,0,80.93-44.08,151.76-109.48,189.75a217.93,217.93,0,0,1-109.74,29.5h-1.38C303,649.06,205.38,551,205.38,430.57S303,212.08,423.26,211.31Z"
                    fill="#6c6c6c" opacity="0.66" />
                <path
                    d="M423.85,210.47A217.87,217.87,0,0,1,533.58,240c65,37.76,108.95,108,109.46,188.28,0,.5,0,1,0,1.47,0,80.93-44.08,151.76-109.49,189.75A217.87,217.87,0,0,1,423.85,649h-1.38c-120.26-.76-217.88-98.82-217.88-219.25s97.62-218.49,217.88-219.26Z"
                    fill="#6b6b6b" opacity="0.66" />
                <path
                    d="M423.05,209.63a217.91,217.91,0,0,1,109.74,29.51c65,37.76,108.94,108,109.45,188.28,0,.5,0,1,0,1.47,0,80.93-44.08,151.76-109.48,189.75a217.9,217.9,0,0,1-109.74,29.5h-1.38c-120.25-.76-217.87-98.82-217.87-219.25S301.42,210.4,421.67,209.63Z"
                    fill="#6a6a6a" opacity="0.67" />
                <path
                    d="M422.26,208.79A217.94,217.94,0,0,1,532,238.3c65,37.76,108.94,108,109.45,188.28,0,.5,0,1,0,1.47C641.48,509,597.4,579.81,532,617.8a217.93,217.93,0,0,1-109.74,29.5h-1.38C300.62,646.54,203,548.48,203,428.05s97.62-218.49,217.88-219.26Z"
                    fill="#696969" opacity="0.67" />
                <path
                    d="M421.47,208A217.87,217.87,0,0,1,531.2,237.46c65,37.76,108.95,108,109.46,188.28,0,.5,0,1,0,1.47C640.69,508.15,596.61,579,531.2,617a217.87,217.87,0,0,1-109.73,29.5h-1.38c-120.26-.76-217.88-98.82-217.88-219.25S299.83,208.72,420.09,208Z"
                    fill="#686868" opacity="0.67" />
                <path
                    d="M420.67,207.11a217.91,217.91,0,0,1,109.74,29.51c65,37.76,108.94,108,109.45,188.28,0,.5,0,1,0,1.47,0,80.94-44.08,151.77-109.48,189.75a217.9,217.9,0,0,1-109.74,29.5h-1.38C299,644.86,201.42,546.8,201.42,426.37S299,207.88,419.29,207.11Z"
                    fill="#676767" opacity="0.68" />
                <path
                    d="M419.88,206.27a217.94,217.94,0,0,1,109.74,29.51c65,37.76,108.94,108,109.45,188.28,0,.5,0,1,0,1.47,0,80.94-44.08,151.77-109.48,189.75a217.93,217.93,0,0,1-109.74,29.5H418.5C298.24,644,200.62,546,200.62,425.53S298.24,207,418.5,206.27Z"
                    fill="#666" opacity="0.68" />
                <path
                    d="M419.08,205.44A217.81,217.81,0,0,1,528.82,235c65,37.75,108.95,108,109.46,188.27,0,.5,0,1,0,1.47,0,80.94-44.08,151.77-109.49,189.75a217.88,217.88,0,0,1-109.74,29.5h-1.37c-120.26-.76-217.88-98.82-217.88-219.25S297.45,206.2,417.71,205.44Z"
                    fill="#656565" opacity="0.68" />
                <path
                    d="M418.29,204.6A217.81,217.81,0,0,1,528,234.11c65,37.75,108.94,108,109.45,188.27,0,.5,0,1,0,1.47,0,80.94-44.08,151.77-109.48,189.75a217.9,217.9,0,0,1-109.74,29.5h-1.38C296.65,642.34,199,544.28,199,423.85S296.65,205.36,416.91,204.6Z"
                    fill="#646464" opacity="0.69" />
                <path
                    d="M417.5,203.76a217.84,217.84,0,0,1,109.74,29.51c65,37.75,108.94,108,109.45,188.27,0,.5,0,1,0,1.47,0,80.94-44.08,151.77-109.48,189.75a217.93,217.93,0,0,1-109.74,29.5h-1.38C295.86,641.5,198.24,543.44,198.24,423s97.62-218.49,217.88-219.25Z"
                    fill="#636363" opacity="0.69" />
                <path
                    d="M416.7,202.92a217.81,217.81,0,0,1,109.74,29.51c65,37.75,108.95,108,109.46,188.27,0,.5,0,1,0,1.47,0,80.94-44.08,151.77-109.49,189.75a217.78,217.78,0,0,1-109.74,29.5h-1.37c-120.26-.76-217.88-98.82-217.88-219.25s97.62-218.49,217.88-219.25Z"
                    fill="#626262" opacity="0.69" />
                <path
                    d="M415.91,202.08a217.81,217.81,0,0,1,109.74,29.51c65,37.75,108.94,108,109.45,188.28,0,.49,0,1,0,1.46,0,80.94-44.08,151.77-109.48,189.75a217.8,217.8,0,0,1-109.74,29.5h-1.38c-120.26-.76-217.87-98.82-217.87-219.25s97.61-218.49,217.87-219.25Z"
                    fill="#616161" opacity="0.7" />
                <path
                    d="M415.12,201.24a217.84,217.84,0,0,1,109.74,29.51c65,37.75,108.94,108,109.45,188.28,0,.5,0,1,0,1.46,0,80.94-44.08,151.77-109.48,189.75a217.84,217.84,0,0,1-109.74,29.51h-1.38C293.48,639,195.86,540.92,195.86,420.49S293.48,202,413.74,201.24Z"
                    fill="#606060" opacity="0.7" />
                <path
                    d="M414.32,200.4a217.81,217.81,0,0,1,109.74,29.51c65,37.75,109,108,109.46,188.28,0,.5,0,1,0,1.46,0,80.94-44.08,151.77-109.49,189.75a217.78,217.78,0,0,1-109.74,29.51H413c-120.26-.77-217.88-98.82-217.88-219.26S292.69,201.16,413,200.4Z"
                    fill="#5f5f5f" opacity="0.7" />
                <path
                    d="M413.53,199.56a217.81,217.81,0,0,1,109.74,29.51c65,37.75,108.94,108,109.45,188.28,0,.5,0,1,0,1.46,0,80.94-44.08,151.77-109.48,189.75a217.81,217.81,0,0,1-109.74,29.51h-1.38c-120.26-.77-217.87-98.82-217.87-219.26s97.61-218.49,217.87-219.25Z"
                    fill="#5e5e5e" opacity="0.71" />
                <path
                    d="M412.74,198.72a217.84,217.84,0,0,1,109.74,29.51c65,37.75,108.94,108,109.45,188.28,0,.5,0,1,0,1.47,0,80.93-44.08,151.76-109.48,189.74a217.84,217.84,0,0,1-109.74,29.51h-1.38C291.1,636.47,193.48,538.41,193.48,418s97.62-218.5,217.88-219.26Z"
                    fill="#5d5d5d" opacity="0.71" />
                <path
                    d="M411.94,197.88a217.81,217.81,0,0,1,109.74,29.51c65,37.75,109,108,109.46,188.28,0,.5,0,1,0,1.47,0,80.93-44.08,151.76-109.49,189.74a217.78,217.78,0,0,1-109.74,29.51h-1.38c-120.25-.76-217.87-98.82-217.87-219.25s97.62-218.49,217.87-219.26Z"
                    fill="#5c5c5c" opacity="0.71" />
                <path
                    d="M411.15,197a217.81,217.81,0,0,1,109.74,29.51c65,37.75,108.94,108,109.45,188.28,0,.5,0,1,0,1.47,0,80.93-44.08,151.76-109.48,189.74a217.81,217.81,0,0,1-109.74,29.51h-1.38c-120.26-.76-217.88-98.82-217.88-219.25S289.51,197.81,409.77,197Z"
                    fill="#5b5b5b" opacity="0.71" />
                <path
                    d="M410.36,196.2A217.84,217.84,0,0,1,520.1,225.71c65,37.76,108.94,108,109.45,188.28,0,.5,0,1,0,1.47,0,80.93-44.08,151.76-109.48,189.74a217.84,217.84,0,0,1-109.74,29.51H409C288.72,634,191.1,535.89,191.1,415.46S288.72,197,409,196.2Z"
                    fill="#5a5a5a" opacity="0.72" />
                <path
                    d="M409.56,195.36A217.91,217.91,0,0,1,519.3,224.87c65,37.76,109,108,109.46,188.28,0,.5,0,1,0,1.47,0,80.93-44.08,151.76-109.49,189.74a217.81,217.81,0,0,1-109.74,29.51h-1.38c-120.25-.76-217.87-98.82-217.87-219.25s97.62-218.49,217.87-219.26Z"
                    fill="#595959" opacity="0.72" />
                <path
                    d="M408.77,194.52A217.91,217.91,0,0,1,518.51,224c65,37.76,108.94,108,109.45,188.28,0,.5,0,1,0,1.47,0,80.93-44.08,151.76-109.48,189.75A217.9,217.9,0,0,1,408.77,633h-1.38c-120.26-.76-217.88-98.82-217.88-219.25s97.62-218.49,217.88-219.26Z"
                    fill="#585858" opacity="0.72" />
                <path
                    d="M408,193.68a217.94,217.94,0,0,1,109.74,29.51c65,37.76,108.94,108,109.45,188.28,0,.5,0,1,0,1.47,0,80.93-44.08,151.76-109.48,189.75A217.93,217.93,0,0,1,408,632.19H406.6c-120.26-.76-217.88-98.82-217.88-219.25S286.34,194.45,406.6,193.68Z"
                    fill="#575757" opacity="0.73" />
                <path
                    d="M407.18,192.84a217.91,217.91,0,0,1,109.74,29.51c65,37.76,109,108,109.46,188.28,0,.5,0,1,0,1.47,0,80.93-44.07,151.76-109.48,189.75a217.9,217.9,0,0,1-109.74,29.5H405.8c-120.25-.76-217.87-98.82-217.87-219.25S285.55,193.61,405.8,192.84Z"
                    fill="#565656" opacity="0.73" />
                <path
                    d="M406.39,192a217.91,217.91,0,0,1,109.74,29.51c65,37.76,108.94,108,109.45,188.28,0,.5,0,1,0,1.47C625.61,492.2,581.53,563,516.13,601a217.9,217.9,0,0,1-109.74,29.5H405c-120.26-.76-217.88-98.82-217.88-219.25S284.75,192.77,405,192Z"
                    fill="#555" opacity="0.73" />
                <path
                    d="M405.6,191.16a217.94,217.94,0,0,1,109.74,29.51c65,37.76,108.94,108,109.45,188.28,0,.5,0,1,0,1.47,0,80.94-44.08,151.76-109.48,189.75a217.93,217.93,0,0,1-109.74,29.5h-1.38C284,628.91,186.34,530.85,186.34,410.42S284,191.93,404.22,191.16Z"
                    fill="#545454" opacity="0.74" />
                <path
                    d="M404.8,190.33a217.81,217.81,0,0,1,109.74,29.51c65,37.75,109,108,109.45,188.27,0,.5,0,1,0,1.47,0,80.94-44.07,151.77-109.48,189.75a217.9,217.9,0,0,1-109.74,29.5h-1.38C283.17,628.07,185.55,530,185.55,409.58s97.62-218.49,217.87-219.25Z"
                    fill="#535353" opacity="0.74" />
                <path
                    d="M404,189.49A217.81,217.81,0,0,1,513.75,219c65,37.75,108.94,108,109.45,188.27,0,.5,0,1,0,1.47,0,80.94-44.08,151.77-109.48,189.75A217.9,217.9,0,0,1,404,628h-1.38c-120.26-.76-217.88-98.82-217.88-219.25s97.62-218.49,217.88-219.25Z"
                    fill="#525252" opacity="0.74" />
                <path
                    d="M403.22,188.65A217.84,217.84,0,0,1,513,218.16c65,37.75,108.94,108,109.45,188.27,0,.5,0,1,0,1.47,0,80.94-44.08,151.77-109.48,189.75a217.93,217.93,0,0,1-109.74,29.5h-1.38C281.58,626.39,184,528.33,184,407.9s97.62-218.49,217.88-219.25Z"
                    fill="#515151" opacity="0.75" />
                <path
                    d="M402.42,187.81a217.81,217.81,0,0,1,109.74,29.51c65,37.75,109,108,109.45,188.27,0,.5,0,1,0,1.47,0,80.94-44.07,151.77-109.48,189.75a217.9,217.9,0,0,1-109.74,29.5H401c-120.25-.76-217.87-98.82-217.87-219.25S280.79,188.57,401,187.81Z"
                    fill="#505050" opacity="0.75" />
                <path
                    d="M401.63,187a217.81,217.81,0,0,1,109.74,29.51c65,37.75,108.94,108,109.45,188.28,0,.49,0,1,0,1.46,0,80.94-44.08,151.77-109.48,189.75a217.8,217.8,0,0,1-109.74,29.5h-1.38C280,624.71,182.37,526.65,182.37,406.22S280,187.73,400.25,187Z"
                    fill="#4f4f4f" opacity="0.75" />
                <path
                    d="M400.83,186.13a217.85,217.85,0,0,1,109.75,29.51c65,37.75,108.94,108,109.45,188.28,0,.49,0,1,0,1.46,0,80.94-44.08,151.77-109.48,189.75a217.84,217.84,0,0,1-109.75,29.5h-1.37c-120.26-.76-217.88-98.82-217.88-219.25S279.2,186.89,399.46,186.13Z"
                    fill="#4e4e4e" opacity="0.76" />
                <path
                    d="M400,185.29A217.81,217.81,0,0,1,509.78,214.8c65,37.75,108.94,108,109.45,188.28,0,.5,0,1,0,1.46,0,80.94-44.07,151.77-109.48,189.75A217.81,217.81,0,0,1,400,623.8h-1.38C278.41,623,180.79,525,180.79,404.54s97.62-218.49,217.87-219.25Z"
                    fill="#4d4d4d" opacity="0.76" />
                <path
                    d="M399.25,184.45A217.81,217.81,0,0,1,509,214c65,37.75,108.94,108,109.45,188.28,0,.5,0,1,0,1.46,0,80.94-44.08,151.77-109.48,189.75A217.81,217.81,0,0,1,399.25,623h-1.38C277.61,622.19,180,524.14,180,403.7s97.62-218.49,217.88-219.25Z"
                    fill="#4c4c4c" opacity="0.76" />
                <path
                    d="M398.45,183.61A217.85,217.85,0,0,1,508.2,213.12c65,37.75,108.94,108,109.45,188.28,0,.5,0,1,0,1.46,0,80.94-44.08,151.77-109.48,189.75a217.85,217.85,0,0,1-109.75,29.51h-1.37C276.82,621.35,179.2,523.3,179.2,402.86s97.62-218.49,217.88-219.25Z"
                    fill="#4b4b4b" opacity="0.76" />
                <path
                    d="M397.66,182.77A217.81,217.81,0,0,1,507.4,212.28c65,37.75,108.94,108,109.45,188.28,0,.5,0,1,0,1.47,0,80.93-44.07,151.76-109.48,189.74a217.81,217.81,0,0,1-109.74,29.51h-1.38C276,620.52,178.41,522.46,178.41,402S276,183.53,396.28,182.77Z"
                    fill="#4a4a4a" opacity="0.77" />
                <path
                    d="M396.87,181.93a217.81,217.81,0,0,1,109.74,29.51c65,37.75,108.94,108,109.45,188.28,0,.5,0,1,0,1.47,0,80.93-44.08,151.76-109.48,189.74a217.81,217.81,0,0,1-109.74,29.51h-1.38c-120.26-.76-217.88-98.82-217.88-219.25S275.23,182.7,395.49,181.93Z"
                    fill="#494949" opacity="0.77" />
                <path
                    d="M396.07,181.09A217.85,217.85,0,0,1,505.82,210.6c65,37.76,108.94,108,109.45,188.28,0,.5,0,1,0,1.47,0,80.93-44.08,151.76-109.48,189.74A217.85,217.85,0,0,1,396.07,619.6H394.7c-120.26-.76-217.88-98.82-217.88-219.25S274.44,181.86,394.7,181.09Z"
                    fill="#484848" opacity="0.77" />
                <path
                    d="M395.28,180.25A217.81,217.81,0,0,1,505,209.76C570,247.52,614,317.72,614.47,398c0,.5,0,1,0,1.47,0,80.93-44.08,151.76-109.48,189.74a217.81,217.81,0,0,1-109.74,29.51H393.9C273.64,618,176,519.94,176,399.51S273.64,181,393.9,180.25Z"
                    fill="#474747" opacity="0.78" />
                <path
                    d="M394.49,179.41a217.81,217.81,0,0,1,109.74,29.51c65,37.76,108.94,108,109.45,188.28,0,.5,0,1,0,1.47,0,80.93-44.08,151.76-109.48,189.74a217.81,217.81,0,0,1-109.74,29.51h-1.38c-120.26-.76-217.88-98.82-217.88-219.25s97.62-218.49,217.88-219.26Z"
                    fill="#464646" opacity="0.78" />
                <path
                    d="M393.69,178.57a218,218,0,0,1,109.75,29.51c65,37.76,108.94,108,109.45,188.28,0,.5,0,1,0,1.47,0,80.93-44.08,151.76-109.48,189.75a217.94,217.94,0,0,1-109.75,29.5h-1.38c-120.25-.76-217.87-98.82-217.87-219.25s97.62-218.49,217.87-219.26Z"
                    fill="#454545" opacity="0.78" />
                <path
                    d="M392.9,177.73a217.91,217.91,0,0,1,109.74,29.51c65,37.76,108.94,108,109.45,188.28,0,.5,0,1,0,1.47,0,80.93-44.08,151.76-109.48,189.75a217.9,217.9,0,0,1-109.74,29.5h-1.38C271.26,615.48,173.65,517.42,173.65,397S271.26,178.5,391.52,177.73Z"
                    fill="#444" opacity="0.79" />
                <path
                    d="M392.11,176.89A217.94,217.94,0,0,1,501.85,206.4c65,37.76,108.94,108,109.45,188.28,0,.5,0,1,0,1.47,0,80.93-44.08,151.76-109.48,189.75a217.93,217.93,0,0,1-109.74,29.5h-1.38c-120.26-.76-217.88-98.82-217.88-219.25s97.62-218.49,217.88-219.26Z"
                    fill="#434343" opacity="0.79" />
                <path
                    d="M391.31,176.05a218,218,0,0,1,109.75,29.51c65,37.76,108.94,108,109.45,188.28,0,.5,0,1,0,1.47,0,80.93-44.08,151.76-109.48,189.75a217.94,217.94,0,0,1-109.75,29.5h-1.38c-120.25-.76-217.87-98.82-217.87-219.25s97.62-218.49,217.87-219.26Z"
                    fill="#424242" opacity="0.79" />
                <path
                    d="M390.52,175.22a217.9,217.9,0,0,1,109.74,29.5c65,37.76,108.94,108,109.45,188.28,0,.5,0,1,0,1.47,0,80.94-44.08,151.76-109.48,189.75a217.9,217.9,0,0,1-109.74,29.5h-1.38C268.88,613,171.27,514.9,171.27,394.47S268.88,176,389.14,175.22Z"
                    fill="#414141" opacity="0.8" />
                <path
                    d="M389.73,174.38a217.84,217.84,0,0,1,109.74,29.51c65,37.75,108.94,108,109.45,188.27,0,.5,0,1,0,1.47,0,80.94-44.08,151.76-109.48,189.75a217.93,217.93,0,0,1-109.74,29.5h-1.38c-120.26-.76-217.88-98.82-217.88-219.25s97.62-218.49,217.88-219.25Z"
                    fill="#404040" opacity="0.8" />
                <path
                    d="M388.93,173.54a217.85,217.85,0,0,1,109.75,29.51c65,37.75,108.94,108,109.45,188.27,0,.5,0,1,0,1.47,0,80.94-44.08,151.76-109.48,189.75A217.94,217.94,0,0,1,388.93,612h-1.38c-120.25-.76-217.87-98.82-217.87-219.25S267.3,174.3,387.55,173.54Z"
                    fill="#3f3f3f" opacity="0.8" />
                <path
                    d="M388.14,172.7a217.81,217.81,0,0,1,109.74,29.51c65,37.75,108.94,108,109.45,188.27,0,.5,0,1,0,1.47,0,80.94-44.08,151.77-109.48,189.75a217.9,217.9,0,0,1-109.74,29.5h-1.38C266.5,610.44,168.88,512.38,168.88,392S266.5,173.46,386.76,172.7Z"
                    fill="#3e3e3e" opacity="0.81" />
                <path
                    d="M387.35,171.86a217.84,217.84,0,0,1,109.74,29.51c65,37.75,108.94,108,109.45,188.27,0,.5,0,1,0,1.47,0,80.94-44.08,151.77-109.48,189.75a217.83,217.83,0,0,1-109.74,29.5H386c-120.26-.76-217.88-98.82-217.88-219.25S265.71,172.62,386,171.86Z"
                    fill="#3d3d3d" opacity="0.81" />
                <path
                    d="M386.55,171A217.85,217.85,0,0,1,496.3,200.53c65,37.75,108.94,108,109.45,188.28,0,.49,0,1,0,1.46C605.77,471.21,561.7,542,496.3,580a217.84,217.84,0,0,1-109.75,29.5h-1.38C264.92,608.76,167.3,510.7,167.3,390.27S264.92,171.78,385.17,171Z"
                    fill="#3c3c3c" opacity="0.81" />
                <path
                    d="M385.76,170.18A217.81,217.81,0,0,1,495.5,199.69c65,37.75,108.94,108,109.45,188.28,0,.49,0,1,0,1.46,0,80.94-44.08,151.77-109.48,189.75a217.81,217.81,0,0,1-109.74,29.51h-1.38c-120.26-.77-217.88-98.83-217.88-219.26s97.62-218.49,217.88-219.25Z"
                    fill="#3b3b3b" opacity="0.81" />
                <path
                    d="M385,169.34a217.84,217.84,0,0,1,109.74,29.51c65,37.75,108.94,108,109.45,188.28,0,.5,0,1,0,1.46,0,80.94-44.08,151.77-109.48,189.75A217.84,217.84,0,0,1,385,607.85h-1.38C263.33,607.08,165.71,509,165.71,388.59S263.33,170.1,383.59,169.34Z"
                    fill="#3a3a3a" opacity="0.82" />
                <path
                    d="M384.17,168.5A217.88,217.88,0,0,1,493.92,198c65,37.75,108.94,108,109.44,188.28,0,.5,0,1,0,1.46,0,80.94-44.07,151.77-109.47,189.75A217.85,217.85,0,0,1,384.17,607h-1.38c-120.25-.77-217.87-98.82-217.87-219.26S262.54,169.26,382.79,168.5Z"
                    fill="#393939" opacity="0.82" />
                <path
                    d="M383.38,167.66a217.81,217.81,0,0,1,109.74,29.51c65,37.75,108.94,108,109.45,188.28,0,.5,0,1,0,1.46,0,80.94-44.08,151.77-109.48,189.75a217.81,217.81,0,0,1-109.74,29.51H382c-120.26-.77-217.88-98.82-217.88-219.26S261.74,168.42,382,167.66Z"
                    fill="#383838" opacity="0.82" />
                <path
                    d="M382.58,166.82a217.85,217.85,0,0,1,109.75,29.51c65,37.76,108.94,108,109.45,188.28,0,.5,0,1,0,1.47,0,80.93-44.08,151.76-109.48,189.74a217.85,217.85,0,0,1-109.75,29.51h-1.37C261,604.57,163.33,506.51,163.33,386.08S261,167.58,381.21,166.82Z"
                    fill="#373737" opacity="0.83" />
                <path
                    d="M381.79,166a217.88,217.88,0,0,1,109.75,29.51c65,37.76,108.94,108,109.44,188.28,0,.5,0,1,0,1.47C601,466.17,556.94,537,491.54,575a217.85,217.85,0,0,1-109.75,29.51h-1.38c-120.25-.76-217.87-98.82-217.87-219.25S260.16,166.75,380.41,166Z"
                    fill="#363636" opacity="0.83" />
                <path
                    d="M381,165.14a217.81,217.81,0,0,1,109.74,29.51c65,37.76,108.94,108,109.45,188.28,0,.5,0,1,0,1.47,0,80.93-44.08,151.76-109.48,189.74A217.81,217.81,0,0,1,381,603.65h-1.38c-120.26-.76-217.88-98.82-217.88-219.25s97.62-218.49,217.88-219.26Z"
                    fill="#353535" opacity="0.83" />
                <path
                    d="M380.2,164.3A217.85,217.85,0,0,1,490,193.81c65,37.76,108.94,108,109.45,188.28,0,.5,0,1,0,1.47,0,80.93-44.08,151.76-109.48,189.74A217.85,217.85,0,0,1,380.2,602.81h-1.37C258.57,602.05,161,504,161,383.56S258.57,165.07,378.83,164.3Z"
                    fill="#343434" opacity="0.84" />
                <path
                    d="M379.41,163.46A217.88,217.88,0,0,1,489.16,193c65,37.76,108.93,108,109.44,188.28,0,.5,0,1,0,1.47,0,80.93-44.07,151.76-109.47,189.74A217.85,217.85,0,0,1,379.41,602H378c-120.25-.76-217.87-98.82-217.87-219.25S257.78,164.23,378,163.46Z"
                    fill="#333" opacity="0.84" />
                <path
                    d="M378.62,162.62a217.91,217.91,0,0,1,109.74,29.51c65,37.76,108.94,108,109.45,188.28,0,.5,0,1,0,1.47,0,80.93-44.08,151.76-109.48,189.74a217.81,217.81,0,0,1-109.74,29.51h-1.38C257,600.37,159.36,502.31,159.36,381.88S257,163.39,377.24,162.62Z"
                    fill="#323232" opacity="0.84" />
                <path
                    d="M377.82,161.78a218,218,0,0,1,109.75,29.51c65,37.76,108.94,108,109.45,188.28,0,.5,0,1,0,1.47C597.05,462,553,532.8,487.57,570.79a217.94,217.94,0,0,1-109.75,29.5h-1.37C256.19,599.53,158.57,501.47,158.57,381s97.62-218.49,217.88-219.26Z"
                    fill="#313131" opacity="0.85" />
                <path
                    d="M377,160.94a218,218,0,0,1,109.75,29.51c65,37.76,108.93,108,109.44,188.28,0,.5,0,1,0,1.47,0,80.93-44.07,151.76-109.47,189.75A217.94,217.94,0,0,1,377,599.45h-1.38c-120.25-.76-217.87-98.82-217.87-219.25S255.4,161.71,375.65,160.94Z"
                    fill="#303030" opacity="0.85" />
                <path
                    d="M376.24,160.11A217.9,217.9,0,0,1,486,189.61c65,37.76,108.94,108,109.45,188.28,0,.5,0,1,0,1.47,0,80.93-44.08,151.76-109.48,189.75a217.9,217.9,0,0,1-109.74,29.5h-1.38C254.6,597.85,157,499.79,157,379.36S254.6,160.87,374.86,160.11Z"
                    fill="#2f2f2f" opacity="0.85" />
                <path
                    d="M375.44,159.27a217.85,217.85,0,0,1,109.75,29.51c65,37.75,108.94,108,109.45,188.27,0,.5,0,1,0,1.47,0,80.93-44.08,151.76-109.48,189.75a217.94,217.94,0,0,1-109.75,29.5h-1.37C253.81,597,156.19,499,156.19,378.52S253.81,160,374.07,159.27Z"
                    fill="#2e2e2e" opacity="0.86" />
                <path
                    d="M374.65,158.43A217.88,217.88,0,0,1,484.4,187.94c65,37.75,108.93,108,109.44,188.27,0,.5,0,1,0,1.47,0,80.94-44.07,151.76-109.47,189.75a218,218,0,0,1-109.75,29.5h-1.38C253,596.17,155.4,498.11,155.4,377.68S253,159.19,373.27,158.43Z"
                    fill="#2d2d2d" opacity="0.86" />
                <path
                    d="M373.86,157.59A217.81,217.81,0,0,1,483.6,187.1c65,37.75,108.94,108,109.45,188.27,0,.5,0,1,0,1.47,0,80.94-44.08,151.76-109.48,189.75a217.9,217.9,0,0,1-109.74,29.5h-1.38c-120.26-.76-217.88-98.82-217.88-219.25s97.62-218.49,217.88-219.25Z"
                    fill="#2c2c2c" opacity="0.86" />
                <path
                    d="M373.06,156.75a217.85,217.85,0,0,1,109.75,29.51c65,37.75,108.94,108,109.45,188.27,0,.5,0,1,0,1.47,0,80.94-44.08,151.76-109.48,189.75a217.84,217.84,0,0,1-109.75,29.5h-1.38C251.43,594.49,153.81,496.43,153.81,376s97.62-218.49,217.87-219.25Z"
                    fill="#2b2b2b" opacity="0.87" />
                <path
                    d="M372.27,155.91A217.88,217.88,0,0,1,482,185.42c65,37.75,108.93,108,109.44,188.28,0,.49,0,1,0,1.46,0,80.94-44.07,151.77-109.47,189.75a217.87,217.87,0,0,1-109.75,29.5h-1.38C250.63,593.65,153,495.59,153,375.16s97.61-218.49,217.87-219.25Z"
                    fill="#2a2a2a" opacity="0.87" />
                <path
                    d="M371.48,155.07a217.81,217.81,0,0,1,109.74,29.51c65,37.75,108.94,108,109.45,188.28,0,.49,0,1,0,1.46,0,80.94-44.08,151.77-109.48,189.75a217.8,217.8,0,0,1-109.74,29.5H370.1c-120.26-.76-217.88-98.82-217.88-219.25S249.84,155.83,370.1,155.07Z"
                    fill="#292929" opacity="0.87" />
                <path
                    d="M370.68,154.23a217.85,217.85,0,0,1,109.75,29.51c65,37.75,108.94,108,109.45,188.28,0,.49,0,1,0,1.46,0,80.94-44.08,151.77-109.48,189.75a217.85,217.85,0,0,1-109.75,29.51H369.3C249.05,592,151.43,493.91,151.43,373.48S249.05,155,369.3,154.23Z"
                    fill="#282828" opacity="0.87" />
                <path
                    d="M369.89,153.39A217.88,217.88,0,0,1,479.64,182.9c65,37.75,108.93,108,109.44,188.28,0,.5,0,1,0,1.46,0,80.94-44.07,151.77-109.47,189.75A217.88,217.88,0,0,1,369.89,591.9h-1.38c-120.26-.77-217.87-98.82-217.87-219.26s97.61-218.49,217.87-219.25Z"
                    fill="#272727" opacity="0.88" />
                <path
                    d="M369.1,152.55a217.81,217.81,0,0,1,109.74,29.51c65,37.76,108.94,108,109.45,188.28,0,.5,0,1,0,1.46,0,80.94-44.08,151.77-109.48,189.75A217.81,217.81,0,0,1,369.1,591.06h-1.38c-120.26-.77-217.88-98.82-217.88-219.26s97.62-218.49,217.88-219.25Z"
                    fill="#262626" opacity="0.88" />
                <path
                    d="M368.3,151.71a217.85,217.85,0,0,1,109.75,29.51C543.05,219,587,289.18,587.5,369.5c0,.5,0,1,0,1.46,0,80.94-44.08,151.77-109.48,189.75A217.85,217.85,0,0,1,368.3,590.22h-1.38C246.67,589.45,149.05,491.4,149.05,371s97.62-218.49,217.87-219.25Z"
                    fill="#252525" opacity="0.88" />
                <path
                    d="M367.51,150.87a217.88,217.88,0,0,1,109.75,29.51c65,37.76,108.93,108,109.44,188.28,0,.5,0,1,0,1.47,0,80.93-44.07,151.76-109.47,189.74a217.88,217.88,0,0,1-109.75,29.51h-1.38c-120.26-.76-217.87-98.82-217.87-219.25s97.61-218.5,217.87-219.26Z"
                    fill="#242424" opacity="0.89" />
                <path
                    d="M366.72,150a217.81,217.81,0,0,1,109.74,29.51c65,37.76,108.94,108,109.45,188.28,0,.5,0,1,0,1.47,0,80.93-44.08,151.76-109.48,189.74a217.81,217.81,0,0,1-109.74,29.51h-1.38c-120.26-.76-217.88-98.82-217.88-219.25S245.08,150.8,365.34,150Z"
                    fill="#232323" opacity="0.89" />
                <path
                    d="M365.92,149.19A217.85,217.85,0,0,1,475.67,178.7c65,37.76,108.94,108,109.45,188.28,0,.5,0,1,0,1.47,0,80.93-44.07,151.76-109.47,189.74A217.85,217.85,0,0,1,365.92,587.7h-1.38c-120.25-.76-217.87-98.82-217.87-219.25S244.29,150,364.54,149.19Z"
                    fill="#222" opacity="0.89" />
                <path
                    d="M365.13,148.35a217.88,217.88,0,0,1,109.75,29.51c65,37.76,108.93,108,109.44,188.28,0,.5,0,1,0,1.47,0,80.93-44.07,151.76-109.47,189.74a217.88,217.88,0,0,1-109.75,29.51h-1.38C243.49,586.1,145.87,488,145.87,367.61s97.62-218.49,217.88-219.26Z"
                    fill="#212121" opacity="0.9" />
                <path
                    d="M364.33,147.51A217.82,217.82,0,0,1,474.08,177c65,37.76,108.94,108,109.45,188.28,0,.5,0,1,0,1.47,0,80.93-44.08,151.76-109.48,189.74A217.82,217.82,0,0,1,364.33,586H363c-120.26-.76-217.88-98.82-217.88-219.25S242.7,148.28,363,147.51Z"
                    fill="#202020" opacity="0.9" />
                <path
                    d="M363.54,146.67a217.85,217.85,0,0,1,109.75,29.51c65,37.76,108.94,108,109.45,188.28,0,.5,0,1,0,1.47,0,80.93-44.07,151.76-109.47,189.74a217.85,217.85,0,0,1-109.75,29.51h-1.38c-120.25-.76-217.87-98.82-217.87-219.25s97.62-218.49,217.87-219.26Z"
                    fill="#1f1f1f" opacity="0.9" />
                <path
                    d="M362.75,145.83A218,218,0,0,1,472.5,175.34c65,37.76,108.93,108,109.44,188.28,0,.5,0,1,0,1.47C582,446,537.9,516.85,472.5,554.84a218,218,0,0,1-109.75,29.5h-1.38c-120.26-.76-217.88-98.82-217.88-219.25S241.11,146.6,361.37,145.83Z"
                    fill="#1e1e1e" opacity="0.91" />
                <path
                    d="M362,145A217.91,217.91,0,0,1,471.7,174.5c65,37.76,108.94,108,109.45,188.28,0,.5,0,1,0,1.47C581.18,445.18,537.1,516,471.7,554A217.91,217.91,0,0,1,362,583.5h-1.37c-120.26-.76-217.88-98.82-217.88-219.25S240.32,145.76,360.58,145Z"
                    fill="#1d1d1d" opacity="0.91" />
                <path
                    d="M361.16,144.16a217.85,217.85,0,0,1,109.75,29.51c65,37.75,108.94,108,109.44,188.27,0,.5,0,1,0,1.47,0,80.93-44.07,151.76-109.47,189.75a217.94,217.94,0,0,1-109.75,29.5h-1.38c-120.25-.76-217.87-98.82-217.87-219.25s97.62-218.49,217.87-219.25Z"
                    fill="#1c1c1c" opacity="0.91" />
                <path
                    d="M360.37,143.32a217.88,217.88,0,0,1,109.75,29.51c65,37.75,108.93,107.95,109.44,188.27,0,.5,0,1,0,1.47,0,80.93-44.07,151.76-109.47,189.75a218,218,0,0,1-109.75,29.5H359C238.73,581.06,141.11,483,141.11,362.57S238.73,144.08,359,143.32Z"
                    fill="#1b1b1b" opacity="0.92" />
                <path
                    d="M359.57,142.48A217.82,217.82,0,0,1,469.32,172c65,37.75,108.94,108,109.45,188.27,0,.5,0,1,0,1.47,0,80.93-44.08,151.76-109.48,189.75A217.91,217.91,0,0,1,359.57,581H358.2c-120.26-.76-217.88-98.82-217.88-219.25S237.94,143.24,358.2,142.48Z"
                    fill="#1a1a1a" opacity="0.92" />
                <path
                    d="M358.78,141.64a217.85,217.85,0,0,1,109.75,29.51c65,37.75,108.93,108,109.44,188.27,0,.5,0,1,0,1.47,0,80.94-44.07,151.76-109.47,189.75a217.94,217.94,0,0,1-109.75,29.5H357.4c-120.25-.76-217.87-98.82-217.87-219.25S237.15,142.4,357.4,141.64Z"
                    fill="#191919" opacity="0.92" />
                <path
                    d="M358,140.8a217.88,217.88,0,0,1,109.75,29.51c65,37.75,108.93,108,109.44,188.27,0,.5,0,1,0,1.47,0,80.94-44.07,151.76-109.47,189.75A217.87,217.87,0,0,1,358,579.3h-1.38c-120.26-.76-217.88-98.82-217.88-219.25S236.35,141.56,356.61,140.8Z"
                    fill="#181818" opacity="0.92" />
                <path
                    d="M357.19,140a217.82,217.82,0,0,1,109.75,29.51c65,37.75,108.94,108,109.45,188.28,0,.49,0,1,0,1.46,0,80.94-44.08,151.76-109.48,189.75a217.81,217.81,0,0,1-109.75,29.5h-1.37c-120.26-.76-217.88-98.82-217.88-219.25S235.56,140.72,355.82,140Z"
                    fill="#171717" opacity="0.93" />
                <path
                    d="M356.4,139.12a217.85,217.85,0,0,1,109.75,29.51c65,37.75,108.93,108,109.44,188.28,0,.49,0,1,0,1.46,0,80.94-44.07,151.77-109.47,189.75a217.84,217.84,0,0,1-109.75,29.5H355c-120.25-.76-217.87-98.82-217.87-219.25S234.77,139.88,355,139.12Z"
                    fill="#161616" opacity="0.93" />
                <path
                    d="M355.61,138.28a217.88,217.88,0,0,1,109.75,29.51c65,37.75,108.93,108,109.44,188.28,0,.5,0,1,0,1.46,0,80.94-44.07,151.77-109.47,189.75a217.88,217.88,0,0,1-109.75,29.51h-1.38C234,576,136.35,478,136.35,357.53S234,139,354.23,138.28Z"
                    fill="#151515" opacity="0.93" />
                <path
                    d="M354.81,137.44A217.82,217.82,0,0,1,464.56,167c65,37.76,108.94,108,109.45,188.28,0,.5,0,1,0,1.46,0,80.94-44.08,151.77-109.48,189.75A217.82,217.82,0,0,1,354.81,576h-1.38c-120.25-.77-217.87-98.82-217.87-219.26S233.18,138.2,353.43,137.44Z"
                    fill="#141414" opacity="0.94" />
                <path
                    d="M354,136.6a217.85,217.85,0,0,1,109.75,29.51c65,37.76,108.93,108,109.44,188.28,0,.5,0,1,0,1.46,0,80.94-44.07,151.77-109.47,189.75A217.85,217.85,0,0,1,354,575.11h-1.38c-120.25-.77-217.87-98.82-217.87-219.26S232.39,137.36,352.64,136.6Z"
                    fill="#131313" opacity="0.94" />
                <path
                    d="M353.23,135.76A217.88,217.88,0,0,1,463,165.27c65,37.76,108.93,108,109.44,188.28,0,.5,0,1,0,1.46,0,80.94-44.08,151.77-109.47,189.75a217.88,217.88,0,0,1-109.75,29.51h-1.38C231.59,573.5,134,475.45,134,355s97.62-218.49,217.88-219.25Z"
                    fill="#121212" opacity="0.94" />
                <path
                    d="M352.43,134.92a217.82,217.82,0,0,1,109.75,29.51c65,37.76,108.94,108,109.45,188.28,0,.5,0,1,0,1.47,0,80.93-44.08,151.76-109.48,189.74a217.82,217.82,0,0,1-109.75,29.51h-1.38c-120.25-.76-217.87-98.82-217.87-219.25s97.62-218.5,217.87-219.26Z"
                    fill="#111" opacity="0.95" />
                <path
                    d="M351.64,134.08a217.85,217.85,0,0,1,109.75,29.51c65,37.76,108.93,108,109.44,188.28,0,.5,0,1,0,1.47,0,80.93-44.07,151.76-109.47,189.74a217.85,217.85,0,0,1-109.75,29.51h-1.38C230,571.83,132.39,473.77,132.39,353.34S230,134.85,350.26,134.08Z"
                    fill="#101010" opacity="0.95" />
                <path
                    d="M350.85,133.24A217.88,217.88,0,0,1,460.6,162.75c65,37.76,108.93,108,109.44,188.28,0,.5,0,1,0,1.47,0,80.93-44.08,151.76-109.47,189.74a217.88,217.88,0,0,1-109.75,29.51h-1.38C229.21,571,131.59,472.93,131.59,352.5S229.21,134,349.47,133.24Z"
                    fill="#0f0f0f" opacity="0.95" />
                <path
                    d="M350.05,132.4A217.82,217.82,0,0,1,459.8,161.91c65,37.76,108.94,108,109.45,188.28,0,.5,0,1,0,1.47,0,80.93-44.08,151.76-109.48,189.74a217.82,217.82,0,0,1-109.75,29.51h-1.38c-120.25-.76-217.87-98.82-217.87-219.25S228.42,133.17,348.67,132.4Z"
                    fill="#0e0e0e" opacity="0.96" />
                <path
                    d="M349.26,131.56A217.88,217.88,0,0,1,459,161.07c65,37.76,108.93,108,109.44,188.28,0,.5,0,1,0,1.47,0,80.93-44.07,151.76-109.47,189.74a217.85,217.85,0,0,1-109.75,29.51h-1.38C227.62,569.31,130,471.25,130,350.82s97.61-218.49,217.87-219.26Z"
                    fill="#0d0d0d" opacity="0.96" />
                <path
                    d="M348.47,130.72a217.88,217.88,0,0,1,109.75,29.51c65,37.76,108.93,108,109.44,188.28,0,.5,0,1,0,1.47,0,80.93-44.08,151.76-109.47,189.74a217.88,217.88,0,0,1-109.75,29.51h-1.38C226.83,568.47,129.21,470.41,129.21,350s97.62-218.49,217.88-219.26Z"
                    fill="#0c0c0c" opacity="0.96" />
                <path
                    d="M347.67,129.89a217.91,217.91,0,0,1,109.75,29.5c65,37.76,108.94,108,109.45,188.28,0,.5,0,1,0,1.47,0,80.93-44.08,151.76-109.48,189.74a217.82,217.82,0,0,1-109.75,29.51h-1.38C226,567.63,128.42,469.57,128.42,349.14S226,130.65,346.29,129.89Z"
                    fill="#0b0b0b" opacity="0.97" />
                <path
                    d="M346.88,129.05a217.88,217.88,0,0,1,109.75,29.51c65,37.75,108.93,108,109.44,188.27,0,.5,0,1,0,1.47,0,80.93-44.07,151.76-109.47,189.75a217.94,217.94,0,0,1-109.75,29.5H345.5c-120.26-.76-217.87-98.82-217.87-219.25S225.24,129.81,345.5,129.05Z"
                    fill="#0a0a0a" opacity="0.97" />
                <path
                    d="M346.08,128.21a217.88,217.88,0,0,1,109.76,29.51c65,37.75,108.93,108,109.44,188.27,0,.5,0,1,0,1.47,0,80.93-44.08,151.76-109.47,189.75a218,218,0,0,1-109.76,29.5h-1.37C224.45,566,126.83,467.89,126.83,347.46S224.45,129,344.71,128.21Z"
                    fill="#090909" opacity="0.97" />
                <path
                    d="M345.29,127.37A217.82,217.82,0,0,1,455,156.88c65,37.75,108.94,108,109.45,188.27,0,.5,0,1,0,1.47,0,80.93-44.07,151.76-109.47,189.75a217.91,217.91,0,0,1-109.75,29.5h-1.38C223.66,565.11,126,467.05,126,346.62s97.62-218.49,217.87-219.25Z"
                    fill="#080808" opacity="0.97" />
                <path
                    d="M344.5,126.53A217.88,217.88,0,0,1,454.25,156c65,37.75,108.93,108,109.44,188.27,0,.5,0,1,0,1.47,0,80.93-44.07,151.76-109.47,189.75A217.94,217.94,0,0,1,344.5,565h-1.38c-120.26-.76-217.87-98.82-217.87-219.25s97.61-218.49,217.87-219.25Z"
                    fill="#070707" opacity="0.98" />
                <path
                    d="M343.7,125.69A217.88,217.88,0,0,1,453.46,155.2c65,37.75,108.93,108,109.44,188.27,0,.5,0,1,0,1.47,0,80.93-44.08,151.76-109.48,189.75a217.81,217.81,0,0,1-109.75,29.5h-1.37c-120.26-.76-217.88-98.82-217.88-219.25s97.62-218.49,217.88-219.25Z"
                    fill="#060606" opacity="0.98" />
                <path
                    d="M342.91,124.85a217.82,217.82,0,0,1,109.75,29.51c65,37.75,108.94,108,109.45,188.28,0,.49,0,1,0,1.46,0,80.94-44.07,151.76-109.47,189.75a217.81,217.81,0,0,1-109.75,29.5h-1.38c-120.25-.76-217.87-98.82-217.87-219.25s97.62-218.49,217.87-219.25Z"
                    fill="#050505" opacity="0.98" />
                <path
                    d="M342.12,124a217.88,217.88,0,0,1,109.75,29.51c65,37.75,108.93,108,109.44,188.28,0,.49,0,1,0,1.46C561.34,424.2,517.27,495,451.87,533a217.84,217.84,0,0,1-109.75,29.5h-1.38c-120.26-.76-217.88-98.82-217.88-219.25S220.48,124.77,340.74,124Z"
                    fill="#040404" opacity="0.99" />
                <path
                    d="M341.32,123.17a217.88,217.88,0,0,1,109.76,29.51c65,37.76,108.93,108,109.44,188.28,0,.49,0,1,0,1.46,0,80.94-44.08,151.76-109.48,189.75a217.82,217.82,0,0,1-109.75,29.51H340c-120.26-.77-217.88-98.83-217.88-219.26S219.69,123.93,340,123.17Z"
                    fill="#030303" opacity="0.99" />
                <path
                    d="M340.53,122.33a217.82,217.82,0,0,1,109.75,29.51c65,37.76,108.94,108,109.44,188.28,0,.5,0,1,0,1.46,0,80.94-44.07,151.77-109.47,189.75a217.82,217.82,0,0,1-109.75,29.51h-1.38C218.9,560.07,121.28,462,121.28,341.58S218.9,123.09,339.15,122.33Z"
                    fill="#020202" opacity="0.99" />
                <path
                    d="M339.74,121.49A217.88,217.88,0,0,1,449.49,151c65,37.76,108.93,108,109.44,188.28,0,.5,0,1,0,1.46,0,80.94-44.07,151.77-109.47,189.75A217.85,217.85,0,0,1,339.74,560h-1.38c-120.26-.77-217.88-98.82-217.88-219.26S218.1,122.25,338.36,121.49Z"
                    fill="#010101" />
                <path
                    d="M558.17,339.9c0,120.91-98.35,219.26-219.23,219.26h-1.37c-120.26-.77-217.88-98.82-217.88-219.26s97.62-218.49,217.88-219.25h1.37c120.38,0,218.44,97.56,219.2,217.79C558.17,338.94,558.17,339.41,558.17,339.9Z" />
            </g>
            <g>
                <path
                    d="M558,337.73c0,121.6-98.92,220.52-220.49,220.52h-1.38C215.18,557.48,117,458.86,117,337.73S215.18,118,336.13,117.22h1.38c121.07,0,219.7,98.12,220.46,219C558,336.76,558,337.23,558,337.73Z"
                    fill="url(#3b52aa36-ca20-43c4-9b79-32e0a4ad79a0)" />
                <path
                    d="M336.13,543.5c-112.66-.71-204.39-93-204.39-205.77s91.73-205,204.48-205.77h1.29c112.72,0,205,91.69,205.72,204.39v.4l0,.4v.58c0,113.46-92.3,205.77-205.75,205.77Z"
                    fill="url(#c80af6ed-1449-4dd0-ab9d-25b74efa1958)" />
            </g>
            <g>
                <g>
                    <rect x="269.14" y="298.5" width="55.1" height="164.12" rx="14.07" ry="14.07"
                        transform="translate(355.99 -98.32) rotate(45)" />
                    <rect x="364.09" y="231.68" width="9.38" height="155.91" rx="4.69" ry="4.69"
                        transform="translate(326.96 -170.07) rotate(45)" />
                </g>
                <path
                    d="M445.42,236.17,441,231.74a5,5,0,0,0-5.52-1.08l-27.41,11.59a2.25,2.25,0,0,0-1.22,3,4.66,4.66,0,0,0,1,1.42l24,24h0a2.24,2.24,0,0,0,3.67-.77l11-28.35A5,5,0,0,0,445.42,236.17Z" />
            </g>
</svg>